version 1
nodes
0 "root" -1
end
skeleton
time 0
0 0 0 0 0 0 0
end
triangles
buffer_ring
0  70.000000 0.000000 -6.000000  0.894251 -0.000404 -0.447565  0.000000 0.000000 0
0  72.375473 6.656836 0.000000  0.879671 0.164163 -0.446351  0.087585 0.500000 0
0  73.000000 0.000000 0.000000  0.894256 -0.000362 -0.447557  0.000000 0.500000 0
buffer_ring
0  69.401138 6.265257 -6.000000  0.878282 0.168084 -0.447625  0.085974 0.000000 0
0  70.512589 13.199771 0.000000  0.837299 0.318564 -0.444351  0.176715 0.500000 0
0  72.375473 6.656836 0.000000  0.879671 0.164163 -0.446351  0.087585 0.500000 0
buffer_ring
0  67.614807 12.423314 -6.000000  0.833595 0.325065 -0.446602  0.173520 0.000000 0
0  67.443207 19.516855 0.000000  0.772884 0.455106 -0.442187  0.268992 0.500000 0
0  70.512589 13.199771 0.000000  0.837299 0.318564 -0.444351  0.176715 0.500000 0
buffer_ring
0  64.671570 18.368805 -6.000000  0.766850 0.462420 -0.445094  0.264271 0.000000 0
0  63.219856 25.500000 0.000000  0.693648 0.569928 -0.440493  0.366115 0.500000 0
0  67.443207 19.516855 0.000000  0.772884 0.455106 -0.442187  0.268992 0.500000 0
buffer_ring
0  60.621777 24.000000 -6.000000  0.685983 0.576631 -0.443761  0.359975 0.000000 0
0  57.914795 31.046833 0.000000  0.606251 0.662687 -0.439665  0.469913 0.500000 0
0  63.219856 25.500000 0.000000  0.693648 0.569928 -0.440493  0.366115 0.500000 0
buffer_ring
0  55.534733 29.220549 -6.000000  0.597916 0.667993 -0.443038  0.462531 0.000000 0
0  51.618793 36.062447 0.000000  0.515693 0.735286 -0.439790  0.582322 0.500000 0
0  57.914795 31.046833 0.000000  0.606251 0.662687 -0.439665  0.469913 0.500000 0
buffer_ring
0  49.497475 33.941124 -6.000000  0.507555 0.738980 -0.443053  0.573983 0.000000 0
0  44.439583 40.461021 0.000000  0.425135 0.790591 -0.440711  0.705283 0.500000 0
0  51.618793 36.062447 0.000000  0.515693 0.735286 -0.439790  0.582322 0.500000 0
buffer_ring
0  42.613300 38.080959 -6.000000  0.417826 0.792819 -0.443688  0.696421 0.000000 0
0  36.500000 44.167297 0.000000  0.336219 0.831546 -0.442140  0.840493 0.500000 0
0  44.439583 40.461021 0.000000  0.425135 0.790591 -0.440711  0.705283 0.500000 0
buffer_ring
0  35.000000 41.569218 -6.000000  0.330134 0.832623 -0.444692  0.831728 0.000000 0
0  27.935890 47.117855 0.000000  0.249520 0.860714 -0.443746  0.988943 0.500000 0
0  36.500000 44.167297 0.000000  0.336219 0.831546 -0.442140  0.840493 0.500000 0
buffer_ring
0  26.787840 44.346218 -6.000000  0.244873 0.861006 -0.445765  0.981091 0.000000 0
0  18.893791 49.262218 0.000000  0.164927 0.880093 -0.445236  1.150274 0.500000 0
0  27.935890 47.117855 0.000000  0.249520 0.860714 -0.443746  0.988943 0.500000 0
buffer_ring
0  18.117332 46.364441 -6.000000  0.161811 0.879960 -0.446639  1.144274 0.000000 0
0  9.528412 50.563686 0.000000  0.081924 0.891086 -0.446378  1.322135 0.500000 0
0  18.893791 49.262218 0.000000  0.164927 0.880093 -0.445236  1.150274 0.500000 0
buffer_ring
0  9.136833 47.589352 -6.000000  0.080367 0.890865 -0.447103  1.318864 0.000000 0
0  0.000000 51.000000 0.000000  -0.000221 0.894520 -0.447027  1.500000 0.500000 0
0  9.528412 50.563686 0.000000  0.081924 0.891086 -0.446378  1.322135 0.500000 0
buffer_ring
0  0.000000 48.000000 -6.000000  -0.000236 0.894521 -0.447026  1.500000 0.000000 0
0  -9.528412 50.563686 0.000000  -0.082333 0.890672 -0.447130  1.677865 0.500000 0
0  0.000000 51.000000 0.000000  -0.000221 0.894520 -0.447027  1.500000 0.500000 0
buffer_ring
0  -9.136833 47.589352 -6.000000  -0.080851 0.891189 -0.446369  1.681136 0.000000 0
0  -18.893791 49.262218 0.000000  -0.165238 0.879281 -0.446723  1.849726 0.500000 0
0  -9.528412 50.563686 0.000000  -0.082333 0.890672 -0.447130  1.677865 0.500000 0
buffer_ring
0  -18.117332 46.364441 -6.000000  -0.162335 0.880602 -0.445182  1.855726 0.000000 0
0  -27.935890 47.117855 0.000000  -0.249663 0.859542 -0.445934  2.011057 0.500000 0
0  -18.893791 49.262218 0.000000  -0.165238 0.879281 -0.446723  1.849726 0.500000 0
buffer_ring
0  -26.787840 44.346218 -6.000000  -0.245464 0.861947 -0.443616  2.018909 0.000000 0
0  -36.500000 44.167297 0.000000  -0.336120 0.830079 -0.444963  2.159507 0.500000 0
0  -27.935890 47.117855 0.000000  -0.249663 0.859542 -0.445934  2.011057 0.500000 0
buffer_ring
0  -35.000000 41.569218 -6.000000  -0.330825 0.833833 -0.441903  2.168272 0.000000 0
0  -44.439583 40.461021 0.000000  -0.424724 0.788932 -0.444068  2.294717 0.500000 0
0  -36.500000 44.167297 0.000000  -0.336120 0.830079 -0.444963  2.159507 0.500000 0
buffer_ring
0  -42.613300 38.080959 -6.000000  -0.418643 0.794246 -0.440353  2.303579 0.000000 0
0  -51.618793 36.062447 0.000000  -0.514922 0.733584 -0.443520  2.417678 0.500000 0
0  -44.439583 40.461021 0.000000  -0.424724 0.788932 -0.444068  2.294717 0.500000 0
buffer_ring
0  -49.497475 33.941124 -6.000000  -0.508517 0.740552 -0.439311  2.426017 0.000000 0
0  -57.914795 31.046833 0.000000  -0.605115 0.661137 -0.443547  2.530087 0.500000 0
0  -51.618793 36.062447 0.000000  -0.514922 0.733584 -0.443520  2.417678 0.500000 0
buffer_ring
0  -55.534733 29.220549 -6.000000  -0.599013 0.669607 -0.439102  2.537469 0.000000 0
0  -63.219856 25.500000 0.000000  -0.692229 0.568747 -0.444236  2.633885 0.500000 0
0  -57.914795 31.046833 0.000000  -0.605115 0.661137 -0.443547  2.530087 0.500000 0
buffer_ring
0  -60.621777 24.000000 -6.000000  -0.687163 0.578169 -0.439918  2.640025 0.000000 0
0  -67.443207 19.516855 0.000000  -0.771376 0.454484 -0.445446  2.731008 0.500000 0
0  -63.219856 25.500000 0.000000  -0.692229 0.568747 -0.444236  2.633885 0.500000 0
buffer_ring
0  -64.671570 18.368805 -6.000000  -0.767994 0.463774 -0.441700  2.735729 0.000000 0
0  -70.512589 13.199771 0.000000  -0.836003 0.318574 -0.446777  2.823285 0.500000 0
0  -67.443207 19.516855 0.000000  -0.771376 0.454484 -0.445446  2.731008 0.500000 0
buffer_ring
0  -67.614807 12.423314 -6.000000  -0.834528 0.326173 -0.444044  2.826480 0.000000 0
0  -72.375473 6.656836 0.000000  -0.878913 0.164687 -0.447649  2.912416 0.500000 0
0  -70.512589 13.199771 0.000000  -0.836003 0.318574 -0.446777  2.823285 0.500000 0
buffer_ring
0  -69.401138 6.265257 -6.000000  -0.878813 0.168980 -0.446243  2.914026 0.000000 0
0  -73.000000 0.000000 0.000000  -0.894256 0.000362 -0.447557  3.000000 0.500000 0
0  -72.375473 6.656836 0.000000  -0.878913 0.164687 -0.447649  2.912416 0.500000 0
buffer_ring
0  -70.000000 0.000000 -6.000000  -0.894251 0.000404 -0.447565  3.000000 0.000000 0
0  -72.375473 -6.656836 0.000000  -0.879671 -0.164163 -0.446351  3.087584 0.500000 0
0  -73.000000 0.000000 0.000000  -0.894256 0.000362 -0.447557  3.000000 0.500000 0
buffer_ring
0  -69.401138 -6.265257 -6.000000  -0.878282 -0.168084 -0.447625  3.085974 0.000000 0
0  -70.512589 -13.199771 0.000000  -0.837299 -0.318564 -0.444351  3.176715 0.500000 0
0  -72.375473 -6.656836 0.000000  -0.879671 -0.164163 -0.446351  3.087584 0.500000 0
buffer_ring
0  -67.614807 -12.423314 -6.000000  -0.833595 -0.325065 -0.446602  3.173520 0.000000 0
0  -67.443207 -19.516855 0.000000  -0.772884 -0.455106 -0.442187  3.268992 0.500000 0
0  -70.512589 -13.199771 0.000000  -0.837299 -0.318564 -0.444351  3.176715 0.500000 0
buffer_ring
0  -64.671570 -18.368805 -6.000000  -0.766850 -0.462420 -0.445094  3.264271 0.000000 0
0  -63.219856 -25.500000 0.000000  -0.693648 -0.569928 -0.440493  3.366115 0.500000 0
0  -67.443207 -19.516855 0.000000  -0.772884 -0.455106 -0.442187  3.268992 0.500000 0
buffer_ring
0  -60.621777 -24.000000 -6.000000  -0.685983 -0.576631 -0.443761  3.359975 0.000000 0
0  -57.914795 -31.046833 0.000000  -0.606251 -0.662687 -0.439665  3.469913 0.500000 0
0  -63.219856 -25.500000 0.000000  -0.693648 -0.569928 -0.440493  3.366115 0.500000 0
buffer_ring
0  -55.534733 -29.220549 -6.000000  -0.597916 -0.667993 -0.443038  3.462531 0.000000 0
0  -51.618793 -36.062447 0.000000  -0.515693 -0.735286 -0.439790  3.582322 0.500000 0
0  -57.914795 -31.046833 0.000000  -0.606251 -0.662687 -0.439665  3.469913 0.500000 0
buffer_ring
0  -49.497475 -33.941124 -6.000000  -0.507555 -0.738980 -0.443053  3.573983 0.000000 0
0  -44.439583 -40.461021 0.000000  -0.425135 -0.790591 -0.440711  3.705283 0.500000 0
0  -51.618793 -36.062447 0.000000  -0.515693 -0.735286 -0.439790  3.582322 0.500000 0
buffer_ring
0  -42.613300 -38.080959 -6.000000  -0.417826 -0.792819 -0.443688  3.696421 0.000000 0
0  -36.500000 -44.167297 0.000000  -0.336219 -0.831546 -0.442140  3.840493 0.500000 0
0  -44.439583 -40.461021 0.000000  -0.425135 -0.790591 -0.440711  3.705283 0.500000 0
buffer_ring
0  -35.000000 -41.569218 -6.000000  -0.330134 -0.832623 -0.444692  3.831728 0.000000 0
0  -27.935890 -47.117855 0.000000  -0.249520 -0.860714 -0.443746  3.988943 0.500000 0
0  -36.500000 -44.167297 0.000000  -0.336219 -0.831546 -0.442140  3.840493 0.500000 0
buffer_ring
0  -26.787840 -44.346218 -6.000000  -0.244873 -0.861006 -0.445765  3.981091 0.000000 0
0  -18.893791 -49.262218 0.000000  -0.164927 -0.880093 -0.445236  4.150274 0.500000 0
0  -27.935890 -47.117855 0.000000  -0.249520 -0.860714 -0.443746  3.988943 0.500000 0
buffer_ring
0  -18.117332 -46.364441 -6.000000  -0.161811 -0.879960 -0.446639  4.144275 0.000000 0
0  -9.528412 -50.563686 0.000000  -0.081924 -0.891086 -0.446378  4.322135 0.500000 0
0  -18.893791 -49.262218 0.000000  -0.164927 -0.880093 -0.445236  4.150274 0.500000 0
buffer_ring
0  -9.136833 -47.589352 -6.000000  -0.080367 -0.890865 -0.447103  4.318864 0.000000 0
0  -0.000000 -51.000000 0.000000  0.000221 -0.894520 -0.447027  4.500000 0.500000 0
0  -9.528412 -50.563686 0.000000  -0.081924 -0.891086 -0.446378  4.322135 0.500000 0
buffer_ring
0  -0.000000 -48.000000 -6.000000  0.000236 -0.894521 -0.447026  4.500000 0.000000 0
0  9.528412 -50.563686 0.000000  0.082333 -0.890672 -0.447130  4.677865 0.500000 0
0  -0.000000 -51.000000 0.000000  0.000221 -0.894520 -0.447027  4.500000 0.500000 0
buffer_ring
0  9.136833 -47.589352 -6.000000  0.080851 -0.891189 -0.446369  4.681136 0.000000 0
0  18.893791 -49.262218 0.000000  0.165238 -0.879281 -0.446723  4.849726 0.500000 0
0  9.528412 -50.563686 0.000000  0.082333 -0.890672 -0.447130  4.677865 0.500000 0
buffer_ring
0  18.117332 -46.364441 -6.000000  0.162335 -0.880602 -0.445182  4.855725 0.000000 0
0  27.935890 -47.117855 0.000000  0.249663 -0.859542 -0.445934  5.011057 0.500000 0
0  18.893791 -49.262218 0.000000  0.165238 -0.879281 -0.446723  4.849726 0.500000 0
buffer_ring
0  26.787840 -44.346218 -6.000000  0.245464 -0.861947 -0.443616  5.018909 0.000000 0
0  36.500000 -44.167297 0.000000  0.336120 -0.830079 -0.444963  5.159507 0.500000 0
0  27.935890 -47.117855 0.000000  0.249663 -0.859542 -0.445934  5.011057 0.500000 0
buffer_ring
0  35.000000 -41.569218 -6.000000  0.330825 -0.833833 -0.441903  5.168272 0.000000 0
0  44.439583 -40.461021 0.000000  0.424724 -0.788932 -0.444068  5.294717 0.500000 0
0  36.500000 -44.167297 0.000000  0.336120 -0.830079 -0.444963  5.159507 0.500000 0
buffer_ring
0  42.613300 -38.080959 -6.000000  0.418643 -0.794246 -0.440353  5.303579 0.000000 0
0  51.618793 -36.062447 0.000000  0.514922 -0.733584 -0.443520  5.417678 0.500000 0
0  44.439583 -40.461021 0.000000  0.424724 -0.788932 -0.444068  5.294717 0.500000 0
buffer_ring
0  49.497475 -33.941124 -6.000000  0.508517 -0.740552 -0.439311  5.426017 0.000000 0
0  57.914795 -31.046833 0.000000  0.605115 -0.661137 -0.443547  5.530087 0.500000 0
0  51.618793 -36.062447 0.000000  0.514922 -0.733584 -0.443520  5.417678 0.500000 0
buffer_ring
0  55.534733 -29.220549 -6.000000  0.599013 -0.669607 -0.439102  5.537469 0.000000 0
0  63.219856 -25.500000 0.000000  0.692229 -0.568747 -0.444236  5.633885 0.500000 0
0  57.914795 -31.046833 0.000000  0.605115 -0.661137 -0.443547  5.530087 0.500000 0
buffer_ring
0  60.621777 -24.000000 -6.000000  0.687163 -0.578169 -0.439918  5.640025 0.000000 0
0  67.443207 -19.516855 0.000000  0.771376 -0.454484 -0.445446  5.731009 0.500000 0
0  63.219856 -25.500000 0.000000  0.692229 -0.568747 -0.444236  5.633885 0.500000 0
buffer_ring
0  64.671570 -18.368805 -6.000000  0.767994 -0.463774 -0.441700  5.735729 0.000000 0
0  70.512589 -13.199771 0.000000  0.836003 -0.318574 -0.446777  5.823285 0.500000 0
0  67.443207 -19.516855 0.000000  0.771376 -0.454484 -0.445446  5.731009 0.500000 0
buffer_ring
0  67.614807 -12.423314 -6.000000  0.834528 -0.326173 -0.444044  5.826480 0.000000 0
0  72.375473 -6.656836 0.000000  0.878913 -0.164687 -0.447649  5.912416 0.500000 0
0  70.512589 -13.199771 0.000000  0.836003 -0.318574 -0.446777  5.823285 0.500000 0
buffer_ring
0  69.401138 -6.265257 -6.000000  0.878813 -0.168980 -0.446243  5.914026 0.000000 0
0  73.000000 0.000000 0.000000  0.894256 -0.000362 -0.447557  6.000000 0.500000 0
0  72.375473 -6.656836 0.000000  0.878913 -0.164687 -0.447649  5.912416 0.500000 0
buffer_ring
0  73.000000 0.000000 0.000000  0.894256 0.000362 0.447557  0.000000 0.500000 0
0  69.401138 6.265257 6.000000  0.878813 0.168980 0.446243  0.085974 1.000000 0
0  70.000000 0.000000 6.000000  0.894251 0.000404 0.447565  0.000000 1.000000 0
buffer_ring
0  72.375473 6.656836 0.000000  0.878913 0.164687 0.447649  0.087585 0.500000 0
0  67.614807 12.423314 6.000000  0.834528 0.326173 0.444044  0.173520 1.000000 0
0  69.401138 6.265257 6.000000  0.878813 0.168980 0.446243  0.085974 1.000000 0
buffer_ring
0  70.512589 13.199771 0.000000  0.836003 0.318574 0.446777  0.176715 0.500000 0
0  64.671570 18.368805 6.000000  0.767994 0.463774 0.441700  0.264271 1.000000 0
0  67.614807 12.423314 6.000000  0.834528 0.326173 0.444044  0.173520 1.000000 0
buffer_ring
0  67.443207 19.516855 0.000000  0.771376 0.454484 0.445446  0.268992 0.500000 0
0  60.621777 24.000000 6.000000  0.687163 0.578169 0.439918  0.359975 1.000000 0
0  64.671570 18.368805 6.000000  0.767994 0.463774 0.441700  0.264271 1.000000 0
buffer_ring
0  63.219856 25.500000 0.000000  0.692229 0.568747 0.444236  0.366115 0.500000 0
0  55.534733 29.220549 6.000000  0.599013 0.669607 0.439101  0.462531 1.000000 0
0  60.621777 24.000000 6.000000  0.687163 0.578169 0.439918  0.359975 1.000000 0
buffer_ring
0  57.914795 31.046833 0.000000  0.605115 0.661137 0.443547  0.469913 0.500000 0
0  49.497475 33.941124 6.000000  0.508517 0.740552 0.439311  0.573983 1.000000 0
0  55.534733 29.220549 6.000000  0.599013 0.669607 0.439101  0.462531 1.000000 0
buffer_ring
0  51.618793 36.062447 0.000000  0.514922 0.733584 0.443520  0.582322 0.500000 0
0  42.613300 38.080959 6.000000  0.418643 0.794246 0.440353  0.696421 1.000000 0
0  49.497475 33.941124 6.000000  0.508517 0.740552 0.439311  0.573983 1.000000 0
buffer_ring
0  44.439583 40.461021 0.000000  0.424724 0.788932 0.444068  0.705283 0.500000 0
0  35.000000 41.569218 6.000000  0.330825 0.833832 0.441903  0.831728 1.000000 0
0  42.613300 38.080959 6.000000  0.418643 0.794246 0.440353  0.696421 1.000000 0
buffer_ring
0  36.500000 44.167297 0.000000  0.336120 0.830079 0.444963  0.840493 0.500000 0
0  26.787840 44.346218 6.000000  0.245464 0.861947 0.443616  0.981091 1.000000 0
0  35.000000 41.569218 6.000000  0.330825 0.833832 0.441903  0.831728 1.000000 0
buffer_ring
0  27.935890 47.117855 0.000000  0.249663 0.859542 0.445934  0.988943 0.500000 0
0  18.117332 46.364441 6.000000  0.162335 0.880602 0.445182  1.144274 1.000000 0
0  26.787840 44.346218 6.000000  0.245464 0.861947 0.443616  0.981091 1.000000 0
buffer_ring
0  18.893791 49.262218 0.000000  0.165238 0.879281 0.446723  1.150274 0.500000 0
0  9.136833 47.589352 6.000000  0.080851 0.891189 0.446369  1.318864 1.000000 0
0  18.117332 46.364441 6.000000  0.162335 0.880602 0.445182  1.144274 1.000000 0
buffer_ring
0  9.528412 50.563686 0.000000  0.082333 0.890672 0.447130  1.322135 0.500000 0
0  0.000000 48.000000 6.000000  0.000236 0.894521 0.447026  1.500000 1.000000 0
0  9.136833 47.589352 6.000000  0.080851 0.891189 0.446369  1.318864 1.000000 0
buffer_ring
0  0.000000 51.000000 0.000000  0.000221 0.894520 0.447027  1.500000 0.500000 0
0  -9.136833 47.589352 6.000000  -0.080367 0.890865 0.447103  1.681136 1.000000 0
0  0.000000 48.000000 6.000000  0.000236 0.894521 0.447026  1.500000 1.000000 0
buffer_ring
0  -9.528412 50.563686 0.000000  -0.081924 0.891086 0.446378  1.677865 0.500000 0
0  -18.117332 46.364441 6.000000  -0.161811 0.879960 0.446640  1.855726 1.000000 0
0  -9.136833 47.589352 6.000000  -0.080367 0.890865 0.447103  1.681136 1.000000 0
buffer_ring
0  -18.893791 49.262218 0.000000  -0.164927 0.880093 0.445236  1.849726 0.500000 0
0  -26.787840 44.346218 6.000000  -0.244872 0.861006 0.445765  2.018909 1.000000 0
0  -18.117332 46.364441 6.000000  -0.161811 0.879960 0.446640  1.855726 1.000000 0
buffer_ring
0  -27.935890 47.117855 0.000000  -0.249520 0.860714 0.443746  2.011057 0.500000 0
0  -35.000000 41.569218 6.000000  -0.330134 0.832623 0.444692  2.168272 1.000000 0
0  -26.787840 44.346218 6.000000  -0.244872 0.861006 0.445765  2.018909 1.000000 0
buffer_ring
0  -36.500000 44.167297 0.000000  -0.336219 0.831546 0.442140  2.159507 0.500000 0
0  -42.613300 38.080959 6.000000  -0.417826 0.792819 0.443688  2.303579 1.000000 0
0  -35.000000 41.569218 6.000000  -0.330134 0.832623 0.444692  2.168272 1.000000 0
buffer_ring
0  -44.439583 40.461021 0.000000  -0.425135 0.790591 0.440711  2.294717 0.500000 0
0  -49.497475 33.941124 6.000000  -0.507555 0.738980 0.443053  2.426017 1.000000 0
0  -42.613300 38.080959 6.000000  -0.417826 0.792819 0.443688  2.303579 1.000000 0
buffer_ring
0  -51.618793 36.062447 0.000000  -0.515693 0.735286 0.439790  2.417678 0.500000 0
0  -55.534733 29.220549 6.000000  -0.597916 0.667993 0.443037  2.537469 1.000000 0
0  -49.497475 33.941124 6.000000  -0.507555 0.738980 0.443053  2.426017 1.000000 0
buffer_ring
0  -57.914795 31.046833 0.000000  -0.606251 0.662687 0.439665  2.530087 0.500000 0
0  -60.621777 24.000000 6.000000  -0.685983 0.576631 0.443761  2.640025 1.000000 0
0  -55.534733 29.220549 6.000000  -0.597916 0.667993 0.443037  2.537469 1.000000 0
buffer_ring
0  -63.219856 25.500000 0.000000  -0.693648 0.569928 0.440493  2.633885 0.500000 0
0  -64.671570 18.368805 6.000000  -0.766850 0.462420 0.445094  2.735729 1.000000 0
0  -60.621777 24.000000 6.000000  -0.685983 0.576631 0.443761  2.640025 1.000000 0
buffer_ring
0  -67.443207 19.516855 0.000000  -0.772884 0.455106 0.442187  2.731008 0.500000 0
0  -67.614807 12.423314 6.000000  -0.833595 0.325065 0.446602  2.826480 1.000000 0
0  -64.671570 18.368805 6.000000  -0.766850 0.462420 0.445094  2.735729 1.000000 0
buffer_ring
0  -70.512589 13.199771 0.000000  -0.837299 0.318564 0.444351  2.823285 0.500000 0
0  -69.401138 6.265257 6.000000  -0.878282 0.168084 0.447625  2.914026 1.000000 0
0  -67.614807 12.423314 6.000000  -0.833595 0.325065 0.446602  2.826480 1.000000 0
buffer_ring
0  -72.375473 6.656836 0.000000  -0.879671 0.164163 0.446351  2.912416 0.500000 0
0  -70.000000 0.000000 6.000000  -0.894251 -0.000404 0.447565  3.000000 1.000000 0
0  -69.401138 6.265257 6.000000  -0.878282 0.168084 0.447625  2.914026 1.000000 0
buffer_ring
0  -73.000000 0.000000 0.000000  -0.894256 -0.000362 0.447557  3.000000 0.500000 0
0  -69.401138 -6.265257 6.000000  -0.878813 -0.168980 0.446243  3.085974 1.000000 0
0  -70.000000 0.000000 6.000000  -0.894251 -0.000404 0.447565  3.000000 1.000000 0
buffer_ring
0  -72.375473 -6.656836 0.000000  -0.878913 -0.164687 0.447649  3.087584 0.500000 0
0  -67.614807 -12.423314 6.000000  -0.834528 -0.326173 0.444044  3.173520 1.000000 0
0  -69.401138 -6.265257 6.000000  -0.878813 -0.168980 0.446243  3.085974 1.000000 0
buffer_ring
0  -70.512589 -13.199771 0.000000  -0.836003 -0.318574 0.446777  3.176715 0.500000 0
0  -64.671570 -18.368805 6.000000  -0.767994 -0.463774 0.441700  3.264271 1.000000 0
0  -67.614807 -12.423314 6.000000  -0.834528 -0.326173 0.444044  3.173520 1.000000 0
buffer_ring
0  -67.443207 -19.516855 0.000000  -0.771376 -0.454484 0.445446  3.268992 0.500000 0
0  -60.621777 -24.000000 6.000000  -0.687163 -0.578169 0.439918  3.359975 1.000000 0
0  -64.671570 -18.368805 6.000000  -0.767994 -0.463774 0.441700  3.264271 1.000000 0
buffer_ring
0  -63.219856 -25.500000 0.000000  -0.692229 -0.568747 0.444236  3.366115 0.500000 0
0  -55.534733 -29.220549 6.000000  -0.599013 -0.669607 0.439101  3.462531 1.000000 0
0  -60.621777 -24.000000 6.000000  -0.687163 -0.578169 0.439918  3.359975 1.000000 0
buffer_ring
0  -57.914795 -31.046833 0.000000  -0.605115 -0.661137 0.443547  3.469913 0.500000 0
0  -49.497475 -33.941124 6.000000  -0.508517 -0.740552 0.439311  3.573983 1.000000 0
0  -55.534733 -29.220549 6.000000  -0.599013 -0.669607 0.439101  3.462531 1.000000 0
buffer_ring
0  -51.618793 -36.062447 0.000000  -0.514922 -0.733584 0.443520  3.582322 0.500000 0
0  -42.613300 -38.080959 6.000000  -0.418643 -0.794246 0.440353  3.696421 1.000000 0
0  -49.497475 -33.941124 6.000000  -0.508517 -0.740552 0.439311  3.573983 1.000000 0
buffer_ring
0  -44.439583 -40.461021 0.000000  -0.424724 -0.788932 0.444068  3.705283 0.500000 0
0  -35.000000 -41.569218 6.000000  -0.330825 -0.833832 0.441903  3.831728 1.000000 0
0  -42.613300 -38.080959 6.000000  -0.418643 -0.794246 0.440353  3.696421 1.000000 0
buffer_ring
0  -36.500000 -44.167297 0.000000  -0.336120 -0.830079 0.444963  3.840493 0.500000 0
0  -26.787840 -44.346218 6.000000  -0.245464 -0.861947 0.443616  3.981091 1.000000 0
0  -35.000000 -41.569218 6.000000  -0.330825 -0.833832 0.441903  3.831728 1.000000 0
buffer_ring
0  -27.935890 -47.117855 0.000000  -0.249663 -0.859542 0.445934  3.988943 0.500000 0
0  -18.117332 -46.364441 6.000000  -0.162335 -0.880602 0.445182  4.144275 1.000000 0
0  -26.787840 -44.346218 6.000000  -0.245464 -0.861947 0.443616  3.981091 1.000000 0
buffer_ring
0  -18.893791 -49.262218 0.000000  -0.165238 -0.879281 0.446723  4.150274 0.500000 0
0  -9.136833 -47.589352 6.000000  -0.080851 -0.891189 0.446369  4.318864 1.000000 0
0  -18.117332 -46.364441 6.000000  -0.162335 -0.880602 0.445182  4.144275 1.000000 0
buffer_ring
0  -9.528412 -50.563686 0.000000  -0.082333 -0.890672 0.447130  4.322135 0.500000 0
0  -0.000000 -48.000000 6.000000  -0.000236 -0.894521 0.447026  4.500000 1.000000 0
0  -9.136833 -47.589352 6.000000  -0.080851 -0.891189 0.446369  4.318864 1.000000 0
buffer_ring
0  -0.000000 -51.000000 0.000000  -0.000221 -0.894520 0.447027  4.500000 0.500000 0
0  9.136833 -47.589352 6.000000  0.080367 -0.890865 0.447103  4.681136 1.000000 0
0  -0.000000 -48.000000 6.000000  -0.000236 -0.894521 0.447026  4.500000 1.000000 0
buffer_ring
0  9.528412 -50.563686 0.000000  0.081924 -0.891086 0.446378  4.677865 0.500000 0
0  18.117332 -46.364441 6.000000  0.161811 -0.879960 0.446640  4.855725 1.000000 0
0  9.136833 -47.589352 6.000000  0.080367 -0.890865 0.447103  4.681136 1.000000 0
buffer_ring
0  18.893791 -49.262218 0.000000  0.164927 -0.880093 0.445236  4.849726 0.500000 0
0  26.787840 -44.346218 6.000000  0.244872 -0.861006 0.445765  5.018909 1.000000 0
0  18.117332 -46.364441 6.000000  0.161811 -0.879960 0.446640  4.855725 1.000000 0
buffer_ring
0  27.935890 -47.117855 0.000000  0.249520 -0.860714 0.443746  5.011057 0.500000 0
0  35.000000 -41.569218 6.000000  0.330134 -0.832623 0.444692  5.168272 1.000000 0
0  26.787840 -44.346218 6.000000  0.244872 -0.861006 0.445765  5.018909 1.000000 0
buffer_ring
0  36.500000 -44.167297 0.000000  0.336219 -0.831546 0.442140  5.159507 0.500000 0
0  42.613300 -38.080959 6.000000  0.417826 -0.792819 0.443688  5.303579 1.000000 0
0  35.000000 -41.569218 6.000000  0.330134 -0.832623 0.444692  5.168272 1.000000 0
buffer_ring
0  44.439583 -40.461021 0.000000  0.425135 -0.790591 0.440711  5.294717 0.500000 0
0  49.497475 -33.941124 6.000000  0.507555 -0.738980 0.443053  5.426017 1.000000 0
0  42.613300 -38.080959 6.000000  0.417826 -0.792819 0.443688  5.303579 1.000000 0
buffer_ring
0  51.618793 -36.062447 0.000000  0.515693 -0.735286 0.439790  5.417678 0.500000 0
0  55.534733 -29.220549 6.000000  0.597916 -0.667993 0.443037  5.537469 1.000000 0
0  49.497475 -33.941124 6.000000  0.507555 -0.738980 0.443053  5.426017 1.000000 0
buffer_ring
0  57.914795 -31.046833 0.000000  0.606251 -0.662687 0.439665  5.530087 0.500000 0
0  60.621777 -24.000000 6.000000  0.685983 -0.576631 0.443761  5.640025 1.000000 0
0  55.534733 -29.220549 6.000000  0.597916 -0.667993 0.443037  5.537469 1.000000 0
buffer_ring
0  63.219856 -25.500000 0.000000  0.693648 -0.569928 0.440493  5.633885 0.500000 0
0  64.671570 -18.368805 6.000000  0.766850 -0.462420 0.445094  5.735729 1.000000 0
0  60.621777 -24.000000 6.000000  0.685983 -0.576631 0.443761  5.640025 1.000000 0
buffer_ring
0  67.443207 -19.516855 0.000000  0.772884 -0.455106 0.442187  5.731009 0.500000 0
0  67.614807 -12.423314 6.000000  0.833595 -0.325065 0.446602  5.826480 1.000000 0
0  64.671570 -18.368805 6.000000  0.766850 -0.462420 0.445094  5.735729 1.000000 0
buffer_ring
0  70.512589 -13.199771 0.000000  0.837299 -0.318564 0.444351  5.823285 0.500000 0
0  69.401138 -6.265257 6.000000  0.878282 -0.168084 0.447625  5.914026 1.000000 0
0  67.614807 -12.423314 6.000000  0.833595 -0.325065 0.446602  5.826480 1.000000 0
buffer_ring
0  72.375473 -6.656836 0.000000  0.879671 -0.164163 0.446351  5.912416 0.500000 0
0  70.000000 0.000000 6.000000  0.894251 0.000404 0.447565  6.000000 1.000000 0
0  69.401138 -6.265257 6.000000  0.878282 -0.168084 0.447625  5.914026 1.000000 0
buffer_ring
0  70.000000 0.000000 -6.000000  0.894251 -0.000404 -0.447565  0.000000 0.000000 0
0  69.401138 6.265257 -6.000000  0.878282 0.168084 -0.447625  0.085974 0.000000 0
0  72.375473 6.656836 0.000000  0.879671 0.164163 -0.446351  0.087585 0.500000 0
buffer_ring
0  69.401138 6.265257 -6.000000  0.878282 0.168084 -0.447625  0.085974 0.000000 0
0  67.614807 12.423314 -6.000000  0.833595 0.325065 -0.446602  0.173520 0.000000 0
0  70.512589 13.199771 0.000000  0.837299 0.318564 -0.444351  0.176715 0.500000 0
buffer_ring
0  67.614807 12.423314 -6.000000  0.833595 0.325065 -0.446602  0.173520 0.000000 0
0  64.671570 18.368805 -6.000000  0.766850 0.462420 -0.445094  0.264271 0.000000 0
0  67.443207 19.516855 0.000000  0.772884 0.455106 -0.442187  0.268992 0.500000 0
buffer_ring
0  64.671570 18.368805 -6.000000  0.766850 0.462420 -0.445094  0.264271 0.000000 0
0  60.621777 24.000000 -6.000000  0.685983 0.576631 -0.443761  0.359975 0.000000 0
0  63.219856 25.500000 0.000000  0.693648 0.569928 -0.440493  0.366115 0.500000 0
buffer_ring
0  60.621777 24.000000 -6.000000  0.685983 0.576631 -0.443761  0.359975 0.000000 0
0  55.534733 29.220549 -6.000000  0.597916 0.667993 -0.443038  0.462531 0.000000 0
0  57.914795 31.046833 0.000000  0.606251 0.662687 -0.439665  0.469913 0.500000 0
buffer_ring
0  55.534733 29.220549 -6.000000  0.597916 0.667993 -0.443038  0.462531 0.000000 0
0  49.497475 33.941124 -6.000000  0.507555 0.738980 -0.443053  0.573983 0.000000 0
0  51.618793 36.062447 0.000000  0.515693 0.735286 -0.439790  0.582322 0.500000 0
buffer_ring
0  49.497475 33.941124 -6.000000  0.507555 0.738980 -0.443053  0.573983 0.000000 0
0  42.613300 38.080959 -6.000000  0.417826 0.792819 -0.443688  0.696421 0.000000 0
0  44.439583 40.461021 0.000000  0.425135 0.790591 -0.440711  0.705283 0.500000 0
buffer_ring
0  42.613300 38.080959 -6.000000  0.417826 0.792819 -0.443688  0.696421 0.000000 0
0  35.000000 41.569218 -6.000000  0.330134 0.832623 -0.444692  0.831728 0.000000 0
0  36.500000 44.167297 0.000000  0.336219 0.831546 -0.442140  0.840493 0.500000 0
buffer_ring
0  35.000000 41.569218 -6.000000  0.330134 0.832623 -0.444692  0.831728 0.000000 0
0  26.787840 44.346218 -6.000000  0.244873 0.861006 -0.445765  0.981091 0.000000 0
0  27.935890 47.117855 0.000000  0.249520 0.860714 -0.443746  0.988943 0.500000 0
buffer_ring
0  26.787840 44.346218 -6.000000  0.244873 0.861006 -0.445765  0.981091 0.000000 0
0  18.117332 46.364441 -6.000000  0.161811 0.879960 -0.446639  1.144274 0.000000 0
0  18.893791 49.262218 0.000000  0.164927 0.880093 -0.445236  1.150274 0.500000 0
buffer_ring
0  18.117332 46.364441 -6.000000  0.161811 0.879960 -0.446639  1.144274 0.000000 0
0  9.136833 47.589352 -6.000000  0.080367 0.890865 -0.447103  1.318864 0.000000 0
0  9.528412 50.563686 0.000000  0.081924 0.891086 -0.446378  1.322135 0.500000 0
buffer_ring
0  9.136833 47.589352 -6.000000  0.080367 0.890865 -0.447103  1.318864 0.000000 0
0  0.000000 48.000000 -6.000000  -0.000236 0.894521 -0.447026  1.500000 0.000000 0
0  0.000000 51.000000 0.000000  -0.000221 0.894520 -0.447027  1.500000 0.500000 0
buffer_ring
0  0.000000 48.000000 -6.000000  -0.000236 0.894521 -0.447026  1.500000 0.000000 0
0  -9.136833 47.589352 -6.000000  -0.080851 0.891189 -0.446369  1.681136 0.000000 0
0  -9.528412 50.563686 0.000000  -0.082333 0.890672 -0.447130  1.677865 0.500000 0
buffer_ring
0  -9.136833 47.589352 -6.000000  -0.080851 0.891189 -0.446369  1.681136 0.000000 0
0  -18.117332 46.364441 -6.000000  -0.162335 0.880602 -0.445182  1.855726 0.000000 0
0  -18.893791 49.262218 0.000000  -0.165238 0.879281 -0.446723  1.849726 0.500000 0
buffer_ring
0  -18.117332 46.364441 -6.000000  -0.162335 0.880602 -0.445182  1.855726 0.000000 0
0  -26.787840 44.346218 -6.000000  -0.245464 0.861947 -0.443616  2.018909 0.000000 0
0  -27.935890 47.117855 0.000000  -0.249663 0.859542 -0.445934  2.011057 0.500000 0
buffer_ring
0  -26.787840 44.346218 -6.000000  -0.245464 0.861947 -0.443616  2.018909 0.000000 0
0  -35.000000 41.569218 -6.000000  -0.330825 0.833833 -0.441903  2.168272 0.000000 0
0  -36.500000 44.167297 0.000000  -0.336120 0.830079 -0.444963  2.159507 0.500000 0
buffer_ring
0  -35.000000 41.569218 -6.000000  -0.330825 0.833833 -0.441903  2.168272 0.000000 0
0  -42.613300 38.080959 -6.000000  -0.418643 0.794246 -0.440353  2.303579 0.000000 0
0  -44.439583 40.461021 0.000000  -0.424724 0.788932 -0.444068  2.294717 0.500000 0
buffer_ring
0  -42.613300 38.080959 -6.000000  -0.418643 0.794246 -0.440353  2.303579 0.000000 0
0  -49.497475 33.941124 -6.000000  -0.508517 0.740552 -0.439311  2.426017 0.000000 0
0  -51.618793 36.062447 0.000000  -0.514922 0.733584 -0.443520  2.417678 0.500000 0
buffer_ring
0  -49.497475 33.941124 -6.000000  -0.508517 0.740552 -0.439311  2.426017 0.000000 0
0  -55.534733 29.220549 -6.000000  -0.599013 0.669607 -0.439102  2.537469 0.000000 0
0  -57.914795 31.046833 0.000000  -0.605115 0.661137 -0.443547  2.530087 0.500000 0
buffer_ring
0  -55.534733 29.220549 -6.000000  -0.599013 0.669607 -0.439102  2.537469 0.000000 0
0  -60.621777 24.000000 -6.000000  -0.687163 0.578169 -0.439918  2.640025 0.000000 0
0  -63.219856 25.500000 0.000000  -0.692229 0.568747 -0.444236  2.633885 0.500000 0
buffer_ring
0  -60.621777 24.000000 -6.000000  -0.687163 0.578169 -0.439918  2.640025 0.000000 0
0  -64.671570 18.368805 -6.000000  -0.767994 0.463774 -0.441700  2.735729 0.000000 0
0  -67.443207 19.516855 0.000000  -0.771376 0.454484 -0.445446  2.731008 0.500000 0
buffer_ring
0  -64.671570 18.368805 -6.000000  -0.767994 0.463774 -0.441700  2.735729 0.000000 0
0  -67.614807 12.423314 -6.000000  -0.834528 0.326173 -0.444044  2.826480 0.000000 0
0  -70.512589 13.199771 0.000000  -0.836003 0.318574 -0.446777  2.823285 0.500000 0
buffer_ring
0  -67.614807 12.423314 -6.000000  -0.834528 0.326173 -0.444044  2.826480 0.000000 0
0  -69.401138 6.265257 -6.000000  -0.878813 0.168980 -0.446243  2.914026 0.000000 0
0  -72.375473 6.656836 0.000000  -0.878913 0.164687 -0.447649  2.912416 0.500000 0
buffer_ring
0  -69.401138 6.265257 -6.000000  -0.878813 0.168980 -0.446243  2.914026 0.000000 0
0  -70.000000 0.000000 -6.000000  -0.894251 0.000404 -0.447565  3.000000 0.000000 0
0  -73.000000 0.000000 0.000000  -0.894256 0.000362 -0.447557  3.000000 0.500000 0
buffer_ring
0  -70.000000 0.000000 -6.000000  -0.894251 0.000404 -0.447565  3.000000 0.000000 0
0  -69.401138 -6.265257 -6.000000  -0.878282 -0.168084 -0.447625  3.085974 0.000000 0
0  -72.375473 -6.656836 0.000000  -0.879671 -0.164163 -0.446351  3.087584 0.500000 0
buffer_ring
0  -69.401138 -6.265257 -6.000000  -0.878282 -0.168084 -0.447625  3.085974 0.000000 0
0  -67.614807 -12.423314 -6.000000  -0.833595 -0.325065 -0.446602  3.173520 0.000000 0
0  -70.512589 -13.199771 0.000000  -0.837299 -0.318564 -0.444351  3.176715 0.500000 0
buffer_ring
0  -67.614807 -12.423314 -6.000000  -0.833595 -0.325065 -0.446602  3.173520 0.000000 0
0  -64.671570 -18.368805 -6.000000  -0.766850 -0.462420 -0.445094  3.264271 0.000000 0
0  -67.443207 -19.516855 0.000000  -0.772884 -0.455106 -0.442187  3.268992 0.500000 0
buffer_ring
0  -64.671570 -18.368805 -6.000000  -0.766850 -0.462420 -0.445094  3.264271 0.000000 0
0  -60.621777 -24.000000 -6.000000  -0.685983 -0.576631 -0.443761  3.359975 0.000000 0
0  -63.219856 -25.500000 0.000000  -0.693648 -0.569928 -0.440493  3.366115 0.500000 0
buffer_ring
0  -60.621777 -24.000000 -6.000000  -0.685983 -0.576631 -0.443761  3.359975 0.000000 0
0  -55.534733 -29.220549 -6.000000  -0.597916 -0.667993 -0.443038  3.462531 0.000000 0
0  -57.914795 -31.046833 0.000000  -0.606251 -0.662687 -0.439665  3.469913 0.500000 0
buffer_ring
0  -55.534733 -29.220549 -6.000000  -0.597916 -0.667993 -0.443038  3.462531 0.000000 0
0  -49.497475 -33.941124 -6.000000  -0.507555 -0.738980 -0.443053  3.573983 0.000000 0
0  -51.618793 -36.062447 0.000000  -0.515693 -0.735286 -0.439790  3.582322 0.500000 0
buffer_ring
0  -49.497475 -33.941124 -6.000000  -0.507555 -0.738980 -0.443053  3.573983 0.000000 0
0  -42.613300 -38.080959 -6.000000  -0.417826 -0.792819 -0.443688  3.696421 0.000000 0
0  -44.439583 -40.461021 0.000000  -0.425135 -0.790591 -0.440711  3.705283 0.500000 0
buffer_ring
0  -42.613300 -38.080959 -6.000000  -0.417826 -0.792819 -0.443688  3.696421 0.000000 0
0  -35.000000 -41.569218 -6.000000  -0.330134 -0.832623 -0.444692  3.831728 0.000000 0
0  -36.500000 -44.167297 0.000000  -0.336219 -0.831546 -0.442140  3.840493 0.500000 0
buffer_ring
0  -35.000000 -41.569218 -6.000000  -0.330134 -0.832623 -0.444692  3.831728 0.000000 0
0  -26.787840 -44.346218 -6.000000  -0.244873 -0.861006 -0.445765  3.981091 0.000000 0
0  -27.935890 -47.117855 0.000000  -0.249520 -0.860714 -0.443746  3.988943 0.500000 0
buffer_ring
0  -26.787840 -44.346218 -6.000000  -0.244873 -0.861006 -0.445765  3.981091 0.000000 0
0  -18.117332 -46.364441 -6.000000  -0.161811 -0.879960 -0.446639  4.144275 0.000000 0
0  -18.893791 -49.262218 0.000000  -0.164927 -0.880093 -0.445236  4.150274 0.500000 0
buffer_ring
0  -18.117332 -46.364441 -6.000000  -0.161811 -0.879960 -0.446639  4.144275 0.000000 0
0  -9.136833 -47.589352 -6.000000  -0.080367 -0.890865 -0.447103  4.318864 0.000000 0
0  -9.528412 -50.563686 0.000000  -0.081924 -0.891086 -0.446378  4.322135 0.500000 0
buffer_ring
0  -9.136833 -47.589352 -6.000000  -0.080367 -0.890865 -0.447103  4.318864 0.000000 0
0  -0.000000 -48.000000 -6.000000  0.000236 -0.894521 -0.447026  4.500000 0.000000 0
0  -0.000000 -51.000000 0.000000  0.000221 -0.894520 -0.447027  4.500000 0.500000 0
buffer_ring
0  -0.000000 -48.000000 -6.000000  0.000236 -0.894521 -0.447026  4.500000 0.000000 0
0  9.136833 -47.589352 -6.000000  0.080851 -0.891189 -0.446369  4.681136 0.000000 0
0  9.528412 -50.563686 0.000000  0.082333 -0.890672 -0.447130  4.677865 0.500000 0
buffer_ring
0  9.136833 -47.589352 -6.000000  0.080851 -0.891189 -0.446369  4.681136 0.000000 0
0  18.117332 -46.364441 -6.000000  0.162335 -0.880602 -0.445182  4.855725 0.000000 0
0  18.893791 -49.262218 0.000000  0.165238 -0.879281 -0.446723  4.849726 0.500000 0
buffer_ring
0  18.117332 -46.364441 -6.000000  0.162335 -0.880602 -0.445182  4.855725 0.000000 0
0  26.787840 -44.346218 -6.000000  0.245464 -0.861947 -0.443616  5.018909 0.000000 0
0  27.935890 -47.117855 0.000000  0.249663 -0.859542 -0.445934  5.011057 0.500000 0
buffer_ring
0  26.787840 -44.346218 -6.000000  0.245464 -0.861947 -0.443616  5.018909 0.000000 0
0  35.000000 -41.569218 -6.000000  0.330825 -0.833833 -0.441903  5.168272 0.000000 0
0  36.500000 -44.167297 0.000000  0.336120 -0.830079 -0.444963  5.159507 0.500000 0
buffer_ring
0  35.000000 -41.569218 -6.000000  0.330825 -0.833833 -0.441903  5.168272 0.000000 0
0  42.613300 -38.080959 -6.000000  0.418643 -0.794246 -0.440353  5.303579 0.000000 0
0  44.439583 -40.461021 0.000000  0.424724 -0.788932 -0.444068  5.294717 0.500000 0
buffer_ring
0  42.613300 -38.080959 -6.000000  0.418643 -0.794246 -0.440353  5.303579 0.000000 0
0  49.497475 -33.941124 -6.000000  0.508517 -0.740552 -0.439311  5.426017 0.000000 0
0  51.618793 -36.062447 0.000000  0.514922 -0.733584 -0.443520  5.417678 0.500000 0
buffer_ring
0  49.497475 -33.941124 -6.000000  0.508517 -0.740552 -0.439311  5.426017 0.000000 0
0  55.534733 -29.220549 -6.000000  0.599013 -0.669607 -0.439102  5.537469 0.000000 0
0  57.914795 -31.046833 0.000000  0.605115 -0.661137 -0.443547  5.530087 0.500000 0
buffer_ring
0  55.534733 -29.220549 -6.000000  0.599013 -0.669607 -0.439102  5.537469 0.000000 0
0  60.621777 -24.000000 -6.000000  0.687163 -0.578169 -0.439918  5.640025 0.000000 0
0  63.219856 -25.500000 0.000000  0.692229 -0.568747 -0.444236  5.633885 0.500000 0
buffer_ring
0  60.621777 -24.000000 -6.000000  0.687163 -0.578169 -0.439918  5.640025 0.000000 0
0  64.671570 -18.368805 -6.000000  0.767994 -0.463774 -0.441700  5.735729 0.000000 0
0  67.443207 -19.516855 0.000000  0.771376 -0.454484 -0.445446  5.731009 0.500000 0
buffer_ring
0  64.671570 -18.368805 -6.000000  0.767994 -0.463774 -0.441700  5.735729 0.000000 0
0  67.614807 -12.423314 -6.000000  0.834528 -0.326173 -0.444044  5.826480 0.000000 0
0  70.512589 -13.199771 0.000000  0.836003 -0.318574 -0.446777  5.823285 0.500000 0
buffer_ring
0  67.614807 -12.423314 -6.000000  0.834528 -0.326173 -0.444044  5.826480 0.000000 0
0  69.401138 -6.265257 -6.000000  0.878813 -0.168980 -0.446243  5.914026 0.000000 0
0  72.375473 -6.656836 0.000000  0.878913 -0.164687 -0.447649  5.912416 0.500000 0
buffer_ring
0  69.401138 -6.265257 -6.000000  0.878813 -0.168980 -0.446243  5.914026 0.000000 0
0  70.000000 0.000000 -6.000000  0.894251 -0.000404 -0.447565  6.000000 0.000000 0
0  73.000000 0.000000 0.000000  0.894256 -0.000362 -0.447557  6.000000 0.500000 0
buffer_ring
0  73.000000 0.000000 0.000000  0.894256 0.000362 0.447557  0.000000 0.500000 0
0  72.375473 6.656836 0.000000  0.878913 0.164687 0.447649  0.087585 0.500000 0
0  69.401138 6.265257 6.000000  0.878813 0.168980 0.446243  0.085974 1.000000 0
buffer_ring
0  72.375473 6.656836 0.000000  0.878913 0.164687 0.447649  0.087585 0.500000 0
0  70.512589 13.199771 0.000000  0.836003 0.318574 0.446777  0.176715 0.500000 0
0  67.614807 12.423314 6.000000  0.834528 0.326173 0.444044  0.173520 1.000000 0
buffer_ring
0  70.512589 13.199771 0.000000  0.836003 0.318574 0.446777  0.176715 0.500000 0
0  67.443207 19.516855 0.000000  0.771376 0.454484 0.445446  0.268992 0.500000 0
0  64.671570 18.368805 6.000000  0.767994 0.463774 0.441700  0.264271 1.000000 0
buffer_ring
0  67.443207 19.516855 0.000000  0.771376 0.454484 0.445446  0.268992 0.500000 0
0  63.219856 25.500000 0.000000  0.692229 0.568747 0.444236  0.366115 0.500000 0
0  60.621777 24.000000 6.000000  0.687163 0.578169 0.439918  0.359975 1.000000 0
buffer_ring
0  63.219856 25.500000 0.000000  0.692229 0.568747 0.444236  0.366115 0.500000 0
0  57.914795 31.046833 0.000000  0.605115 0.661137 0.443547  0.469913 0.500000 0
0  55.534733 29.220549 6.000000  0.599013 0.669607 0.439101  0.462531 1.000000 0
buffer_ring
0  57.914795 31.046833 0.000000  0.605115 0.661137 0.443547  0.469913 0.500000 0
0  51.618793 36.062447 0.000000  0.514922 0.733584 0.443520  0.582322 0.500000 0
0  49.497475 33.941124 6.000000  0.508517 0.740552 0.439311  0.573983 1.000000 0
buffer_ring
0  51.618793 36.062447 0.000000  0.514922 0.733584 0.443520  0.582322 0.500000 0
0  44.439583 40.461021 0.000000  0.424724 0.788932 0.444068  0.705283 0.500000 0
0  42.613300 38.080959 6.000000  0.418643 0.794246 0.440353  0.696421 1.000000 0
buffer_ring
0  44.439583 40.461021 0.000000  0.424724 0.788932 0.444068  0.705283 0.500000 0
0  36.500000 44.167297 0.000000  0.336120 0.830079 0.444963  0.840493 0.500000 0
0  35.000000 41.569218 6.000000  0.330825 0.833832 0.441903  0.831728 1.000000 0
buffer_ring
0  36.500000 44.167297 0.000000  0.336120 0.830079 0.444963  0.840493 0.500000 0
0  27.935890 47.117855 0.000000  0.249663 0.859542 0.445934  0.988943 0.500000 0
0  26.787840 44.346218 6.000000  0.245464 0.861947 0.443616  0.981091 1.000000 0
buffer_ring
0  27.935890 47.117855 0.000000  0.249663 0.859542 0.445934  0.988943 0.500000 0
0  18.893791 49.262218 0.000000  0.165238 0.879281 0.446723  1.150274 0.500000 0
0  18.117332 46.364441 6.000000  0.162335 0.880602 0.445182  1.144274 1.000000 0
buffer_ring
0  18.893791 49.262218 0.000000  0.165238 0.879281 0.446723  1.150274 0.500000 0
0  9.528412 50.563686 0.000000  0.082333 0.890672 0.447130  1.322135 0.500000 0
0  9.136833 47.589352 6.000000  0.080851 0.891189 0.446369  1.318864 1.000000 0
buffer_ring
0  9.528412 50.563686 0.000000  0.082333 0.890672 0.447130  1.322135 0.500000 0
0  0.000000 51.000000 0.000000  0.000221 0.894520 0.447027  1.500000 0.500000 0
0  0.000000 48.000000 6.000000  0.000236 0.894521 0.447026  1.500000 1.000000 0
buffer_ring
0  0.000000 51.000000 0.000000  0.000221 0.894520 0.447027  1.500000 0.500000 0
0  -9.528412 50.563686 0.000000  -0.081924 0.891086 0.446378  1.677865 0.500000 0
0  -9.136833 47.589352 6.000000  -0.080367 0.890865 0.447103  1.681136 1.000000 0
buffer_ring
0  -9.528412 50.563686 0.000000  -0.081924 0.891086 0.446378  1.677865 0.500000 0
0  -18.893791 49.262218 0.000000  -0.164927 0.880093 0.445236  1.849726 0.500000 0
0  -18.117332 46.364441 6.000000  -0.161811 0.879960 0.446640  1.855726 1.000000 0
buffer_ring
0  -18.893791 49.262218 0.000000  -0.164927 0.880093 0.445236  1.849726 0.500000 0
0  -27.935890 47.117855 0.000000  -0.249520 0.860714 0.443746  2.011057 0.500000 0
0  -26.787840 44.346218 6.000000  -0.244872 0.861006 0.445765  2.018909 1.000000 0
buffer_ring
0  -27.935890 47.117855 0.000000  -0.249520 0.860714 0.443746  2.011057 0.500000 0
0  -36.500000 44.167297 0.000000  -0.336219 0.831546 0.442140  2.159507 0.500000 0
0  -35.000000 41.569218 6.000000  -0.330134 0.832623 0.444692  2.168272 1.000000 0
buffer_ring
0  -36.500000 44.167297 0.000000  -0.336219 0.831546 0.442140  2.159507 0.500000 0
0  -44.439583 40.461021 0.000000  -0.425135 0.790591 0.440711  2.294717 0.500000 0
0  -42.613300 38.080959 6.000000  -0.417826 0.792819 0.443688  2.303579 1.000000 0
buffer_ring
0  -44.439583 40.461021 0.000000  -0.425135 0.790591 0.440711  2.294717 0.500000 0
0  -51.618793 36.062447 0.000000  -0.515693 0.735286 0.439790  2.417678 0.500000 0
0  -49.497475 33.941124 6.000000  -0.507555 0.738980 0.443053  2.426017 1.000000 0
buffer_ring
0  -51.618793 36.062447 0.000000  -0.515693 0.735286 0.439790  2.417678 0.500000 0
0  -57.914795 31.046833 0.000000  -0.606251 0.662687 0.439665  2.530087 0.500000 0
0  -55.534733 29.220549 6.000000  -0.597916 0.667993 0.443037  2.537469 1.000000 0
buffer_ring
0  -57.914795 31.046833 0.000000  -0.606251 0.662687 0.439665  2.530087 0.500000 0
0  -63.219856 25.500000 0.000000  -0.693648 0.569928 0.440493  2.633885 0.500000 0
0  -60.621777 24.000000 6.000000  -0.685983 0.576631 0.443761  2.640025 1.000000 0
buffer_ring
0  -63.219856 25.500000 0.000000  -0.693648 0.569928 0.440493  2.633885 0.500000 0
0  -67.443207 19.516855 0.000000  -0.772884 0.455106 0.442187  2.731008 0.500000 0
0  -64.671570 18.368805 6.000000  -0.766850 0.462420 0.445094  2.735729 1.000000 0
buffer_ring
0  -67.443207 19.516855 0.000000  -0.772884 0.455106 0.442187  2.731008 0.500000 0
0  -70.512589 13.199771 0.000000  -0.837299 0.318564 0.444351  2.823285 0.500000 0
0  -67.614807 12.423314 6.000000  -0.833595 0.325065 0.446602  2.826480 1.000000 0
buffer_ring
0  -70.512589 13.199771 0.000000  -0.837299 0.318564 0.444351  2.823285 0.500000 0
0  -72.375473 6.656836 0.000000  -0.879671 0.164163 0.446351  2.912416 0.500000 0
0  -69.401138 6.265257 6.000000  -0.878282 0.168084 0.447625  2.914026 1.000000 0
buffer_ring
0  -72.375473 6.656836 0.000000  -0.879671 0.164163 0.446351  2.912416 0.500000 0
0  -73.000000 0.000000 0.000000  -0.894256 -0.000362 0.447557  3.000000 0.500000 0
0  -70.000000 0.000000 6.000000  -0.894251 -0.000404 0.447565  3.000000 1.000000 0
buffer_ring
0  -73.000000 0.000000 0.000000  -0.894256 -0.000362 0.447557  3.000000 0.500000 0
0  -72.375473 -6.656836 0.000000  -0.878913 -0.164687 0.447649  3.087584 0.500000 0
0  -69.401138 -6.265257 6.000000  -0.878813 -0.168980 0.446243  3.085974 1.000000 0
buffer_ring
0  -72.375473 -6.656836 0.000000  -0.878913 -0.164687 0.447649  3.087584 0.500000 0
0  -70.512589 -13.199771 0.000000  -0.836003 -0.318574 0.446777  3.176715 0.500000 0
0  -67.614807 -12.423314 6.000000  -0.834528 -0.326173 0.444044  3.173520 1.000000 0
buffer_ring
0  -70.512589 -13.199771 0.000000  -0.836003 -0.318574 0.446777  3.176715 0.500000 0
0  -67.443207 -19.516855 0.000000  -0.771376 -0.454484 0.445446  3.268992 0.500000 0
0  -64.671570 -18.368805 6.000000  -0.767994 -0.463774 0.441700  3.264271 1.000000 0
buffer_ring
0  -67.443207 -19.516855 0.000000  -0.771376 -0.454484 0.445446  3.268992 0.500000 0
0  -63.219856 -25.500000 0.000000  -0.692229 -0.568747 0.444236  3.366115 0.500000 0
0  -60.621777 -24.000000 6.000000  -0.687163 -0.578169 0.439918  3.359975 1.000000 0
buffer_ring
0  -63.219856 -25.500000 0.000000  -0.692229 -0.568747 0.444236  3.366115 0.500000 0
0  -57.914795 -31.046833 0.000000  -0.605115 -0.661137 0.443547  3.469913 0.500000 0
0  -55.534733 -29.220549 6.000000  -0.599013 -0.669607 0.439101  3.462531 1.000000 0
buffer_ring
0  -57.914795 -31.046833 0.000000  -0.605115 -0.661137 0.443547  3.469913 0.500000 0
0  -51.618793 -36.062447 0.000000  -0.514922 -0.733584 0.443520  3.582322 0.500000 0
0  -49.497475 -33.941124 6.000000  -0.508517 -0.740552 0.439311  3.573983 1.000000 0
buffer_ring
0  -51.618793 -36.062447 0.000000  -0.514922 -0.733584 0.443520  3.582322 0.500000 0
0  -44.439583 -40.461021 0.000000  -0.424724 -0.788932 0.444068  3.705283 0.500000 0
0  -42.613300 -38.080959 6.000000  -0.418643 -0.794246 0.440353  3.696421 1.000000 0
buffer_ring
0  -44.439583 -40.461021 0.000000  -0.424724 -0.788932 0.444068  3.705283 0.500000 0
0  -36.500000 -44.167297 0.000000  -0.336120 -0.830079 0.444963  3.840493 0.500000 0
0  -35.000000 -41.569218 6.000000  -0.330825 -0.833832 0.441903  3.831728 1.000000 0
buffer_ring
0  -36.500000 -44.167297 0.000000  -0.336120 -0.830079 0.444963  3.840493 0.500000 0
0  -27.935890 -47.117855 0.000000  -0.249663 -0.859542 0.445934  3.988943 0.500000 0
0  -26.787840 -44.346218 6.000000  -0.245464 -0.861947 0.443616  3.981091 1.000000 0
buffer_ring
0  -27.935890 -47.117855 0.000000  -0.249663 -0.859542 0.445934  3.988943 0.500000 0
0  -18.893791 -49.262218 0.000000  -0.165238 -0.879281 0.446723  4.150274 0.500000 0
0  -18.117332 -46.364441 6.000000  -0.162335 -0.880602 0.445182  4.144275 1.000000 0
buffer_ring
0  -18.893791 -49.262218 0.000000  -0.165238 -0.879281 0.446723  4.150274 0.500000 0
0  -9.528412 -50.563686 0.000000  -0.082333 -0.890672 0.447130  4.322135 0.500000 0
0  -9.136833 -47.589352 6.000000  -0.080851 -0.891189 0.446369  4.318864 1.000000 0
buffer_ring
0  -9.528412 -50.563686 0.000000  -0.082333 -0.890672 0.447130  4.322135 0.500000 0
0  -0.000000 -51.000000 0.000000  -0.000221 -0.894520 0.447027  4.500000 0.500000 0
0  -0.000000 -48.000000 6.000000  -0.000236 -0.894521 0.447026  4.500000 1.000000 0
buffer_ring
0  -0.000000 -51.000000 0.000000  -0.000221 -0.894520 0.447027  4.500000 0.500000 0
0  9.528412 -50.563686 0.000000  0.081924 -0.891086 0.446378  4.677865 0.500000 0
0  9.136833 -47.589352 6.000000  0.080367 -0.890865 0.447103  4.681136 1.000000 0
buffer_ring
0  9.528412 -50.563686 0.000000  0.081924 -0.891086 0.446378  4.677865 0.500000 0
0  18.893791 -49.262218 0.000000  0.164927 -0.880093 0.445236  4.849726 0.500000 0
0  18.117332 -46.364441 6.000000  0.161811 -0.879960 0.446640  4.855725 1.000000 0
buffer_ring
0  18.893791 -49.262218 0.000000  0.164927 -0.880093 0.445236  4.849726 0.500000 0
0  27.935890 -47.117855 0.000000  0.249520 -0.860714 0.443746  5.011057 0.500000 0
0  26.787840 -44.346218 6.000000  0.244872 -0.861006 0.445765  5.018909 1.000000 0
buffer_ring
0  27.935890 -47.117855 0.000000  0.249520 -0.860714 0.443746  5.011057 0.500000 0
0  36.500000 -44.167297 0.000000  0.336219 -0.831546 0.442140  5.159507 0.500000 0
0  35.000000 -41.569218 6.000000  0.330134 -0.832623 0.444692  5.168272 1.000000 0
buffer_ring
0  36.500000 -44.167297 0.000000  0.336219 -0.831546 0.442140  5.159507 0.500000 0
0  44.439583 -40.461021 0.000000  0.425135 -0.790591 0.440711  5.294717 0.500000 0
0  42.613300 -38.080959 6.000000  0.417826 -0.792819 0.443688  5.303579 1.000000 0
buffer_ring
0  44.439583 -40.461021 0.000000  0.425135 -0.790591 0.440711  5.294717 0.500000 0
0  51.618793 -36.062447 0.000000  0.515693 -0.735286 0.439790  5.417678 0.500000 0
0  49.497475 -33.941124 6.000000  0.507555 -0.738980 0.443053  5.426017 1.000000 0
buffer_ring
0  51.618793 -36.062447 0.000000  0.515693 -0.735286 0.439790  5.417678 0.500000 0
0  57.914795 -31.046833 0.000000  0.606251 -0.662687 0.439665  5.530087 0.500000 0
0  55.534733 -29.220549 6.000000  0.597916 -0.667993 0.443037  5.537469 1.000000 0
buffer_ring
0  57.914795 -31.046833 0.000000  0.606251 -0.662687 0.439665  5.530087 0.500000 0
0  63.219856 -25.500000 0.000000  0.693648 -0.569928 0.440493  5.633885 0.500000 0
0  60.621777 -24.000000 6.000000  0.685983 -0.576631 0.443761  5.640025 1.000000 0
buffer_ring
0  63.219856 -25.500000 0.000000  0.693648 -0.569928 0.440493  5.633885 0.500000 0
0  67.443207 -19.516855 0.000000  0.772884 -0.455106 0.442187  5.731009 0.500000 0
0  64.671570 -18.368805 6.000000  0.766850 -0.462420 0.445094  5.735729 1.000000 0
buffer_ring
0  67.443207 -19.516855 0.000000  0.772884 -0.455106 0.442187  5.731009 0.500000 0
0  70.512589 -13.199771 0.000000  0.837299 -0.318564 0.444351  5.823285 0.500000 0
0  67.614807 -12.423314 6.000000  0.833595 -0.325065 0.446602  5.826480 1.000000 0
buffer_ring
0  70.512589 -13.199771 0.000000  0.837299 -0.318564 0.444351  5.823285 0.500000 0
0  72.375473 -6.656836 0.000000  0.879671 -0.164163 0.446351  5.912416 0.500000 0
0  69.401138 -6.265257 6.000000  0.878282 -0.168084 0.447625  5.914026 1.000000 0
buffer_ring
0  72.375473 -6.656836 0.000000  0.879671 -0.164163 0.446351  5.912416 0.500000 0
0  73.000000 0.000000 0.000000  0.894256 0.000362 0.447557  6.000000 0.500000 0
0  70.000000 0.000000 6.000000  0.894251 0.000404 0.447565  6.000000 1.000000 0
end
