version 1
nodes
0 "root" -1
end
skeleton
time 0
0 0 0 0 0 0 0
end
triangles
tire_wall_corner
0  44.085133 -106.430923 32.000000  0.381176 0.713116 0.588362  0.776015 0.818290 0
0  53.977791 -130.313919 0.000000  0.726030 -0.388047 -0.567715  0.904930 0.991018 0
0  44.085133 -106.430923 0.000000  0.381166 0.713111 -0.588375  0.776015 0.991018 0
tire_wall_corner
0  44.085133 -106.430923 0.000000  0.381166 0.713111 -0.588375  0.791896 0.566913 0
0  53.977791 -130.313919 0.000000  0.726030 -0.388047 -0.567715  0.655041 0.594135 0
0  0.000000 -141.050766 0.000000  -0.522267 -0.636343 -0.567719  0.655041 0.297068 0
tire_wall_corner
0  0.000000 -115.199997 32.000000  -0.625056 0.512952 0.588375  0.172729 0.171560 0
0  0.000000 -141.050766 0.000000  -0.522267 -0.636343 -0.567719  0.345457 0.287581 0
0  0.000000 -141.050766 32.000000  -0.522244 -0.636356 0.567725  0.172729 0.287581 0
tire_wall_corner
0  44.085133 -106.430923 32.000000  0.381176 0.713116 0.588362  0.172729 0.800049 0
0  0.000000 -115.199997 32.000000  -0.625056 0.512952 0.588375  0.172729 0.557426 0
0  0.000000 -141.050766 32.000000  -0.522244 -0.636356 0.567725  0.309584 0.530204 0
tire_wall_corner
0  44.085133 -106.430923 32.000000  0.381176 0.713116 0.588362  0.172729 0.800049 0
0  0.000000 -141.050766 32.000000  -0.522244 -0.636356 0.567725  0.309584 0.530204 0
0  53.977791 -130.313919 32.000000  0.726016 -0.388058 0.567725  0.309584 0.827271 0
tire_wall_corner
0  44.085133 -106.430923 32.000000  0.381176 0.713116 0.588362  0.172729 -0.000000 0
0  44.085133 -106.430923 0.000000  0.381166 0.713111 -0.588375  0.345457 -0.000000 0
0  0.000000 -115.199997 0.000000  -0.625040 0.512968 -0.588378  0.345457 0.171560 0
tire_wall_corner
0  44.085133 -106.430923 32.000000  0.381176 0.713116 0.588362  0.172729 -0.000000 0
0  0.000000 -115.199997 0.000000  -0.625040 0.512968 -0.588378  0.345457 0.171560 0
0  0.000000 -115.199997 32.000000  -0.625056 0.512952 0.588375  0.172729 0.171560 0
tire_wall_corner
0  53.977791 -130.313919 32.000000  0.726016 -0.388058 0.567725  0.791896 0.210059 0
0  0.000000 -141.050766 32.000000  -0.522244 -0.636356 0.567725  0.791896 0.000000 0
0  0.000000 -141.050766 0.000000  -0.522267 -0.636343 -0.567719  0.964624 0.000000 0
tire_wall_corner
0  44.085133 -106.430923 32.000000  0.381176 0.713116 0.588362  0.776015 0.818290 0
0  53.977791 -130.313919 32.000000  0.726016 -0.388058 0.567725  0.904930 0.818290 0
0  53.977791 -130.313919 0.000000  0.726030 -0.388047 -0.567715  0.904930 0.991018 0
tire_wall_corner
0  0.000000 -115.199997 32.000000  -0.625056 0.512952 0.588375  0.172729 0.171560 0
0  0.000000 -115.199997 0.000000  -0.625040 0.512968 -0.588378  0.345457 0.171560 0
0  0.000000 -141.050766 0.000000  -0.522267 -0.636343 -0.567719  0.345457 0.287581 0
tire_wall_corner
0  44.085133 -106.430923 0.000000  0.381166 0.713111 -0.588375  0.791896 0.566913 0
0  0.000000 -141.050766 0.000000  -0.522267 -0.636343 -0.567719  0.655041 0.297068 0
0  0.000000 -115.199997 0.000000  -0.625040 0.512968 -0.588378  0.791896 0.324290 0
tire_wall_corner
0  53.977791 -130.313919 32.000000  0.726016 -0.388058 0.567725  0.791896 0.210059 0
0  0.000000 -141.050766 0.000000  -0.522267 -0.636343 -0.567719  0.964624 0.000000 0
0  53.977791 -130.313919 0.000000  0.726030 -0.388047 -0.567715  0.964624 0.210059 0
tire_wall_corner
0  99.737953 -99.737953 32.000000  0.819253 -0.080685 0.567727  0.136855 0.594135 0
0  44.085133 -106.430923 32.000000  -0.773780 0.234709 0.588367  -0.000000 0.324290 0
0  53.977791 -130.313919 32.000000  -0.238968 -0.787772 0.567724  0.136855 0.297068 0
tire_wall_corner
0  44.085133 -106.430923 0.000000  -0.773771 0.234730 -0.588371  0.655041 0.027222 0
0  81.458702 -81.458702 0.000000  0.079255 0.804689 -0.588383  0.655041 0.269845 0
0  99.737953 -99.737953 0.000000  0.819262 -0.080669 -0.567717  0.518186 0.297068 0
tire_wall_corner
0  81.458702 -81.458702 32.000000  0.079262 0.804698 0.588370  0.791896 0.210058 0
0  99.737953 -99.737953 0.000000  0.819262 -0.080669 -0.567717  0.931432 0.382787 0
0  81.458702 -81.458702 0.000000  0.079255 0.804689 -0.588383  0.791896 0.382787 0
tire_wall_corner
0  81.458702 -81.458702 32.000000  0.079262 0.804698 0.588370  0.690914 0.594135 0
0  81.458702 -81.458702 0.000000  0.079255 0.804689 -0.588383  0.863643 0.594135 0
0  44.085133 -106.430923 0.000000  -0.773771 0.234730 -0.588371  0.863643 0.818290 0
tire_wall_corner
0  99.737953 -99.737953 32.000000  0.819253 -0.080685 0.567727  0.136855 0.594135 0
0  81.458702 -81.458702 32.000000  0.079262 0.804698 0.588370  -0.000000 0.566913 0
0  44.085133 -106.430923 32.000000  -0.773780 0.234709 0.588367  -0.000000 0.324290 0
tire_wall_corner
0  81.458702 -81.458702 32.000000  0.079262 0.804698 0.588370  0.791896 0.210058 0
0  99.737953 -99.737953 32.000000  0.819253 -0.080685 0.567727  0.931432 0.210058 0
0  99.737953 -99.737953 0.000000  0.819262 -0.080669 -0.567717  0.931432 0.382787 0
tire_wall_corner
0  81.458702 -81.458702 32.000000  0.079262 0.804698 0.588370  0.690914 0.594135 0
0  44.085133 -106.430923 0.000000  -0.773771 0.234730 -0.588371  0.863643 0.818290 0
0  44.085133 -106.430923 32.000000  -0.773780 0.234709 0.588367  0.690914 0.818290 0
tire_wall_corner
0  44.085133 -106.430923 32.000000  -0.773780 0.234709 0.588367  0.992557 0.594135 0
0  44.085133 -106.430923 0.000000  -0.773771 0.234730 -0.588371  0.992557 0.766864 0
0  53.977791 -130.313919 0.000000  -0.238994 -0.787768 -0.567717  0.863642 0.766864 0
tire_wall_corner
0  44.085133 -106.430923 0.000000  -0.773771 0.234730 -0.588371  0.655041 0.027222 0
0  99.737953 -99.737953 0.000000  0.819262 -0.080669 -0.567717  0.518186 0.297068 0
0  53.977791 -130.313919 0.000000  -0.238994 -0.787768 -0.567717  0.518186 -0.000000 0
tire_wall_corner
0  99.737953 -99.737953 32.000000  0.819253 -0.080685 0.567727  0.345457 0.274455 0
0  53.977791 -130.313919 32.000000  -0.238968 -0.787772 0.567724  0.345457 -0.000000 0
0  53.977791 -130.313919 0.000000  -0.238994 -0.787768 -0.567717  0.518186 -0.000000 0
tire_wall_corner
0  44.085133 -106.430923 32.000000  -0.773780 0.234709 0.588367  0.992557 0.594135 0
0  53.977791 -130.313919 0.000000  -0.238994 -0.787768 -0.567717  0.863642 0.766864 0
0  53.977791 -130.313919 32.000000  -0.238968 -0.787772 0.567724  0.863642 0.594135 0
tire_wall_corner
0  99.737953 -99.737953 32.000000  0.819253 -0.080685 0.567727  0.345457 0.274455 0
0  53.977791 -130.313919 0.000000  -0.238994 -0.787768 -0.567717  0.518186 -0.000000 0
0  99.737953 -99.737953 0.000000  0.819262 -0.080669 -0.567717  0.518186 0.274455 0
tire_wall_corner
0  99.737953 -99.737953 0.000000  0.080685 -0.819253 -0.567727  0.518186 0.297068 0
0  106.430923 -44.085133 0.000000  -0.234709 0.773780 -0.588367  0.655041 0.566913 0
0  130.313919 -53.977791 0.000000  0.787772 0.238968 -0.567723  0.518185 0.594135 0
tire_wall_corner
0  106.430923 -44.085133 32.000000  -0.234730 0.773771 0.588371  0.655041 0.269845 0
0  81.458702 -81.458702 32.000000  -0.804689 -0.079255 0.588383  0.655041 0.027222 0
0  99.737953 -99.737953 32.000000  0.080669 -0.819262 0.567717  0.791896 -0.000000 0
tire_wall_corner
0  81.458702 -81.458702 0.000000  -0.804698 -0.079262 -0.588370  0.931432 0.555515 0
0  99.737953 -99.737953 32.000000  0.080669 -0.819262 0.567717  0.791896 0.382787 0
0  81.458702 -81.458702 32.000000  -0.804689 -0.079255 0.588383  0.931432 0.382787 0
tire_wall_corner
0  81.458702 -81.458702 0.000000  -0.804698 -0.079262 -0.588370  0.345457 0.530204 0
0  81.458702 -81.458702 32.000000  -0.804689 -0.079255 0.588383  0.172729 0.530204 0
0  106.430923 -44.085133 32.000000  -0.234730 0.773771 0.588371  0.172729 0.287581 0
tire_wall_corner
0  99.737953 -99.737953 0.000000  0.080685 -0.819253 -0.567727  0.518186 0.297068 0
0  81.458702 -81.458702 0.000000  -0.804698 -0.079262 -0.588370  0.655041 0.324290 0
0  106.430923 -44.085133 0.000000  -0.234709 0.773780 -0.588367  0.655041 0.566913 0
tire_wall_corner
0  81.458702 -81.458702 0.000000  -0.804698 -0.079262 -0.588370  0.931432 0.555515 0
0  99.737953 -99.737953 0.000000  0.080685 -0.819253 -0.567727  0.791896 0.555515 0
0  99.737953 -99.737953 32.000000  0.080669 -0.819262 0.567717  0.791896 0.382787 0
tire_wall_corner
0  81.458702 -81.458702 0.000000  -0.804698 -0.079262 -0.588370  0.345457 0.530204 0
0  106.430923 -44.085133 32.000000  -0.234730 0.773771 0.588371  0.172729 0.287581 0
0  106.430923 -44.085133 0.000000  -0.234709 0.773780 -0.588367  0.345457 0.287581 0
tire_wall_corner
0  106.430923 -44.085133 0.000000  -0.234709 0.773780 -0.588367  0.518186 0.991018 0
0  106.430923 -44.085133 32.000000  -0.234730 0.773771 0.588371  0.518186 0.818290 0
0  130.313919 -53.977791 32.000000  0.787768 0.238994 0.567717  0.647100 0.818290 0
tire_wall_corner
0  106.430923 -44.085133 32.000000  -0.234730 0.773771 0.588371  0.655041 0.269845 0
0  99.737953 -99.737953 32.000000  0.080669 -0.819262 0.567717  0.791896 -0.000000 0
0  130.313919 -53.977791 32.000000  0.787768 0.238994 0.567717  0.791896 0.297068 0
tire_wall_corner
0  99.737953 -99.737953 0.000000  0.080685 -0.819253 -0.567727  0.172729 0.000000 0
0  130.313919 -53.977791 0.000000  0.787772 0.238968 -0.567723  0.172729 0.297068 0
0  130.313919 -53.977791 32.000000  0.787768 0.238994 0.567717  0.000000 0.297068 0
tire_wall_corner
0  106.430923 -44.085133 0.000000  -0.234709 0.773780 -0.588367  0.518186 0.991018 0
0  130.313919 -53.977791 32.000000  0.787768 0.238994 0.567717  0.647100 0.818290 0
0  130.313919 -53.977791 0.000000  0.787772 0.238968 -0.567723  0.647100 0.991018 0
tire_wall_corner
0  99.737953 -99.737953 0.000000  0.080685 -0.819253 -0.567727  0.172729 0.000000 0
0  130.313919 -53.977791 32.000000  0.787768 0.238994 0.567717  0.000000 0.297068 0
0  99.737953 -99.737953 32.000000  0.080669 -0.819262 0.567717  0.000000 -0.000000 0
tire_wall_corner
0  106.430923 -44.085133 0.000000  -0.713116 -0.381176 -0.588362  0.776015 0.991018 0
0  130.313919 -53.977791 32.000000  0.388047 -0.726030 0.567715  0.647100 0.818290 0
0  106.430923 -44.085133 32.000000  -0.713111 -0.381166 0.588375  0.776015 0.818290 0
tire_wall_corner
0  106.430923 -44.085133 32.000000  -0.713111 -0.381166 0.588375  0.345457 0.576131 0
0  130.313919 -53.977791 32.000000  0.388047 -0.726030 0.567715  0.482312 0.548909 0
0  141.050766 0.000000 32.000000  0.636343 0.522267 0.567719  0.482312 0.845977 0
tire_wall_corner
0  115.199997 0.000000 0.000000  -0.512952 0.625056 -0.588375  0.172729 1.000000 0
0  141.050766 0.000000 32.000000  0.636343 0.522267 0.567719  0.271396 0.827271 0
0  141.050766 0.000000 0.000000  0.636356 0.522244 -0.567725  0.271396 1.000000 0
tire_wall_corner
0  106.430923 -44.085133 0.000000  -0.713116 -0.381176 -0.588362  0.136855 0.621357 0
0  115.199997 0.000000 0.000000  -0.512952 0.625056 -0.588375  0.136855 0.863980 0
0  141.050766 0.000000 0.000000  0.636356 0.522244 -0.567725  -0.000000 0.891203 0
tire_wall_corner
0  106.430923 -44.085133 0.000000  -0.713116 -0.381176 -0.588362  0.136855 0.621357 0
0  141.050766 0.000000 0.000000  0.636356 0.522244 -0.567725  -0.000000 0.891203 0
0  130.313919 -53.977791 0.000000  0.388058 -0.726016 -0.567725  -0.000000 0.594135 0
tire_wall_corner
0  106.430923 -44.085133 0.000000  -0.713116 -0.381176 -0.588362  0.690914 0.818290 0
0  106.430923 -44.085133 32.000000  -0.713111 -0.381166 0.588375  0.518186 0.818290 0
0  115.199997 0.000000 32.000000  -0.512968 0.625040 0.588378  0.518186 0.594135 0
tire_wall_corner
0  106.430923 -44.085133 0.000000  -0.713116 -0.381176 -0.588362  0.690914 0.818290 0
0  115.199997 0.000000 32.000000  -0.512968 0.625040 0.588378  0.518186 0.594135 0
0  115.199997 0.000000 0.000000  -0.512952 0.625056 -0.588375  0.690914 0.594135 0
tire_wall_corner
0  130.313919 -53.977791 0.000000  0.388058 -0.726016 -0.567725  0.518186 0.274455 0
0  141.050766 0.000000 0.000000  0.636356 0.522244 -0.567725  0.518186 0.548909 0
0  141.050766 0.000000 32.000000  0.636343 0.522267 0.567719  0.345457 0.548909 0
tire_wall_corner
0  106.430923 -44.085133 0.000000  -0.713116 -0.381176 -0.588362  0.776015 0.991018 0
0  130.313919 -53.977791 0.000000  0.388058 -0.726016 -0.567725  0.647100 0.991018 0
0  130.313919 -53.977791 32.000000  0.388047 -0.726030 0.567715  0.647100 0.818290 0
tire_wall_corner
0  115.199997 0.000000 0.000000  -0.512952 0.625056 -0.588375  0.172729 1.000000 0
0  115.199997 0.000000 32.000000  -0.512968 0.625040 0.588378  0.172729 0.827271 0
0  141.050766 0.000000 32.000000  0.636343 0.522267 0.567719  0.271396 0.827271 0
tire_wall_corner
0  106.430923 -44.085133 32.000000  -0.713111 -0.381166 0.588375  0.345457 0.576131 0
0  141.050766 0.000000 32.000000  0.636343 0.522267 0.567719  0.482312 0.845977 0
0  115.199997 0.000000 32.000000  -0.512968 0.625040 0.588378  0.345457 0.818755 0
tire_wall_corner
0  130.313919 -53.977791 0.000000  0.388058 -0.726016 -0.567725  0.518186 0.274455 0
0  141.050766 0.000000 32.000000  0.636343 0.522267 0.567719  0.345457 0.548909 0
0  130.313919 -53.977791 32.000000  0.388047 -0.726030 0.567715  0.345457 0.274455 0
end
