version 1
nodes
0 "root" -1
end
skeleton
time 0
0 0 0 0 0 0 0
end
triangles
seeker
0  9.000000 0.000000 0.000000  1.000000 0.000000 0.000000  0.799521 0.500000 0
0  4.000000 3.889087 -3.889087  0.372017 0.656358 -0.656352  0.608186 0.405698 0
0  4.000000 5.500000 0.000000  0.372021 0.928224 0.000000  0.692747 0.377730 0
seeker
0  4.000000 3.889087 -3.889087  0.372017 0.656358 -0.656352  0.089067 0.149613 0
0  -5.000000 -0.000000 -5.500000  -0.432749 0.000000 -0.901515  0.215026 0.418915 0
0  -5.000000 3.889087 -3.889087  -0.432744 0.637465 -0.637472  0.089067 0.418915 0
seeker
0  4.000000 3.889087 3.889087  0.372017 0.656358 0.656352  0.304093 0.377024 0
0  -5.000000 3.889087 3.889087  -0.432744 0.637465 0.637472  0.304093 0.107721 0
0  -5.000000 0.000000 5.500000  -0.432744 -0.000005 0.901517  0.393160 0.107721 0
seeker
0  4.000000 3.889087 -3.889087  0.372017 0.656358 -0.656352  0.089067 0.149613 0
0  4.000000 -0.000000 -5.500000  0.372013 0.000000 -0.928228  0.215026 0.149613 0
0  -5.000000 -0.000000 -5.500000  -0.432749 0.000000 -0.901515  0.215026 0.418915 0
seeker
0  4.000000 -3.889087 3.889087  0.372017 -0.656352 0.656358  0.519119 0.377024 0
0  -5.000000 -3.889087 3.889087  -0.432744 -0.637472 0.637465  0.519119 0.107721 0
0  -5.000000 -5.500000 0.000000  -0.432744 -0.901517 -0.000005  0.608186 0.107721 0
seeker
0  4.000000 3.889087 3.889087  0.372017 0.656358 0.656352  0.812336 0.338179 0
0  9.000000 0.000000 0.000000  1.000000 0.000000 0.000000  0.799521 0.500000 0
0  4.000000 5.500000 0.000000  0.372021 0.928224 0.000000  0.692747 0.377730 0
seeker
0  4.000000 3.889087 3.889087  0.372017 0.656358 0.656352  0.304093 0.377024 0
0  4.000000 0.000000 5.500000  0.372017 0.000005 0.928226  0.393160 0.377024 0
0  9.000000 0.000000 0.000000  1.000000 0.000000 0.000000  0.456139 0.526636 0
seeker
0  4.000000 0.000000 5.500000  0.372017 0.000005 0.928226  0.393160 0.377024 0
0  4.000000 -3.889087 3.889087  0.372017 -0.656352 0.656358  0.519119 0.377024 0
0  9.000000 0.000000 0.000000  1.000000 0.000000 0.000000  0.456139 0.526636 0
seeker
0  4.000000 -3.889087 3.889087  0.372017 -0.656352 0.656358  0.812336 0.594302 0
0  4.000000 -5.500000 0.000000  0.372017 -0.928226 0.000005  0.727774 0.622270 0
0  9.000000 0.000000 0.000000  1.000000 0.000000 0.000000  0.621001 0.500000 0
seeker
0  4.000000 -5.500000 0.000000  0.372017 -0.928226 0.000005  0.727774 0.622270 0
0  4.000000 -3.889087 -3.889087  0.372017 -0.656358 -0.656352  0.608186 0.661821 0
0  9.000000 0.000000 0.000000  1.000000 0.000000 0.000000  0.621001 0.500000 0
seeker
0  4.000000 -3.889087 -3.889087  0.372017 -0.656358 -0.656352  0.304093 0.149613 0
0  4.000000 -0.000000 -5.500000  0.372013 0.000000 -0.928228  0.215026 0.149613 0
0  9.000000 0.000000 0.000000  1.000000 0.000000 0.000000  0.152046 0.000000 0
seeker
0  4.000000 -0.000000 -5.500000  0.372013 0.000000 -0.928228  0.215026 0.149613 0
0  4.000000 3.889087 -3.889087  0.372017 0.656358 -0.656352  0.089067 0.149613 0
0  9.000000 0.000000 0.000000  1.000000 0.000000 0.000000  0.152046 0.000000 0
seeker
0  4.000000 -3.889087 3.889087  0.372017 -0.656352 0.656358  0.519119 0.377024 0
0  -5.000000 -5.500000 0.000000  -0.432744 -0.901517 -0.000005  0.608186 0.107721 0
0  4.000000 -5.500000 0.000000  0.372017 -0.928226 0.000005  0.608186 0.377024 0
seeker
0  4.000000 0.000000 5.500000  0.372017 0.000005 0.928226  0.393160 0.377024 0
0  -5.000000 0.000000 5.500000  -0.432744 -0.000005 0.901517  0.393160 0.107721 0
0  -5.000000 -3.889087 3.889087  -0.432744 -0.637472 0.637465  0.519119 0.107721 0
seeker
0  -5.000000 3.889087 -3.889087  -0.432744 0.637465 -0.637472  0.089067 0.418915 0
0  -8.600000 0.000000 0.000000  -1.000000 0.000000 0.000000  0.152046 0.526636 0
0  -5.000000 5.500000 0.000000  -0.432739 0.901519 0.000000  -0.000000 0.418915 0
seeker
0  -8.600000 0.000000 0.000000  -1.000000 0.000000 0.000000  0.634155 0.000000 0
0  -5.000000 3.889087 3.889087  -0.432744 0.637465 0.637472  0.727774 0.082497 0
0  -5.000000 5.500000 0.000000  -0.432739 0.901519 0.000000  0.608186 0.122049 0
seeker
0  4.000000 5.500000 0.000000  0.372021 0.928224 0.000000  0.000000 0.149613 0
0  -5.000000 3.889087 -3.889087  -0.432744 0.637465 -0.637472  0.089067 0.418915 0
0  -5.000000 5.500000 0.000000  -0.432739 0.901519 0.000000  -0.000000 0.418915 0
seeker
0  4.000000 -5.500000 0.000000  0.372017 -0.928226 0.000005  0.727774 0.622270 0
0  -5.000000 -5.500000 0.000000  -0.432744 -0.901517 -0.000005  0.812336 0.877951 0
0  -5.000000 -3.889087 -3.889087  -0.432744 -0.637465 -0.637472  0.692748 0.917503 0
seeker
0  4.000000 5.500000 0.000000  0.372021 0.928224 0.000000  0.692747 0.377730 0
0  -5.000000 3.889087 3.889087  -0.432744 0.637465 0.637472  0.727774 0.082497 0
0  4.000000 3.889087 3.889087  0.372017 0.656358 0.656352  0.812336 0.338179 0
seeker
0  4.000000 5.500000 0.000000  0.372021 0.928224 0.000000  0.000000 0.149613 0
0  4.000000 3.889087 -3.889087  0.372017 0.656358 -0.656352  0.089067 0.149613 0
0  -5.000000 3.889087 -3.889087  -0.432744 0.637465 -0.637472  0.089067 0.418915 0
seeker
0  4.000000 0.000000 5.500000  0.372017 0.000005 0.928226  0.393160 0.377024 0
0  -5.000000 -3.889087 3.889087  -0.432744 -0.637472 0.637465  0.519119 0.107721 0
0  4.000000 -3.889087 3.889087  0.372017 -0.656352 0.656358  0.519119 0.377024 0
seeker
0  4.000000 5.500000 0.000000  0.372021 0.928224 0.000000  0.692747 0.377730 0
0  -5.000000 5.500000 0.000000  -0.432739 0.901519 0.000000  0.608186 0.122049 0
0  -5.000000 3.889087 3.889087  -0.432744 0.637465 0.637472  0.727774 0.082497 0
seeker
0  4.000000 3.889087 3.889087  0.372017 0.656358 0.656352  0.304093 0.377024 0
0  -5.000000 0.000000 5.500000  -0.432744 -0.000005 0.901517  0.393160 0.107721 0
0  4.000000 0.000000 5.500000  0.372017 0.000005 0.928226  0.393160 0.377024 0
seeker
0  4.000000 -3.889087 -3.889087  0.372017 -0.656358 -0.656352  0.304093 0.149613 0
0  -5.000000 -3.889087 -3.889087  -0.432744 -0.637465 -0.637472  0.304093 0.418915 0
0  -5.000000 -0.000000 -5.500000  -0.432749 0.000000 -0.901515  0.215026 0.418915 0
seeker
0  4.000000 -5.500000 0.000000  0.372017 -0.928226 0.000005  0.727774 0.622270 0
0  -5.000000 -3.889087 -3.889087  -0.432744 -0.637465 -0.637472  0.692748 0.917503 0
0  4.000000 -3.889087 -3.889087  0.372017 -0.656358 -0.656352  0.608186 0.661821 0
seeker
0  -5.000000 -0.000000 -5.500000  -0.432749 0.000000 -0.901515  0.215026 0.418915 0
0  -8.600000 0.000000 0.000000  -1.000000 0.000000 0.000000  0.152046 0.526636 0
0  -5.000000 3.889087 -3.889087  -0.432744 0.637465 -0.637472  0.089067 0.418915 0
seeker
0  -8.600000 0.000000 0.000000  -1.000000 0.000000 0.000000  0.634155 0.000000 0
0  -5.000000 0.000000 5.500000  -0.432744 -0.000005 0.901517  0.812336 0.054530 0
0  -5.000000 3.889087 3.889087  -0.432744 0.637465 0.637472  0.727774 0.082497 0
seeker
0  -5.000000 -5.500000 0.000000  -0.432744 -0.901517 -0.000005  0.608186 0.107721 0
0  -5.000000 -3.889087 3.889087  -0.432744 -0.637472 0.637465  0.519119 0.107721 0
0  -8.600000 0.000000 0.000000  -1.000000 0.000000 0.000000  0.456139 0.000000 0
seeker
0  -5.000000 -3.889087 3.889087  -0.432744 -0.637472 0.637465  0.519119 0.107721 0
0  -5.000000 0.000000 5.500000  -0.432744 -0.000005 0.901517  0.393160 0.107721 0
0  -8.600000 0.000000 0.000000  -1.000000 0.000000 0.000000  0.456139 0.000000 0
seeker
0  -5.000000 -0.000000 -5.500000  -0.432749 0.000000 -0.901515  0.608186 0.945470 0
0  -5.000000 -3.889087 -3.889087  -0.432744 -0.637465 -0.637472  0.692748 0.917503 0
0  -8.600000 0.000000 0.000000  -1.000000 0.000000 0.000000  0.786367 1.000000 0
seeker
0  -5.000000 -3.889087 -3.889087  -0.432744 -0.637465 -0.637472  0.692748 0.917503 0
0  -5.000000 -5.500000 0.000000  -0.432744 -0.901517 -0.000005  0.812336 0.877951 0
0  -8.600000 0.000000 0.000000  -1.000000 0.000000 0.000000  0.786367 1.000000 0
seeker
0  4.000000 -3.889087 -3.889087  0.372017 -0.656358 -0.656352  0.304093 0.149613 0
0  -5.000000 -0.000000 -5.500000  -0.432749 0.000000 -0.901515  0.215026 0.418915 0
0  4.000000 -0.000000 -5.500000  0.372013 0.000000 -0.928228  0.215026 0.149613 0
end
