version 1
nodes
0 "root" -1
end
skeleton
time 0
0 0 0 0 0 0 0
end
triangles
ramp_small
0  -32.000000 -48.000000 0.000000  -0.836689 -0.537909 -0.102983  0.412311 0.600000 0
0  32.000000 -48.000000 16.000000  0.507536 -0.565547 0.650049  0.000000 0.600000 0
0  32.000000 48.000000 16.000000  0.507535 0.565542 0.650055  0.000000 0.000000 0
ramp_small
0  -32.000000 -48.000000 0.000000  -0.836689 -0.537909 -0.102983  0.812311 0.000000 0
0  -32.000000 48.000000 0.000000  -0.836683 0.537915 -0.103000  0.812311 0.600000 0
0  32.000000 48.000000 0.000000  0.577344 0.577350 -0.577358  0.412311 0.600000 0
ramp_small
0  -32.000000 -48.000000 0.000000  -0.836689 -0.537909 -0.102983  0.412311 0.600000 0
0  32.000000 48.000000 16.000000  0.507535 0.565542 0.650055  0.000000 0.000000 0
0  -32.000000 48.000000 0.000000  -0.836683 0.537915 -0.103000  0.412311 0.000000 0
ramp_small
0  32.000000 -48.000000 16.000000  0.507536 -0.565547 0.650049  0.812311 -0.000000 0
0  32.000000 -48.000000 0.000000  0.577350 -0.577350 -0.577350  0.912311 -0.000000 0
0  32.000000 48.000000 0.000000  0.577344 0.577350 -0.577358  0.912311 0.600000 0
ramp_small
0  32.000000 -48.000000 0.000000  0.577350 -0.577350 -0.577350  0.100000 0.600000 0
0  32.000000 -48.000000 16.000000  0.507536 -0.565547 0.650049  0.200000 0.600000 0
0  -32.000000 -48.000000 0.000000  -0.836689 -0.537909 -0.102983  0.100000 1.000000 0
ramp_small
0  -32.000000 -48.000000 0.000000  -0.836689 -0.537909 -0.102983  0.812311 0.000000 0
0  32.000000 48.000000 0.000000  0.577344 0.577350 -0.577358  0.412311 0.600000 0
0  32.000000 -48.000000 0.000000  0.577350 -0.577350 -0.577350  0.412311 0.000000 0
ramp_small
0  32.000000 48.000000 16.000000  0.507535 0.565542 0.650055  0.100000 1.000000 0
0  32.000000 48.000000 0.000000  0.577344 0.577350 -0.577358  0.000000 1.000000 0
0  -32.000000 48.000000 0.000000  -0.836683 0.537915 -0.103000  -0.000000 0.600000 0
ramp_small
0  32.000000 -48.000000 16.000000  0.507536 -0.565547 0.650049  0.812311 -0.000000 0
0  32.000000 48.000000 0.000000  0.577344 0.577350 -0.577358  0.912311 0.600000 0
0  32.000000 48.000000 16.000000  0.507535 0.565542 0.650055  0.812311 0.600000 0
end
