version 1
nodes
0 "root" -1
end
skeleton
time 0
0 0 0 0 0 0 0
end
triangles
ramp_small
0  -26.000000 48.000000 0.000000  0.000000 1.000000 0.000000  0.897532 0.949671 0
0  24.320000 48.000000 14.080000  0.000000 1.000000 0.000000  0.889118 0.613543 0
0  24.320000 48.000000 12.580000  0.000000 1.000000 0.000000  0.897532 0.615884 0
ramp_small
0  -32.000000 -48.000000 0.000007  0.000000 -1.000000 0.000000  0.359694 1.000000 0
0  24.320000 -48.000000 12.580008  0.000000 -1.000000 0.000000  0.351280 0.628754 0
0  24.320000 -48.000000 14.080008  0.000000 -1.000000 0.000000  0.359694 0.626413 0
ramp_small
0  -32.000000 48.000000 0.000000  -0.242536 0.000000 0.970142  0.000000 0.617783 0
0  24.320000 -48.000000 14.080008  -0.242536 0.000000 0.970142  0.332245 0.000000 0
0  24.320000 48.000000 14.080000  -0.242536 0.000000 0.970143  0.332245 0.617783 0
ramp_small
0  24.320000 48.000000 14.080000  1.000000 -0.000000 0.000000  0.967168 0.000000 0
0  24.320000 -48.000000 12.580008  1.000000 -0.000000 0.000000  0.958504 0.617783 0
0  24.320000 48.000000 12.580000  1.000000 -0.000000 0.000000  0.958504 0.000000 0
ramp_small
0  24.320000 48.000000 12.580000  0.242536 -0.000000 -0.970142  0.339999 0.617783 0
0  -26.000000 -48.000000 0.000007  0.122182 -0.000000 -0.992508  0.635342 0.000000 0
0  -26.000000 48.000000 0.000000  0.122182 -0.000000 -0.992508  0.635342 0.617783 0
ramp_small
0  -26.000000 48.000000 0.000000  0.122182 -0.000000 -0.992508  0.635342 0.617783 0
0  -32.000000 -48.000000 0.000007  0.000000 -0.000000 -1.000000  0.669950 0.000000 0
0  -32.000000 48.000000 0.000000  0.000000 -0.000000 -1.000000  0.669950 0.617783 0
ramp_small
0  24.320000 48.000000 12.580000  0.000000 1.000000 0.000000  0.737378 0.830046 0
0  32.000000 48.000000 16.000000  0.000000 1.000000 0.000000  0.757153 0.879469 0
0  32.000000 48.000000 14.500000  0.000000 1.000000 0.000000  0.748480 0.879469 0
ramp_small
0  24.320000 -48.000000 14.080008  0.000000 -1.000000 0.000000  0.774043 0.874607 0
0  32.000000 -48.000000 14.500008  0.000000 -1.000000 0.000000  0.765629 0.826004 0
0  32.000000 -48.000000 16.000008  0.000000 -1.000000 0.000000  0.774043 0.823663 0
ramp_small
0  24.320000 48.000000 14.080000  -0.242536 0.000000 0.970142  0.677704 0.617783 0
0  32.000000 -48.000000 16.000008  -0.242535 0.000000 0.970143  0.723010 0.000000 0
0  32.000000 48.000000 16.000000  -0.242536 0.000000 0.970142  0.723010 0.617783 0
ramp_small
0  32.000000 48.000000 16.000000  1.000000 0.000000 0.000000  0.983586 0.000000 0
0  32.000000 -48.000000 14.500008  1.000000 0.000000 0.000000  0.974922 0.617783 0
0  32.000000 48.000000 14.500000  1.000000 0.000000 0.000000  0.974922 0.000000 0
ramp_small
0  32.000000 48.000000 14.500000  0.242535 -0.000000 -0.970143  0.730765 0.617783 0
0  24.320000 -48.000000 12.580008  0.242536 -0.000000 -0.970142  0.775841 0.000000 0
0  24.320000 48.000000 12.580000  0.242535 -0.000000 -0.970142  0.775841 0.617783 0
ramp_small
0  24.320000 48.000000 12.580000  -1.000000 -0.000000 0.000000  0.991340 0.617783 0
0  24.320000 -48.000000 14.080008  -1.000000 -0.000000 0.000000  1.000000 0.000000 0
0  24.320000 48.000000 14.080000  -1.000000 -0.000000 0.000000  1.000000 0.617783 0
ramp_small
0  31.000000 47.000000 14.000000  0.000000 1.000000 0.000000  0.080951 0.980351 0
0  31.000000 47.000000 0.000000  0.000000 1.000000 0.000000  0.000000 0.980351 0
0  -24.000000 47.000000 0.000000  0.000000 1.000000 0.000000  0.000000 0.626413 0
ramp_small
0  -24.000000 45.000000 0.000000  0.000000 -1.000000 0.000000  0.862045 0.365225 0
0  31.000000 45.000000 0.000000  0.000000 -1.000000 0.000000  0.783595 0.022224 0
0  31.000000 45.000000 14.000000  0.000000 -1.000000 0.000000  0.862045 0.000000 0
ramp_small
0  -24.000000 47.000000 0.000000  0.000000 -0.000000 -1.000000  0.312643 0.979482 0
0  31.000000 45.000000 0.000000  0.000000 -0.000000 -1.000000  0.324207 0.626413 0
0  -24.000000 45.000000 0.000000  0.000000 -0.000000 -1.000000  0.324207 0.979482 0
ramp_small
0  31.000000 47.000000 0.000000  1.000000 0.000000 0.000000  0.762479 0.716408 0
0  31.000000 45.000000 14.000000  1.000000 0.000000 0.000000  0.774044 0.626413 0
0  31.000000 45.000000 0.000000  1.000000 0.000000 0.000000  0.774044 0.716408 0
ramp_small
0  31.000000 47.000000 14.000000  -0.246679 0.000000 0.969097  0.285569 0.626413 0
0  -24.000000 45.000000 0.000000  -0.246679 0.000000 0.969097  0.274005 0.987677 0
0  31.000000 45.000000 14.000000  -0.246679 0.000000 0.969097  0.274005 0.626413 0
ramp_small
0  31.000000 -45.000000 14.000000  0.000000 1.000000 0.000000  0.169657 0.980351 0
0  31.000000 -45.000000 0.000000  0.000000 1.000000 0.000000  0.088706 0.980351 0
0  -24.000000 -45.000000 0.000000  0.000000 1.000000 0.000000  0.088706 0.626413 0
ramp_small
0  -24.000000 -47.000000 0.000000  0.000000 -1.000000 0.000000  0.862045 0.739079 0
0  31.000000 -47.000000 0.000000  0.000000 -1.000000 0.000000  0.783595 0.396079 0
0  31.000000 -47.000000 14.000000  0.000000 -1.000000 0.000000  0.862045 0.373855 0
ramp_small
0  -24.000000 -45.000000 0.000000  0.000000 -0.000000 -1.000000  0.331961 0.979482 0
0  31.000000 -47.000000 0.000000  0.000000 -0.000000 -1.000000  0.343526 0.626413 0
0  -24.000000 -47.000000 0.000000  0.000000 -0.000000 -1.000000  0.343526 0.979482 0
ramp_small
0  31.000000 -45.000000 0.000000  1.000000 0.000000 0.000000  0.762479 0.815033 0
0  31.000000 -47.000000 14.000000  1.000000 0.000000 0.000000  0.774044 0.725038 0
0  31.000000 -47.000000 0.000000  1.000000 0.000000 0.000000  0.774044 0.815033 0
ramp_small
0  31.000000 -45.000000 14.000000  -0.246679 0.000000 0.969097  0.304888 0.626413 0
0  -24.000000 -47.000000 0.000000  -0.246679 0.000000 0.969097  0.293324 0.987677 0
0  31.000000 -47.000000 14.000000  -0.246679 0.000000 0.969097  0.293324 0.626413 0
ramp_small
0  29.500000 -47.000000 7.200000  -1.000000 0.000000 0.000000  0.912200 0.604912 0
0  29.500000 47.000000 10.200000  -1.000000 0.000000 0.000000  0.894881 0.000000 0
0  29.500000 47.000000 7.200000  -1.000000 0.000000 0.000000  0.912200 0.000000 0
ramp_small
0  29.500000 47.000000 7.200000  0.000000 1.000000 0.000000  0.636974 0.877537 0
0  31.500000 47.000000 10.200000  0.000000 1.000000 0.000000  0.648538 0.858231 0
0  31.500000 47.000000 7.200000  0.000000 1.000000 0.000000  0.648538 0.877537 0
ramp_small
0  31.500000 47.000000 7.200000  1.000000 0.000000 0.000000  0.887127 0.604912 0
0  31.500000 -47.000000 10.200000  1.000000 0.000000 0.000000  0.869799 0.000000 0
0  31.500000 -47.000000 7.200000  1.000000 0.000000 0.000000  0.887127 0.000000 0
ramp_small
0  31.500000 -47.000000 7.200000  0.000000 -1.000000 0.000000  0.656293 0.877537 0
0  29.500000 -47.000000 10.200000  0.000000 -1.000000 0.000000  0.667857 0.858231 0
0  29.500000 -47.000000 7.200000  0.000000 -1.000000 0.000000  0.667857 0.877537 0
ramp_small
0  29.500000 47.000000 7.200000  0.000000 0.000000 -1.000000  0.931491 0.604912 0
0  31.500000 -47.000000 7.200000  0.000000 0.000000 -1.000000  0.919955 0.000000 0
0  29.500000 -47.000000 7.200000  0.000000 0.000000 -1.000000  0.931491 0.000000 0
ramp_small
0  31.500000 47.000000 10.200000  0.000000 0.000000 1.000000  0.950750 0.604913 0
0  29.500000 -47.000000 10.200000  0.000000 0.000000 1.000000  0.939245 0.000000 0
0  31.500000 -47.000000 10.200000  0.000000 0.000000 1.000000  0.950750 0.000000 0
ramp_small
0  29.000000 -46.500000 0.000000  -1.000000 0.000000 0.000000  0.737378 0.821416 0
0  29.000000 -43.500000 14.500000  -1.000000 0.000000 0.000000  0.754725 0.728252 0
0  29.000000 -43.500000 0.000000  -1.000000 0.000000 0.000000  0.754725 0.821416 0
ramp_small
0  29.000000 -43.500000 0.000000  0.000000 1.000000 0.000000  0.636974 0.719724 0
0  32.000000 -43.500000 14.500000  0.000000 1.000000 0.000000  0.654321 0.626413 0
0  32.000000 -43.500000 0.000000  0.000000 1.000000 0.000000  0.654321 0.719724 0
ramp_small
0  32.000000 -43.500000 0.000000  1.000000 0.000000 0.000000  0.687176 0.821563 0
0  32.000000 -46.500000 14.500000  1.000000 0.000000 0.000000  0.704523 0.728354 0
0  32.000000 -46.500000 0.000000  1.000000 0.000000 0.000000  0.704523 0.821563 0
ramp_small
0  32.000000 -46.500000 0.000000  0.000000 -1.000000 0.000000  0.662075 0.719724 0
0  29.000000 -46.500000 14.500000  0.000000 -1.000000 0.000000  0.679422 0.626413 0
0  29.000000 -46.500000 0.000000  0.000000 -1.000000 0.000000  0.679422 0.719724 0
ramp_small
0  29.000000 -43.500000 0.000000  0.000000 0.000000 -1.000000  0.729538 0.849499 0
0  32.000000 -46.500000 0.000000  0.000000 0.000000 -1.000000  0.712234 0.830193 0
0  29.000000 -46.500000 0.000000  0.000000 0.000000 -1.000000  0.729538 0.830193 0
ramp_small
0  32.000000 -43.500000 14.500000  0.000000 0.000000 1.000000  0.687176 0.858129 0
0  29.000000 -46.500000 14.500000  0.000000 0.000000 1.000000  0.704433 0.877435 0
0  32.000000 -46.500000 14.500000  0.000000 0.000000 1.000000  0.687176 0.877435 0
ramp_small
0  32.000000 -44.000000 1.200000  0.000000 0.000000 1.000000  0.227613 0.626413 0
0  -26.000000 -46.000000 1.200000  0.000000 0.000000 1.000000  0.216049 0.997723 0
0  32.000000 -46.000000 1.200000  0.000000 0.000000 1.000000  0.216049 0.626413 0
ramp_small
0  32.000000 -44.000000 0.000000  1.000000 0.000000 0.000000  0.790526 0.862374 0
0  32.000000 -46.000000 1.200000  1.000000 0.000000 0.000000  0.783595 0.849503 0
0  32.000000 -46.000000 0.000000  1.000000 0.000000 0.000000  0.790526 0.849503 0
ramp_small
0  -10.641768 -44.363605 2.360148  0.000000 1.000000 0.000000  0.455607 0.903360 0
0  31.041767 -44.363605 13.139852  0.000000 1.000000 0.000002  0.462967 0.626413 0
0  -10.286807 -44.363605 1.137855  0.000000 1.000000 0.000000  0.462967 0.903360 0
ramp_small
0  29.000000 -1.500000 0.000000  -1.000000 0.000000 0.000000  0.783595 0.840873 0
0  29.000000 1.500000 14.500000  -1.000000 0.000000 0.000000  0.800942 0.747709 0
0  29.000000 1.500000 0.000000  -1.000000 0.000000 0.000000  0.800942 0.840873 0
ramp_small
0  -26.000000 -44.000000 0.000000  0.000000 1.000000 0.000000  0.374388 0.999657 0
0  32.000000 -44.000000 1.200000  0.000000 1.000000 0.000000  0.367449 0.626413 0
0  32.000000 -44.000000 0.000000  0.000000 1.000000 0.000000  0.374388 0.626413 0
ramp_small
0  -10.286807 -44.363605 1.137855  0.278883 0.000000 -0.960325  0.606746 0.897129 0
0  31.041767 -45.636395 13.139852  0.278883 0.000000 -0.960325  0.614106 0.626413 0
0  -10.286807 -45.636395 1.137855  0.278883 0.000000 -0.960325  0.614106 0.897129 0
ramp_small
0  31.041767 -44.363605 13.139852  0.960325 0.000000 0.278884  0.644130 0.913284 0
0  30.686806 -45.636395 14.362145  0.960325 0.000000 0.278884  0.636974 0.905093 0
0  31.041767 -45.636395 13.139852  0.960325 0.000000 0.278884  0.644130 0.905093 0
ramp_small
0  -26.000000 -46.000000 0.000000  -1.000000 0.000000 0.000000  0.805208 0.883874 0
0  -26.000000 -44.000000 1.200000  -1.000000 0.000000 0.000000  0.798281 0.871004 0
0  -26.000000 -44.000000 0.000000  -1.000000 0.000000 0.000000  0.805208 0.871004 0
ramp_small
0  -10.286807 -45.636395 1.137855  0.000000 -1.000000 -0.000000  0.470721 0.903360 0
0  30.686806 -45.636395 14.362145  0.000000 -1.000000 -0.000002  0.478081 0.626413 0
0  -10.641768 -45.636395 2.360148  0.000000 -1.000000 0.000000  0.478081 0.903360 0
ramp_small
0  -26.000000 -44.000000 0.000000  0.000000 0.000000 -1.000000  0.869799 0.985869 0
0  32.000000 -46.000000 0.000000  0.000000 0.000000 -1.000000  0.881363 0.613542 0
0  -26.000000 -46.000000 0.000000  0.000000 0.000000 -1.000000  0.881363 0.985869 0
ramp_small
0  32.000000 -46.000000 0.000000  0.000000 -1.000000 0.000000  0.389080 0.999657 0
0  -26.000000 -46.000000 1.200000  0.000000 -1.000000 0.000000  0.382142 0.626413 0
0  -26.000000 -46.000000 0.000000  0.000000 -1.000000 0.000000  0.389080 0.626413 0
ramp_small
0  -10.641768 -45.636395 2.360148  -0.278883 0.000000 0.960325  0.561405 0.898847 0
0  30.686806 -44.363605 14.362145  -0.278883 0.000000 0.960325  0.568764 0.626413 0
0  -10.641768 -44.363605 2.360148  -0.278883 0.000000 0.960325  0.568764 0.898847 0
ramp_small
0  -10.641768 -44.363605 2.360148  -0.960325 0.000000 -0.278884  0.812966 0.849503 0
0  -10.286807 -45.636395 1.137855  -0.960325 0.000000 -0.278884  0.820138 0.857694 0
0  -10.641768 -45.636395 2.360148  -0.960325 0.000000 -0.278883  0.812966 0.857694 0
ramp_small
0  29.000000 1.500000 0.000000  0.000000 1.000000 0.000000  0.687176 0.719724 0
0  32.000000 1.500000 14.500000  0.000000 1.000000 0.000000  0.704523 0.626413 0
0  32.000000 1.500000 0.000000  0.000000 1.000000 0.000000  0.704523 0.719724 0
ramp_small
0  32.000000 1.500000 0.000000  1.000000 0.000000 0.000000  0.712277 0.821563 0
0  32.000000 -1.500000 14.500000  1.000000 0.000000 0.000000  0.729624 0.728354 0
0  32.000000 -1.500000 0.000000  1.000000 0.000000 0.000000  0.729624 0.821563 0
ramp_small
0  32.000000 -1.500000 0.000000  0.000000 -1.000000 0.000000  0.712277 0.719724 0
0  29.000000 -1.500000 14.500000  0.000000 -1.000000 0.000000  0.729624 0.626413 0
0  29.000000 -1.500000 0.000000  0.000000 -1.000000 0.000000  0.729624 0.719724 0
ramp_small
0  29.000000 1.500000 0.000000  0.000000 0.000000 -1.000000  0.704480 0.849499 0
0  32.000000 -1.500000 0.000000  0.000000 0.000000 -1.000000  0.687176 0.830193 0
0  29.000000 -1.500000 0.000000  0.000000 0.000000 -1.000000  0.704480 0.830193 0
ramp_small
0  32.000000 1.500000 14.500000  0.000000 0.000000 1.000000  0.679289 0.849601 0
0  29.000000 -1.500000 14.500000  0.000000 0.000000 1.000000  0.662032 0.830295 0
0  32.000000 -1.500000 14.500000  0.000000 0.000000 1.000000  0.679289 0.830295 0
ramp_small
0  32.000000 1.000000 1.200000  0.000000 0.000000 1.000000  0.246932 0.626413 0
0  -26.000000 -1.000000 1.200000  0.000000 0.000000 1.000000  0.235367 0.997723 0
0  32.000000 -1.000000 1.200000  0.000000 0.000000 1.000000  0.235367 0.626413 0
ramp_small
0  32.000000 1.000000 0.000000  1.000000 0.000000 0.000000  0.790526 0.883874 0
0  32.000000 -1.000000 1.200000  1.000000 0.000000 0.000000  0.783595 0.871004 0
0  32.000000 -1.000000 0.000000  1.000000 0.000000 0.000000  0.790526 0.871004 0
ramp_small
0  -10.641768 0.636396 2.360148  -0.000000 1.000000 0.000000  0.485835 0.903360 0
0  31.041767 0.636396 13.139852  -0.000000 1.000000 0.000000  0.493194 0.626413 0
0  -10.286807 0.636396 1.137855  -0.000000 1.000000 0.000000  0.493194 0.903360 0
ramp_small
0  29.000000 43.500000 0.000000  -1.000000 0.000000 0.000000  0.808696 0.840873 0
0  29.000000 46.500000 14.500000  -1.000000 0.000000 0.000000  0.826043 0.747709 0
0  29.000000 46.500000 0.000000  -1.000000 0.000000 0.000000  0.826043 0.840873 0
ramp_small
0  -26.000000 1.000000 0.000000  0.000000 1.000000 0.000000  0.403774 0.999657 0
0  32.000000 1.000000 1.200000  0.000000 1.000000 0.000000  0.396835 0.626413 0
0  32.000000 1.000000 0.000000  0.000000 1.000000 0.000000  0.403774 0.626413 0
ramp_small
0  -10.286807 0.636396 1.137855  0.278883 0.000000 -0.960325  0.591632 0.897129 0
0  31.041767 -0.636396 13.139852  0.278883 0.000000 -0.960325  0.598992 0.626413 0
0  -10.286807 -0.636396 1.137855  0.278883 0.000000 -0.960325  0.598992 0.897129 0
ramp_small
0  31.041767 0.636396 13.139852  0.960325 0.000000 0.278884  0.716784 0.904991 0
0  30.686806 -0.636396 14.362145  0.960325 0.000000 0.278884  0.723940 0.913182 0
0  31.041767 -0.636396 13.139852  0.960325 0.000000 0.278883  0.716784 0.913182 0
ramp_small
0  -26.000000 -1.000000 0.000000  -1.000000 0.000000 0.000000  0.772557 0.898448 0
0  -26.000000 1.000000 1.200000  -1.000000 0.000000 0.000000  0.765629 0.885578 0
0  -26.000000 1.000000 0.000000  -1.000000 0.000000 0.000000  0.772557 0.885578 0
ramp_small
0  -10.286807 -0.636396 1.137855  0.000000 -1.000000 -0.000000  0.500949 0.903360 0
0  30.686806 -0.636396 14.362145  0.000000 -1.000000 0.000000  0.508308 0.626413 0
0  -10.641768 -0.636396 2.360148  0.000000 -1.000000 -0.000000  0.508308 0.903360 0
ramp_small
0  -26.000000 1.000000 0.000000  0.000000 0.000000 -1.000000  0.177411 0.998740 0
0  32.000000 -1.000000 0.000000  0.000000 0.000000 -1.000000  0.188975 0.626413 0
0  -26.000000 -1.000000 0.000000  0.000000 0.000000 -1.000000  0.188975 0.998740 0
ramp_small
0  32.000000 -1.000000 0.000000  0.000000 -1.000000 0.000000  0.418467 0.999657 0
0  -26.000000 -1.000000 1.200000  0.000000 -1.000000 0.000000  0.411528 0.626413 0
0  -26.000000 -1.000000 0.000000  0.000000 -1.000000 0.000000  0.418467 0.626413 0
ramp_small
0  -10.641768 -0.636396 2.360148  -0.278883 0.000000 0.960325  0.546291 0.898847 0
0  30.686806 0.636396 14.362145  -0.278883 0.000000 0.960325  0.553650 0.626413 0
0  -10.641768 0.636396 2.360148  -0.278883 0.000000 0.960325  0.553650 0.898847 0
ramp_small
0  -10.641768 0.636396 2.360148  -0.960325 0.000000 -0.278884  0.812963 0.871004 0
0  -10.286807 -0.636396 1.137855  -0.960325 0.000000 -0.278884  0.820134 0.879195 0
0  -10.641768 -0.636396 2.360148  -0.960325 0.000000 -0.278884  0.812963 0.879195 0
ramp_small
0  29.000000 46.500000 0.000000  0.000000 1.000000 0.000000  0.636974 0.821665 0
0  32.000000 46.500000 14.500000  0.000000 1.000000 0.000000  0.654321 0.728354 0
0  32.000000 46.500000 0.000000  0.000000 1.000000 0.000000  0.654321 0.821665 0
ramp_small
0  32.000000 46.500000 0.000000  1.000000 0.000000 0.000000  0.737378 0.719622 0
0  32.000000 43.500000 14.500000  1.000000 0.000000 0.000000  0.754725 0.626413 0
0  32.000000 43.500000 0.000000  1.000000 0.000000 0.000000  0.754725 0.719622 0
ramp_small
0  32.000000 43.500000 0.000000  0.000000 -1.000000 0.000000  0.662075 0.821665 0
0  29.000000 43.500000 14.500000  0.000000 -1.000000 0.000000  0.679422 0.728354 0
0  29.000000 43.500000 0.000000  0.000000 -1.000000 0.000000  0.679422 0.821665 0
ramp_small
0  29.000000 46.500000 0.000000  0.000000 0.000000 -1.000000  0.654278 0.849601 0
0  32.000000 43.500000 0.000000  0.000000 0.000000 -1.000000  0.636974 0.830295 0
0  29.000000 43.500000 0.000000  0.000000 0.000000 -1.000000  0.654278 0.830295 0
ramp_small
0  32.000000 46.500000 14.500000  0.000000 0.000000 1.000000  0.712234 0.858129 0
0  29.000000 43.500000 14.500000  0.000000 0.000000 1.000000  0.729491 0.877435 0
0  32.000000 43.500000 14.500000  0.000000 0.000000 1.000000  0.712234 0.877435 0
ramp_small
0  32.000000 46.000000 1.200000  0.000000 0.000000 1.000000  0.266251 0.626413 0
0  -26.000000 44.000000 1.200000  0.000000 0.000000 1.000000  0.254686 0.997723 0
0  32.000000 44.000000 1.200000  0.000000 0.000000 1.000000  0.254686 0.626413 0
ramp_small
0  32.000000 46.000000 0.000000  1.000000 0.000000 0.000000  0.805212 0.862374 0
0  32.000000 44.000000 1.200000  1.000000 0.000000 0.000000  0.798281 0.849503 0
0  32.000000 44.000000 0.000000  1.000000 0.000000 0.000000  0.805212 0.849503 0
ramp_small
0  -10.641768 45.636395 2.360148  0.000000 1.000000 0.000000  0.516063 0.903360 0
0  31.041767 45.636395 13.139852  0.000000 1.000000 0.000002  0.523422 0.626413 0
0  -10.286807 45.636395 1.137855  0.000000 1.000000 0.000000  0.523422 0.903360 0
ramp_small
0  -26.000000 46.000000 0.000000  0.000000 1.000000 0.000000  0.433160 0.999657 0
0  32.000000 46.000000 1.200000  0.000000 1.000000 0.000000  0.426221 0.626413 0
0  32.000000 46.000000 0.000000  0.000000 1.000000 0.000000  0.433160 0.626413 0
ramp_small
0  -10.286807 45.636395 1.137855  0.278883 0.000000 -0.960325  0.621860 0.897129 0
0  31.041767 44.363605 13.139852  0.278883 0.000000 -0.960325  0.629220 0.626413 0
0  -10.286807 44.363605 1.137855  0.278883 0.000000 -0.960325  0.629220 0.897129 0
ramp_small
0  31.041767 45.636395 13.139852  0.960325 0.000000 0.278884  0.659040 0.913284 0
0  30.686806 44.363605 14.362145  0.960325 0.000000 0.278884  0.651884 0.905093 0
0  31.041767 44.363605 13.139852  0.960325 0.000000 0.278885  0.659040 0.905093 0
ramp_small
0  -26.000000 44.000000 0.000000  -1.000000 0.000000 0.000000  0.694104 0.898935 0
0  -26.000000 46.000000 1.200000  -1.000000 0.000000 0.000000  0.687176 0.886065 0
0  -26.000000 46.000000 0.000000  -1.000000 0.000000 0.000000  0.694104 0.886065 0
ramp_small
0  -10.286807 44.363605 1.137855  0.000000 -1.000000 0.000004  0.531177 0.903360 0
0  30.686806 44.363605 14.362145  0.000000 -1.000000 -0.000002  0.538536 0.626413 0
0  -10.641768 44.363605 2.360148  0.000000 -1.000000 0.000004  0.538536 0.903360 0
ramp_small
0  -26.000000 46.000000 0.000000  0.000000 0.000000 -1.000000  0.196730 0.998740 0
0  32.000000 44.000000 0.000000  0.000000 0.000000 -1.000000  0.208294 0.626413 0
0  -26.000000 44.000000 0.000000  0.000000 0.000000 -1.000000  0.208294 0.998740 0
ramp_small
0  32.000000 44.000000 0.000000  0.000000 -1.000000 0.000000  0.447853 0.999657 0
0  -26.000000 44.000000 1.200000  0.000000 -1.000000 0.000000  0.440914 0.626413 0
0  -26.000000 44.000000 0.000000  0.000000 -1.000000 0.000000  0.447853 0.626413 0
ramp_small
0  -10.641768 44.363605 2.360148  -0.278883 0.000000 0.960325  0.576518 0.898847 0
0  30.686806 45.636395 14.362145  -0.278883 0.000000 0.960325  0.583878 0.626413 0
0  -10.641768 45.636395 2.360148  -0.278883 0.000000 0.960325  0.583878 0.898847 0
ramp_small
0  -10.641768 45.636395 2.360148  -0.960325 0.000000 -0.278884  0.701858 0.904991 0
0  -10.286807 44.363605 1.137855  -0.960325 0.000000 -0.278884  0.709030 0.913182 0
0  -10.641768 44.363605 2.360148  -0.960325 0.000000 -0.278885  0.701858 0.913182 0
ramp_small
0  -14.000000 46.799999 4.300000  0.499998 0.866027 0.000000  0.595680 0.910218 0
0  -13.307179 46.400002 5.000000  0.499998 0.866026 0.000000  0.591632 0.905759 0
0  -13.307179 46.400002 4.300000  0.499999 0.866026 0.000000  0.595680 0.905759 0
ramp_small
0  -13.307179 46.400002 4.300000  1.000000 0.000000 0.000000  0.562131 0.912625 0
0  -13.307179 45.599998 5.000000  1.000000 0.000000 0.000000  0.558088 0.907477 0
0  -13.307179 45.599998 4.300000  1.000000 0.000000 0.000000  0.562131 0.907477 0
ramp_small
0  10.000000 46.799999 10.299999  0.499998 0.866027 0.000000  0.757151 0.892557 0
0  10.692821 46.400002 11.000000  0.499998 0.866027 0.000000  0.753103 0.888099 0
0  10.692821 46.400002 10.299999  0.499999 0.866026 0.000000  0.757151 0.888099 0
ramp_small
0  -14.000000 -45.200001 4.300000  0.499998 0.866027 0.000000  0.607482 0.910218 0
0  -13.307179 -45.599998 5.000000  0.499998 0.866026 0.000000  0.603434 0.905759 0
0  -13.307179 -45.599998 4.300000  0.499999 0.866026 0.000000  0.607482 0.905759 0
ramp_small
0  -13.307179 45.599998 4.300000  0.499998 -0.866026 0.000000  0.619284 0.914676 0
0  -14.000000 45.200001 5.000000  0.499998 -0.866027 0.000000  0.615236 0.910218 0
0  -14.000000 45.200001 4.300000  0.499996 -0.866027 0.000000  0.619284 0.910218 0
ramp_small
0  10.000000 -45.200001 10.299999  0.499998 0.866027 0.000000  0.819093 0.896963 0
0  10.692821 -45.599998 11.000000  0.499998 0.866027 0.000000  0.815045 0.892504 0
0  10.692821 -45.599998 10.299999  0.499999 0.866026 0.000000  0.819093 0.892504 0
ramp_small
0  -14.000000 45.200001 4.300000  -0.499998 -0.866027 0.000000  0.619284 0.910218 0
0  -14.692821 45.599998 5.000000  -0.499998 -0.866026 0.000000  0.615236 0.905759 0
0  -14.692821 45.599998 4.300000  -0.499999 -0.866026 0.000000  0.619284 0.905759 0
ramp_small
0  -14.000000 45.200001 5.000000  0.000000 0.000000 1.000000  0.787580 0.902801 0
0  -13.307179 45.599998 5.000000  0.000000 0.000000 1.000000  0.783595 0.900227 0
0  -14.000000 46.799999 5.000000  0.000000 0.000000 1.000000  0.787580 0.892504 0
ramp_small
0  -14.692821 45.599998 4.300000  -1.000000 0.000000 0.000000  0.787636 0.916579 0
0  -14.692821 46.400002 5.000000  -1.000000 0.000000 0.000000  0.783595 0.911431 0
0  -14.692821 46.400002 4.300000  -1.000000 0.000000 0.000000  0.787636 0.911431 0
ramp_small
0  -13.307179 -46.400002 4.300000  0.499998 -0.866026 0.000000  0.741426 0.915942 0
0  -14.000000 -46.799999 5.000000  0.499998 -0.866027 0.000000  0.737378 0.911483 0
0  -14.000000 -46.799999 4.300000  0.499996 -0.866027 0.000000  0.741426 0.911483 0
ramp_small
0  -13.307179 -45.599998 4.300000  1.000000 0.000000 0.000000  0.573929 0.912625 0
0  -13.307179 -46.400002 5.000000  1.000000 0.000000 0.000000  0.569886 0.907477 0
0  -13.307179 -46.400002 4.300000  1.000000 0.000000 0.000000  0.573929 0.907477 0
ramp_small
0  -14.692821 46.400002 4.300000  -0.499998 0.866026 0.000000  0.595680 0.914676 0
0  -14.000000 46.799999 5.000000  -0.499998 0.866027 0.000000  0.591632 0.910218 0
0  -14.000000 46.799999 4.300000  -0.499996 0.866027 0.000000  0.595680 0.910218 0
ramp_small
0  -14.000000 45.200001 4.300000  0.000000 0.000000 -1.000000  0.640970 0.886167 0
0  -14.692821 45.599998 4.300000  0.000001 0.000000 -1.000000  0.644966 0.888741 0
0  -14.692821 46.400002 4.300000  0.000000 0.000000 -1.000000  0.644966 0.893889 0
ramp_small
0  -14.000000 -46.799999 4.300000  -0.499998 -0.866027 0.000000  0.741426 0.911483 0
0  -14.692821 -46.400002 5.000000  -0.499998 -0.866026 0.000000  0.737378 0.907025 0
0  -14.692821 -46.400002 4.300000  -0.499999 -0.866026 0.000000  0.741426 0.907025 0
ramp_small
0  -14.692821 -45.599998 5.000000  0.000000 0.000000 1.000000  0.807291 0.895078 0
0  -14.692821 -46.400002 5.000000  0.000000 0.000000 1.000000  0.807291 0.900227 0
0  -14.000000 -46.799999 5.000000  0.000000 0.000000 1.000000  0.803305 0.902801 0
ramp_small
0  -14.692821 -46.400002 4.300000  -1.000000 0.000000 0.000000  0.799432 0.916579 0
0  -14.692821 -45.599998 5.000000  -1.000000 0.000000 0.000000  0.795391 0.911431 0
0  -14.692821 -45.599998 4.300000  -1.000000 0.000000 0.000000  0.799432 0.911431 0
ramp_small
0  10.692821 45.599998 10.299999  0.499998 -0.866027 0.000000  0.670842 0.914010 0
0  10.000000 45.200001 11.000000  0.499998 -0.866027 0.000000  0.666794 0.909552 0
0  10.000000 45.200001 10.299999  0.499997 -0.866027 0.000000  0.670842 0.909552 0
ramp_small
0  10.692821 46.400002 10.299999  1.000000 0.000000 0.000000  0.769672 0.912226 0
0  10.692821 45.599998 11.000000  1.000000 0.000000 0.000000  0.765629 0.907078 0
0  10.692821 45.599998 10.299999  1.000000 0.000000 0.000000  0.769672 0.907078 0
ramp_small
0  -14.692821 -45.599998 4.300000  -0.499998 0.866026 0.000000  0.607482 0.914676 0
0  -14.000000 -45.200001 5.000000  -0.499998 0.866027 0.000000  0.603434 0.910218 0
0  -14.000000 -45.200001 4.300000  -0.499996 0.866027 0.000000  0.607482 0.910218 0
ramp_small
0  -14.000000 -45.200001 4.300000  0.000000 0.000000 -1.000000  0.656717 0.896463 0
0  -13.307179 -45.599998 4.300000  -0.000001 0.000000 -1.000000  0.652721 0.893889 0
0  -13.307179 -46.400002 4.300000  -0.000000 0.000000 -1.000000  0.652721 0.888741 0
ramp_small
0  10.000000 45.200001 10.299999  -0.499998 -0.866027 0.000000  0.670842 0.909552 0
0  9.307179 45.599998 11.000000  -0.499998 -0.866027 0.000000  0.666794 0.905093 0
0  9.307179 45.599998 10.299999  -0.499999 -0.866026 0.000000  0.670842 0.905093 0
ramp_small
0  10.000000 45.200001 11.000000  0.000000 0.000000 1.000000  0.672453 0.896463 0
0  10.692821 45.599998 11.000000  0.000000 0.000000 1.000000  0.668467 0.893889 0
0  10.000000 46.799999 11.000000  0.000000 0.000000 1.000000  0.672453 0.886167 0
ramp_small
0  9.307179 45.599998 10.299999  -1.000000 0.000000 0.000000  0.691217 0.912713 0
0  9.307179 46.400002 11.000000  -1.000000 0.000000 0.000000  0.687176 0.907565 0
0  9.307179 46.400002 10.299999  -1.000000 0.000000 0.000000  0.691217 0.907565 0
ramp_small
0  10.692821 -46.400002 10.299999  0.499998 -0.866027 0.000000  0.757151 0.914563 0
0  10.000000 -46.799999 11.000000  0.499998 -0.866027 0.000000  0.753103 0.910104 0
0  10.000000 -46.799999 10.299999  0.499997 -0.866027 0.000000  0.757151 0.910104 0
ramp_small
0  10.692821 -45.599998 10.299999  1.000000 0.000000 0.000000  0.550334 0.912625 0
0  10.692821 -46.400002 11.000000  1.000000 0.000000 0.000000  0.546291 0.907477 0
0  10.692821 -46.400002 10.299999  1.000000 0.000000 0.000000  0.550334 0.907477 0
ramp_small
0  9.307179 46.400002 10.299999  -0.499998 0.866027 0.000000  0.757151 0.897016 0
0  10.000000 46.799999 11.000000  -0.499998 0.866027 0.000000  0.753103 0.892557 0
0  10.000000 46.799999 10.299999  -0.499997 0.866027 0.000000  0.757151 0.892557 0
ramp_small
0  10.000000 46.799999 10.299999  -0.000001 0.000000 -1.000000  0.705854 0.896361 0
0  10.692821 46.400002 10.299999  0.000001 0.000000 -1.000000  0.701858 0.893787 0
0  10.000000 45.200001 10.299999  -0.000000 0.000000 -1.000000  0.705854 0.886065 0
ramp_small
0  10.000000 -46.799999 10.299999  -0.499998 -0.866027 0.000000  0.757151 0.910104 0
0  9.307179 -46.400002 11.000000  -0.499998 -0.866027 0.000000  0.753103 0.905646 0
0  9.307179 -46.400002 10.299999  -0.499999 -0.866026 0.000000  0.757151 0.905646 0
ramp_small
0  9.307179 -46.400002 10.299999  -0.000001 0.000000 -1.000000  0.725597 0.888639 0
0  9.307179 -45.599998 10.299999  0.000000 0.000000 -1.000000  0.725597 0.893787 0
0  10.000000 -45.200001 10.299999  0.000000 0.000000 -1.000000  0.721601 0.896361 0
ramp_small
0  9.307179 -46.400002 10.299999  -1.000000 0.000000 0.000000  0.819086 0.915199 0
0  9.307179 -45.599998 11.000000  -1.000000 0.000000 0.000000  0.815045 0.910051 0
0  9.307179 -45.599998 10.299999  -1.000000 0.000000 0.000000  0.819086 0.910051 0
ramp_small
0  9.307179 -45.599998 10.299999  -0.499998 0.866027 0.000000  0.819093 0.901421 0
0  10.000000 -45.200001 11.000000  -0.499998 0.866027 0.000000  0.815045 0.896963 0
0  10.000000 -45.200001 10.299999  -0.499997 0.866027 0.000000  0.819093 0.896963 0
ramp_small
0  10.000000 -45.200001 11.000000  0.000000 0.000000 1.000000  0.741363 0.888099 0
0  9.307179 -45.599998 11.000000  0.000000 0.000000 1.000000  0.745349 0.890673 0
0  9.307179 -46.400002 11.000000  0.000000 0.000000 1.000000  0.745349 0.895821 0
ramp_small
0  -26.000000 48.000000 0.000000  0.000000 1.000000 0.000000  0.897532 0.949671 0
0  -32.000000 48.000000 0.000000  0.000000 1.000000 0.000000  0.889118 0.987130 0
0  24.320000 48.000000 14.080000  0.000000 1.000000 0.000000  0.889118 0.613543 0
ramp_small
0  -32.000000 -48.000000 0.000007  0.000000 -1.000000 0.000000  0.359694 1.000000 0
0  -26.000000 -48.000000 0.000007  0.000000 -1.000000 0.000000  0.351280 0.962541 0
0  24.320000 -48.000000 12.580008  0.000000 -1.000000 0.000000  0.351280 0.628754 0
ramp_small
0  -32.000000 48.000000 0.000000  -0.242536 0.000000 0.970142  0.000000 0.617783 0
0  -32.000000 -48.000000 0.000007  -0.242536 0.000000 0.970143  0.000000 0.000000 0
0  24.320000 -48.000000 14.080008  -0.242536 0.000000 0.970142  0.332245 0.000000 0
ramp_small
0  24.320000 48.000000 14.080000  1.000000 -0.000000 0.000000  0.967168 0.000000 0
0  24.320000 -48.000000 14.080008  1.000000 0.000000 0.000000  0.967168 0.617783 0
0  24.320000 -48.000000 12.580008  1.000000 -0.000000 0.000000  0.958504 0.617783 0
ramp_small
0  24.320000 48.000000 12.580000  0.242536 -0.000000 -0.970142  0.339999 0.617783 0
0  24.320000 -48.000000 12.580008  0.242536 -0.000000 -0.970142  0.339999 0.000000 0
0  -26.000000 -48.000000 0.000007  0.122182 -0.000000 -0.992508  0.635342 0.000000 0
ramp_small
0  -26.000000 48.000000 0.000000  0.122182 -0.000000 -0.992508  0.635342 0.617783 0
0  -26.000000 -48.000000 0.000007  0.122182 -0.000000 -0.992508  0.635342 0.000000 0
0  -32.000000 -48.000000 0.000007  0.000000 -0.000000 -1.000000  0.669950 0.000000 0
ramp_small
0  24.320000 48.000000 12.580000  0.000000 1.000000 0.000000  0.737378 0.830046 0
0  24.320000 48.000000 14.080000  0.000000 1.000000 0.000000  0.746051 0.830046 0
0  32.000000 48.000000 16.000000  0.000000 1.000000 0.000000  0.757153 0.879469 0
ramp_small
0  24.320000 -48.000000 14.080008  0.000000 -1.000000 0.000000  0.774043 0.874607 0
0  24.320000 -48.000000 12.580008  0.000000 -1.000000 0.000000  0.765629 0.876948 0
0  32.000000 -48.000000 14.500008  0.000000 -1.000000 0.000000  0.765629 0.826004 0
ramp_small
0  24.320000 48.000000 14.080000  -0.242536 0.000000 0.970142  0.677704 0.617783 0
0  24.320000 -48.000000 14.080008  -0.242535 0.000000 0.970142  0.677704 0.000000 0
0  32.000000 -48.000000 16.000008  -0.242535 0.000000 0.970143  0.723010 0.000000 0
ramp_small
0  32.000000 48.000000 16.000000  1.000000 0.000000 0.000000  0.983586 0.000000 0
0  32.000000 -48.000000 16.000008  1.000000 0.000000 0.000000  0.983586 0.617783 0
0  32.000000 -48.000000 14.500008  1.000000 0.000000 0.000000  0.974922 0.617783 0
ramp_small
0  32.000000 48.000000 14.500000  0.242535 -0.000000 -0.970143  0.730765 0.617783 0
0  32.000000 -48.000000 14.500008  0.242536 -0.000000 -0.970142  0.730765 0.000000 0
0  24.320000 -48.000000 12.580008  0.242536 -0.000000 -0.970142  0.775841 0.000000 0
ramp_small
0  24.320000 48.000000 12.580000  -1.000000 -0.000000 0.000000  0.991340 0.617783 0
0  24.320000 -48.000000 12.580008  -1.000000 0.000000 0.000000  0.991340 0.000000 0
0  24.320000 -48.000000 14.080008  -1.000000 -0.000000 0.000000  1.000000 0.000000 0
ramp_small
0  -24.000000 47.000000 0.000000  0.000000 -0.000000 -1.000000  0.312643 0.979482 0
0  31.000000 47.000000 0.000000  0.000000 -0.000000 -1.000000  0.312643 0.626413 0
0  31.000000 45.000000 0.000000  0.000000 -0.000000 -1.000000  0.324207 0.626413 0
ramp_small
0  31.000000 47.000000 0.000000  1.000000 0.000000 0.000000  0.762479 0.716408 0
0  31.000000 47.000000 14.000000  1.000000 0.000000 0.000000  0.762479 0.626413 0
0  31.000000 45.000000 14.000000  1.000000 0.000000 0.000000  0.774044 0.626413 0
ramp_small
0  31.000000 47.000000 14.000000  -0.246679 0.000000 0.969097  0.285569 0.626413 0
0  -24.000000 47.000000 0.000000  -0.246679 0.000000 0.969097  0.285569 0.987677 0
0  -24.000000 45.000000 0.000000  -0.246679 0.000000 0.969097  0.274005 0.987677 0
ramp_small
0  -24.000000 -45.000000 0.000000  0.000000 -0.000000 -1.000000  0.331961 0.979482 0
0  31.000000 -45.000000 0.000000  0.000000 -0.000000 -1.000000  0.331961 0.626413 0
0  31.000000 -47.000000 0.000000  0.000000 -0.000000 -1.000000  0.343526 0.626413 0
ramp_small
0  31.000000 -45.000000 0.000000  1.000000 0.000000 0.000000  0.762479 0.815033 0
0  31.000000 -45.000000 14.000000  1.000000 0.000000 0.000000  0.762479 0.725038 0
0  31.000000 -47.000000 14.000000  1.000000 0.000000 0.000000  0.774044 0.725038 0
ramp_small
0  31.000000 -45.000000 14.000000  -0.246679 0.000000 0.969097  0.304888 0.626413 0
0  -24.000000 -45.000000 0.000000  -0.246679 0.000000 0.969097  0.304888 0.987677 0
0  -24.000000 -47.000000 0.000000  -0.246679 0.000000 0.969097  0.293324 0.987677 0
ramp_small
0  29.500000 -47.000000 7.200000  -1.000000 0.000000 0.000000  0.912200 0.604912 0
0  29.500000 -47.000000 10.200000  -1.000000 0.000000 0.000000  0.894881 0.604912 0
0  29.500000 47.000000 10.200000  -1.000000 0.000000 0.000000  0.894881 0.000000 0
ramp_small
0  29.500000 47.000000 7.200000  0.000000 1.000000 0.000000  0.636974 0.877537 0
0  29.500000 47.000000 10.200000  0.000000 1.000000 0.000000  0.636974 0.858231 0
0  31.500000 47.000000 10.200000  0.000000 1.000000 0.000000  0.648538 0.858231 0
ramp_small
0  31.500000 47.000000 7.200000  1.000000 0.000000 0.000000  0.887127 0.604912 0
0  31.500000 47.000000 10.200000  1.000000 0.000000 0.000000  0.869799 0.604912 0
0  31.500000 -47.000000 10.200000  1.000000 0.000000 0.000000  0.869799 0.000000 0
ramp_small
0  31.500000 -47.000000 7.200000  0.000000 -1.000000 0.000000  0.656293 0.877537 0
0  31.500000 -47.000000 10.200000  0.000000 -1.000000 0.000000  0.656293 0.858231 0
0  29.500000 -47.000000 10.200000  0.000000 -1.000000 0.000000  0.667857 0.858231 0
ramp_small
0  29.500000 47.000000 7.200000  0.000000 0.000000 -1.000000  0.931491 0.604912 0
0  31.500000 47.000000 7.200000  0.000000 0.000000 -1.000000  0.919955 0.604912 0
0  31.500000 -47.000000 7.200000  0.000000 0.000000 -1.000000  0.919955 0.000000 0
ramp_small
0  31.500000 47.000000 10.200000  0.000000 0.000000 1.000000  0.950750 0.604913 0
0  29.500000 47.000000 10.200000  0.000000 0.000000 1.000000  0.939245 0.604913 0
0  29.500000 -47.000000 10.200000  0.000000 0.000000 1.000000  0.939245 0.000000 0
ramp_small
0  29.000000 -46.500000 0.000000  -1.000000 0.000000 0.000000  0.737378 0.821416 0
0  29.000000 -46.500000 14.500000  -1.000000 0.000000 0.000000  0.737378 0.728252 0
0  29.000000 -43.500000 14.500000  -1.000000 0.000000 0.000000  0.754725 0.728252 0
ramp_small
0  29.000000 -43.500000 0.000000  0.000000 1.000000 0.000000  0.636974 0.719724 0
0  29.000000 -43.500000 14.500000  0.000000 1.000000 0.000000  0.636974 0.626413 0
0  32.000000 -43.500000 14.500000  0.000000 1.000000 0.000000  0.654321 0.626413 0
ramp_small
0  32.000000 -43.500000 0.000000  1.000000 0.000000 0.000000  0.687176 0.821563 0
0  32.000000 -43.500000 14.500000  1.000000 0.000000 0.000000  0.687176 0.728354 0
0  32.000000 -46.500000 14.500000  1.000000 0.000000 0.000000  0.704523 0.728354 0
ramp_small
0  32.000000 -46.500000 0.000000  0.000000 -1.000000 0.000000  0.662075 0.719724 0
0  32.000000 -46.500000 14.500000  0.000000 -1.000000 0.000000  0.662075 0.626413 0
0  29.000000 -46.500000 14.500000  0.000000 -1.000000 0.000000  0.679422 0.626413 0
ramp_small
0  29.000000 -43.500000 0.000000  0.000000 0.000000 -1.000000  0.729538 0.849499 0
0  32.000000 -43.500000 0.000000  0.000000 0.000000 -1.000000  0.712234 0.849499 0
0  32.000000 -46.500000 0.000000  0.000000 0.000000 -1.000000  0.712234 0.830193 0
ramp_small
0  32.000000 -43.500000 14.500000  0.000000 0.000000 1.000000  0.687176 0.858129 0
0  29.000000 -43.500000 14.500000  0.000000 0.000000 1.000000  0.704433 0.858129 0
0  29.000000 -46.500000 14.500000  0.000000 0.000000 1.000000  0.704433 0.877435 0
ramp_small
0  32.000000 -44.000000 1.200000  0.000000 0.000000 1.000000  0.227613 0.626413 0
0  -26.000000 -44.000000 1.200000  0.000000 0.000000 1.000000  0.227613 0.997723 0
0  -26.000000 -46.000000 1.200000  0.000000 0.000000 1.000000  0.216049 0.997723 0
ramp_small
0  32.000000 -44.000000 0.000000  1.000000 0.000000 0.000000  0.790526 0.862374 0
0  32.000000 -44.000000 1.200000  1.000000 0.000000 0.000000  0.783595 0.862374 0
0  32.000000 -46.000000 1.200000  1.000000 0.000000 0.000000  0.783595 0.849503 0
ramp_small
0  -10.641768 -44.363605 2.360148  0.000000 1.000000 0.000000  0.455607 0.903360 0
0  30.686806 -44.363605 14.362145  0.000000 1.000000 0.000002  0.455607 0.626413 0
0  31.041767 -44.363605 13.139852  0.000000 1.000000 0.000002  0.462967 0.626413 0
ramp_small
0  29.000000 -1.500000 0.000000  -1.000000 0.000000 0.000000  0.783595 0.840873 0
0  29.000000 -1.500000 14.500000  -1.000000 0.000000 0.000000  0.783595 0.747709 0
0  29.000000 1.500000 14.500000  -1.000000 0.000000 0.000000  0.800942 0.747709 0
ramp_small
0  -26.000000 -44.000000 0.000000  0.000000 1.000000 0.000000  0.374388 0.999657 0
0  -26.000000 -44.000000 1.200000  0.000000 1.000000 0.000000  0.367449 0.999657 0
0  32.000000 -44.000000 1.200000  0.000000 1.000000 0.000000  0.367449 0.626413 0
ramp_small
0  -10.286807 -44.363605 1.137855  0.278883 0.000000 -0.960325  0.606746 0.897129 0
0  31.041767 -44.363605 13.139852  0.278883 0.000000 -0.960325  0.606746 0.626413 0
0  31.041767 -45.636395 13.139852  0.278883 0.000000 -0.960325  0.614106 0.626413 0
ramp_small
0  31.041767 -44.363605 13.139852  0.960325 0.000000 0.278884  0.644130 0.913284 0
0  30.686806 -44.363605 14.362145  0.960325 0.000000 0.278884  0.636974 0.913284 0
0  30.686806 -45.636395 14.362145  0.960325 0.000000 0.278884  0.636974 0.905093 0
ramp_small
0  -26.000000 -46.000000 0.000000  -1.000000 0.000000 0.000000  0.805208 0.883874 0
0  -26.000000 -46.000000 1.200000  -1.000000 0.000000 0.000000  0.798281 0.883874 0
0  -26.000000 -44.000000 1.200000  -1.000000 0.000000 0.000000  0.798281 0.871004 0
ramp_small
0  -10.286807 -45.636395 1.137855  0.000000 -1.000000 -0.000000  0.470721 0.903360 0
0  31.041767 -45.636395 13.139852  0.000000 -1.000000 -0.000002  0.470721 0.626413 0
0  30.686806 -45.636395 14.362145  0.000000 -1.000000 -0.000002  0.478081 0.626413 0
ramp_small
0  -26.000000 -44.000000 0.000000  0.000000 0.000000 -1.000000  0.869799 0.985869 0
0  32.000000 -44.000000 0.000000  0.000000 0.000000 -1.000000  0.869799 0.613542 0
0  32.000000 -46.000000 0.000000  0.000000 0.000000 -1.000000  0.881363 0.613542 0
ramp_small
0  32.000000 -46.000000 0.000000  0.000000 -1.000000 0.000000  0.389080 0.999657 0
0  32.000000 -46.000000 1.200000  0.000000 -1.000000 0.000000  0.382142 0.999657 0
0  -26.000000 -46.000000 1.200000  0.000000 -1.000000 0.000000  0.382142 0.626413 0
ramp_small
0  -10.641768 -45.636395 2.360148  -0.278883 0.000000 0.960325  0.561405 0.898847 0
0  30.686806 -45.636395 14.362145  -0.278883 0.000000 0.960325  0.561405 0.626413 0
0  30.686806 -44.363605 14.362145  -0.278883 0.000000 0.960325  0.568764 0.626413 0
ramp_small
0  -10.641768 -44.363605 2.360148  -0.960325 0.000000 -0.278884  0.812966 0.849503 0
0  -10.286807 -44.363605 1.137855  -0.960325 0.000000 -0.278884  0.820138 0.849503 0
0  -10.286807 -45.636395 1.137855  -0.960325 0.000000 -0.278884  0.820138 0.857694 0
ramp_small
0  29.000000 1.500000 0.000000  0.000000 1.000000 0.000000  0.687176 0.719724 0
0  29.000000 1.500000 14.500000  0.000000 1.000000 0.000000  0.687176 0.626413 0
0  32.000000 1.500000 14.500000  0.000000 1.000000 0.000000  0.704523 0.626413 0
ramp_small
0  32.000000 1.500000 0.000000  1.000000 0.000000 0.000000  0.712277 0.821563 0
0  32.000000 1.500000 14.500000  1.000000 0.000000 0.000000  0.712277 0.728354 0
0  32.000000 -1.500000 14.500000  1.000000 0.000000 0.000000  0.729624 0.728354 0
ramp_small
0  32.000000 -1.500000 0.000000  0.000000 -1.000000 0.000000  0.712277 0.719724 0
0  32.000000 -1.500000 14.500000  0.000000 -1.000000 0.000000  0.712277 0.626413 0
0  29.000000 -1.500000 14.500000  0.000000 -1.000000 0.000000  0.729624 0.626413 0
ramp_small
0  29.000000 1.500000 0.000000  0.000000 0.000000 -1.000000  0.704480 0.849499 0
0  32.000000 1.500000 0.000000  0.000000 0.000000 -1.000000  0.687176 0.849499 0
0  32.000000 -1.500000 0.000000  0.000000 0.000000 -1.000000  0.687176 0.830193 0
ramp_small
0  32.000000 1.500000 14.500000  0.000000 0.000000 1.000000  0.679289 0.849601 0
0  29.000000 1.500000 14.500000  0.000000 0.000000 1.000000  0.662032 0.849601 0
0  29.000000 -1.500000 14.500000  0.000000 0.000000 1.000000  0.662032 0.830295 0
ramp_small
0  32.000000 1.000000 1.200000  0.000000 0.000000 1.000000  0.246932 0.626413 0
0  -26.000000 1.000000 1.200000  0.000000 0.000000 1.000000  0.246932 0.997723 0
0  -26.000000 -1.000000 1.200000  0.000000 0.000000 1.000000  0.235367 0.997723 0
ramp_small
0  32.000000 1.000000 0.000000  1.000000 0.000000 0.000000  0.790526 0.883874 0
0  32.000000 1.000000 1.200000  1.000000 0.000000 0.000000  0.783595 0.883874 0
0  32.000000 -1.000000 1.200000  1.000000 0.000000 0.000000  0.783595 0.871004 0
ramp_small
0  -10.641768 0.636396 2.360148  -0.000000 1.000000 0.000000  0.485835 0.903360 0
0  30.686806 0.636396 14.362145  -0.000000 1.000000 0.000000  0.485835 0.626413 0
0  31.041767 0.636396 13.139852  -0.000000 1.000000 0.000000  0.493194 0.626413 0
ramp_small
0  29.000000 43.500000 0.000000  -1.000000 0.000000 0.000000  0.808696 0.840873 0
0  29.000000 43.500000 14.500000  -1.000000 0.000000 0.000000  0.808696 0.747709 0
0  29.000000 46.500000 14.500000  -1.000000 0.000000 0.000000  0.826043 0.747709 0
ramp_small
0  -26.000000 1.000000 0.000000  0.000000 1.000000 0.000000  0.403774 0.999657 0
0  -26.000000 1.000000 1.200000  0.000000 1.000000 0.000000  0.396835 0.999657 0
0  32.000000 1.000000 1.200000  0.000000 1.000000 0.000000  0.396835 0.626413 0
ramp_small
0  -10.286807 0.636396 1.137855  0.278883 0.000000 -0.960325  0.591632 0.897129 0
0  31.041767 0.636396 13.139852  0.278883 0.000000 -0.960325  0.591632 0.626413 0
0  31.041767 -0.636396 13.139852  0.278883 0.000000 -0.960325  0.598992 0.626413 0
ramp_small
0  31.041767 0.636396 13.139852  0.960325 0.000000 0.278884  0.716784 0.904991 0
0  30.686806 0.636396 14.362145  0.960325 0.000000 0.278885  0.723940 0.904991 0
0  30.686806 -0.636396 14.362145  0.960325 0.000000 0.278884  0.723940 0.913182 0
ramp_small
0  -26.000000 -1.000000 0.000000  -1.000000 0.000000 0.000000  0.772557 0.898448 0
0  -26.000000 -1.000000 1.200000  -1.000000 0.000000 0.000000  0.765629 0.898448 0
0  -26.000000 1.000000 1.200000  -1.000000 0.000000 0.000000  0.765629 0.885578 0
ramp_small
0  -10.286807 -0.636396 1.137855  0.000000 -1.000000 -0.000000  0.500949 0.903360 0
0  31.041767 -0.636396 13.139852  0.000000 -1.000000 0.000000  0.500949 0.626413 0
0  30.686806 -0.636396 14.362145  0.000000 -1.000000 0.000000  0.508308 0.626413 0
ramp_small
0  -26.000000 1.000000 0.000000  0.000000 0.000000 -1.000000  0.177411 0.998740 0
0  32.000000 1.000000 0.000000  0.000000 0.000000 -1.000000  0.177411 0.626413 0
0  32.000000 -1.000000 0.000000  0.000000 0.000000 -1.000000  0.188975 0.626413 0
ramp_small
0  32.000000 -1.000000 0.000000  0.000000 -1.000000 0.000000  0.418467 0.999657 0
0  32.000000 -1.000000 1.200000  0.000000 -1.000000 0.000000  0.411528 0.999657 0
0  -26.000000 -1.000000 1.200000  0.000000 -1.000000 0.000000  0.411528 0.626413 0
ramp_small
0  -10.641768 -0.636396 2.360148  -0.278883 0.000000 0.960325  0.546291 0.898847 0
0  30.686806 -0.636396 14.362145  -0.278883 0.000000 0.960325  0.546291 0.626413 0
0  30.686806 0.636396 14.362145  -0.278883 0.000000 0.960325  0.553650 0.626413 0
ramp_small
0  -10.641768 0.636396 2.360148  -0.960325 0.000000 -0.278884  0.812963 0.871004 0
0  -10.286807 0.636396 1.137855  -0.960325 0.000000 -0.278884  0.820134 0.871004 0
0  -10.286807 -0.636396 1.137855  -0.960325 0.000000 -0.278884  0.820134 0.879195 0
ramp_small
0  29.000000 46.500000 0.000000  0.000000 1.000000 0.000000  0.636974 0.821665 0
0  29.000000 46.500000 14.500000  0.000000 1.000000 0.000000  0.636974 0.728354 0
0  32.000000 46.500000 14.500000  0.000000 1.000000 0.000000  0.654321 0.728354 0
ramp_small
0  32.000000 46.500000 0.000000  1.000000 0.000000 0.000000  0.737378 0.719622 0
0  32.000000 46.500000 14.500000  1.000000 0.000000 0.000000  0.737378 0.626413 0
0  32.000000 43.500000 14.500000  1.000000 0.000000 0.000000  0.754725 0.626413 0
ramp_small
0  32.000000 43.500000 0.000000  0.000000 -1.000000 0.000000  0.662075 0.821665 0
0  32.000000 43.500000 14.500000  0.000000 -1.000000 0.000000  0.662075 0.728354 0
0  29.000000 43.500000 14.500000  0.000000 -1.000000 0.000000  0.679422 0.728354 0
ramp_small
0  29.000000 46.500000 0.000000  0.000000 0.000000 -1.000000  0.654278 0.849601 0
0  32.000000 46.500000 0.000000  0.000000 0.000000 -1.000000  0.636974 0.849601 0
0  32.000000 43.500000 0.000000  0.000000 0.000000 -1.000000  0.636974 0.830295 0
ramp_small
0  32.000000 46.500000 14.500000  0.000000 0.000000 1.000000  0.712234 0.858129 0
0  29.000000 46.500000 14.500000  0.000000 0.000000 1.000000  0.729491 0.858129 0
0  29.000000 43.500000 14.500000  0.000000 0.000000 1.000000  0.729491 0.877435 0
ramp_small
0  32.000000 46.000000 1.200000  0.000000 0.000000 1.000000  0.266251 0.626413 0
0  -26.000000 46.000000 1.200000  0.000000 0.000000 1.000000  0.266251 0.997723 0
0  -26.000000 44.000000 1.200000  0.000000 0.000000 1.000000  0.254686 0.997723 0
ramp_small
0  32.000000 46.000000 0.000000  1.000000 0.000000 0.000000  0.805212 0.862374 0
0  32.000000 46.000000 1.200000  1.000000 0.000000 0.000000  0.798281 0.862374 0
0  32.000000 44.000000 1.200000  1.000000 0.000000 0.000000  0.798281 0.849503 0
ramp_small
0  -10.641768 45.636395 2.360148  0.000000 1.000000 0.000000  0.516063 0.903360 0
0  30.686806 45.636395 14.362145  0.000000 1.000000 0.000002  0.516063 0.626413 0
0  31.041767 45.636395 13.139852  0.000000 1.000000 0.000002  0.523422 0.626413 0
ramp_small
0  -26.000000 46.000000 0.000000  0.000000 1.000000 0.000000  0.433160 0.999657 0
0  -26.000000 46.000000 1.200000  0.000000 1.000000 0.000000  0.426221 0.999657 0
0  32.000000 46.000000 1.200000  0.000000 1.000000 0.000000  0.426221 0.626413 0
ramp_small
0  -10.286807 45.636395 1.137855  0.278883 0.000000 -0.960325  0.621860 0.897129 0
0  31.041767 45.636395 13.139852  0.278883 0.000000 -0.960325  0.621860 0.626413 0
0  31.041767 44.363605 13.139852  0.278883 0.000000 -0.960325  0.629220 0.626413 0
ramp_small
0  31.041767 45.636395 13.139852  0.960325 0.000000 0.278884  0.659040 0.913284 0
0  30.686806 45.636395 14.362145  0.960325 0.000000 0.278883  0.651884 0.913284 0
0  30.686806 44.363605 14.362145  0.960325 0.000000 0.278884  0.651884 0.905093 0
ramp_small
0  -26.000000 44.000000 0.000000  -1.000000 0.000000 0.000000  0.694104 0.898935 0
0  -26.000000 44.000000 1.200000  -1.000000 0.000000 0.000000  0.687176 0.898935 0
0  -26.000000 46.000000 1.200000  -1.000000 0.000000 0.000000  0.687176 0.886065 0
ramp_small
0  -10.286807 44.363605 1.137855  0.000000 -1.000000 0.000004  0.531177 0.903360 0
0  31.041767 44.363605 13.139852  0.000000 -1.000000 -0.000003  0.531177 0.626413 0
0  30.686806 44.363605 14.362145  0.000000 -1.000000 -0.000002  0.538536 0.626413 0
ramp_small
0  -26.000000 46.000000 0.000000  0.000000 0.000000 -1.000000  0.196730 0.998740 0
0  32.000000 46.000000 0.000000  0.000000 0.000000 -1.000000  0.196730 0.626413 0
0  32.000000 44.000000 0.000000  0.000000 0.000000 -1.000000  0.208294 0.626413 0
ramp_small
0  32.000000 44.000000 0.000000  0.000000 -1.000000 0.000000  0.447853 0.999657 0
0  32.000000 44.000000 1.200000  0.000000 -1.000000 0.000000  0.440914 0.999657 0
0  -26.000000 44.000000 1.200000  0.000000 -1.000000 0.000000  0.440914 0.626413 0
ramp_small
0  -10.641768 44.363605 2.360148  -0.278883 0.000000 0.960325  0.576518 0.898847 0
0  30.686806 44.363605 14.362145  -0.278883 0.000000 0.960325  0.576518 0.626413 0
0  30.686806 45.636395 14.362145  -0.278883 0.000000 0.960325  0.583878 0.626413 0
ramp_small
0  -10.641768 45.636395 2.360148  -0.960325 0.000000 -0.278884  0.701858 0.904991 0
0  -10.286807 45.636395 1.137855  -0.960325 0.000000 -0.278883  0.709030 0.904991 0
0  -10.286807 44.363605 1.137855  -0.960325 0.000000 -0.278884  0.709030 0.913182 0
ramp_small
0  -14.000000 46.799999 4.300000  0.499998 0.866027 0.000000  0.595680 0.910218 0
0  -14.000000 46.799999 5.000000  0.499996 0.866027 0.000000  0.591632 0.910218 0
0  -13.307179 46.400002 5.000000  0.499998 0.866026 0.000000  0.591632 0.905759 0
ramp_small
0  -13.307179 46.400002 4.300000  1.000000 0.000000 0.000000  0.562131 0.912625 0
0  -13.307179 46.400002 5.000000  1.000000 0.000000 0.000000  0.558088 0.912625 0
0  -13.307179 45.599998 5.000000  1.000000 0.000000 0.000000  0.558088 0.907477 0
ramp_small
0  10.000000 46.799999 10.299999  0.499998 0.866027 0.000000  0.757151 0.892557 0
0  10.000000 46.799999 11.000000  0.499997 0.866027 0.000000  0.753103 0.892557 0
0  10.692821 46.400002 11.000000  0.499998 0.866027 0.000000  0.753103 0.888099 0
ramp_small
0  -14.000000 -45.200001 4.300000  0.499998 0.866027 0.000000  0.607482 0.910218 0
0  -14.000000 -45.200001 5.000000  0.499996 0.866027 0.000000  0.603434 0.910218 0
0  -13.307179 -45.599998 5.000000  0.499998 0.866026 0.000000  0.603434 0.905759 0
ramp_small
0  -13.307179 45.599998 4.300000  0.499998 -0.866026 0.000000  0.619284 0.914676 0
0  -13.307179 45.599998 5.000000  0.499999 -0.866026 0.000000  0.615236 0.914676 0
0  -14.000000 45.200001 5.000000  0.499998 -0.866027 0.000000  0.615236 0.910218 0
ramp_small
0  10.000000 -45.200001 10.299999  0.499998 0.866027 0.000000  0.819093 0.896963 0
0  10.000000 -45.200001 11.000000  0.499997 0.866027 0.000000  0.815045 0.896963 0
0  10.692821 -45.599998 11.000000  0.499998 0.866027 0.000000  0.815045 0.892504 0
ramp_small
0  -14.000000 45.200001 4.300000  -0.499998 -0.866027 0.000000  0.619284 0.910218 0
0  -14.000000 45.200001 5.000000  -0.499996 -0.866027 0.000000  0.615236 0.910218 0
0  -14.692821 45.599998 5.000000  -0.499998 -0.866026 0.000000  0.615236 0.905759 0
ramp_small
0  -13.307179 45.599998 5.000000  0.000000 0.000000 1.000000  0.783595 0.900227 0
0  -13.307179 46.400002 5.000000  0.000000 0.000000 1.000000  0.783595 0.895078 0
0  -14.000000 46.799999 5.000000  0.000000 0.000000 1.000000  0.787580 0.892504 0
ramp_small
0  -14.000000 46.799999 5.000000  0.000000 0.000000 1.000000  0.787580 0.892504 0
0  -14.692821 46.400002 5.000000  0.000000 0.000000 1.000000  0.791566 0.895078 0
0  -14.692821 45.599998 5.000000  0.000000 0.000000 1.000000  0.791566 0.900227 0
ramp_small
0  -14.692821 45.599998 5.000000  0.000000 0.000000 1.000000  0.791566 0.900227 0
0  -14.000000 45.200001 5.000000  0.000000 0.000000 1.000000  0.787580 0.902801 0
0  -14.000000 46.799999 5.000000  0.000000 0.000000 1.000000  0.787580 0.892504 0
ramp_small
0  -14.692821 45.599998 4.300000  -1.000000 0.000000 0.000000  0.787636 0.916579 0
0  -14.692821 45.599998 5.000000  -1.000000 0.000000 0.000000  0.783595 0.916579 0
0  -14.692821 46.400002 5.000000  -1.000000 0.000000 0.000000  0.783595 0.911431 0
ramp_small
0  -13.307179 -46.400002 4.300000  0.499998 -0.866026 0.000000  0.741426 0.915942 0
0  -13.307179 -46.400002 5.000000  0.499999 -0.866026 0.000000  0.737378 0.915942 0
0  -14.000000 -46.799999 5.000000  0.499998 -0.866027 0.000000  0.737378 0.911483 0
ramp_small
0  -13.307179 -45.599998 4.300000  1.000000 0.000000 0.000000  0.573929 0.912625 0
0  -13.307179 -45.599998 5.000000  1.000000 0.000000 0.000000  0.569886 0.912625 0
0  -13.307179 -46.400002 5.000000  1.000000 0.000000 0.000000  0.569886 0.907477 0
ramp_small
0  -14.692821 46.400002 4.300000  -0.499998 0.866026 0.000000  0.595680 0.914676 0
0  -14.692821 46.400002 5.000000  -0.499999 0.866026 0.000000  0.591632 0.914676 0
0  -14.000000 46.799999 5.000000  -0.499998 0.866027 0.000000  0.591632 0.910218 0
ramp_small
0  -14.692821 46.400002 4.300000  0.000000 0.000000 -1.000000  0.644966 0.893889 0
0  -14.000000 46.799999 4.300000  0.000000 0.000000 -1.000000  0.640970 0.896463 0
0  -14.000000 45.200001 4.300000  0.000000 0.000000 -1.000000  0.640970 0.886167 0
ramp_small
0  -14.000000 46.799999 4.300000  0.000000 0.000000 -1.000000  0.640970 0.896463 0
0  -13.307179 46.400002 4.300000  -0.000000 0.000000 -1.000000  0.636974 0.893889 0
0  -14.000000 45.200001 4.300000  0.000000 0.000000 -1.000000  0.640970 0.886167 0
ramp_small
0  -13.307179 46.400002 4.300000  -0.000000 0.000000 -1.000000  0.636974 0.893889 0
0  -13.307179 45.599998 4.300000  -0.000001 0.000000 -1.000000  0.636974 0.888741 0
0  -14.000000 45.200001 4.300000  0.000000 0.000000 -1.000000  0.640970 0.886167 0
ramp_small
0  -14.000000 -46.799999 4.300000  -0.499998 -0.866027 0.000000  0.741426 0.911483 0
0  -14.000000 -46.799999 5.000000  -0.499996 -0.866027 0.000000  0.737378 0.911483 0
0  -14.692821 -46.400002 5.000000  -0.499998 -0.866026 0.000000  0.737378 0.907025 0
ramp_small
0  -14.000000 -46.799999 5.000000  0.000000 0.000000 1.000000  0.803305 0.902801 0
0  -13.307179 -46.400002 5.000000  0.000000 0.000000 1.000000  0.799320 0.900227 0
0  -13.307179 -45.599998 5.000000  0.000000 0.000000 1.000000  0.799320 0.895078 0
ramp_small
0  -13.307179 -45.599998 5.000000  0.000000 0.000000 1.000000  0.799320 0.895078 0
0  -14.000000 -45.200001 5.000000  0.000000 0.000000 1.000000  0.803305 0.892504 0
0  -14.000000 -46.799999 5.000000  0.000000 0.000000 1.000000  0.803305 0.902801 0
ramp_small
0  -14.000000 -45.200001 5.000000  0.000000 0.000000 1.000000  0.803305 0.892504 0
0  -14.692821 -45.599998 5.000000  0.000000 0.000000 1.000000  0.807291 0.895078 0
0  -14.000000 -46.799999 5.000000  0.000000 0.000000 1.000000  0.803305 0.902801 0
ramp_small
0  -14.692821 -46.400002 4.300000  -1.000000 0.000000 0.000000  0.799432 0.916579 0
0  -14.692821 -46.400002 5.000000  -1.000000 0.000000 0.000000  0.795391 0.916579 0
0  -14.692821 -45.599998 5.000000  -1.000000 0.000000 0.000000  0.795391 0.911431 0
ramp_small
0  10.692821 45.599998 10.299999  0.499998 -0.866027 0.000000  0.670842 0.914010 0
0  10.692821 45.599998 11.000000  0.499999 -0.866026 0.000000  0.666794 0.914010 0
0  10.000000 45.200001 11.000000  0.499998 -0.866027 0.000000  0.666794 0.909552 0
ramp_small
0  10.692821 46.400002 10.299999  1.000000 0.000000 0.000000  0.769672 0.912226 0
0  10.692821 46.400002 11.000000  1.000000 0.000000 0.000000  0.765629 0.912226 0
0  10.692821 45.599998 11.000000  1.000000 0.000000 0.000000  0.765629 0.907078 0
ramp_small
0  -14.692821 -45.599998 4.300000  -0.499998 0.866026 0.000000  0.607482 0.914676 0
0  -14.692821 -45.599998 5.000000  -0.499999 0.866026 0.000000  0.603434 0.914676 0
0  -14.000000 -45.200001 5.000000  -0.499998 0.866027 0.000000  0.603434 0.910218 0
ramp_small
0  -13.307179 -46.400002 4.300000  -0.000000 0.000000 -1.000000  0.652721 0.888741 0
0  -14.000000 -46.799999 4.300000  0.000000 0.000000 -1.000000  0.656717 0.886167 0
0  -14.000000 -45.200001 4.300000  0.000000 0.000000 -1.000000  0.656717 0.896463 0
ramp_small
0  -14.000000 -46.799999 4.300000  0.000000 0.000000 -1.000000  0.656717 0.886167 0
0  -14.692821 -46.400002 4.300000  0.000000 0.000000 -1.000000  0.660713 0.888741 0
0  -14.000000 -45.200001 4.300000  0.000000 0.000000 -1.000000  0.656717 0.896463 0
ramp_small
0  -14.692821 -46.400002 4.300000  0.000000 0.000000 -1.000000  0.660713 0.888741 0
0  -14.692821 -45.599998 4.300000  0.000001 0.000000 -1.000000  0.660713 0.893889 0
0  -14.000000 -45.200001 4.300000  0.000000 0.000000 -1.000000  0.656717 0.896463 0
ramp_small
0  10.000000 45.200001 10.299999  -0.499998 -0.866027 0.000000  0.670842 0.909552 0
0  10.000000 45.200001 11.000000  -0.499997 -0.866027 0.000000  0.666794 0.909552 0
0  9.307179 45.599998 11.000000  -0.499998 -0.866027 0.000000  0.666794 0.905093 0
ramp_small
0  10.692821 45.599998 11.000000  0.000000 0.000000 1.000000  0.668467 0.893889 0
0  10.692821 46.400002 11.000000  0.000000 0.000000 1.000000  0.668467 0.888741 0
0  10.000000 46.799999 11.000000  0.000000 0.000000 1.000000  0.672453 0.886167 0
ramp_small
0  10.000000 46.799999 11.000000  0.000000 0.000000 1.000000  0.672453 0.886167 0
0  9.307179 46.400002 11.000000  0.000000 0.000000 1.000000  0.676438 0.888741 0
0  9.307179 45.599998 11.000000  0.000000 0.000000 1.000000  0.676438 0.893889 0
ramp_small
0  9.307179 45.599998 11.000000  0.000000 0.000000 1.000000  0.676438 0.893889 0
0  10.000000 45.200001 11.000000  0.000000 0.000000 1.000000  0.672453 0.896463 0
0  10.000000 46.799999 11.000000  0.000000 0.000000 1.000000  0.672453 0.886167 0
ramp_small
0  9.307179 45.599998 10.299999  -1.000000 0.000000 0.000000  0.691217 0.912713 0
0  9.307179 45.599998 11.000000  -1.000000 0.000000 0.000000  0.687176 0.912713 0
0  9.307179 46.400002 11.000000  -1.000000 0.000000 0.000000  0.687176 0.907565 0
ramp_small
0  10.692821 -46.400002 10.299999  0.499998 -0.866027 0.000000  0.757151 0.914563 0
0  10.692821 -46.400002 11.000000  0.499999 -0.866026 0.000000  0.753103 0.914563 0
0  10.000000 -46.799999 11.000000  0.499998 -0.866027 0.000000  0.753103 0.910104 0
ramp_small
0  10.692821 -45.599998 10.299999  1.000000 0.000000 0.000000  0.550334 0.912625 0
0  10.692821 -45.599998 11.000000  1.000000 0.000000 0.000000  0.546291 0.912625 0
0  10.692821 -46.400002 11.000000  1.000000 0.000000 0.000000  0.546291 0.907477 0
ramp_small
0  9.307179 46.400002 10.299999  -0.499998 0.866027 0.000000  0.757151 0.897016 0
0  9.307179 46.400002 11.000000  -0.499999 0.866026 0.000000  0.753103 0.897016 0
0  10.000000 46.799999 11.000000  -0.499998 0.866027 0.000000  0.753103 0.892557 0
ramp_small
0  10.692821 46.400002 10.299999  0.000001 0.000000 -1.000000  0.701858 0.893787 0
0  10.692821 45.599998 10.299999  0.000000 0.000000 -1.000000  0.701858 0.888639 0
0  10.000000 45.200001 10.299999  -0.000000 0.000000 -1.000000  0.705854 0.886065 0
ramp_small
0  10.000000 45.200001 10.299999  -0.000000 0.000000 -1.000000  0.705854 0.886065 0
0  9.307179 45.599998 10.299999  0.000000 0.000000 -1.000000  0.709850 0.888639 0
0  9.307179 46.400002 10.299999  -0.000003 0.000000 -1.000000  0.709850 0.893787 0
ramp_small
0  9.307179 46.400002 10.299999  -0.000003 0.000000 -1.000000  0.709850 0.893787 0
0  10.000000 46.799999 10.299999  -0.000001 0.000000 -1.000000  0.705854 0.896361 0
0  10.000000 45.200001 10.299999  -0.000000 0.000000 -1.000000  0.705854 0.886065 0
ramp_small
0  10.000000 -46.799999 10.299999  -0.499998 -0.866027 0.000000  0.757151 0.910104 0
0  10.000000 -46.799999 11.000000  -0.499997 -0.866027 0.000000  0.753103 0.910104 0
0  9.307179 -46.400002 11.000000  -0.499998 -0.866027 0.000000  0.753103 0.905646 0
ramp_small
0  10.000000 -45.200001 10.299999  0.000000 0.000000 -1.000000  0.721601 0.896361 0
0  10.692821 -45.599998 10.299999  0.000000 0.000000 -1.000000  0.717605 0.893787 0
0  10.692821 -46.400002 10.299999  0.000003 0.000000 -1.000000  0.717605 0.888639 0
ramp_small
0  10.692821 -46.400002 10.299999  0.000003 0.000000 -1.000000  0.717605 0.888639 0
0  10.000000 -46.799999 10.299999  0.000001 0.000000 -1.000000  0.721601 0.886065 0
0  10.000000 -45.200001 10.299999  0.000000 0.000000 -1.000000  0.721601 0.896361 0
ramp_small
0  10.000000 -46.799999 10.299999  0.000001 0.000000 -1.000000  0.721601 0.886065 0
0  9.307179 -46.400002 10.299999  -0.000001 0.000000 -1.000000  0.725597 0.888639 0
0  10.000000 -45.200001 10.299999  0.000000 0.000000 -1.000000  0.721601 0.896361 0
ramp_small
0  9.307179 -46.400002 10.299999  -1.000000 0.000000 0.000000  0.819086 0.915199 0
0  9.307179 -46.400002 11.000000  -1.000000 0.000000 0.000000  0.815045 0.915199 0
0  9.307179 -45.599998 11.000000  -1.000000 0.000000 0.000000  0.815045 0.910051 0
ramp_small
0  9.307179 -45.599998 10.299999  -0.499998 0.866027 0.000000  0.819093 0.901421 0
0  9.307179 -45.599998 11.000000  -0.499999 0.866026 0.000000  0.815045 0.901421 0
0  10.000000 -45.200001 11.000000  -0.499998 0.866027 0.000000  0.815045 0.896963 0
ramp_small
0  9.307179 -46.400002 11.000000  0.000000 0.000000 1.000000  0.745349 0.895821 0
0  10.000000 -46.799999 11.000000  0.000000 0.000000 1.000000  0.741363 0.898395 0
0  10.000000 -45.200001 11.000000  0.000000 0.000000 1.000000  0.741363 0.888099 0
ramp_small
0  10.000000 -46.799999 11.000000  0.000000 0.000000 1.000000  0.741363 0.898395 0
0  10.692821 -46.400002 11.000000  0.000000 0.000000 1.000000  0.737378 0.895821 0
0  10.000000 -45.200001 11.000000  0.000000 0.000000 1.000000  0.741363 0.888099 0
ramp_small
0  10.692821 -46.400002 11.000000  0.000000 0.000000 1.000000  0.737378 0.895821 0
0  10.692821 -45.599998 11.000000  0.000000 0.000000 1.000000  0.737378 0.890673 0
0  10.000000 -45.200001 11.000000  0.000000 0.000000 1.000000  0.741363 0.888099 0
end
