version 1
nodes
0 "root" -1
end
skeleton
time 0
0 0 0 0 0 0 0
end
triangles
item_box
0  10.000000 10.000000 20.000000  0.577350 0.577350 0.577350  0.333333 0.333333 0
0  10.000000 -10.000000 0.000000  0.577372 -0.577339 -0.577339  0.666667 0.000000 0
0  10.000000 10.000000 0.000000  0.577339 0.577339 -0.577372  0.666667 0.333333 0
item_box
0  10.000000 10.000000 0.000000  0.577339 0.577339 -0.577372  0.333333 0.333333 0
0  10.000000 -10.000000 0.000000  0.577372 -0.577339 -0.577339  0.000000 0.333333 0
0  -10.000000 -10.000000 0.000000  -0.577350 -0.577350 -0.577350  0.000000 0.000000 0
item_box
0  10.000000 10.000000 20.000000  0.577350 0.577350 0.577350  0.333333 0.333333 0
0  10.000000 -10.000000 20.000000  0.577339 -0.577372 0.577339  0.333333 0.000000 0
0  10.000000 -10.000000 0.000000  0.577372 -0.577339 -0.577339  0.666667 0.000000 0
item_box
0  10.000000 10.000000 20.000000  0.577350 0.577350 0.577350  0.333333 0.333333 0
0  -10.000000 10.000000 20.000000  -0.577372 0.577339 0.577339  0.333333 0.666667 0
0  -10.000000 -10.000000 20.000000  -0.577339 -0.577339 0.577372  -0.000000 0.666667 0
item_box
0  10.000000 10.000000 20.000000  0.577350 0.577350 0.577350  0.333333 0.333333 0
0  -10.000000 -10.000000 20.000000  -0.577339 -0.577339 0.577372  -0.000000 0.666667 0
0  10.000000 -10.000000 20.000000  0.577339 -0.577372 0.577339  0.000000 0.333333 0
item_box
0  10.000000 10.000000 20.000000  0.577350 0.577350 0.577350  0.333333 0.333333 0
0  10.000000 10.000000 0.000000  0.577339 0.577339 -0.577372  0.666667 0.333333 0
0  -10.000000 10.000000 0.000000  -0.577339 0.577372 -0.577339  0.666667 0.666667 0
item_box
0  10.000000 10.000000 20.000000  0.577350 0.577350 0.577350  0.333333 0.333333 0
0  -10.000000 10.000000 0.000000  -0.577339 0.577372 -0.577339  0.666667 0.666667 0
0  -10.000000 10.000000 20.000000  -0.577372 0.577339 0.577339  0.333333 0.666667 0
item_box
0  -10.000000 10.000000 20.000000  -0.577372 0.577339 0.577339  0.666667 0.000000 0
0  -10.000000 10.000000 0.000000  -0.577339 0.577372 -0.577339  1.000000 0.000000 0
0  -10.000000 -10.000000 0.000000  -0.577350 -0.577350 -0.577350  1.000000 0.333333 0
item_box
0  10.000000 10.000000 0.000000  0.577339 0.577339 -0.577372  0.333333 0.333333 0
0  -10.000000 -10.000000 0.000000  -0.577350 -0.577350 -0.577350  0.000000 0.000000 0
0  -10.000000 10.000000 0.000000  -0.577339 0.577372 -0.577339  0.333333 0.000000 0
item_box
0  10.000000 -10.000000 20.000000  0.577339 -0.577372 0.577339  0.666667 0.666667 0
0  -10.000000 -10.000000 20.000000  -0.577339 -0.577339 0.577372  0.666667 0.333333 0
0  -10.000000 -10.000000 0.000000  -0.577350 -0.577350 -0.577350  1.000000 0.333333 0
item_box
0  -10.000000 10.000000 20.000000  -0.577372 0.577339 0.577339  0.666667 0.000000 0
0  -10.000000 -10.000000 0.000000  -0.577350 -0.577350 -0.577350  1.000000 0.333333 0
0  -10.000000 -10.000000 20.000000  -0.577339 -0.577339 0.577372  0.666667 0.333333 0
item_box
0  10.000000 -10.000000 20.000000  0.577339 -0.577372 0.577339  0.666667 0.666667 0
0  -10.000000 -10.000000 0.000000  -0.577350 -0.577350 -0.577350  1.000000 0.333333 0
0  10.000000 -10.000000 0.000000  0.577372 -0.577339 -0.577339  1.000000 0.666667 0
end
