version 1
nodes
0 "root" -1
end
skeleton
time 0
0 0 0 0 0 0 0
end
triangles
item_box
0  -9.400000 -9.400000 0.600000  -1.000000 0.000000 0.000000  0.731365 0.722233 0
0  -9.400000 9.400000 19.400000  -1.000000 0.000000 0.000000  0.503526 0.492674 0
0  -9.400000 9.400000 0.600000  -1.000000 0.000000 0.000000  0.731365 0.492674 0
item_box
0  -9.400000 9.400000 0.600000  0.000000 1.000000 0.000000  0.731365 0.961243 0
0  9.400000 9.400000 19.400000  0.000000 1.000000 0.000000  0.503526 0.731684 0
0  9.400000 9.400000 0.600000  0.000000 1.000000 0.000000  0.731365 0.731684 0
item_box
0  9.400000 9.400000 0.600000  1.000000 0.000000 0.000000  0.968585 0.483222 0
0  9.400000 -9.400000 19.400000  1.000000 0.000000 0.000000  0.740746 0.253663 0
0  9.400000 -9.400000 0.600000  1.000000 0.000000 0.000000  0.968585 0.253663 0
item_box
0  9.400000 -9.400000 0.600000  0.000000 -1.000000 0.000000  0.479602 0.975896 0
0  -9.400000 -9.400000 19.400000  0.000000 -1.000000 0.000000  0.251763 0.746337 0
0  -9.400000 -9.400000 0.600000  0.000000 -1.000000 0.000000  0.479602 0.746337 0
item_box
0  -9.400000 9.400000 0.600000  0.000000 0.000000 -1.000000  0.731365 0.253663 0
0  9.400000 -9.400000 0.600000  0.000000 0.000000 -1.000000  0.503526 0.483222 0
0  -9.400000 -9.400000 0.600000  0.000000 0.000000 -1.000000  0.503526 0.253663 0
item_box
0  9.400000 9.400000 19.400000  0.000000 0.000000 1.000000  0.479602 0.507326 0
0  -9.400000 -9.400000 19.400000  0.000000 0.000000 1.000000  0.251763 0.736886 0
0  9.400000 -9.400000 19.400000  0.000000 0.000000 1.000000  0.251763 0.507326 0
item_box
0  -10.000000 -10.000000 0.000000  -1.000000 0.000000 0.000000  0.494145 0.244212 0
0  -10.000000 -8.400000 1.600000  -1.000000 0.000000 0.000000  0.474755 0.224675 0
0  -10.000000 -8.400000 0.000000  -1.000000 0.000000 0.000000  0.494145 0.224675 0
item_box
0  -10.000000 -8.400000 0.000000  0.000000 1.000000 0.000000  0.817678 0.736886 0
0  10.000000 -8.400000 1.600000  0.000000 1.000000 0.000000  0.798288 0.492674 0
0  10.000000 -8.400000 0.000000  0.000000 1.000000 0.000000  0.817678 0.492674 0
item_box
0  10.000000 -8.400000 0.000000  1.000000 0.000000 0.000000  0.494145 0.273200 0
0  10.000000 -10.000000 1.600000  1.000000 0.000000 0.000000  0.474755 0.253663 0
0  10.000000 -10.000000 0.000000  1.000000 0.000000 0.000000  0.494145 0.253663 0
item_box
0  10.000000 -10.000000 0.000000  0.000000 -1.000000 0.000000  0.242382 0.751538 0
0  -10.000000 -10.000000 1.600000  0.000000 -1.000000 0.000000  0.222992 0.507326 0
0  -10.000000 -10.000000 0.000000  0.000000 -1.000000 0.000000  0.242382 0.507326 0
item_box
0  -10.000000 -8.400000 0.000000  0.000000 0.000000 -1.000000  0.019391 0.000000 0
0  10.000000 -10.000000 0.000000  0.000000 0.000000 -1.000000  0.000000 0.244212 0
0  -10.000000 -10.000000 0.000000  0.000000 0.000000 -1.000000  0.000000 0.000000 0
item_box
0  10.000000 -8.400000 1.600000  0.000000 0.000000 1.000000  0.760136 0.492674 0
0  -10.000000 -10.000000 1.600000  0.000000 0.000000 1.000000  0.740746 0.736886 0
0  10.000000 -10.000000 1.600000  0.000000 0.000000 1.000000  0.740746 0.492674 0
item_box
0  -10.000000 -10.000000 0.000000  -1.000000 0.000000 0.000000  0.494145 0.244212 0
0  -10.000000 10.000000 1.600000  -1.000000 0.000000 0.000000  0.474755 0.000000 0
0  -10.000000 10.000000 0.000000  -1.000000 0.000000 0.000000  0.494145 0.000000 0
item_box
0  -10.000000 10.000000 0.000000  0.000000 1.000000 0.000000  0.745908 0.244212 0
0  -8.400000 10.000000 1.600000  0.000000 1.000000 0.000000  0.726517 0.224675 0
0  -8.400000 10.000000 0.000000  0.000000 1.000000 0.000000  0.745908 0.224675 0
item_box
0  -8.400000 10.000000 0.000000  1.000000 0.000000 0.000000  0.832221 0.244212 0
0  -8.400000 -10.000000 1.600000  1.000000 0.000000 0.000000  0.812831 0.000000 0
0  -8.400000 -10.000000 0.000000  1.000000 0.000000 0.000000  0.832221 0.000000 0
item_box
0  -8.400000 -10.000000 0.000000  0.000000 -1.000000 0.000000  0.242382 0.526863 0
0  -10.000000 -10.000000 1.600000  0.000000 -1.000000 0.000000  0.222992 0.507326 0
0  -10.000000 -10.000000 0.000000  0.000000 -1.000000 0.000000  0.242382 0.507326 0
item_box
0  -10.000000 10.000000 0.000000  0.000000 0.000000 -1.000000  0.242382 0.000000 0
0  -8.400000 -10.000000 0.000000  0.000000 0.000000 -1.000000  0.000000 0.019537 0
0  -10.000000 -10.000000 0.000000  0.000000 0.000000 -1.000000  0.000000 0.000000 0
item_box
0  -8.400000 10.000000 1.600000  0.000000 0.000000 1.000000  0.875220 0.736886 0
0  -10.000000 -10.000000 1.600000  0.000000 0.000000 1.000000  0.855830 0.492674 0
0  -8.400000 -10.000000 1.600000  0.000000 0.000000 1.000000  0.875220 0.492674 0
item_box
0  -10.000000 -10.000000 0.000000  -1.000000 0.000000 0.000000  0.494145 0.244212 0
0  -10.000000 -8.400000 20.000000  -1.000000 0.000000 0.000000  0.251763 0.224675 0
0  -10.000000 -8.400000 0.000000  -1.000000 0.000000 0.000000  0.494145 0.224675 0
item_box
0  -10.000000 -8.400000 0.000000  0.000000 1.000000 0.000000  0.870373 0.244212 0
0  -8.400000 -8.400000 20.000000  0.000000 1.000000 0.000000  0.889763 0.000000 0
0  -8.400000 -8.400000 0.000000  0.000000 1.000000 0.000000  0.889763 0.244212 0
item_box
0  -8.400000 -8.400000 0.000000  1.000000 0.000000 0.000000  0.884601 0.736886 0
0  -8.400000 -10.000000 20.000000  1.000000 0.000000 0.000000  0.903991 0.492674 0
0  -8.400000 -10.000000 0.000000  1.000000 0.000000 0.000000  0.903991 0.736886 0
item_box
0  -8.400000 -10.000000 0.000000  0.000000 -1.000000 0.000000  0.242382 0.526863 0
0  -10.000000 -10.000000 20.000000  0.000000 -1.000000 0.000000  0.000000 0.507326 0
0  -10.000000 -10.000000 0.000000  0.000000 -1.000000 0.000000  0.242382 0.507326 0
item_box
0  -10.000000 -8.400000 0.000000  0.000000 0.000000 -1.000000  0.019391 0.000000 0
0  -8.400000 -10.000000 0.000000  0.000000 0.000000 -1.000000  0.000000 0.019537 0
0  -10.000000 -10.000000 0.000000  0.000000 0.000000 -1.000000  0.000000 0.000000 0
item_box
0  -8.400000 -8.400000 20.000000  0.000000 0.000000 1.000000  0.019391 0.478338 0
0  -10.000000 -10.000000 20.000000  0.000000 0.000000 1.000000  0.000000 0.497875 0
0  -8.400000 -10.000000 20.000000  0.000000 0.000000 1.000000  0.000000 0.478338 0
item_box
0  -10.000000 -10.000000 18.400002  -1.000000 0.000000 0.000000  0.271153 0.244212 0
0  -10.000000 -8.400000 20.000000  -1.000000 0.000000 0.000000  0.251763 0.224675 0
0  -10.000000 -8.400000 18.400002  -1.000000 0.000000 0.000000  0.271153 0.224675 0
item_box
0  -10.000000 -8.400000 18.400002  0.000000 1.000000 0.000000  0.875220 0.990549 0
0  10.000000 -8.400000 20.000000  0.000000 1.000000 0.000000  0.855830 0.746337 0
0  10.000000 -8.400000 18.400002  0.000000 1.000000 0.000000  0.875220 0.746337 0
item_box
0  10.000000 -8.400000 18.400002  1.000000 0.000000 0.000000  0.271153 0.273200 0
0  10.000000 -10.000000 20.000000  1.000000 0.000000 0.000000  0.251763 0.253663 0
0  10.000000 -10.000000 18.400002  1.000000 0.000000 0.000000  0.271153 0.253663 0
item_box
0  10.000000 -10.000000 18.400002  0.000000 -1.000000 0.000000  0.019391 0.751538 0
0  -10.000000 -10.000000 20.000000  0.000000 -1.000000 0.000000  0.000000 0.507326 0
0  -10.000000 -10.000000 18.400002  0.000000 -1.000000 0.000000  0.019391 0.507326 0
item_box
0  -10.000000 -8.400000 18.400002  0.000000 0.000000 -1.000000  0.774679 0.000000 0
0  10.000000 -10.000000 18.400002  0.000000 0.000000 -1.000000  0.755288 0.244212 0
0  -10.000000 -10.000000 18.400002  0.000000 0.000000 -1.000000  0.755288 0.000000 0
item_box
0  10.000000 -8.400000 20.000000  0.000000 0.000000 1.000000  0.019391 0.253663 0
0  -10.000000 -10.000000 20.000000  0.000000 0.000000 1.000000  0.000000 0.497875 0
0  10.000000 -10.000000 20.000000  0.000000 0.000000 1.000000  0.000000 0.253663 0
item_box
0  -10.000000 -10.000000 18.400002  -1.000000 0.000000 0.000000  0.271153 0.244212 0
0  -10.000000 10.000000 20.000000  -1.000000 0.000000 0.000000  0.251763 0.000000 0
0  -10.000000 10.000000 18.400002  -1.000000 0.000000 0.000000  0.271153 0.000000 0
item_box
0  -10.000000 10.000000 18.400002  0.000000 1.000000 0.000000  0.522916 0.244212 0
0  -8.400000 10.000000 20.000000  0.000000 1.000000 0.000000  0.503526 0.224675 0
0  -8.400000 10.000000 18.400002  0.000000 1.000000 0.000000  0.522916 0.224675 0
item_box
0  -8.400000 10.000000 18.400002  1.000000 0.000000 0.000000  0.903992 0.990549 0
0  -8.400000 -10.000000 20.000000  1.000000 0.000000 0.000000  0.884601 0.746337 0
0  -8.400000 -10.000000 18.400002  1.000000 0.000000 0.000000  0.903992 0.746337 0
item_box
0  -8.400000 -10.000000 18.400002  0.000000 -1.000000 0.000000  0.019391 0.526863 0
0  -10.000000 -10.000000 20.000000  0.000000 -1.000000 0.000000  0.000000 0.507326 0
0  -10.000000 -10.000000 18.400002  0.000000 -1.000000 0.000000  0.019391 0.507326 0
item_box
0  -10.000000 10.000000 18.400002  0.000000 0.000000 -1.000000  0.918534 0.244212 0
0  -8.400000 -10.000000 18.400002  0.000000 0.000000 -1.000000  0.899144 0.000000 0
0  -10.000000 -10.000000 18.400002  0.000000 0.000000 -1.000000  0.918534 0.000000 0
item_box
0  -8.400000 10.000000 20.000000  0.000000 0.000000 1.000000  0.242382 0.478338 0
0  -10.000000 -10.000000 20.000000  0.000000 0.000000 1.000000  0.000000 0.497875 0
0  -8.400000 -10.000000 20.000000  0.000000 0.000000 1.000000  0.000000 0.478338 0
item_box
0  -10.000000 8.400000 0.000000  -1.000000 0.000000 0.000000  0.494145 0.019537 0
0  -10.000000 10.000000 20.000000  -1.000000 0.000000 0.000000  0.251763 0.000000 0
0  -10.000000 10.000000 0.000000  -1.000000 0.000000 0.000000  0.494145 0.000000 0
item_box
0  -10.000000 10.000000 0.000000  0.000000 1.000000 0.000000  0.745908 0.244212 0
0  -8.400000 10.000000 20.000000  0.000000 1.000000 0.000000  0.503526 0.224675 0
0  -8.400000 10.000000 0.000000  0.000000 1.000000 0.000000  0.745908 0.224675 0
item_box
0  -8.400000 10.000000 0.000000  1.000000 0.000000 0.000000  0.913372 0.736886 0
0  -8.400000 8.400000 20.000000  1.000000 0.000000 0.000000  0.932763 0.492674 0
0  -8.400000 8.400000 0.000000  1.000000 0.000000 0.000000  0.932763 0.736886 0
item_box
0  -8.400000 8.400000 0.000000  0.000000 -1.000000 0.000000  0.927915 0.244212 0
0  -10.000000 8.400000 20.000000  0.000000 -1.000000 0.000000  0.947306 0.000000 0
0  -10.000000 8.400000 0.000000  0.000000 -1.000000 0.000000  0.947306 0.244212 0
item_box
0  -10.000000 10.000000 0.000000  0.000000 0.000000 -1.000000  0.242382 0.000000 0
0  -8.400000 8.400000 0.000000  0.000000 0.000000 -1.000000  0.222992 0.019537 0
0  -10.000000 8.400000 0.000000  0.000000 0.000000 -1.000000  0.222992 0.000000 0
item_box
0  -8.400000 10.000000 20.000000  0.000000 0.000000 1.000000  0.242382 0.478338 0
0  -10.000000 8.400000 20.000000  0.000000 0.000000 1.000000  0.222992 0.497875 0
0  -8.400000 8.400000 20.000000  0.000000 0.000000 1.000000  0.222992 0.478338 0
item_box
0  -10.000000 8.400000 0.000000  -1.000000 0.000000 0.000000  0.494145 0.019537 0
0  -10.000000 10.000000 1.600000  -1.000000 0.000000 0.000000  0.474755 0.000000 0
0  -10.000000 10.000000 0.000000  -1.000000 0.000000 0.000000  0.494145 0.000000 0
item_box
0  -10.000000 10.000000 0.000000  0.000000 1.000000 0.000000  0.745908 0.244212 0
0  10.000000 10.000000 1.600000  0.000000 1.000000 0.000000  0.726517 0.000000 0
0  10.000000 10.000000 0.000000  0.000000 1.000000 0.000000  0.745908 0.000000 0
item_box
0  10.000000 10.000000 0.000000  1.000000 0.000000 0.000000  0.494145 0.497875 0
0  10.000000 8.400000 1.600000  1.000000 0.000000 0.000000  0.474755 0.478338 0
0  10.000000 8.400000 0.000000  1.000000 0.000000 0.000000  0.494145 0.478338 0
item_box
0  10.000000 8.400000 0.000000  0.000000 -1.000000 0.000000  0.846449 0.736886 0
0  -10.000000 8.400000 1.600000  0.000000 -1.000000 0.000000  0.827059 0.492674 0
0  -10.000000 8.400000 0.000000  0.000000 -1.000000 0.000000  0.846449 0.492674 0
item_box
0  -10.000000 10.000000 0.000000  0.000000 0.000000 -1.000000  0.242382 0.000000 0
0  10.000000 8.400000 0.000000  0.000000 0.000000 -1.000000  0.222992 0.244212 0
0  -10.000000 8.400000 0.000000  0.000000 0.000000 -1.000000  0.222992 0.000000 0
item_box
0  10.000000 10.000000 1.600000  0.000000 0.000000 1.000000  0.788907 0.492674 0
0  -10.000000 8.400000 1.600000  0.000000 0.000000 1.000000  0.769517 0.736886 0
0  10.000000 8.400000 1.600000  0.000000 0.000000 1.000000  0.769517 0.492674 0
item_box
0  8.400000 -10.000000 0.000000  -1.000000 0.000000 0.000000  0.860992 0.244212 0
0  8.400000 10.000000 1.600000  -1.000000 0.000000 0.000000  0.841602 0.000000 0
0  8.400000 10.000000 0.000000  -1.000000 0.000000 0.000000  0.860992 0.000000 0
item_box
0  8.400000 10.000000 0.000000  0.000000 1.000000 0.000000  0.745908 0.019537 0
0  10.000000 10.000000 1.600000  0.000000 1.000000 0.000000  0.726517 0.000000 0
0  10.000000 10.000000 0.000000  0.000000 1.000000 0.000000  0.745908 0.000000 0
item_box
0  10.000000 10.000000 0.000000  1.000000 0.000000 0.000000  0.494145 0.497875 0
0  10.000000 -10.000000 1.600000  1.000000 0.000000 0.000000  0.474755 0.253663 0
0  10.000000 -10.000000 0.000000  1.000000 0.000000 0.000000  0.494145 0.253663 0
item_box
0  10.000000 -10.000000 0.000000  0.000000 -1.000000 0.000000  0.242382 0.751538 0
0  8.400000 -10.000000 1.600000  0.000000 -1.000000 0.000000  0.222992 0.732001 0
0  8.400000 -10.000000 0.000000  0.000000 -1.000000 0.000000  0.242382 0.732001 0
item_box
0  8.400000 10.000000 0.000000  0.000000 0.000000 -1.000000  0.242382 0.224675 0
0  10.000000 -10.000000 0.000000  0.000000 0.000000 -1.000000  0.000000 0.244212 0
0  8.400000 -10.000000 0.000000  0.000000 0.000000 -1.000000  0.000000 0.224675 0
item_box
0  10.000000 10.000000 1.600000  0.000000 0.000000 1.000000  0.961534 0.736886 0
0  8.400000 -10.000000 1.600000  0.000000 0.000000 1.000000  0.942143 0.492674 0
0  10.000000 -10.000000 1.600000  0.000000 0.000000 1.000000  0.961534 0.492674 0
item_box
0  8.400000 -10.000000 0.000000  -1.000000 0.000000 0.000000  0.956686 0.244212 0
0  8.400000 -8.400000 20.000000  -1.000000 0.000000 0.000000  0.976076 0.000000 0
0  8.400000 -8.400000 0.000000  -1.000000 0.000000 0.000000  0.976076 0.244212 0
item_box
0  8.400000 -8.400000 0.000000  0.000000 1.000000 0.000000  0.740745 0.990549 0
0  10.000000 -8.400000 20.000000  0.000000 1.000000 0.000000  0.760136 0.746337 0
0  10.000000 -8.400000 0.000000  0.000000 1.000000 0.000000  0.760136 0.990549 0
item_box
0  10.000000 -8.400000 0.000000  1.000000 0.000000 0.000000  0.494145 0.273200 0
0  10.000000 -10.000000 20.000000  1.000000 0.000000 0.000000  0.251763 0.253663 0
0  10.000000 -10.000000 0.000000  1.000000 0.000000 0.000000  0.494145 0.253663 0
item_box
0  10.000000 -10.000000 0.000000  0.000000 -1.000000 0.000000  0.242382 0.751538 0
0  8.400000 -10.000000 20.000000  0.000000 -1.000000 0.000000  0.000000 0.732001 0
0  8.400000 -10.000000 0.000000  0.000000 -1.000000 0.000000  0.242382 0.732001 0
item_box
0  8.400000 -8.400000 0.000000  0.000000 0.000000 -1.000000  0.019391 0.224675 0
0  10.000000 -10.000000 0.000000  0.000000 0.000000 -1.000000  0.000000 0.244212 0
0  8.400000 -10.000000 0.000000  0.000000 0.000000 -1.000000  0.000000 0.224675 0
item_box
0  10.000000 -8.400000 20.000000  0.000000 0.000000 1.000000  0.019391 0.253663 0
0  8.400000 -10.000000 20.000000  0.000000 0.000000 1.000000  0.000000 0.273200 0
0  10.000000 -10.000000 20.000000  0.000000 0.000000 1.000000  0.000000 0.253663 0
item_box
0  -10.000000 8.400000 18.400002  -1.000000 0.000000 0.000000  0.271153 0.019537 0
0  -10.000000 10.000000 20.000000  -1.000000 0.000000 0.000000  0.251763 0.000000 0
0  -10.000000 10.000000 18.400002  -1.000000 0.000000 0.000000  0.271153 0.000000 0
item_box
0  -10.000000 10.000000 18.400002  0.000000 1.000000 0.000000  0.522916 0.244212 0
0  10.000000 10.000000 20.000000  0.000000 1.000000 0.000000  0.503526 0.000000 0
0  10.000000 10.000000 18.400002  0.000000 1.000000 0.000000  0.522916 0.000000 0
item_box
0  10.000000 10.000000 18.400002  1.000000 0.000000 0.000000  0.271153 0.497875 0
0  10.000000 8.400000 20.000000  1.000000 0.000000 0.000000  0.251763 0.478338 0
0  10.000000 8.400000 18.400002  1.000000 0.000000 0.000000  0.271153 0.478338 0
item_box
0  10.000000 8.400000 18.400002  0.000000 -1.000000 0.000000  0.932763 0.990549 0
0  -10.000000 8.400000 20.000000  0.000000 -1.000000 0.000000  0.913372 0.746337 0
0  -10.000000 8.400000 18.400002  0.000000 -1.000000 0.000000  0.932763 0.746337 0
item_box
0  -10.000000 10.000000 18.400002  0.000000 0.000000 -1.000000  0.803450 0.000000 0
0  10.000000 8.400000 18.400002  0.000000 0.000000 -1.000000  0.784059 0.244212 0
0  -10.000000 8.400000 18.400002  0.000000 0.000000 -1.000000  0.784060 0.000000 0
item_box
0  10.000000 10.000000 20.000000  0.000000 0.000000 1.000000  0.242382 0.253663 0
0  -10.000000 8.400000 20.000000  0.000000 0.000000 1.000000  0.222992 0.497875 0
0  10.000000 8.400000 20.000000  0.000000 0.000000 1.000000  0.222992 0.253663 0
item_box
0  8.400000 -10.000000 18.400002  -1.000000 0.000000 0.000000  0.961534 0.990549 0
0  8.400000 10.000000 20.000000  -1.000000 0.000000 0.000000  0.942143 0.746337 0
0  8.400000 10.000000 18.400002  -1.000000 0.000000 0.000000  0.961534 0.746337 0
item_box
0  8.400000 10.000000 18.400002  0.000000 1.000000 0.000000  0.522916 0.019537 0
0  10.000000 10.000000 20.000000  0.000000 1.000000 0.000000  0.503526 0.000000 0
0  10.000000 10.000000 18.400002  0.000000 1.000000 0.000000  0.522916 0.000000 0
item_box
0  10.000000 10.000000 18.400002  1.000000 0.000000 0.000000  0.271153 0.497875 0
0  10.000000 -10.000000 20.000000  1.000000 0.000000 0.000000  0.251763 0.253663 0
0  10.000000 -10.000000 18.400002  1.000000 0.000000 0.000000  0.271153 0.253663 0
item_box
0  10.000000 -10.000000 18.400002  0.000000 -1.000000 0.000000  0.019391 0.751538 0
0  8.400000 -10.000000 20.000000  0.000000 -1.000000 0.000000  0.000000 0.732001 0
0  8.400000 -10.000000 18.400002  0.000000 -1.000000 0.000000  0.019391 0.732001 0
item_box
0  8.400000 10.000000 18.400002  0.000000 0.000000 -1.000000  0.788907 0.990549 0
0  10.000000 -10.000000 18.400002  0.000000 0.000000 -1.000000  0.769517 0.746337 0
0  8.400000 -10.000000 18.400002  0.000000 0.000000 -1.000000  0.788907 0.746337 0
item_box
0  10.000000 10.000000 20.000000  0.000000 0.000000 1.000000  0.242382 0.253663 0
0  8.400000 -10.000000 20.000000  0.000000 0.000000 1.000000  0.000000 0.273200 0
0  10.000000 -10.000000 20.000000  0.000000 0.000000 1.000000  0.000000 0.253663 0
item_box
0  8.400000 8.400000 0.000000  -1.000000 0.000000 0.000000  0.798288 0.990549 0
0  8.400000 10.000000 20.000000  -1.000000 0.000000 0.000000  0.817678 0.746337 0
0  8.400000 10.000000 0.000000  -1.000000 0.000000 0.000000  0.817678 0.990549 0
item_box
0  8.400000 10.000000 0.000000  0.000000 1.000000 0.000000  0.745908 0.019537 0
0  10.000000 10.000000 20.000000  0.000000 1.000000 0.000000  0.503526 0.000000 0
0  10.000000 10.000000 0.000000  0.000000 1.000000 0.000000  0.745908 0.000000 0
item_box
0  10.000000 10.000000 0.000000  1.000000 0.000000 0.000000  0.494145 0.497875 0
0  10.000000 8.400000 20.000000  1.000000 0.000000 0.000000  0.251763 0.478338 0
0  10.000000 8.400000 0.000000  1.000000 0.000000 0.000000  0.494145 0.478338 0
item_box
0  10.000000 8.400000 0.000000  0.000000 -1.000000 0.000000  0.827059 0.990549 0
0  8.400000 8.400000 20.000000  0.000000 -1.000000 0.000000  0.846449 0.746337 0
0  8.400000 8.400000 0.000000  0.000000 -1.000000 0.000000  0.846449 0.990549 0
item_box
0  8.400000 10.000000 0.000000  0.000000 0.000000 -1.000000  0.242382 0.224675 0
0  10.000000 8.400000 0.000000  0.000000 0.000000 -1.000000  0.222992 0.244212 0
0  8.400000 8.400000 0.000000  0.000000 0.000000 -1.000000  0.222992 0.224675 0
item_box
0  10.000000 10.000000 20.000000  0.000000 0.000000 1.000000  0.242382 0.253663 0
0  8.400000 8.400000 20.000000  0.000000 0.000000 1.000000  0.222992 0.273200 0
0  10.000000 8.400000 20.000000  0.000000 0.000000 1.000000  0.222992 0.253663 0
item_box
0  -10.500000 -10.500000 -0.500000  -1.000000 0.000000 0.000000  0.153865 0.867809 0
0  -10.500000 -8.100000 1.900000  -1.000000 0.000000 0.000000  0.182951 0.838503 0
0  -10.500000 -8.100000 -0.500000  -1.000000 0.000000 0.000000  0.182951 0.867809 0
item_box
0  -10.500000 -8.100000 -0.500000  0.000000 1.000000 0.000000  0.192332 0.867809 0
0  -8.100000 -8.100000 1.900000  0.000000 1.000000 0.000000  0.221418 0.838503 0
0  -8.100000 -8.100000 -0.500000  0.000000 1.000000 0.000000  0.221418 0.867809 0
item_box
0  -8.100000 -8.100000 -0.500000  1.000000 0.000000 0.000000  0.000000 0.906565 0
0  -8.100000 -10.500000 1.900000  1.000000 0.000000 0.000000  0.029086 0.877260 0
0  -8.100000 -10.500000 -0.500000  1.000000 0.000000 0.000000  0.029086 0.906565 0
item_box
0  -8.100000 -10.500000 -0.500000  0.000000 -1.000000 0.000000  0.038466 0.906565 0
0  -10.500000 -10.500000 1.900000  0.000000 -1.000000 0.000000  0.067552 0.877260 0
0  -10.500000 -10.500000 -0.500000  0.000000 -1.000000 0.000000  0.067552 0.906565 0
item_box
0  -10.500000 -8.100000 -0.500000  0.000000 0.000000 -1.000000  0.106019 0.954773 0
0  -8.100000 -10.500000 -0.500000  0.000000 0.000000 -1.000000  0.076933 0.984079 0
0  -10.500000 -10.500000 -0.500000  0.000000 0.000000 -1.000000  0.076933 0.954773 0
item_box
0  -8.100000 -8.100000 1.900000  0.000000 0.000000 1.000000  0.144485 0.954773 0
0  -10.500000 -10.500000 1.900000  0.000000 0.000000 1.000000  0.115399 0.984079 0
0  -8.100000 -10.500000 1.900000  0.000000 0.000000 1.000000  0.115399 0.954773 0
item_box
0  -10.500000 -10.500000 18.099998  -1.000000 0.000000 0.000000  0.000000 0.790295 0
0  -10.500000 -8.100000 20.500000  -1.000000 0.000000 0.000000  0.029086 0.760990 0
0  -10.500000 -8.100000 18.099998  -1.000000 0.000000 0.000000  0.029086 0.790295 0
item_box
0  -10.500000 -8.100000 18.099998  0.000000 1.000000 0.000000  0.038466 0.790295 0
0  -8.100000 -8.100000 20.500000  0.000000 1.000000 0.000000  0.067552 0.760990 0
0  -8.100000 -8.100000 18.099998  0.000000 1.000000 0.000000  0.067552 0.790295 0
item_box
0  -8.100000 -8.100000 18.099998  1.000000 0.000000 0.000000  0.076933 0.790295 0
0  -8.100000 -10.500000 20.500000  1.000000 0.000000 0.000000  0.106019 0.760990 0
0  -8.100000 -10.500000 18.099998  1.000000 0.000000 0.000000  0.106019 0.790295 0
item_box
0  -8.100000 -10.500000 18.099998  0.000000 -1.000000 0.000000  0.115399 0.790295 0
0  -10.500000 -10.500000 20.500000  0.000000 -1.000000 0.000000  0.144485 0.760990 0
0  -10.500000 -10.500000 18.099998  0.000000 -1.000000 0.000000  0.144485 0.790295 0
item_box
0  -10.500000 -8.100000 18.099998  0.000000 0.000000 -1.000000  0.182951 0.954773 0
0  -8.100000 -10.500000 18.099998  0.000000 0.000000 -1.000000  0.153865 0.984079 0
0  -10.500000 -10.500000 18.099998  0.000000 0.000000 -1.000000  0.153865 0.954773 0
item_box
0  -8.100000 -8.100000 20.500000  0.000000 0.000000 1.000000  0.221418 0.954773 0
0  -10.500000 -10.500000 20.500000  0.000000 0.000000 1.000000  0.192332 0.984079 0
0  -8.100000 -10.500000 20.500000  0.000000 0.000000 1.000000  0.192332 0.954773 0
item_box
0  -10.500000 8.100000 -0.500000  -1.000000 0.000000 0.000000  0.076933 0.906565 0
0  -10.500000 10.500000 1.900000  -1.000000 0.000000 0.000000  0.106019 0.877260 0
0  -10.500000 10.500000 -0.500000  -1.000000 0.000000 0.000000  0.106019 0.906565 0
item_box
0  -10.500000 10.500000 -0.500000  0.000000 1.000000 0.000000  0.115399 0.906565 0
0  -8.100000 10.500000 1.900000  0.000000 1.000000 0.000000  0.144485 0.877260 0
0  -8.100000 10.500000 -0.500000  0.000000 1.000000 0.000000  0.144485 0.906565 0
item_box
0  -8.100000 10.500000 -0.500000  1.000000 0.000000 0.000000  0.153865 0.906565 0
0  -8.100000 8.100000 1.900000  1.000000 0.000000 0.000000  0.182951 0.877260 0
0  -8.100000 8.100000 -0.500000  1.000000 0.000000 0.000000  0.182951 0.906565 0
item_box
0  -8.100000 8.100000 -0.500000  0.000000 -1.000000 0.000000  0.192332 0.906565 0
0  -10.500000 8.100000 1.900000  0.000000 -1.000000 0.000000  0.221418 0.877260 0
0  -10.500000 8.100000 -0.500000  0.000000 -1.000000 0.000000  0.221418 0.906565 0
item_box
0  -10.500000 10.500000 -0.500000  0.000000 0.000000 -1.000000  0.532611 0.970695 0
0  -8.100000 8.100000 -0.500000  0.000000 0.000000 -1.000000  0.503526 1.000000 0
0  -10.500000 8.100000 -0.500000  0.000000 0.000000 -1.000000  0.503526 0.970695 0
item_box
0  -8.100000 10.500000 1.900000  0.000000 0.000000 1.000000  0.571078 0.970695 0
0  -10.500000 8.100000 1.900000  0.000000 0.000000 1.000000  0.541992 1.000000 0
0  -8.100000 8.100000 1.900000  0.000000 0.000000 1.000000  0.541992 0.970695 0
item_box
0  -10.500000 8.100000 18.099998  -1.000000 0.000000 0.000000  0.153865 0.790295 0
0  -10.500000 10.500000 20.500000  -1.000000 0.000000 0.000000  0.182951 0.760990 0
0  -10.500000 10.500000 18.099998  -1.000000 0.000000 0.000000  0.182951 0.790295 0
item_box
0  -10.500000 10.500000 18.099998  0.000000 1.000000 0.000000  0.192332 0.790295 0
0  -8.100000 10.500000 20.500000  0.000000 1.000000 0.000000  0.221418 0.760990 0
0  -8.100000 10.500000 18.099998  0.000000 1.000000 0.000000  0.221418 0.790295 0
item_box
0  -8.100000 10.500000 18.099998  1.000000 0.000000 0.000000  0.000000 0.829052 0
0  -8.100000 8.100000 20.500000  1.000000 0.000000 0.000000  0.029086 0.799746 0
0  -8.100000 8.100000 18.099998  1.000000 0.000000 0.000000  0.029086 0.829052 0
item_box
0  -8.100000 8.100000 18.099998  0.000000 -1.000000 0.000000  0.038466 0.829052 0
0  -10.500000 8.100000 20.500000  0.000000 -1.000000 0.000000  0.067552 0.799746 0
0  -10.500000 8.100000 18.099998  0.000000 -1.000000 0.000000  0.067552 0.829052 0
item_box
0  -10.500000 10.500000 18.099998  0.000000 0.000000 -1.000000  0.609544 0.970695 0
0  -8.100000 8.100000 18.099998  0.000000 0.000000 -1.000000  0.580458 1.000000 0
0  -10.500000 8.100000 18.099998  0.000000 0.000000 -1.000000  0.580458 0.970695 0
item_box
0  -8.100000 10.500000 20.500000  0.000000 0.000000 1.000000  0.648011 0.970695 0
0  -10.500000 8.100000 20.500000  0.000000 0.000000 1.000000  0.618925 1.000000 0
0  -8.100000 8.100000 20.500000  0.000000 0.000000 1.000000  0.618925 0.970695 0
item_box
0  8.100000 -10.500000 -0.500000  -1.000000 0.000000 0.000000  0.000000 0.945322 0
0  8.100000 -8.100000 1.900000  -1.000000 0.000000 0.000000  0.029086 0.916017 0
0  8.100000 -8.100000 -0.500000  -1.000000 0.000000 0.000000  0.029086 0.945322 0
item_box
0  8.100000 -8.100000 -0.500000  0.000000 1.000000 0.000000  0.038466 0.945322 0
0  10.500000 -8.100000 1.900000  0.000000 1.000000 0.000000  0.067552 0.916017 0
0  10.500000 -8.100000 -0.500000  0.000000 1.000000 0.000000  0.067552 0.945322 0
item_box
0  10.500000 -8.100000 -0.500000  1.000000 0.000000 0.000000  0.076933 0.945322 0
0  10.500000 -10.500000 1.900000  1.000000 0.000000 0.000000  0.106019 0.916017 0
0  10.500000 -10.500000 -0.500000  1.000000 0.000000 0.000000  0.106019 0.945322 0
item_box
0  10.500000 -10.500000 -0.500000  0.000000 -1.000000 0.000000  0.115399 0.945322 0
0  8.100000 -10.500000 1.900000  0.000000 -1.000000 0.000000  0.144485 0.916017 0
0  8.100000 -10.500000 -0.500000  0.000000 -1.000000 0.000000  0.144485 0.945322 0
item_box
0  8.100000 -8.100000 -0.500000  0.000000 0.000000 -1.000000  0.686477 0.970695 0
0  10.500000 -10.500000 -0.500000  0.000000 0.000000 -1.000000  0.657391 1.000000 0
0  8.100000 -10.500000 -0.500000  0.000000 0.000000 -1.000000  0.657391 0.970695 0
item_box
0  10.500000 -8.100000 1.900000  0.000000 0.000000 1.000000  0.724943 0.970695 0
0  8.100000 -10.500000 1.900000  0.000000 0.000000 1.000000  0.695857 1.000000 0
0  10.500000 -10.500000 1.900000  0.000000 0.000000 1.000000  0.695857 0.970695 0
item_box
0  8.100000 -10.500000 18.099998  -1.000000 0.000000 0.000000  0.076933 0.829052 0
0  8.100000 -8.100000 20.500000  -1.000000 0.000000 0.000000  0.106019 0.799746 0
0  8.100000 -8.100000 18.099998  -1.000000 0.000000 0.000000  0.106019 0.829052 0
item_box
0  8.100000 -8.100000 18.099998  0.000000 1.000000 0.000000  0.115399 0.829052 0
0  10.500000 -8.100000 20.500000  0.000000 1.000000 0.000000  0.144485 0.799746 0
0  10.500000 -8.100000 18.099998  0.000000 1.000000 0.000000  0.144485 0.829052 0
item_box
0  10.500000 -8.100000 18.099998  1.000000 0.000000 0.000000  0.153865 0.829052 0
0  10.500000 -10.500000 20.500000  1.000000 0.000000 0.000000  0.182951 0.799746 0
0  10.500000 -10.500000 18.099998  1.000000 0.000000 0.000000  0.182951 0.829052 0
item_box
0  10.500000 -10.500000 18.099998  0.000000 -1.000000 0.000000  0.192332 0.829052 0
0  8.100000 -10.500000 20.500000  0.000000 -1.000000 0.000000  0.221418 0.799746 0
0  8.100000 -10.500000 18.099998  0.000000 -1.000000 0.000000  0.221418 0.829052 0
item_box
0  8.100000 -8.100000 18.099998  0.000000 0.000000 -1.000000  1.000000 0.492674 0
0  10.500000 -10.500000 18.099998  0.000000 0.000000 -1.000000  0.970914 0.521979 0
0  8.100000 -10.500000 18.099998  0.000000 0.000000 -1.000000  0.970914 0.492674 0
item_box
0  10.500000 -8.100000 20.500000  0.000000 0.000000 1.000000  1.000000 0.531430 0
0  8.100000 -10.500000 20.500000  0.000000 0.000000 1.000000  0.970914 0.560736 0
0  10.500000 -10.500000 20.500000  0.000000 0.000000 1.000000  0.970914 0.531430 0
item_box
0  8.100000 8.100000 -0.500000  -1.000000 0.000000 0.000000  0.153865 0.945322 0
0  8.100000 10.500000 1.900000  -1.000000 0.000000 0.000000  0.182951 0.916017 0
0  8.100000 10.500000 -0.500000  -1.000000 0.000000 0.000000  0.182951 0.945322 0
item_box
0  8.100000 10.500000 -0.500000  0.000000 1.000000 0.000000  0.192332 0.945322 0
0  10.500000 10.500000 1.900000  0.000000 1.000000 0.000000  0.221418 0.916017 0
0  10.500000 10.500000 -0.500000  0.000000 1.000000 0.000000  0.221418 0.945322 0
item_box
0  10.500000 10.500000 -0.500000  1.000000 0.000000 0.000000  0.000000 0.984079 0
0  10.500000 8.100000 1.900000  1.000000 0.000000 0.000000  0.029086 0.954773 0
0  10.500000 8.100000 -0.500000  1.000000 0.000000 0.000000  0.029086 0.984079 0
item_box
0  10.500000 8.100000 -0.500000  0.000000 -1.000000 0.000000  0.038466 0.984079 0
0  8.100000 8.100000 1.900000  0.000000 -1.000000 0.000000  0.067552 0.954773 0
0  8.100000 8.100000 -0.500000  0.000000 -1.000000 0.000000  0.067552 0.984079 0
item_box
0  8.100000 10.500000 -0.500000  0.000000 0.000000 -1.000000  1.000000 0.570187 0
0  10.500000 8.100000 -0.500000  0.000000 0.000000 -1.000000  0.970914 0.599493 0
0  8.100000 8.100000 -0.500000  0.000000 0.000000 -1.000000  0.970914 0.570187 0
item_box
0  10.500000 10.500000 1.900000  0.000000 0.000000 1.000000  1.000000 0.608944 0
0  8.100000 8.100000 1.900000  0.000000 0.000000 1.000000  0.970914 0.638249 0
0  10.500000 8.100000 1.900000  0.000000 0.000000 1.000000  0.970914 0.608944 0
item_box
0  8.100000 8.100000 18.099998  -1.000000 0.000000 0.000000  0.000000 0.867809 0
0  8.100000 10.500000 20.500000  -1.000000 0.000000 0.000000  0.029086 0.838503 0
0  8.100000 10.500000 18.099998  -1.000000 0.000000 0.000000  0.029086 0.867809 0
item_box
0  8.100000 10.500000 18.099998  0.000000 1.000000 0.000000  0.038466 0.867809 0
0  10.500000 10.500000 20.500000  0.000000 1.000000 0.000000  0.067552 0.838503 0
0  10.500000 10.500000 18.099998  0.000000 1.000000 0.000000  0.067552 0.867809 0
item_box
0  10.500000 10.500000 18.099998  1.000000 0.000000 0.000000  0.076933 0.867809 0
0  10.500000 8.100000 20.500000  1.000000 0.000000 0.000000  0.106019 0.838503 0
0  10.500000 8.100000 18.099998  1.000000 0.000000 0.000000  0.106019 0.867809 0
item_box
0  10.500000 8.100000 18.099998  0.000000 -1.000000 0.000000  0.115399 0.867809 0
0  8.100000 8.100000 20.500000  0.000000 -1.000000 0.000000  0.144485 0.838503 0
0  8.100000 8.100000 18.099998  0.000000 -1.000000 0.000000  0.144485 0.867809 0
item_box
0  8.100000 10.500000 18.099998  0.000000 0.000000 -1.000000  1.000000 0.647701 0
0  10.500000 8.100000 18.099998  0.000000 0.000000 -1.000000  0.970914 0.677006 0
0  8.100000 8.100000 18.099998  0.000000 0.000000 -1.000000  0.970914 0.647701 0
item_box
0  10.500000 10.500000 20.500000  0.000000 0.000000 1.000000  1.000000 0.686457 0
0  8.100000 8.100000 20.500000  0.000000 0.000000 1.000000  0.970914 0.715763 0
0  10.500000 8.100000 20.500000  0.000000 0.000000 1.000000  0.970914 0.686457 0
item_box_symbol
0  9.550000 -8.000000 2.000000  1.000000 0.000000 0.000000  0.000000 0.000000 0
0  9.550000 8.000000 18.000000  1.000000 0.000000 0.000000  1.000000 1.000000 0
0  9.550000 -8.000000 18.000000  1.000000 0.000000 0.000000  0.000000 1.000000 0
item_box_symbol
0  8.000001 9.549999 2.000000  0.000000 1.000000 0.000000  0.000000 0.000000 0
0  -7.999999 9.550001 18.000000  0.000000 1.000000 0.000000  1.000000 1.000000 0
0  8.000001 9.549999 18.000000  0.000000 1.000000 0.000000  0.000000 1.000000 0
item_box_symbol
0  -9.549999 8.000001 2.000000  -1.000000 0.000000 0.000000  0.000000 0.000000 0
0  -9.550001 -7.999999 18.000000  -1.000000 0.000000 0.000000  1.000000 1.000000 0
0  -9.549999 8.000001 18.000000  -1.000000 0.000000 0.000000  0.000000 1.000000 0
item_box_symbol
0  -7.999999 -9.550001 2.000000  0.000000 -1.000000 0.000000  0.000000 0.000000 0
0  8.000001 -9.549999 18.000000  0.000000 -1.000000 0.000000  1.000000 1.000000 0
0  -7.999999 -9.550001 18.000000  0.000000 -1.000000 0.000000  0.000000 1.000000 0
item_box_symbol
0  -8.000000 -8.000000 19.549999  0.000000 0.000000 1.000000  0.000000 0.000000 0
0  8.000000 8.000000 19.549999  0.000000 0.000000 1.000000  1.000000 1.000000 0
0  -8.000000 8.000000 19.549999  0.000000 0.000000 1.000000  0.000000 1.000000 0
item_box
0  -9.400000 -9.400000 0.600000  -1.000000 0.000000 0.000000  0.731365 0.722233 0
0  -9.400000 -9.400000 19.400000  -1.000000 0.000000 0.000000  0.503526 0.722233 0
0  -9.400000 9.400000 19.400000  -1.000000 0.000000 0.000000  0.503526 0.492674 0
item_box
0  -9.400000 9.400000 0.600000  0.000000 1.000000 0.000000  0.731365 0.961243 0
0  -9.400000 9.400000 19.400000  0.000000 1.000000 0.000000  0.503526 0.961243 0
0  9.400000 9.400000 19.400000  0.000000 1.000000 0.000000  0.503526 0.731684 0
item_box
0  9.400000 9.400000 0.600000  1.000000 0.000000 0.000000  0.968585 0.483222 0
0  9.400000 9.400000 19.400000  1.000000 0.000000 0.000000  0.740745 0.483222 0
0  9.400000 -9.400000 19.400000  1.000000 0.000000 0.000000  0.740746 0.253663 0
item_box
0  9.400000 -9.400000 0.600000  0.000000 -1.000000 0.000000  0.479602 0.975896 0
0  9.400000 -9.400000 19.400000  0.000000 -1.000000 0.000000  0.251763 0.975896 0
0  -9.400000 -9.400000 19.400000  0.000000 -1.000000 0.000000  0.251763 0.746337 0
item_box
0  -9.400000 9.400000 0.600000  0.000000 0.000000 -1.000000  0.731365 0.253663 0
0  9.400000 9.400000 0.600000  0.000000 0.000000 -1.000000  0.731365 0.483222 0
0  9.400000 -9.400000 0.600000  0.000000 0.000000 -1.000000  0.503526 0.483222 0
item_box
0  9.400000 9.400000 19.400000  0.000000 0.000000 1.000000  0.479602 0.507326 0
0  -9.400000 9.400000 19.400000  0.000000 0.000000 1.000000  0.479602 0.736886 0
0  -9.400000 -9.400000 19.400000  0.000000 0.000000 1.000000  0.251763 0.736886 0
item_box
0  -10.000000 -10.000000 0.000000  -1.000000 0.000000 0.000000  0.494145 0.244212 0
0  -10.000000 -10.000000 1.600000  -1.000000 0.000000 0.000000  0.474755 0.244212 0
0  -10.000000 -8.400000 1.600000  -1.000000 0.000000 0.000000  0.474755 0.224675 0
item_box
0  -10.000000 -8.400000 0.000000  0.000000 1.000000 0.000000  0.817678 0.736886 0
0  -10.000000 -8.400000 1.600000  0.000000 1.000000 0.000000  0.798288 0.736886 0
0  10.000000 -8.400000 1.600000  0.000000 1.000000 0.000000  0.798288 0.492674 0
item_box
0  10.000000 -8.400000 0.000000  1.000000 0.000000 0.000000  0.494145 0.273200 0
0  10.000000 -8.400000 1.600000  1.000000 0.000000 0.000000  0.474755 0.273200 0
0  10.000000 -10.000000 1.600000  1.000000 0.000000 0.000000  0.474755 0.253663 0
item_box
0  10.000000 -10.000000 0.000000  0.000000 -1.000000 0.000000  0.242382 0.751538 0
0  10.000000 -10.000000 1.600000  0.000000 -1.000000 0.000000  0.222992 0.751538 0
0  -10.000000 -10.000000 1.600000  0.000000 -1.000000 0.000000  0.222992 0.507326 0
item_box
0  -10.000000 -8.400000 0.000000  0.000000 0.000000 -1.000000  0.019391 0.000000 0
0  10.000000 -8.400000 0.000000  0.000000 0.000000 -1.000000  0.019391 0.244212 0
0  10.000000 -10.000000 0.000000  0.000000 0.000000 -1.000000  0.000000 0.244212 0
item_box
0  10.000000 -8.400000 1.600000  0.000000 0.000000 1.000000  0.760136 0.492674 0
0  -10.000000 -8.400000 1.600000  0.000000 0.000000 1.000000  0.760136 0.736886 0
0  -10.000000 -10.000000 1.600000  0.000000 0.000000 1.000000  0.740746 0.736886 0
item_box
0  -10.000000 -10.000000 0.000000  -1.000000 0.000000 0.000000  0.494145 0.244212 0
0  -10.000000 -10.000000 1.600000  -1.000000 0.000000 0.000000  0.474755 0.244212 0
0  -10.000000 10.000000 1.600000  -1.000000 0.000000 0.000000  0.474755 0.000000 0
item_box
0  -10.000000 10.000000 0.000000  0.000000 1.000000 0.000000  0.745908 0.244212 0
0  -10.000000 10.000000 1.600000  0.000000 1.000000 0.000000  0.726517 0.244212 0
0  -8.400000 10.000000 1.600000  0.000000 1.000000 0.000000  0.726517 0.224675 0
item_box
0  -8.400000 10.000000 0.000000  1.000000 0.000000 0.000000  0.832221 0.244212 0
0  -8.400000 10.000000 1.600000  1.000000 0.000000 0.000000  0.812831 0.244212 0
0  -8.400000 -10.000000 1.600000  1.000000 0.000000 0.000000  0.812831 0.000000 0
item_box
0  -8.400000 -10.000000 0.000000  0.000000 -1.000000 0.000000  0.242382 0.526863 0
0  -8.400000 -10.000000 1.600000  0.000000 -1.000000 0.000000  0.222992 0.526863 0
0  -10.000000 -10.000000 1.600000  0.000000 -1.000000 0.000000  0.222992 0.507326 0
item_box
0  -10.000000 10.000000 0.000000  0.000000 0.000000 -1.000000  0.242382 0.000000 0
0  -8.400000 10.000000 0.000000  0.000000 0.000000 -1.000000  0.242382 0.019537 0
0  -8.400000 -10.000000 0.000000  0.000000 0.000000 -1.000000  0.000000 0.019537 0
item_box
0  -8.400000 10.000000 1.600000  0.000000 0.000000 1.000000  0.875220 0.736886 0
0  -10.000000 10.000000 1.600000  0.000000 0.000000 1.000000  0.855830 0.736886 0
0  -10.000000 -10.000000 1.600000  0.000000 0.000000 1.000000  0.855830 0.492674 0
item_box
0  -10.000000 -10.000000 0.000000  -1.000000 0.000000 0.000000  0.494145 0.244212 0
0  -10.000000 -10.000000 20.000000  -1.000000 0.000000 0.000000  0.251763 0.244212 0
0  -10.000000 -8.400000 20.000000  -1.000000 0.000000 0.000000  0.251763 0.224675 0
item_box
0  -10.000000 -8.400000 0.000000  0.000000 1.000000 0.000000  0.870373 0.244212 0
0  -10.000000 -8.400000 20.000000  0.000000 1.000000 0.000000  0.870373 0.000000 0
0  -8.400000 -8.400000 20.000000  0.000000 1.000000 0.000000  0.889763 0.000000 0
item_box
0  -8.400000 -8.400000 0.000000  1.000000 0.000000 0.000000  0.884601 0.736886 0
0  -8.400000 -8.400000 20.000000  1.000000 0.000000 0.000000  0.884601 0.492674 0
0  -8.400000 -10.000000 20.000000  1.000000 0.000000 0.000000  0.903991 0.492674 0
item_box
0  -8.400000 -10.000000 0.000000  0.000000 -1.000000 0.000000  0.242382 0.526863 0
0  -8.400000 -10.000000 20.000000  0.000000 -1.000000 0.000000  0.000000 0.526863 0
0  -10.000000 -10.000000 20.000000  0.000000 -1.000000 0.000000  0.000000 0.507326 0
item_box
0  -10.000000 -8.400000 0.000000  0.000000 0.000000 -1.000000  0.019391 0.000000 0
0  -8.400000 -8.400000 0.000000  0.000000 0.000000 -1.000000  0.019391 0.019537 0
0  -8.400000 -10.000000 0.000000  0.000000 0.000000 -1.000000  0.000000 0.019537 0
item_box
0  -8.400000 -8.400000 20.000000  0.000000 0.000000 1.000000  0.019391 0.478338 0
0  -10.000000 -8.400000 20.000000  0.000000 0.000000 1.000000  0.019391 0.497875 0
0  -10.000000 -10.000000 20.000000  0.000000 0.000000 1.000000  0.000000 0.497875 0
item_box
0  -10.000000 -10.000000 18.400002  -1.000000 0.000000 0.000000  0.271153 0.244212 0
0  -10.000000 -10.000000 20.000000  -1.000000 0.000000 0.000000  0.251763 0.244212 0
0  -10.000000 -8.400000 20.000000  -1.000000 0.000000 0.000000  0.251763 0.224675 0
item_box
0  -10.000000 -8.400000 18.400002  0.000000 1.000000 0.000000  0.875220 0.990549 0
0  -10.000000 -8.400000 20.000000  0.000000 1.000000 0.000000  0.855830 0.990549 0
0  10.000000 -8.400000 20.000000  0.000000 1.000000 0.000000  0.855830 0.746337 0
item_box
0  10.000000 -8.400000 18.400002  1.000000 0.000000 0.000000  0.271153 0.273200 0
0  10.000000 -8.400000 20.000000  1.000000 0.000000 0.000000  0.251763 0.273200 0
0  10.000000 -10.000000 20.000000  1.000000 0.000000 0.000000  0.251763 0.253663 0
item_box
0  10.000000 -10.000000 18.400002  0.000000 -1.000000 0.000000  0.019391 0.751538 0
0  10.000000 -10.000000 20.000000  0.000000 -1.000000 0.000000  0.000000 0.751538 0
0  -10.000000 -10.000000 20.000000  0.000000 -1.000000 0.000000  0.000000 0.507326 0
item_box
0  -10.000000 -8.400000 18.400002  0.000000 0.000000 -1.000000  0.774679 0.000000 0
0  10.000000 -8.400000 18.400002  0.000000 0.000000 -1.000000  0.774679 0.244212 0
0  10.000000 -10.000000 18.400002  0.000000 0.000000 -1.000000  0.755288 0.244212 0
item_box
0  10.000000 -8.400000 20.000000  0.000000 0.000000 1.000000  0.019391 0.253663 0
0  -10.000000 -8.400000 20.000000  0.000000 0.000000 1.000000  0.019391 0.497875 0
0  -10.000000 -10.000000 20.000000  0.000000 0.000000 1.000000  0.000000 0.497875 0
item_box
0  -10.000000 -10.000000 18.400002  -1.000000 0.000000 0.000000  0.271153 0.244212 0
0  -10.000000 -10.000000 20.000000  -1.000000 0.000000 0.000000  0.251763 0.244212 0
0  -10.000000 10.000000 20.000000  -1.000000 0.000000 0.000000  0.251763 0.000000 0
item_box
0  -10.000000 10.000000 18.400002  0.000000 1.000000 0.000000  0.522916 0.244212 0
0  -10.000000 10.000000 20.000000  0.000000 1.000000 0.000000  0.503526 0.244212 0
0  -8.400000 10.000000 20.000000  0.000000 1.000000 0.000000  0.503526 0.224675 0
item_box
0  -8.400000 10.000000 18.400002  1.000000 0.000000 0.000000  0.903992 0.990549 0
0  -8.400000 10.000000 20.000000  1.000000 0.000000 0.000000  0.884601 0.990549 0
0  -8.400000 -10.000000 20.000000  1.000000 0.000000 0.000000  0.884601 0.746337 0
item_box
0  -8.400000 -10.000000 18.400002  0.000000 -1.000000 0.000000  0.019391 0.526863 0
0  -8.400000 -10.000000 20.000000  0.000000 -1.000000 0.000000  0.000000 0.526863 0
0  -10.000000 -10.000000 20.000000  0.000000 -1.000000 0.000000  0.000000 0.507326 0
item_box
0  -10.000000 10.000000 18.400002  0.000000 0.000000 -1.000000  0.918534 0.244212 0
0  -8.400000 10.000000 18.400002  0.000000 0.000000 -1.000000  0.899144 0.244212 0
0  -8.400000 -10.000000 18.400002  0.000000 0.000000 -1.000000  0.899144 0.000000 0
item_box
0  -8.400000 10.000000 20.000000  0.000000 0.000000 1.000000  0.242382 0.478338 0
0  -10.000000 10.000000 20.000000  0.000000 0.000000 1.000000  0.242382 0.497875 0
0  -10.000000 -10.000000 20.000000  0.000000 0.000000 1.000000  0.000000 0.497875 0
item_box
0  -10.000000 8.400000 0.000000  -1.000000 0.000000 0.000000  0.494145 0.019537 0
0  -10.000000 8.400000 20.000000  -1.000000 0.000000 0.000000  0.251763 0.019537 0
0  -10.000000 10.000000 20.000000  -1.000000 0.000000 0.000000  0.251763 0.000000 0
item_box
0  -10.000000 10.000000 0.000000  0.000000 1.000000 0.000000  0.745908 0.244212 0
0  -10.000000 10.000000 20.000000  0.000000 1.000000 0.000000  0.503526 0.244212 0
0  -8.400000 10.000000 20.000000  0.000000 1.000000 0.000000  0.503526 0.224675 0
item_box
0  -8.400000 10.000000 0.000000  1.000000 0.000000 0.000000  0.913372 0.736886 0
0  -8.400000 10.000000 20.000000  1.000000 0.000000 0.000000  0.913372 0.492674 0
0  -8.400000 8.400000 20.000000  1.000000 0.000000 0.000000  0.932763 0.492674 0
item_box
0  -8.400000 8.400000 0.000000  0.000000 -1.000000 0.000000  0.927915 0.244212 0
0  -8.400000 8.400000 20.000000  0.000000 -1.000000 0.000000  0.927915 0.000000 0
0  -10.000000 8.400000 20.000000  0.000000 -1.000000 0.000000  0.947306 0.000000 0
item_box
0  -10.000000 10.000000 0.000000  0.000000 0.000000 -1.000000  0.242382 0.000000 0
0  -8.400000 10.000000 0.000000  0.000000 0.000000 -1.000000  0.242382 0.019537 0
0  -8.400000 8.400000 0.000000  0.000000 0.000000 -1.000000  0.222992 0.019537 0
item_box
0  -8.400000 10.000000 20.000000  0.000000 0.000000 1.000000  0.242382 0.478338 0
0  -10.000000 10.000000 20.000000  0.000000 0.000000 1.000000  0.242382 0.497875 0
0  -10.000000 8.400000 20.000000  0.000000 0.000000 1.000000  0.222992 0.497875 0
item_box
0  -10.000000 8.400000 0.000000  -1.000000 0.000000 0.000000  0.494145 0.019537 0
0  -10.000000 8.400000 1.600000  -1.000000 0.000000 0.000000  0.474755 0.019537 0
0  -10.000000 10.000000 1.600000  -1.000000 0.000000 0.000000  0.474755 0.000000 0
item_box
0  -10.000000 10.000000 0.000000  0.000000 1.000000 0.000000  0.745908 0.244212 0
0  -10.000000 10.000000 1.600000  0.000000 1.000000 0.000000  0.726517 0.244212 0
0  10.000000 10.000000 1.600000  0.000000 1.000000 0.000000  0.726517 0.000000 0
item_box
0  10.000000 10.000000 0.000000  1.000000 0.000000 0.000000  0.494145 0.497875 0
0  10.000000 10.000000 1.600000  1.000000 0.000000 0.000000  0.474755 0.497875 0
0  10.000000 8.400000 1.600000  1.000000 0.000000 0.000000  0.474755 0.478338 0
item_box
0  10.000000 8.400000 0.000000  0.000000 -1.000000 0.000000  0.846449 0.736886 0
0  10.000000 8.400000 1.600000  0.000000 -1.000000 0.000000  0.827059 0.736886 0
0  -10.000000 8.400000 1.600000  0.000000 -1.000000 0.000000  0.827059 0.492674 0
item_box
0  -10.000000 10.000000 0.000000  0.000000 0.000000 -1.000000  0.242382 0.000000 0
0  10.000000 10.000000 0.000000  0.000000 0.000000 -1.000000  0.242382 0.244212 0
0  10.000000 8.400000 0.000000  0.000000 0.000000 -1.000000  0.222992 0.244212 0
item_box
0  10.000000 10.000000 1.600000  0.000000 0.000000 1.000000  0.788907 0.492674 0
0  -10.000000 10.000000 1.600000  0.000000 0.000000 1.000000  0.788907 0.736886 0
0  -10.000000 8.400000 1.600000  0.000000 0.000000 1.000000  0.769517 0.736886 0
item_box
0  8.400000 -10.000000 0.000000  -1.000000 0.000000 0.000000  0.860992 0.244212 0
0  8.400000 -10.000000 1.600000  -1.000000 0.000000 0.000000  0.841602 0.244212 0
0  8.400000 10.000000 1.600000  -1.000000 0.000000 0.000000  0.841602 0.000000 0
item_box
0  8.400000 10.000000 0.000000  0.000000 1.000000 0.000000  0.745908 0.019537 0
0  8.400000 10.000000 1.600000  0.000000 1.000000 0.000000  0.726517 0.019537 0
0  10.000000 10.000000 1.600000  0.000000 1.000000 0.000000  0.726517 0.000000 0
item_box
0  10.000000 10.000000 0.000000  1.000000 0.000000 0.000000  0.494145 0.497875 0
0  10.000000 10.000000 1.600000  1.000000 0.000000 0.000000  0.474755 0.497875 0
0  10.000000 -10.000000 1.600000  1.000000 0.000000 0.000000  0.474755 0.253663 0
item_box
0  10.000000 -10.000000 0.000000  0.000000 -1.000000 0.000000  0.242382 0.751538 0
0  10.000000 -10.000000 1.600000  0.000000 -1.000000 0.000000  0.222992 0.751538 0
0  8.400000 -10.000000 1.600000  0.000000 -1.000000 0.000000  0.222992 0.732001 0
item_box
0  8.400000 10.000000 0.000000  0.000000 0.000000 -1.000000  0.242382 0.224675 0
0  10.000000 10.000000 0.000000  0.000000 0.000000 -1.000000  0.242382 0.244212 0
0  10.000000 -10.000000 0.000000  0.000000 0.000000 -1.000000  0.000000 0.244212 0
item_box
0  10.000000 10.000000 1.600000  0.000000 0.000000 1.000000  0.961534 0.736886 0
0  8.400000 10.000000 1.600000  0.000000 0.000000 1.000000  0.942143 0.736886 0
0  8.400000 -10.000000 1.600000  0.000000 0.000000 1.000000  0.942143 0.492674 0
item_box
0  8.400000 -10.000000 0.000000  -1.000000 0.000000 0.000000  0.956686 0.244212 0
0  8.400000 -10.000000 20.000000  -1.000000 0.000000 0.000000  0.956686 0.000000 0
0  8.400000 -8.400000 20.000000  -1.000000 0.000000 0.000000  0.976076 0.000000 0
item_box
0  8.400000 -8.400000 0.000000  0.000000 1.000000 0.000000  0.740745 0.990549 0
0  8.400000 -8.400000 20.000000  0.000000 1.000000 0.000000  0.740745 0.746337 0
0  10.000000 -8.400000 20.000000  0.000000 1.000000 0.000000  0.760136 0.746337 0
item_box
0  10.000000 -8.400000 0.000000  1.000000 0.000000 0.000000  0.494145 0.273200 0
0  10.000000 -8.400000 20.000000  1.000000 0.000000 0.000000  0.251763 0.273200 0
0  10.000000 -10.000000 20.000000  1.000000 0.000000 0.000000  0.251763 0.253663 0
item_box
0  10.000000 -10.000000 0.000000  0.000000 -1.000000 0.000000  0.242382 0.751538 0
0  10.000000 -10.000000 20.000000  0.000000 -1.000000 0.000000  0.000000 0.751538 0
0  8.400000 -10.000000 20.000000  0.000000 -1.000000 0.000000  0.000000 0.732001 0
item_box
0  8.400000 -8.400000 0.000000  0.000000 0.000000 -1.000000  0.019391 0.224675 0
0  10.000000 -8.400000 0.000000  0.000000 0.000000 -1.000000  0.019391 0.244212 0
0  10.000000 -10.000000 0.000000  0.000000 0.000000 -1.000000  0.000000 0.244212 0
item_box
0  10.000000 -8.400000 20.000000  0.000000 0.000000 1.000000  0.019391 0.253663 0
0  8.400000 -8.400000 20.000000  0.000000 0.000000 1.000000  0.019391 0.273200 0
0  8.400000 -10.000000 20.000000  0.000000 0.000000 1.000000  0.000000 0.273200 0
item_box
0  -10.000000 8.400000 18.400002  -1.000000 0.000000 0.000000  0.271153 0.019537 0
0  -10.000000 8.400000 20.000000  -1.000000 0.000000 0.000000  0.251763 0.019537 0
0  -10.000000 10.000000 20.000000  -1.000000 0.000000 0.000000  0.251763 0.000000 0
item_box
0  -10.000000 10.000000 18.400002  0.000000 1.000000 0.000000  0.522916 0.244212 0
0  -10.000000 10.000000 20.000000  0.000000 1.000000 0.000000  0.503526 0.244212 0
0  10.000000 10.000000 20.000000  0.000000 1.000000 0.000000  0.503526 0.000000 0
item_box
0  10.000000 10.000000 18.400002  1.000000 0.000000 0.000000  0.271153 0.497875 0
0  10.000000 10.000000 20.000000  1.000000 0.000000 0.000000  0.251763 0.497875 0
0  10.000000 8.400000 20.000000  1.000000 0.000000 0.000000  0.251763 0.478338 0
item_box
0  10.000000 8.400000 18.400002  0.000000 -1.000000 0.000000  0.932763 0.990549 0
0  10.000000 8.400000 20.000000  0.000000 -1.000000 0.000000  0.913372 0.990549 0
0  -10.000000 8.400000 20.000000  0.000000 -1.000000 0.000000  0.913372 0.746337 0
item_box
0  -10.000000 10.000000 18.400002  0.000000 0.000000 -1.000000  0.803450 0.000000 0
0  10.000000 10.000000 18.400002  0.000000 0.000000 -1.000000  0.803450 0.244212 0
0  10.000000 8.400000 18.400002  0.000000 0.000000 -1.000000  0.784059 0.244212 0
item_box
0  10.000000 10.000000 20.000000  0.000000 0.000000 1.000000  0.242382 0.253663 0
0  -10.000000 10.000000 20.000000  0.000000 0.000000 1.000000  0.242382 0.497875 0
0  -10.000000 8.400000 20.000000  0.000000 0.000000 1.000000  0.222992 0.497875 0
item_box
0  8.400000 -10.000000 18.400002  -1.000000 0.000000 0.000000  0.961534 0.990549 0
0  8.400000 -10.000000 20.000000  -1.000000 0.000000 0.000000  0.942143 0.990549 0
0  8.400000 10.000000 20.000000  -1.000000 0.000000 0.000000  0.942143 0.746337 0
item_box
0  8.400000 10.000000 18.400002  0.000000 1.000000 0.000000  0.522916 0.019537 0
0  8.400000 10.000000 20.000000  0.000000 1.000000 0.000000  0.503526 0.019537 0
0  10.000000 10.000000 20.000000  0.000000 1.000000 0.000000  0.503526 0.000000 0
item_box
0  10.000000 10.000000 18.400002  1.000000 0.000000 0.000000  0.271153 0.497875 0
0  10.000000 10.000000 20.000000  1.000000 0.000000 0.000000  0.251763 0.497875 0
0  10.000000 -10.000000 20.000000  1.000000 0.000000 0.000000  0.251763 0.253663 0
item_box
0  10.000000 -10.000000 18.400002  0.000000 -1.000000 0.000000  0.019391 0.751538 0
0  10.000000 -10.000000 20.000000  0.000000 -1.000000 0.000000  0.000000 0.751538 0
0  8.400000 -10.000000 20.000000  0.000000 -1.000000 0.000000  0.000000 0.732001 0
item_box
0  8.400000 10.000000 18.400002  0.000000 0.000000 -1.000000  0.788907 0.990549 0
0  10.000000 10.000000 18.400002  0.000000 0.000000 -1.000000  0.769517 0.990549 0
0  10.000000 -10.000000 18.400002  0.000000 0.000000 -1.000000  0.769517 0.746337 0
item_box
0  10.000000 10.000000 20.000000  0.000000 0.000000 1.000000  0.242382 0.253663 0
0  8.400000 10.000000 20.000000  0.000000 0.000000 1.000000  0.242382 0.273200 0
0  8.400000 -10.000000 20.000000  0.000000 0.000000 1.000000  0.000000 0.273200 0
item_box
0  8.400000 8.400000 0.000000  -1.000000 0.000000 0.000000  0.798288 0.990549 0
0  8.400000 8.400000 20.000000  -1.000000 0.000000 0.000000  0.798288 0.746337 0
0  8.400000 10.000000 20.000000  -1.000000 0.000000 0.000000  0.817678 0.746337 0
item_box
0  8.400000 10.000000 0.000000  0.000000 1.000000 0.000000  0.745908 0.019537 0
0  8.400000 10.000000 20.000000  0.000000 1.000000 0.000000  0.503526 0.019537 0
0  10.000000 10.000000 20.000000  0.000000 1.000000 0.000000  0.503526 0.000000 0
item_box
0  10.000000 10.000000 0.000000  1.000000 0.000000 0.000000  0.494145 0.497875 0
0  10.000000 10.000000 20.000000  1.000000 0.000000 0.000000  0.251763 0.497875 0
0  10.000000 8.400000 20.000000  1.000000 0.000000 0.000000  0.251763 0.478338 0
item_box
0  10.000000 8.400000 0.000000  0.000000 -1.000000 0.000000  0.827059 0.990549 0
0  10.000000 8.400000 20.000000  0.000000 -1.000000 0.000000  0.827059 0.746337 0
0  8.400000 8.400000 20.000000  0.000000 -1.000000 0.000000  0.846449 0.746337 0
item_box
0  8.400000 10.000000 0.000000  0.000000 0.000000 -1.000000  0.242382 0.224675 0
0  10.000000 10.000000 0.000000  0.000000 0.000000 -1.000000  0.242382 0.244212 0
0  10.000000 8.400000 0.000000  0.000000 0.000000 -1.000000  0.222992 0.244212 0
item_box
0  10.000000 10.000000 20.000000  0.000000 0.000000 1.000000  0.242382 0.253663 0
0  8.400000 10.000000 20.000000  0.000000 0.000000 1.000000  0.242382 0.273200 0
0  8.400000 8.400000 20.000000  0.000000 0.000000 1.000000  0.222992 0.273200 0
item_box
0  -10.500000 -10.500000 -0.500000  -1.000000 0.000000 0.000000  0.153865 0.867809 0
0  -10.500000 -10.500000 1.900000  -1.000000 0.000000 0.000000  0.153865 0.838503 0
0  -10.500000 -8.100000 1.900000  -1.000000 0.000000 0.000000  0.182951 0.838503 0
item_box
0  -10.500000 -8.100000 -0.500000  0.000000 1.000000 0.000000  0.192332 0.867809 0
0  -10.500000 -8.100000 1.900000  0.000000 1.000000 0.000000  0.192332 0.838503 0
0  -8.100000 -8.100000 1.900000  0.000000 1.000000 0.000000  0.221418 0.838503 0
item_box
0  -8.100000 -8.100000 -0.500000  1.000000 0.000000 0.000000  0.000000 0.906565 0
0  -8.100000 -8.100000 1.900000  1.000000 0.000000 0.000000  0.000000 0.877260 0
0  -8.100000 -10.500000 1.900000  1.000000 0.000000 0.000000  0.029086 0.877260 0
item_box
0  -8.100000 -10.500000 -0.500000  0.000000 -1.000000 0.000000  0.038466 0.906565 0
0  -8.100000 -10.500000 1.900000  0.000000 -1.000000 0.000000  0.038466 0.877260 0
0  -10.500000 -10.500000 1.900000  0.000000 -1.000000 0.000000  0.067552 0.877260 0
item_box
0  -10.500000 -8.100000 -0.500000  0.000000 0.000000 -1.000000  0.106019 0.954773 0
0  -8.100000 -8.100000 -0.500000  0.000000 0.000000 -1.000000  0.106019 0.984079 0
0  -8.100000 -10.500000 -0.500000  0.000000 0.000000 -1.000000  0.076933 0.984079 0
item_box
0  -8.100000 -8.100000 1.900000  0.000000 0.000000 1.000000  0.144485 0.954773 0
0  -10.500000 -8.100000 1.900000  0.000000 0.000000 1.000000  0.144485 0.984079 0
0  -10.500000 -10.500000 1.900000  0.000000 0.000000 1.000000  0.115399 0.984079 0
item_box
0  -10.500000 -10.500000 18.099998  -1.000000 0.000000 0.000000  0.000000 0.790295 0
0  -10.500000 -10.500000 20.500000  -1.000000 0.000000 0.000000  0.000000 0.760990 0
0  -10.500000 -8.100000 20.500000  -1.000000 0.000000 0.000000  0.029086 0.760990 0
item_box
0  -10.500000 -8.100000 18.099998  0.000000 1.000000 0.000000  0.038466 0.790295 0
0  -10.500000 -8.100000 20.500000  0.000000 1.000000 0.000000  0.038466 0.760990 0
0  -8.100000 -8.100000 20.500000  0.000000 1.000000 0.000000  0.067552 0.760990 0
item_box
0  -8.100000 -8.100000 18.099998  1.000000 0.000000 0.000000  0.076933 0.790295 0
0  -8.100000 -8.100000 20.500000  1.000000 0.000000 0.000000  0.076933 0.760990 0
0  -8.100000 -10.500000 20.500000  1.000000 0.000000 0.000000  0.106019 0.760990 0
item_box
0  -8.100000 -10.500000 18.099998  0.000000 -1.000000 0.000000  0.115399 0.790295 0
0  -8.100000 -10.500000 20.500000  0.000000 -1.000000 0.000000  0.115399 0.760990 0
0  -10.500000 -10.500000 20.500000  0.000000 -1.000000 0.000000  0.144485 0.760990 0
item_box
0  -10.500000 -8.100000 18.099998  0.000000 0.000000 -1.000000  0.182951 0.954773 0
0  -8.100000 -8.100000 18.099998  0.000000 0.000000 -1.000000  0.182951 0.984079 0
0  -8.100000 -10.500000 18.099998  0.000000 0.000000 -1.000000  0.153865 0.984079 0
item_box
0  -8.100000 -8.100000 20.500000  0.000000 0.000000 1.000000  0.221418 0.954773 0
0  -10.500000 -8.100000 20.500000  0.000000 0.000000 1.000000  0.221418 0.984079 0
0  -10.500000 -10.500000 20.500000  0.000000 0.000000 1.000000  0.192332 0.984079 0
item_box
0  -10.500000 8.100000 -0.500000  -1.000000 0.000000 0.000000  0.076933 0.906565 0
0  -10.500000 8.100000 1.900000  -1.000000 0.000000 0.000000  0.076933 0.877260 0
0  -10.500000 10.500000 1.900000  -1.000000 0.000000 0.000000  0.106019 0.877260 0
item_box
0  -10.500000 10.500000 -0.500000  0.000000 1.000000 0.000000  0.115399 0.906565 0
0  -10.500000 10.500000 1.900000  0.000000 1.000000 0.000000  0.115399 0.877260 0
0  -8.100000 10.500000 1.900000  0.000000 1.000000 0.000000  0.144485 0.877260 0
item_box
0  -8.100000 10.500000 -0.500000  1.000000 0.000000 0.000000  0.153865 0.906565 0
0  -8.100000 10.500000 1.900000  1.000000 0.000000 0.000000  0.153865 0.877260 0
0  -8.100000 8.100000 1.900000  1.000000 0.000000 0.000000  0.182951 0.877260 0
item_box
0  -8.100000 8.100000 -0.500000  0.000000 -1.000000 0.000000  0.192332 0.906565 0
0  -8.100000 8.100000 1.900000  0.000000 -1.000000 0.000000  0.192332 0.877260 0
0  -10.500000 8.100000 1.900000  0.000000 -1.000000 0.000000  0.221418 0.877260 0
item_box
0  -10.500000 10.500000 -0.500000  0.000000 0.000000 -1.000000  0.532611 0.970695 0
0  -8.100000 10.500000 -0.500000  0.000000 0.000000 -1.000000  0.532611 1.000000 0
0  -8.100000 8.100000 -0.500000  0.000000 0.000000 -1.000000  0.503526 1.000000 0
item_box
0  -8.100000 10.500000 1.900000  0.000000 0.000000 1.000000  0.571078 0.970695 0
0  -10.500000 10.500000 1.900000  0.000000 0.000000 1.000000  0.571078 1.000000 0
0  -10.500000 8.100000 1.900000  0.000000 0.000000 1.000000  0.541992 1.000000 0
item_box
0  -10.500000 8.100000 18.099998  -1.000000 0.000000 0.000000  0.153865 0.790295 0
0  -10.500000 8.100000 20.500000  -1.000000 0.000000 0.000000  0.153865 0.760990 0
0  -10.500000 10.500000 20.500000  -1.000000 0.000000 0.000000  0.182951 0.760990 0
item_box
0  -10.500000 10.500000 18.099998  0.000000 1.000000 0.000000  0.192332 0.790295 0
0  -10.500000 10.500000 20.500000  0.000000 1.000000 0.000000  0.192332 0.760990 0
0  -8.100000 10.500000 20.500000  0.000000 1.000000 0.000000  0.221418 0.760990 0
item_box
0  -8.100000 10.500000 18.099998  1.000000 0.000000 0.000000  0.000000 0.829052 0
0  -8.100000 10.500000 20.500000  1.000000 0.000000 0.000000  0.000000 0.799746 0
0  -8.100000 8.100000 20.500000  1.000000 0.000000 0.000000  0.029086 0.799746 0
item_box
0  -8.100000 8.100000 18.099998  0.000000 -1.000000 0.000000  0.038466 0.829052 0
0  -8.100000 8.100000 20.500000  0.000000 -1.000000 0.000000  0.038466 0.799746 0
0  -10.500000 8.100000 20.500000  0.000000 -1.000000 0.000000  0.067552 0.799746 0
item_box
0  -10.500000 10.500000 18.099998  0.000000 0.000000 -1.000000  0.609544 0.970695 0
0  -8.100000 10.500000 18.099998  0.000000 0.000000 -1.000000  0.609544 1.000000 0
0  -8.100000 8.100000 18.099998  0.000000 0.000000 -1.000000  0.580458 1.000000 0
item_box
0  -8.100000 10.500000 20.500000  0.000000 0.000000 1.000000  0.648011 0.970695 0
0  -10.500000 10.500000 20.500000  0.000000 0.000000 1.000000  0.648011 1.000000 0
0  -10.500000 8.100000 20.500000  0.000000 0.000000 1.000000  0.618925 1.000000 0
item_box
0  8.100000 -10.500000 -0.500000  -1.000000 0.000000 0.000000  0.000000 0.945322 0
0  8.100000 -10.500000 1.900000  -1.000000 0.000000 0.000000  0.000000 0.916017 0
0  8.100000 -8.100000 1.900000  -1.000000 0.000000 0.000000  0.029086 0.916017 0
item_box
0  8.100000 -8.100000 -0.500000  0.000000 1.000000 0.000000  0.038466 0.945322 0
0  8.100000 -8.100000 1.900000  0.000000 1.000000 0.000000  0.038466 0.916017 0
0  10.500000 -8.100000 1.900000  0.000000 1.000000 0.000000  0.067552 0.916017 0
item_box
0  10.500000 -8.100000 -0.500000  1.000000 0.000000 0.000000  0.076933 0.945322 0
0  10.500000 -8.100000 1.900000  1.000000 0.000000 0.000000  0.076933 0.916017 0
0  10.500000 -10.500000 1.900000  1.000000 0.000000 0.000000  0.106019 0.916017 0
item_box
0  10.500000 -10.500000 -0.500000  0.000000 -1.000000 0.000000  0.115399 0.945322 0
0  10.500000 -10.500000 1.900000  0.000000 -1.000000 0.000000  0.115399 0.916017 0
0  8.100000 -10.500000 1.900000  0.000000 -1.000000 0.000000  0.144485 0.916017 0
item_box
0  8.100000 -8.100000 -0.500000  0.000000 0.000000 -1.000000  0.686477 0.970695 0
0  10.500000 -8.100000 -0.500000  0.000000 0.000000 -1.000000  0.686477 1.000000 0
0  10.500000 -10.500000 -0.500000  0.000000 0.000000 -1.000000  0.657391 1.000000 0
item_box
0  10.500000 -8.100000 1.900000  0.000000 0.000000 1.000000  0.724943 0.970695 0
0  8.100000 -8.100000 1.900000  0.000000 0.000000 1.000000  0.724943 1.000000 0
0  8.100000 -10.500000 1.900000  0.000000 0.000000 1.000000  0.695857 1.000000 0
item_box
0  8.100000 -10.500000 18.099998  -1.000000 0.000000 0.000000  0.076933 0.829052 0
0  8.100000 -10.500000 20.500000  -1.000000 0.000000 0.000000  0.076933 0.799746 0
0  8.100000 -8.100000 20.500000  -1.000000 0.000000 0.000000  0.106019 0.799746 0
item_box
0  8.100000 -8.100000 18.099998  0.000000 1.000000 0.000000  0.115399 0.829052 0
0  8.100000 -8.100000 20.500000  0.000000 1.000000 0.000000  0.115399 0.799746 0
0  10.500000 -8.100000 20.500000  0.000000 1.000000 0.000000  0.144485 0.799746 0
item_box
0  10.500000 -8.100000 18.099998  1.000000 0.000000 0.000000  0.153865 0.829052 0
0  10.500000 -8.100000 20.500000  1.000000 0.000000 0.000000  0.153865 0.799746 0
0  10.500000 -10.500000 20.500000  1.000000 0.000000 0.000000  0.182951 0.799746 0
item_box
0  10.500000 -10.500000 18.099998  0.000000 -1.000000 0.000000  0.192332 0.829052 0
0  10.500000 -10.500000 20.500000  0.000000 -1.000000 0.000000  0.192332 0.799746 0
0  8.100000 -10.500000 20.500000  0.000000 -1.000000 0.000000  0.221418 0.799746 0
item_box
0  8.100000 -8.100000 18.099998  0.000000 0.000000 -1.000000  1.000000 0.492674 0
0  10.500000 -8.100000 18.099998  0.000000 0.000000 -1.000000  1.000000 0.521979 0
0  10.500000 -10.500000 18.099998  0.000000 0.000000 -1.000000  0.970914 0.521979 0
item_box
0  10.500000 -8.100000 20.500000  0.000000 0.000000 1.000000  1.000000 0.531430 0
0  8.100000 -8.100000 20.500000  0.000000 0.000000 1.000000  1.000000 0.560736 0
0  8.100000 -10.500000 20.500000  0.000000 0.000000 1.000000  0.970914 0.560736 0
item_box
0  8.100000 8.100000 -0.500000  -1.000000 0.000000 0.000000  0.153865 0.945322 0
0  8.100000 8.100000 1.900000  -1.000000 0.000000 0.000000  0.153865 0.916017 0
0  8.100000 10.500000 1.900000  -1.000000 0.000000 0.000000  0.182951 0.916017 0
item_box
0  8.100000 10.500000 -0.500000  0.000000 1.000000 0.000000  0.192332 0.945322 0
0  8.100000 10.500000 1.900000  0.000000 1.000000 0.000000  0.192332 0.916017 0
0  10.500000 10.500000 1.900000  0.000000 1.000000 0.000000  0.221418 0.916017 0
item_box
0  10.500000 10.500000 -0.500000  1.000000 0.000000 0.000000  0.000000 0.984079 0
0  10.500000 10.500000 1.900000  1.000000 0.000000 0.000000  0.000000 0.954773 0
0  10.500000 8.100000 1.900000  1.000000 0.000000 0.000000  0.029086 0.954773 0
item_box
0  10.500000 8.100000 -0.500000  0.000000 -1.000000 0.000000  0.038466 0.984079 0
0  10.500000 8.100000 1.900000  0.000000 -1.000000 0.000000  0.038466 0.954773 0
0  8.100000 8.100000 1.900000  0.000000 -1.000000 0.000000  0.067552 0.954773 0
item_box
0  8.100000 10.500000 -0.500000  0.000000 0.000000 -1.000000  1.000000 0.570187 0
0  10.500000 10.500000 -0.500000  0.000000 0.000000 -1.000000  1.000000 0.599493 0
0  10.500000 8.100000 -0.500000  0.000000 0.000000 -1.000000  0.970914 0.599493 0
item_box
0  10.500000 10.500000 1.900000  0.000000 0.000000 1.000000  1.000000 0.608944 0
0  8.100000 10.500000 1.900000  0.000000 0.000000 1.000000  1.000000 0.638249 0
0  8.100000 8.100000 1.900000  0.000000 0.000000 1.000000  0.970914 0.638249 0
item_box
0  8.100000 8.100000 18.099998  -1.000000 0.000000 0.000000  0.000000 0.867809 0
0  8.100000 8.100000 20.500000  -1.000000 0.000000 0.000000  0.000000 0.838503 0
0  8.100000 10.500000 20.500000  -1.000000 0.000000 0.000000  0.029086 0.838503 0
item_box
0  8.100000 10.500000 18.099998  0.000000 1.000000 0.000000  0.038466 0.867809 0
0  8.100000 10.500000 20.500000  0.000000 1.000000 0.000000  0.038466 0.838503 0
0  10.500000 10.500000 20.500000  0.000000 1.000000 0.000000  0.067552 0.838503 0
item_box
0  10.500000 10.500000 18.099998  1.000000 0.000000 0.000000  0.076933 0.867809 0
0  10.500000 10.500000 20.500000  1.000000 0.000000 0.000000  0.076933 0.838503 0
0  10.500000 8.100000 20.500000  1.000000 0.000000 0.000000  0.106019 0.838503 0
item_box
0  10.500000 8.100000 18.099998  0.000000 -1.000000 0.000000  0.115399 0.867809 0
0  10.500000 8.100000 20.500000  0.000000 -1.000000 0.000000  0.115399 0.838503 0
0  8.100000 8.100000 20.500000  0.000000 -1.000000 0.000000  0.144485 0.838503 0
item_box
0  8.100000 10.500000 18.099998  0.000000 0.000000 -1.000000  1.000000 0.647701 0
0  10.500000 10.500000 18.099998  0.000000 0.000000 -1.000000  1.000000 0.677006 0
0  10.500000 8.100000 18.099998  0.000000 0.000000 -1.000000  0.970914 0.677006 0
item_box
0  10.500000 10.500000 20.500000  0.000000 0.000000 1.000000  1.000000 0.686457 0
0  8.100000 10.500000 20.500000  0.000000 0.000000 1.000000  1.000000 0.715763 0
0  8.100000 8.100000 20.500000  0.000000 0.000000 1.000000  0.970914 0.715763 0
item_box_symbol
0  9.550000 -8.000000 2.000000  1.000000 0.000000 0.000000  0.000000 0.000000 0
0  9.550000 8.000000 2.000000  1.000000 0.000000 0.000000  1.000000 0.000000 0
0  9.550000 8.000000 18.000000  1.000000 0.000000 0.000000  1.000000 1.000000 0
item_box_symbol
0  8.000001 9.549999 2.000000  0.000000 1.000000 0.000000  0.000000 0.000000 0
0  -7.999999 9.550001 2.000000  0.000000 1.000000 0.000000  1.000000 0.000000 0
0  -7.999999 9.550001 18.000000  0.000000 1.000000 0.000000  1.000000 1.000000 0
item_box_symbol
0  -9.549999 8.000001 2.000000  -1.000000 0.000000 0.000000  0.000000 0.000000 0
0  -9.550001 -7.999999 2.000000  -1.000000 0.000000 0.000000  1.000000 0.000000 0
0  -9.550001 -7.999999 18.000000  -1.000000 0.000000 0.000000  1.000000 1.000000 0
item_box_symbol
0  -7.999999 -9.550001 2.000000  0.000000 -1.000000 0.000000  0.000000 0.000000 0
0  8.000001 -9.549999 2.000000  0.000000 -1.000000 0.000000  1.000000 0.000000 0
0  8.000001 -9.549999 18.000000  0.000000 -1.000000 0.000000  1.000000 1.000000 0
item_box_symbol
0  -8.000000 -8.000000 19.549999  0.000000 0.000000 1.000000  0.000000 0.000000 0
0  8.000000 -8.000000 19.549999  0.000000 0.000000 1.000000  1.000000 0.000000 0
0  8.000000 8.000000 19.549999  0.000000 0.000000 1.000000  1.000000 1.000000 0
end
