version 1
nodes
0 "root" -1
end
skeleton
time 0
0 0 0 0 0 0 0
end
triangles
kart_scrap
0  -55.000000 -35.000000 2.000000  -0.577330 -0.577360 -0.577360  0.123656 0.967742 0
0  -55.000000 35.000000 25.000000  -0.577330 0.577360 0.577360  0.000000 0.591398 0
0  -55.000000 35.000000 2.000000  -0.577354 0.577339 -0.577358  0.123656 0.591398 0
kart_scrap
0  -55.000000 35.000000 2.000000  -0.577354 0.577339 -0.577358  0.876344 0.591398 0
0  55.000000 35.000000 25.000000  0.577354 0.577339 0.577358  0.752688 -0.000000 0
0  55.000000 35.000000 2.000000  0.577330 0.577360 -0.577360  0.876344 0.000000 0
kart_scrap
0  55.000000 35.000000 2.000000  0.577330 0.577360 -0.577360  0.247312 0.967742 0
0  55.000000 -35.000000 25.000000  0.577330 -0.577360 0.577360  0.123656 0.591398 0
0  55.000000 -35.000000 2.000000  0.577354 -0.577339 -0.577358  0.247312 0.591398 0
kart_scrap
0  55.000000 -35.000000 2.000000  0.577354 -0.577339 -0.577358  1.000000 0.591398 0
0  -55.000000 -35.000000 25.000000  -0.577354 -0.577339 0.577358  0.876344 -0.000000 0
0  -55.000000 -35.000000 2.000000  -0.577330 -0.577360 -0.577360  1.000000 -0.000000 0
kart_scrap
0  -55.000000 35.000000 2.000000  -0.577354 0.577339 -0.577358  0.376344 0.000000 0
0  55.000000 -35.000000 2.000000  0.577354 -0.577339 -0.577358  -0.000000 0.591398 0
0  -55.000000 -35.000000 2.000000  -0.577330 -0.577360 -0.577360  0.000000 0.000000 0
kart_scrap
0  55.000000 35.000000 25.000000  0.577354 0.577339 0.577358  0.752688 0.000000 0
0  -55.000000 -35.000000 25.000000  -0.577354 -0.577339 0.577358  0.376344 0.591398 0
0  55.000000 -35.000000 25.000000  0.577330 -0.577360 0.577360  0.376344 0.000000 0
kart_scrap
0  -24.000000 -17.000000 25.000000  -0.577362 -0.577345 -0.577345  0.381720 0.774193 0
0  -24.000000 17.000000 50.000000  -0.577362 0.577345 0.577345  0.247312 0.591398 0
0  -24.000000 17.000000 25.000000  -0.577367 0.577346 -0.577337  0.381720 0.591398 0
kart_scrap
0  -24.000000 17.000000 25.000000  -0.577367 0.577346 -0.577337  0.645161 0.725806 0
0  -12.000000 17.000000 50.000000  0.577367 0.577346 0.577337  0.709677 0.591398 0
0  -12.000000 17.000000 25.000000  0.577362 0.577345 -0.577345  0.709677 0.725806 0
kart_scrap
0  -12.000000 17.000000 25.000000  0.577362 0.577345 -0.577345  0.516129 0.774193 0
0  -12.000000 -17.000000 50.000000  0.577362 -0.577345 0.577345  0.381720 0.591398 0
0  -12.000000 -17.000000 25.000000  0.577367 -0.577346 -0.577337  0.516129 0.591398 0
kart_scrap
0  -12.000000 -17.000000 25.000000  0.577367 -0.577346 -0.577337  0.709677 0.725806 0
0  -24.000000 -17.000000 50.000000  -0.577367 -0.577346 0.577337  0.774193 0.591398 0
0  -24.000000 -17.000000 25.000000  -0.577362 -0.577345 -0.577345  0.774193 0.725806 0
kart_scrap
0  -24.000000 17.000000 25.000000  -0.577367 0.577346 -0.577337  0.580645 0.774193 0
0  -12.000000 -17.000000 25.000000  0.577367 -0.577346 -0.577337  0.516129 0.591398 0
0  -24.000000 -17.000000 25.000000  -0.577362 -0.577345 -0.577345  0.580645 0.591398 0
kart_scrap
0  -12.000000 17.000000 50.000000  0.577367 0.577346 0.577337  0.645161 0.774193 0
0  -24.000000 -17.000000 50.000000  -0.577367 -0.577346 0.577337  0.580645 0.591398 0
0  -12.000000 -17.000000 50.000000  0.577362 -0.577345 0.577345  0.645161 0.591398 0
kart_scrap
0  -55.000000 -35.000000 2.000000  -0.577330 -0.577360 -0.577360  0.123656 0.967742 0
0  -55.000000 -35.000000 25.000000  -0.577354 -0.577339 0.577358  -0.000000 0.967742 0
0  -55.000000 35.000000 25.000000  -0.577330 0.577360 0.577360  0.000000 0.591398 0
kart_scrap
0  -55.000000 35.000000 2.000000  -0.577354 0.577339 -0.577358  0.876344 0.591398 0
0  -55.000000 35.000000 25.000000  -0.577330 0.577360 0.577360  0.752688 0.591398 0
0  55.000000 35.000000 25.000000  0.577354 0.577339 0.577358  0.752688 -0.000000 0
kart_scrap
0  55.000000 35.000000 2.000000  0.577330 0.577360 -0.577360  0.247312 0.967742 0
0  55.000000 35.000000 25.000000  0.577354 0.577339 0.577358  0.123656 0.967742 0
0  55.000000 -35.000000 25.000000  0.577330 -0.577360 0.577360  0.123656 0.591398 0
kart_scrap
0  55.000000 -35.000000 2.000000  0.577354 -0.577339 -0.577358  1.000000 0.591398 0
0  55.000000 -35.000000 25.000000  0.577330 -0.577360 0.577360  0.876344 0.591398 0
0  -55.000000 -35.000000 25.000000  -0.577354 -0.577339 0.577358  0.876344 -0.000000 0
kart_scrap
0  -55.000000 35.000000 2.000000  -0.577354 0.577339 -0.577358  0.376344 0.000000 0
0  55.000000 35.000000 2.000000  0.577330 0.577360 -0.577360  0.376344 0.591398 0
0  55.000000 -35.000000 2.000000  0.577354 -0.577339 -0.577358  -0.000000 0.591398 0
kart_scrap
0  55.000000 35.000000 25.000000  0.577354 0.577339 0.577358  0.752688 0.000000 0
0  -55.000000 35.000000 25.000000  -0.577330 0.577360 0.577360  0.752688 0.591398 0
0  -55.000000 -35.000000 25.000000  -0.577354 -0.577339 0.577358  0.376344 0.591398 0
kart_scrap
0  -24.000000 -17.000000 25.000000  -0.577362 -0.577345 -0.577345  0.381720 0.774193 0
0  -24.000000 -17.000000 50.000000  -0.577367 -0.577346 0.577337  0.247312 0.774193 0
0  -24.000000 17.000000 50.000000  -0.577362 0.577345 0.577345  0.247312 0.591398 0
kart_scrap
0  -24.000000 17.000000 25.000000  -0.577367 0.577346 -0.577337  0.645161 0.725806 0
0  -24.000000 17.000000 50.000000  -0.577362 0.577345 0.577345  0.645161 0.591398 0
0  -12.000000 17.000000 50.000000  0.577367 0.577346 0.577337  0.709677 0.591398 0
kart_scrap
0  -12.000000 17.000000 25.000000  0.577362 0.577345 -0.577345  0.516129 0.774193 0
0  -12.000000 17.000000 50.000000  0.577367 0.577346 0.577337  0.381720 0.774193 0
0  -12.000000 -17.000000 50.000000  0.577362 -0.577345 0.577345  0.381720 0.591398 0
kart_scrap
0  -12.000000 -17.000000 25.000000  0.577367 -0.577346 -0.577337  0.709677 0.725806 0
0  -12.000000 -17.000000 50.000000  0.577362 -0.577345 0.577345  0.709677 0.591398 0
0  -24.000000 -17.000000 50.000000  -0.577367 -0.577346 0.577337  0.774193 0.591398 0
kart_scrap
0  -24.000000 17.000000 25.000000  -0.577367 0.577346 -0.577337  0.580645 0.774193 0
0  -12.000000 17.000000 25.000000  0.577362 0.577345 -0.577345  0.516129 0.774193 0
0  -12.000000 -17.000000 25.000000  0.577367 -0.577346 -0.577337  0.516129 0.591398 0
kart_scrap
0  -12.000000 17.000000 50.000000  0.577367 0.577346 0.577337  0.645161 0.774193 0
0  -24.000000 17.000000 50.000000  -0.577362 0.577345 0.577345  0.580645 0.774193 0
0  -24.000000 -17.000000 50.000000  -0.577367 -0.577346 0.577337  0.580645 0.591398 0
end
