version 1
nodes
0 "root" -1
end
skeleton
time 0
0 0 0 0 0 0 0
end
triangles
tire_wall_straight
0  -64.000000 -12.800000 0.000000  -0.577378 -0.577332 -0.577341  0.818182 0.227273 0
0  -64.000000 12.800000 32.000000  -0.577366 0.577342 0.577342  1.000000 0.000000 0
0  -64.000000 12.800000 0.000000  -0.577358 0.577335 -0.577358  1.000000 0.227273 0
tire_wall_straight
0  -64.000000 12.800000 0.000000  -0.577358 0.577335 -0.577358  0.227273 0.909091 0
0  -64.000000 12.800000 32.000000  -0.577366 0.577342 0.577342  -0.000000 0.909091 0
0  64.000000 12.800000 32.000000  0.577378 0.577332 0.577341  0.000000 -0.000000 0
tire_wall_straight
0  -64.000000 -12.800000 0.000000  -0.577378 -0.577332 -0.577341  0.818182 0.227273 0
0  -64.000000 -12.800000 32.000000  -0.577355 -0.577355 0.577341  0.818182 0.000000 0
0  -64.000000 12.800000 32.000000  -0.577366 0.577342 0.577342  1.000000 0.000000 0
tire_wall_straight
0  -64.000000 -12.800000 0.000000  -0.577378 -0.577332 -0.577341  0.454545 0.000000 0
0  64.000000 -12.800000 0.000000  0.577366 -0.577342 -0.577342  0.454545 0.909091 0
0  64.000000 -12.800000 32.000000  0.577358 -0.577335 0.577358  0.227273 0.909091 0
tire_wall_straight
0  -64.000000 -12.800000 0.000000  -0.577378 -0.577332 -0.577341  0.454545 0.000000 0
0  64.000000 -12.800000 32.000000  0.577358 -0.577335 0.577358  0.227273 0.909091 0
0  -64.000000 -12.800000 32.000000  -0.577355 -0.577355 0.577341  0.227273 -0.000000 0
tire_wall_straight
0  -64.000000 -12.800000 0.000000  -0.577378 -0.577332 -0.577341  0.454546 -0.000000 0
0  -64.000000 12.800000 0.000000  -0.577358 0.577335 -0.577358  0.636364 -0.000000 0
0  64.000000 12.800000 0.000000  0.577355 0.577355 -0.577341  0.636364 0.909091 0
tire_wall_straight
0  -64.000000 -12.800000 0.000000  -0.577378 -0.577332 -0.577341  0.454546 -0.000000 0
0  64.000000 12.800000 0.000000  0.577355 0.577355 -0.577341  0.636364 0.909091 0
0  64.000000 -12.800000 0.000000  0.577366 -0.577342 -0.577342  0.454545 0.909091 0
tire_wall_straight
0  64.000000 -12.800000 0.000000  0.577366 -0.577342 -0.577342  1.000000 0.454545 0
0  64.000000 12.800000 0.000000  0.577355 0.577355 -0.577341  0.818182 0.454545 0
0  64.000000 12.800000 32.000000  0.577378 0.577332 0.577341  0.818182 0.227273 0
tire_wall_straight
0  -64.000000 12.800000 0.000000  -0.577358 0.577335 -0.577358  0.227273 0.909091 0
0  64.000000 12.800000 32.000000  0.577378 0.577332 0.577341  0.000000 -0.000000 0
0  64.000000 12.800000 0.000000  0.577355 0.577355 -0.577341  0.227273 -0.000000 0
tire_wall_straight
0  -64.000000 -12.800000 32.000000  -0.577355 -0.577355 0.577341  0.636364 0.909091 0
0  64.000000 -12.800000 32.000000  0.577358 -0.577335 0.577358  0.636364 -0.000000 0
0  64.000000 12.800000 32.000000  0.577378 0.577332 0.577341  0.818182 0.000000 0
tire_wall_straight
0  64.000000 -12.800000 0.000000  0.577366 -0.577342 -0.577342  1.000000 0.454545 0
0  64.000000 12.800000 32.000000  0.577378 0.577332 0.577341  0.818182 0.227273 0
0  64.000000 -12.800000 32.000000  0.577358 -0.577335 0.577358  1.000000 0.227273 0
tire_wall_straight
0  -64.000000 -12.800000 32.000000  -0.577355 -0.577355 0.577341  0.636364 0.909091 0
0  64.000000 12.800000 32.000000  0.577378 0.577332 0.577341  0.818182 0.000000 0
0  -64.000000 12.800000 32.000000  -0.577366 0.577342 0.577342  0.818182 0.909091 0
end
