version 1
nodes
0 "root" -1
end
skeleton
time 0
0 0 0 0 0 0 0
end
triangles
oil_puddle
0  0.000000 0.000000 0.400000  -0.000000 0.000000 1.000000  0.500000 0.500000 0
0  17.709700 0.000000 0.400000  -0.000000 0.000000 1.000000  0.721371 0.500000 0
0  16.973713 2.688372 0.400000  -0.000000 0.000000 1.000000  0.712171 0.533605 0
oil_puddle
0  17.709700 0.000000 0.400000  -0.000000 0.000000 1.000000  0.721371 0.500000 0
0  35.305321 5.591814 0.400000  0.000000 0.000000 1.000000  0.941316 0.569898 0
0  16.973713 2.688372 0.400000  -0.000000 0.000000 1.000000  0.712171 0.533605 0
oil_puddle
0  0.000000 0.000000 0.400000  -0.000000 0.000000 1.000000  0.500000 0.500000 0
0  16.973713 2.688372 0.400000  -0.000000 0.000000 1.000000  0.712171 0.533605 0
0  15.488918 5.032655 0.400000  -0.000000 0.000000 1.000000  0.693612 0.562908 0
oil_puddle
0  16.973713 2.688372 0.400000  -0.000000 0.000000 1.000000  0.712171 0.533605 0
0  32.216949 10.467921 0.400000  0.000000 0.000000 1.000000  0.902712 0.630849 0
0  15.488918 5.032655 0.400000  -0.000000 0.000000 1.000000  0.693612 0.562908 0
oil_puddle
0  0.000000 0.000000 0.400000  -0.000000 0.000000 1.000000  0.500000 0.500000 0
0  15.488918 5.032655 0.400000  -0.000000 0.000000 1.000000  0.693612 0.562908 0
0  14.624620 7.451616 0.400000  -0.000000 0.000000 1.000000  0.682808 0.593145 0
oil_puddle
0  15.488918 5.032655 0.400000  -0.000000 0.000000 1.000000  0.693612 0.562908 0
0  30.419210 15.499362 0.400000  0.000000 0.000000 1.000000  0.880240 0.693742 0
0  14.624620 7.451616 0.400000  -0.000000 0.000000 1.000000  0.682808 0.593145 0
oil_puddle
0  0.000000 0.000000 0.400000  -0.000000 0.000000 1.000000  0.500000 0.500000 0
0  14.624620 7.451616 0.400000  -0.000000 0.000000 1.000000  0.682808 0.593145 0
0  13.725181 9.971928 0.400000  -0.000000 0.000000 1.000000  0.671565 0.624649 0
oil_puddle
0  14.624620 7.451616 0.400000  -0.000000 0.000000 1.000000  0.682808 0.593145 0
0  28.548376 20.741610 0.400000  0.000000 0.000000 1.000000  0.856855 0.759270 0
0  13.725181 9.971928 0.400000  -0.000000 0.000000 1.000000  0.671565 0.624649 0
oil_puddle
0  0.000000 0.000000 0.400000  -0.000000 0.000000 1.000000  0.500000 0.500000 0
0  13.725181 9.971928 0.400000  -0.000000 0.000000 1.000000  0.671565 0.624649 0
0  11.704661 11.704661 0.400000  0.000000 0.000000 1.000000  0.646308 0.646308 0
oil_puddle
0  13.725181 9.971928 0.400000  -0.000000 0.000000 1.000000  0.671565 0.624649 0
0  24.345695 24.345695 0.400000  0.000000 0.000000 1.000000  0.804321 0.804321 0
0  11.704661 11.704661 0.400000  0.000000 0.000000 1.000000  0.646308 0.646308 0
oil_puddle
0  0.000000 0.000000 0.400000  -0.000000 0.000000 1.000000  0.500000 0.500000 0
0  11.704661 11.704661 0.400000  0.000000 0.000000 1.000000  0.646308 0.646308 0
0  9.253214 12.735956 0.400000  0.000000 0.000000 1.000000  0.615665 0.659199 0
oil_puddle
0  11.704661 11.704661 0.400000  0.000000 0.000000 1.000000  0.646308 0.646308 0
0  19.246685 26.490789 0.400000  -0.000000 0.000000 1.000000  0.740584 0.831135 0
0  9.253214 12.735956 0.400000  0.000000 0.000000 1.000000  0.615665 0.659199 0
oil_puddle
0  0.000000 0.000000 0.400000  -0.000000 0.000000 1.000000  0.500000 0.500000 0
0  9.253214 12.735956 0.400000  0.000000 0.000000 1.000000  0.615665 0.659199 0
0  7.099220 13.933003 0.400000  -0.000000 0.000000 1.000000  0.588740 0.674163 0
oil_puddle
0  9.253214 12.735956 0.400000  0.000000 0.000000 1.000000  0.615665 0.659199 0
0  14.766377 28.980648 0.400000  -0.000000 0.000000 1.000000  0.684580 0.862258 0
0  7.099220 13.933003 0.400000  -0.000000 0.000000 1.000000  0.588740 0.674163 0
oil_puddle
0  0.000000 0.000000 0.400000  -0.000000 0.000000 1.000000  0.500000 0.500000 0
0  7.099220 13.933003 0.400000  -0.000000 0.000000 1.000000  0.588740 0.674163 0
0  4.836947 14.886593 0.400000  0.000000 0.000000 1.000000  0.560462 0.686082 0
oil_puddle
0  7.099220 13.933003 0.400000  -0.000000 0.000000 1.000000  0.588740 0.674163 0
0  10.060850 30.964113 0.400000  0.000000 0.000000 1.000000  0.625761 0.887051 0
0  4.836947 14.886593 0.400000  0.000000 0.000000 1.000000  0.560462 0.686082 0
oil_puddle
0  0.000000 0.000000 0.400000  -0.000000 0.000000 1.000000  0.500000 0.500000 0
0  4.836947 14.886593 0.400000  0.000000 0.000000 1.000000  0.560462 0.686082 0
0  2.368265 14.952638 0.400000  0.000000 0.000000 1.000000  0.529603 0.686908 0
oil_puddle
0  4.836947 14.886593 0.400000  0.000000 0.000000 1.000000  0.560462 0.686082 0
0  4.925992 31.101486 0.400000  -0.000000 0.000000 1.000000  0.561575 0.888769 0
0  2.368265 14.952638 0.400000  0.000000 0.000000 1.000000  0.529603 0.686908 0
oil_puddle
0  0.000000 0.000000 0.400000  -0.000000 0.000000 1.000000  0.500000 0.500000 0
0  2.368265 14.952638 0.400000  0.000000 0.000000 1.000000  0.529603 0.686908 0
0  0.000000 14.757254 0.400000  -0.000000 0.000000 1.000000  0.500000 0.684466 0
oil_puddle
0  2.368265 14.952638 0.400000  0.000000 0.000000 1.000000  0.529603 0.686908 0
0  0.000000 30.695087 0.400000  -0.000000 0.000000 1.000000  0.500000 0.883689 0
0  0.000000 14.757254 0.400000  -0.000000 0.000000 1.000000  0.500000 0.684466 0
oil_puddle
0  0.000000 0.000000 0.400000  -0.000000 0.000000 1.000000  0.500000 0.500000 0
0  0.000000 14.757254 0.400000  -0.000000 0.000000 1.000000  0.500000 0.684466 0
0  -2.303029 14.540750 0.400000  -0.000000 0.000000 1.000000  0.471212 0.681759 0
oil_puddle
0  0.000000 14.757254 0.400000  -0.000000 0.000000 1.000000  0.500000 0.684466 0
0  -4.790299 30.244759 0.400000  -0.000000 0.000000 1.000000  0.440121 0.878060 0
0  -2.303029 14.540750 0.400000  -0.000000 0.000000 1.000000  0.471212 0.681759 0
oil_puddle
0  0.000000 0.000000 0.400000  -0.000000 0.000000 1.000000  0.500000 0.500000 0
0  -2.303029 14.540750 0.400000  -0.000000 0.000000 1.000000  0.471212 0.681759 0
0  -4.500258 13.850370 0.400000  -0.000000 0.000000 1.000000  0.443747 0.673130 0
oil_puddle
0  -2.303029 14.540750 0.400000  -0.000000 0.000000 1.000000  0.471212 0.681759 0
0  -9.360538 28.808771 0.400000  -0.000000 0.000000 1.000000  0.382993 0.860110 0
0  -4.500258 13.850370 0.400000  -0.000000 0.000000 1.000000  0.443747 0.673130 0
oil_puddle
0  0.000000 0.000000 0.400000  -0.000000 0.000000 1.000000  0.500000 0.500000 0
0  -4.500258 13.850370 0.400000  -0.000000 0.000000 1.000000  0.443747 0.673130 0
0  -6.820683 13.386344 0.400000  -0.000000 0.000000 1.000000  0.414741 0.667329 0
oil_puddle
0  -4.500258 13.850370 0.400000  -0.000000 0.000000 1.000000  0.443747 0.673130 0
0  -14.187021 27.843596 0.400000  0.000000 0.000000 1.000000  0.322662 0.848045 0
0  -6.820683 13.386344 0.400000  -0.000000 0.000000 1.000000  0.414741 0.667329 0
oil_puddle
0  0.000000 0.000000 0.400000  -0.000000 0.000000 1.000000  0.500000 0.500000 0
0  -6.820683 13.386344 0.400000  -0.000000 0.000000 1.000000  0.414741 0.667329 0
0  -9.968400 13.720325 0.400000  0.000000 0.000000 1.000000  0.375395 0.671504 0
oil_puddle
0  -6.820683 13.386344 0.400000  -0.000000 0.000000 1.000000  0.414741 0.667329 0
0  -20.734272 28.538277 0.400000  -0.000000 0.000000 1.000000  0.240822 0.856728 0
0  -9.968400 13.720325 0.400000  0.000000 0.000000 1.000000  0.375395 0.671504 0
oil_puddle
0  0.000000 0.000000 0.400000  -0.000000 0.000000 1.000000  0.500000 0.500000 0
0  -9.968400 13.720325 0.400000  0.000000 0.000000 1.000000  0.375395 0.671504 0
0  -13.364464 13.364464 0.400000  -0.000000 0.000000 1.000000  0.332944 0.667056 0
oil_puddle
0  -9.968400 13.720325 0.400000  0.000000 0.000000 1.000000  0.375395 0.671504 0
0  -27.798086 27.798086 0.400000  -0.000000 0.000000 1.000000  0.152524 0.847476 0
0  -13.364464 13.364464 0.400000  -0.000000 0.000000 1.000000  0.332944 0.667056 0
oil_puddle
0  0.000000 0.000000 0.400000  -0.000000 0.000000 1.000000  0.500000 0.500000 0
0  -13.364464 13.364464 0.400000  -0.000000 0.000000 1.000000  0.332944 0.667056 0
0  -15.288406 11.107677 0.400000  -0.000000 0.000000 1.000000  0.308895 0.638846 0
oil_puddle
0  -13.364464 13.364464 0.400000  -0.000000 0.000000 1.000000  0.332944 0.667056 0
0  -31.799885 23.103968 0.400000  0.000000 0.000000 1.000000  0.102501 0.788800 0
0  -15.288406 11.107677 0.400000  -0.000000 0.000000 1.000000  0.308895 0.638846 0
oil_puddle
0  0.000000 0.000000 0.400000  -0.000000 0.000000 1.000000  0.500000 0.500000 0
0  -15.288406 11.107677 0.400000  -0.000000 0.000000 1.000000  0.308895 0.638846 0
0  -15.552604 7.924448 0.400000  0.000000 0.000000 1.000000  0.305592 0.599056 0
oil_puddle
0  -15.288406 11.107677 0.400000  -0.000000 0.000000 1.000000  0.308895 0.638846 0
0  -32.349415 16.482851 0.400000  0.000000 0.000000 1.000000  0.095632 0.706036 0
0  -15.552604 7.924448 0.400000  0.000000 0.000000 1.000000  0.305592 0.599056 0
oil_puddle
0  0.000000 0.000000 0.400000  -0.000000 0.000000 1.000000  0.500000 0.500000 0
0  -15.552604 7.924448 0.400000  0.000000 0.000000 1.000000  0.305592 0.599056 0
0  -15.256895 4.957266 0.400000  0.000000 0.000000 1.000000  0.309289 0.561966 0
oil_puddle
0  -15.552604 7.924448 0.400000  0.000000 0.000000 1.000000  0.305592 0.599056 0
0  -31.734343 10.311113 0.400000  0.000000 0.000000 1.000000  0.103321 0.628889 0
0  -15.256895 4.957266 0.400000  0.000000 0.000000 1.000000  0.309289 0.561966 0
oil_puddle
0  0.000000 0.000000 0.400000  -0.000000 0.000000 1.000000  0.500000 0.500000 0
0  -15.256895 4.957266 0.400000  0.000000 0.000000 1.000000  0.309289 0.561966 0
0  -14.729700 2.332955 0.400000  0.000000 0.000000 1.000000  0.315879 0.529162 0
oil_puddle
0  -15.256895 4.957266 0.400000  0.000000 0.000000 1.000000  0.309289 0.561966 0
0  -30.637777 4.852547 0.400000  0.000000 0.000000 1.000000  0.117028 0.560657 0
0  -14.729700 2.332955 0.400000  0.000000 0.000000 1.000000  0.315879 0.529162 0
oil_puddle
0  0.000000 0.000000 0.400000  -0.000000 0.000000 1.000000  0.500000 0.500000 0
0  -14.729700 2.332955 0.400000  0.000000 0.000000 1.000000  0.315879 0.529162 0
0  -14.290300 0.000000 0.400000  -0.000000 0.000000 1.000000  0.321371 0.500000 0
oil_puddle
0  -14.729700 2.332955 0.400000  0.000000 0.000000 1.000000  0.315879 0.529162 0
0  -29.723825 0.000000 0.400000  0.000000 0.000000 1.000000  0.128452 0.500000 0
0  -14.290300 0.000000 0.400000  -0.000000 0.000000 1.000000  0.321371 0.500000 0
oil_puddle
0  0.000000 0.000000 0.400000  -0.000000 0.000000 1.000000  0.500000 0.500000 0
0  -14.290300 0.000000 0.400000  -0.000000 0.000000 1.000000  0.321371 0.500000 0
0  -14.632314 -2.317531 0.400000  -0.000000 0.000000 1.000000  0.317096 0.471031 0
oil_puddle
0  -14.290300 0.000000 0.400000  -0.000000 0.000000 1.000000  0.321371 0.500000 0
0  -30.435213 -4.820464 0.400000  -0.000000 0.000000 1.000000  0.119560 0.439744 0
0  -14.632314 -2.317531 0.400000  -0.000000 0.000000 1.000000  0.317096 0.471031 0
oil_puddle
0  0.000000 0.000000 0.400000  -0.000000 0.000000 1.000000  0.500000 0.500000 0
0  -14.632314 -2.317531 0.400000  -0.000000 0.000000 1.000000  0.317096 0.471031 0
0  -14.944890 -4.855889 0.400000  -0.000000 0.000000 1.000000  0.313189 0.439301 0
oil_puddle
0  -14.632314 -2.317531 0.400000  -0.000000 0.000000 1.000000  0.317096 0.471031 0
0  -31.085371 -10.100249 0.400000  0.000000 0.000000 1.000000  0.111433 0.373747 0
0  -14.944890 -4.855889 0.400000  -0.000000 0.000000 1.000000  0.313189 0.439301 0
oil_puddle
0  0.000000 0.000000 0.400000  -0.000000 0.000000 1.000000  0.500000 0.500000 0
0  -14.944890 -4.855889 0.400000  -0.000000 0.000000 1.000000  0.313189 0.439301 0
0  -13.887589 -7.076080 0.400000  -0.000000 0.000000 1.000000  0.326405 0.411549 0
oil_puddle
0  -14.944890 -4.855889 0.400000  -0.000000 0.000000 1.000000  0.313189 0.439301 0
0  -28.886185 -14.718246 0.400000  0.000000 0.000000 1.000000  0.138923 0.316022 0
0  -13.887589 -7.076080 0.400000  -0.000000 0.000000 1.000000  0.326405 0.411549 0
oil_puddle
0  0.000000 0.000000 0.400000  -0.000000 0.000000 1.000000  0.500000 0.500000 0
0  -13.887589 -7.076080 0.400000  -0.000000 0.000000 1.000000  0.326405 0.411549 0
0  -12.163363 -8.837200 0.400000  -0.000000 0.000000 1.000000  0.347958 0.389535 0
oil_puddle
0  -13.887589 -7.076080 0.400000  -0.000000 0.000000 1.000000  0.326405 0.411549 0
0  -25.299795 -18.381376 0.400000  0.000000 0.000000 1.000000  0.183753 0.270233 0
0  -12.163363 -8.837200 0.400000  -0.000000 0.000000 1.000000  0.347958 0.389535 0
oil_puddle
0  0.000000 0.000000 0.400000  -0.000000 0.000000 1.000000  0.500000 0.500000 0
0  -12.163363 -8.837200 0.400000  -0.000000 0.000000 1.000000  0.347958 0.389535 0
0  -10.922755 -10.922755 0.400000  0.000000 0.000000 1.000000  0.363466 0.363466 0
oil_puddle
0  -12.163363 -8.837200 0.400000  -0.000000 0.000000 1.000000  0.347958 0.389535 0
0  -22.719332 -22.719332 0.400000  -0.000000 0.000000 1.000000  0.216008 0.216008 0
0  -10.922755 -10.922755 0.400000  0.000000 0.000000 1.000000  0.363466 0.363466 0
oil_puddle
0  0.000000 0.000000 0.400000  -0.000000 0.000000 1.000000  0.500000 0.500000 0
0  -10.922755 -10.922755 0.400000  0.000000 0.000000 1.000000  0.363466 0.363466 0
0  -9.555914 -13.152587 0.400000  0.000000 0.000000 1.000000  0.380551 0.335593 0
oil_puddle
0  -10.922755 -10.922755 0.400000  0.000000 0.000000 1.000000  0.363466 0.363466 0
0  -19.876301 -27.357382 0.400000  -0.000000 0.000000 1.000000  0.251546 0.158033 0
0  -9.555914 -13.152587 0.400000  0.000000 0.000000 1.000000  0.380551 0.335593 0
oil_puddle
0  0.000000 0.000000 0.400000  -0.000000 0.000000 1.000000  0.500000 0.500000 0
0  -9.555914 -13.152587 0.400000  0.000000 0.000000 1.000000  0.380551 0.335593 0
0  -7.428476 -14.579206 0.400000  0.000000 0.000000 1.000000  0.407144 0.317760 0
oil_puddle
0  -9.555914 -13.152587 0.400000  0.000000 0.000000 1.000000  0.380551 0.335593 0
0  -15.451230 -30.324747 0.400000  -0.000000 0.000000 1.000000  0.306860 0.120941 0
0  -7.428476 -14.579206 0.400000  0.000000 0.000000 1.000000  0.407144 0.317760 0
oil_puddle
0  0.000000 0.000000 0.400000  -0.000000 0.000000 1.000000  0.500000 0.500000 0
0  -7.428476 -14.579206 0.400000  0.000000 0.000000 1.000000  0.407144 0.317760 0
0  -5.051597 -15.547215 0.400000  -0.000000 0.000000 1.000000  0.436855 0.305660 0
oil_puddle
0  -7.428476 -14.579206 0.400000  0.000000 0.000000 1.000000  0.407144 0.317760 0
0  -10.507321 -32.338207 0.400000  0.000000 0.000000 1.000000  0.368658 0.095772 0
0  -5.051597 -15.547215 0.400000  -0.000000 0.000000 1.000000  0.436855 0.305660 0
oil_puddle
0  0.000000 0.000000 0.400000  -0.000000 0.000000 1.000000  0.500000 0.500000 0
0  -5.051597 -15.547215 0.400000  -0.000000 0.000000 1.000000  0.436855 0.305660 0
0  -2.637638 -16.653389 0.400000  -0.000000 0.000000 1.000000  0.467030 0.291833 0
oil_puddle
0  -5.051597 -15.547215 0.400000  -0.000000 0.000000 1.000000  0.436855 0.305660 0
0  -5.486287 -34.639050 0.400000  0.000000 0.000000 1.000000  0.431421 0.067012 0
0  -2.637638 -16.653389 0.400000  -0.000000 0.000000 1.000000  0.467030 0.291833 0
oil_puddle
0  0.000000 0.000000 0.400000  -0.000000 0.000000 1.000000  0.500000 0.500000 0
0  -2.637638 -16.653389 0.400000  -0.000000 0.000000 1.000000  0.467030 0.291833 0
0  -0.000000 -17.242746 0.400000  -0.000000 0.000000 1.000000  0.500000 0.284466 0
oil_puddle
0  -2.637638 -16.653389 0.400000  -0.000000 0.000000 1.000000  0.467030 0.291833 0
0  -0.000000 -35.864914 0.400000  0.000000 0.000000 1.000000  0.500000 0.051689 0
0  -0.000000 -17.242746 0.400000  -0.000000 0.000000 1.000000  0.500000 0.284466 0
oil_puddle
0  0.000000 0.000000 0.400000  -0.000000 0.000000 1.000000  0.500000 0.500000 0
0  -0.000000 -17.242746 0.400000  -0.000000 0.000000 1.000000  0.500000 0.284466 0
0  2.702874 -17.065277 0.400000  0.000000 0.000000 1.000000  0.533786 0.286684 0
oil_puddle
0  -0.000000 -17.242746 0.400000  -0.000000 0.000000 1.000000  0.500000 0.284466 0
0  5.621979 -35.495777 0.400000  -0.000000 0.000000 1.000000  0.570275 0.056303 0
0  2.702874 -17.065277 0.400000  0.000000 0.000000 1.000000  0.533786 0.286684 0
oil_puddle
0  0.000000 0.000000 0.400000  -0.000000 0.000000 1.000000  0.500000 0.500000 0
0  2.702874 -17.065277 0.400000  0.000000 0.000000 1.000000  0.533786 0.286684 0
0  5.388286 -16.583437 0.400000  0.000000 0.000000 1.000000  0.567354 0.292707 0
oil_puddle
0  2.702874 -17.065277 0.400000  0.000000 0.000000 1.000000  0.533786 0.286684 0
0  11.207634 -34.493549 0.400000  -0.000000 0.000000 1.000000  0.640095 0.068831 0
0  5.388286 -16.583437 0.400000  0.000000 0.000000 1.000000  0.567354 0.292707 0
oil_puddle
0  0.000000 0.000000 0.400000  -0.000000 0.000000 1.000000  0.500000 0.500000 0
0  5.388286 -16.583437 0.400000  0.000000 0.000000 1.000000  0.567354 0.292707 0
0  7.707013 -15.125865 0.400000  -0.000000 0.000000 1.000000  0.596338 0.310927 0
oil_puddle
0  5.388286 -16.583437 0.400000  0.000000 0.000000 1.000000  0.567354 0.292707 0
0  16.030586 -31.461798 0.400000  0.000000 0.000000 1.000000  0.700382 0.106728 0
0  7.707013 -15.125865 0.400000  -0.000000 0.000000 1.000000  0.596338 0.310927 0
oil_puddle
0  0.000000 0.000000 0.400000  -0.000000 0.000000 1.000000  0.500000 0.500000 0
0  7.707013 -15.125865 0.400000  -0.000000 0.000000 1.000000  0.596338 0.310927 0
0  8.840728 -12.168219 0.400000  -0.000000 0.000000 1.000000  0.610509 0.347897 0
oil_puddle
0  7.707013 -15.125865 0.400000  -0.000000 0.000000 1.000000  0.596338 0.310927 0
0  18.388714 -25.309895 0.400000  0.000000 0.000000 1.000000  0.729859 0.183626 0
0  8.840728 -12.168219 0.400000  -0.000000 0.000000 1.000000  0.610509 0.347897 0
oil_puddle
0  0.000000 0.000000 0.400000  -0.000000 0.000000 1.000000  0.500000 0.500000 0
0  8.840728 -12.168219 0.400000  -0.000000 0.000000 1.000000  0.610509 0.347897 0
0  9.262953 -9.262953 0.400000  -0.000000 0.000000 1.000000  0.615787 0.384213 0
oil_puddle
0  8.840728 -12.168219 0.400000  -0.000000 0.000000 1.000000  0.610509 0.347897 0
0  19.266941 -19.266941 0.400000  0.000000 0.000000 1.000000  0.740837 0.259163 0
0  9.262953 -9.262953 0.400000  -0.000000 0.000000 1.000000  0.615787 0.384213 0
oil_puddle
0  0.000000 0.000000 0.400000  -0.000000 0.000000 1.000000  0.500000 0.500000 0
0  9.262953 -9.262953 0.400000  -0.000000 0.000000 1.000000  0.615787 0.384213 0
0  10.600138 -7.701451 0.400000  -0.000000 0.000000 1.000000  0.632502 0.403732 0
oil_puddle
0  9.262953 -9.262953 0.400000  -0.000000 0.000000 1.000000  0.615787 0.384213 0
0  22.048286 -16.019018 0.400000  0.000000 0.000000 1.000000  0.775604 0.299762 0
0  10.600138 -7.701451 0.400000  -0.000000 0.000000 1.000000  0.632502 0.403732 0
oil_puddle
0  0.000000 0.000000 0.400000  -0.000000 0.000000 1.000000  0.500000 0.500000 0
0  10.600138 -7.701451 0.400000  -0.000000 0.000000 1.000000  0.632502 0.403732 0
0  12.959605 -6.603249 0.400000  -0.000000 0.000000 1.000000  0.661995 0.417459 0
oil_puddle
0  10.600138 -7.701451 0.400000  -0.000000 0.000000 1.000000  0.632502 0.403732 0
0  26.955978 -13.734757 0.400000  0.000000 0.000000 1.000000  0.836950 0.328316 0
0  12.959605 -6.603249 0.400000  -0.000000 0.000000 1.000000  0.661995 0.417459 0
oil_puddle
0  0.000000 0.000000 0.400000  -0.000000 0.000000 1.000000  0.500000 0.500000 0
0  12.959605 -6.603249 0.400000  -0.000000 0.000000 1.000000  0.661995 0.417459 0
0  15.176913 -4.931278 0.400000  0.000000 0.000000 1.000000  0.689711 0.438359 0
oil_puddle
0  12.959605 -6.603249 0.400000  -0.000000 0.000000 1.000000  0.661995 0.417459 0
0  31.567980 -10.257058 0.400000  0.000000 0.000000 1.000000  0.894600 0.371787 0
0  15.176913 -4.931278 0.400000  0.000000 0.000000 1.000000  0.689711 0.438359 0
oil_puddle
0  0.000000 0.000000 0.400000  -0.000000 0.000000 1.000000  0.500000 0.500000 0
0  15.176913 -4.931278 0.400000  0.000000 0.000000 1.000000  0.689711 0.438359 0
0  16.876328 -2.672948 0.400000  0.000000 0.000000 1.000000  0.710954 0.466588 0
oil_puddle
0  15.176913 -4.931278 0.400000  0.000000 0.000000 1.000000  0.689711 0.438359 0
0  35.102760 -5.559731 0.400000  0.000000 0.000000 1.000000  0.938784 0.430503 0
0  16.876328 -2.672948 0.400000  0.000000 0.000000 1.000000  0.710954 0.466588 0
oil_puddle
0  0.000000 0.000000 0.400000  -0.000000 0.000000 1.000000  0.500000 0.500000 0
0  16.876328 -2.672948 0.400000  0.000000 0.000000 1.000000  0.710954 0.466588 0
0  17.709700 0.000000 0.400000  -0.000000 0.000000 1.000000  0.721371 0.500000 0
oil_puddle
0  16.876328 -2.672948 0.400000  0.000000 0.000000 1.000000  0.710954 0.466588 0
0  36.836174 0.000000 0.400000  0.000000 0.000000 1.000000  0.960452 0.500000 0
0  17.709700 0.000000 0.400000  -0.000000 0.000000 1.000000  0.721371 0.500000 0
oil_puddle
0  17.709700 0.000000 0.400000  -0.000000 0.000000 1.000000  0.721371 0.500000 0
0  36.836174 0.000000 0.400000  0.000000 0.000000 1.000000  0.960452 0.500000 0
0  35.305321 5.591814 0.400000  0.000000 0.000000 1.000000  0.941316 0.569898 0
oil_puddle
0  16.973713 2.688372 0.400000  -0.000000 0.000000 1.000000  0.712171 0.533605 0
0  35.305321 5.591814 0.400000  0.000000 0.000000 1.000000  0.941316 0.569898 0
0  32.216949 10.467921 0.400000  0.000000 0.000000 1.000000  0.902712 0.630849 0
oil_puddle
0  15.488918 5.032655 0.400000  -0.000000 0.000000 1.000000  0.693612 0.562908 0
0  32.216949 10.467921 0.400000  0.000000 0.000000 1.000000  0.902712 0.630849 0
0  30.419210 15.499362 0.400000  0.000000 0.000000 1.000000  0.880240 0.693742 0
oil_puddle
0  14.624620 7.451616 0.400000  -0.000000 0.000000 1.000000  0.682808 0.593145 0
0  30.419210 15.499362 0.400000  0.000000 0.000000 1.000000  0.880240 0.693742 0
0  28.548376 20.741610 0.400000  0.000000 0.000000 1.000000  0.856855 0.759270 0
oil_puddle
0  13.725181 9.971928 0.400000  -0.000000 0.000000 1.000000  0.671565 0.624649 0
0  28.548376 20.741610 0.400000  0.000000 0.000000 1.000000  0.856855 0.759270 0
0  24.345695 24.345695 0.400000  0.000000 0.000000 1.000000  0.804321 0.804321 0
oil_puddle
0  11.704661 11.704661 0.400000  0.000000 0.000000 1.000000  0.646308 0.646308 0
0  24.345695 24.345695 0.400000  0.000000 0.000000 1.000000  0.804321 0.804321 0
0  19.246685 26.490789 0.400000  -0.000000 0.000000 1.000000  0.740584 0.831135 0
oil_puddle
0  9.253214 12.735956 0.400000  0.000000 0.000000 1.000000  0.615665 0.659199 0
0  19.246685 26.490789 0.400000  -0.000000 0.000000 1.000000  0.740584 0.831135 0
0  14.766377 28.980648 0.400000  -0.000000 0.000000 1.000000  0.684580 0.862258 0
oil_puddle
0  7.099220 13.933003 0.400000  -0.000000 0.000000 1.000000  0.588740 0.674163 0
0  14.766377 28.980648 0.400000  -0.000000 0.000000 1.000000  0.684580 0.862258 0
0  10.060850 30.964113 0.400000  0.000000 0.000000 1.000000  0.625761 0.887051 0
oil_puddle
0  4.836947 14.886593 0.400000  0.000000 0.000000 1.000000  0.560462 0.686082 0
0  10.060850 30.964113 0.400000  0.000000 0.000000 1.000000  0.625761 0.887051 0
0  4.925992 31.101486 0.400000  -0.000000 0.000000 1.000000  0.561575 0.888769 0
oil_puddle
0  2.368265 14.952638 0.400000  0.000000 0.000000 1.000000  0.529603 0.686908 0
0  4.925992 31.101486 0.400000  -0.000000 0.000000 1.000000  0.561575 0.888769 0
0  0.000000 30.695087 0.400000  -0.000000 0.000000 1.000000  0.500000 0.883689 0
oil_puddle
0  0.000000 14.757254 0.400000  -0.000000 0.000000 1.000000  0.500000 0.684466 0
0  0.000000 30.695087 0.400000  -0.000000 0.000000 1.000000  0.500000 0.883689 0
0  -4.790299 30.244759 0.400000  -0.000000 0.000000 1.000000  0.440121 0.878060 0
oil_puddle
0  -2.303029 14.540750 0.400000  -0.000000 0.000000 1.000000  0.471212 0.681759 0
0  -4.790299 30.244759 0.400000  -0.000000 0.000000 1.000000  0.440121 0.878060 0
0  -9.360538 28.808771 0.400000  -0.000000 0.000000 1.000000  0.382993 0.860110 0
oil_puddle
0  -4.500258 13.850370 0.400000  -0.000000 0.000000 1.000000  0.443747 0.673130 0
0  -9.360538 28.808771 0.400000  -0.000000 0.000000 1.000000  0.382993 0.860110 0
0  -14.187021 27.843596 0.400000  0.000000 0.000000 1.000000  0.322662 0.848045 0
oil_puddle
0  -6.820683 13.386344 0.400000  -0.000000 0.000000 1.000000  0.414741 0.667329 0
0  -14.187021 27.843596 0.400000  0.000000 0.000000 1.000000  0.322662 0.848045 0
0  -20.734272 28.538277 0.400000  -0.000000 0.000000 1.000000  0.240822 0.856728 0
oil_puddle
0  -9.968400 13.720325 0.400000  0.000000 0.000000 1.000000  0.375395 0.671504 0
0  -20.734272 28.538277 0.400000  -0.000000 0.000000 1.000000  0.240822 0.856728 0
0  -27.798086 27.798086 0.400000  -0.000000 0.000000 1.000000  0.152524 0.847476 0
oil_puddle
0  -13.364464 13.364464 0.400000  -0.000000 0.000000 1.000000  0.332944 0.667056 0
0  -27.798086 27.798086 0.400000  -0.000000 0.000000 1.000000  0.152524 0.847476 0
0  -31.799885 23.103968 0.400000  0.000000 0.000000 1.000000  0.102501 0.788800 0
oil_puddle
0  -15.288406 11.107677 0.400000  -0.000000 0.000000 1.000000  0.308895 0.638846 0
0  -31.799885 23.103968 0.400000  0.000000 0.000000 1.000000  0.102501 0.788800 0
0  -32.349415 16.482851 0.400000  0.000000 0.000000 1.000000  0.095632 0.706036 0
oil_puddle
0  -15.552604 7.924448 0.400000  0.000000 0.000000 1.000000  0.305592 0.599056 0
0  -32.349415 16.482851 0.400000  0.000000 0.000000 1.000000  0.095632 0.706036 0
0  -31.734343 10.311113 0.400000  0.000000 0.000000 1.000000  0.103321 0.628889 0
oil_puddle
0  -15.256895 4.957266 0.400000  0.000000 0.000000 1.000000  0.309289 0.561966 0
0  -31.734343 10.311113 0.400000  0.000000 0.000000 1.000000  0.103321 0.628889 0
0  -30.637777 4.852547 0.400000  0.000000 0.000000 1.000000  0.117028 0.560657 0
oil_puddle
0  -14.729700 2.332955 0.400000  0.000000 0.000000 1.000000  0.315879 0.529162 0
0  -30.637777 4.852547 0.400000  0.000000 0.000000 1.000000  0.117028 0.560657 0
0  -29.723825 0.000000 0.400000  0.000000 0.000000 1.000000  0.128452 0.500000 0
oil_puddle
0  -14.290300 0.000000 0.400000  -0.000000 0.000000 1.000000  0.321371 0.500000 0
0  -29.723825 0.000000 0.400000  0.000000 0.000000 1.000000  0.128452 0.500000 0
0  -30.435213 -4.820464 0.400000  -0.000000 0.000000 1.000000  0.119560 0.439744 0
oil_puddle
0  -14.632314 -2.317531 0.400000  -0.000000 0.000000 1.000000  0.317096 0.471031 0
0  -30.435213 -4.820464 0.400000  -0.000000 0.000000 1.000000  0.119560 0.439744 0
0  -31.085371 -10.100249 0.400000  0.000000 0.000000 1.000000  0.111433 0.373747 0
oil_puddle
0  -14.944890 -4.855889 0.400000  -0.000000 0.000000 1.000000  0.313189 0.439301 0
0  -31.085371 -10.100249 0.400000  0.000000 0.000000 1.000000  0.111433 0.373747 0
0  -28.886185 -14.718246 0.400000  0.000000 0.000000 1.000000  0.138923 0.316022 0
oil_puddle
0  -13.887589 -7.076080 0.400000  -0.000000 0.000000 1.000000  0.326405 0.411549 0
0  -28.886185 -14.718246 0.400000  0.000000 0.000000 1.000000  0.138923 0.316022 0
0  -25.299795 -18.381376 0.400000  0.000000 0.000000 1.000000  0.183753 0.270233 0
oil_puddle
0  -12.163363 -8.837200 0.400000  -0.000000 0.000000 1.000000  0.347958 0.389535 0
0  -25.299795 -18.381376 0.400000  0.000000 0.000000 1.000000  0.183753 0.270233 0
0  -22.719332 -22.719332 0.400000  -0.000000 0.000000 1.000000  0.216008 0.216008 0
oil_puddle
0  -10.922755 -10.922755 0.400000  0.000000 0.000000 1.000000  0.363466 0.363466 0
0  -22.719332 -22.719332 0.400000  -0.000000 0.000000 1.000000  0.216008 0.216008 0
0  -19.876301 -27.357382 0.400000  -0.000000 0.000000 1.000000  0.251546 0.158033 0
oil_puddle
0  -9.555914 -13.152587 0.400000  0.000000 0.000000 1.000000  0.380551 0.335593 0
0  -19.876301 -27.357382 0.400000  -0.000000 0.000000 1.000000  0.251546 0.158033 0
0  -15.451230 -30.324747 0.400000  -0.000000 0.000000 1.000000  0.306860 0.120941 0
oil_puddle
0  -7.428476 -14.579206 0.400000  0.000000 0.000000 1.000000  0.407144 0.317760 0
0  -15.451230 -30.324747 0.400000  -0.000000 0.000000 1.000000  0.306860 0.120941 0
0  -10.507321 -32.338207 0.400000  0.000000 0.000000 1.000000  0.368658 0.095772 0
oil_puddle
0  -5.051597 -15.547215 0.400000  -0.000000 0.000000 1.000000  0.436855 0.305660 0
0  -10.507321 -32.338207 0.400000  0.000000 0.000000 1.000000  0.368658 0.095772 0
0  -5.486287 -34.639050 0.400000  0.000000 0.000000 1.000000  0.431421 0.067012 0
oil_puddle
0  -2.637638 -16.653389 0.400000  -0.000000 0.000000 1.000000  0.467030 0.291833 0
0  -5.486287 -34.639050 0.400000  0.000000 0.000000 1.000000  0.431421 0.067012 0
0  -0.000000 -35.864914 0.400000  0.000000 0.000000 1.000000  0.500000 0.051689 0
oil_puddle
0  -0.000000 -17.242746 0.400000  -0.000000 0.000000 1.000000  0.500000 0.284466 0
0  -0.000000 -35.864914 0.400000  0.000000 0.000000 1.000000  0.500000 0.051689 0
0  5.621979 -35.495777 0.400000  -0.000000 0.000000 1.000000  0.570275 0.056303 0
oil_puddle
0  2.702874 -17.065277 0.400000  0.000000 0.000000 1.000000  0.533786 0.286684 0
0  5.621979 -35.495777 0.400000  -0.000000 0.000000 1.000000  0.570275 0.056303 0
0  11.207634 -34.493549 0.400000  -0.000000 0.000000 1.000000  0.640095 0.068831 0
oil_puddle
0  5.388286 -16.583437 0.400000  0.000000 0.000000 1.000000  0.567354 0.292707 0
0  11.207634 -34.493549 0.400000  -0.000000 0.000000 1.000000  0.640095 0.068831 0
0  16.030586 -31.461798 0.400000  0.000000 0.000000 1.000000  0.700382 0.106728 0
oil_puddle
0  7.707013 -15.125865 0.400000  -0.000000 0.000000 1.000000  0.596338 0.310927 0
0  16.030586 -31.461798 0.400000  0.000000 0.000000 1.000000  0.700382 0.106728 0
0  18.388714 -25.309895 0.400000  0.000000 0.000000 1.000000  0.729859 0.183626 0
oil_puddle
0  8.840728 -12.168219 0.400000  -0.000000 0.000000 1.000000  0.610509 0.347897 0
0  18.388714 -25.309895 0.400000  0.000000 0.000000 1.000000  0.729859 0.183626 0
0  19.266941 -19.266941 0.400000  0.000000 0.000000 1.000000  0.740837 0.259163 0
oil_puddle
0  9.262953 -9.262953 0.400000  -0.000000 0.000000 1.000000  0.615787 0.384213 0
0  19.266941 -19.266941 0.400000  0.000000 0.000000 1.000000  0.740837 0.259163 0
0  22.048286 -16.019018 0.400000  0.000000 0.000000 1.000000  0.775604 0.299762 0
oil_puddle
0  10.600138 -7.701451 0.400000  -0.000000 0.000000 1.000000  0.632502 0.403732 0
0  22.048286 -16.019018 0.400000  0.000000 0.000000 1.000000  0.775604 0.299762 0
0  26.955978 -13.734757 0.400000  0.000000 0.000000 1.000000  0.836950 0.328316 0
oil_puddle
0  12.959605 -6.603249 0.400000  -0.000000 0.000000 1.000000  0.661995 0.417459 0
0  26.955978 -13.734757 0.400000  0.000000 0.000000 1.000000  0.836950 0.328316 0
0  31.567980 -10.257058 0.400000  0.000000 0.000000 1.000000  0.894600 0.371787 0
oil_puddle
0  15.176913 -4.931278 0.400000  0.000000 0.000000 1.000000  0.689711 0.438359 0
0  31.567980 -10.257058 0.400000  0.000000 0.000000 1.000000  0.894600 0.371787 0
0  35.102760 -5.559731 0.400000  0.000000 0.000000 1.000000  0.938784 0.430503 0
oil_puddle
0  16.876328 -2.672948 0.400000  0.000000 0.000000 1.000000  0.710954 0.466588 0
0  35.102760 -5.559731 0.400000  0.000000 0.000000 1.000000  0.938784 0.430503 0
0  36.836174 0.000000 0.400000  0.000000 0.000000 1.000000  0.960452 0.500000 0
end
