version 1
nodes
0 "root" -1
end
skeleton
time 0
0 0 0 0 0 0 0
end
triangles
nitro_can
0  -2.828427 -2.828427 10.400000  -0.676199 -0.672444 0.300957  0.000000 0.141421 0
0  -4.000000 0.000000 0.000000  -0.776373 0.000000 -0.630274  0.125000 0.601041 0
0  -2.828427 -2.828427 0.000000  -0.548983 -0.548972 -0.630276  0.000000 0.601041 0
nitro_can
0  2.828427 2.828427 10.400000  0.676206 0.672436 0.300957  0.500000 0.141421 0
0  2.828427 2.828427 0.000000  0.548972 0.548983 -0.630276  0.500000 0.601041 0
0  0.000000 4.000000 0.000000  -0.000008 0.776381 -0.630264  0.375000 0.601041 0
nitro_can
0  4.000000 0.000000 10.400000  0.952851 0.000000 0.303438  0.625000 0.141421 0
0  2.828427 -2.828427 10.400000  0.676206 -0.672436 0.300957  0.750000 0.141421 0
0  2.828427 -2.828427 0.000000  0.548980 -0.548991 -0.630261  0.750000 0.601041 0
nitro_can
0  -1.500000 0.000000 13.600000  -0.517361 0.000000 0.855767  0.326641 0.634186 0
0  -0.750000 -1.299038 13.600000  -0.259995 -0.439867 0.859604  0.384051 0.601041 0
0  1.500000 0.000000 13.600000  0.517357 0.000000 0.855769  0.441461 0.700478 0
nitro_can
0  2.828427 2.828427 10.400000  0.676206 0.672436 0.300957  0.500000 0.141421 0
0  1.500000 0.000000 13.600000  0.517357 0.000000 0.855769  0.625000 0.000000 0
0  4.000000 0.000000 10.400000  0.952851 0.000000 0.303438  0.625000 0.141421 0
nitro_can
0  1.500000 0.000000 13.600000  0.517357 0.000000 0.855769  0.625000 0.000000 0
0  2.828427 -2.828427 10.400000  0.676206 -0.672436 0.300957  0.750000 0.141421 0
0  4.000000 0.000000 10.400000  0.952851 0.000000 0.303438  0.625000 0.141421 0
nitro_can
0  0.000000 4.000000 10.400000  0.000006 0.954552 0.298044  0.375000 0.141421 0
0  -2.828427 2.828427 0.000000  -0.548991 0.548980 -0.630261  0.250000 0.601041 0
0  -2.828427 2.828427 10.400000  -0.676199 0.672444 0.300957  0.250000 0.141421 0
nitro_can
0  2.828427 -2.828427 10.400000  0.676206 -0.672436 0.300957  0.750000 0.141421 0
0  -0.000000 -4.000000 10.400000  0.000006 -0.954552 0.298044  0.875000 0.141421 0
0  -0.000000 -4.000000 0.000000  -0.000008 -0.776381 -0.630264  0.875000 0.601041 0
nitro_can
0  1.500000 0.000000 13.600000  0.517357 0.000000 0.855769  0.625000 0.000000 0
0  0.750000 -1.299038 13.600000  0.259995 -0.439866 0.859605  0.682410 0.000000 0
0  2.828427 -2.828427 10.400000  0.676206 -0.672436 0.300957  0.750000 0.141421 0
nitro_can
0  0.750000 -1.299038 13.600000  0.259995 -0.439866 0.859605  0.841854 0.000000 0
0  -0.000000 -4.000000 10.400000  0.000006 -0.954552 0.298044  0.875000 0.141421 0
0  2.828427 -2.828427 10.400000  0.676206 -0.672436 0.300957  0.750000 0.141421 0
nitro_can
0  2.828427 2.828427 0.000000  0.548972 0.548983 -0.630276  -0.000000 0.696712 0
0  2.828427 -2.828427 0.000000  0.548980 -0.548991 -0.630261  0.230970 0.601041 0
0  -2.828427 -2.828427 0.000000  -0.548983 -0.548972 -0.630276  0.326641 0.832011 0
nitro_can
0  -2.828427 -2.828427 0.000000  -0.548983 -0.548972 -0.630276  0.326641 0.832011 0
0  -2.828427 2.828427 0.000000  -0.548991 0.548980 -0.630261  0.095671 0.927681 0
0  2.828427 2.828427 0.000000  0.548972 0.548983 -0.630276  -0.000000 0.696712 0
nitro_can
0  -0.750000 1.299038 13.600000  -0.259995 0.439867 0.859604  0.326641 0.700478 0
0  -1.500000 0.000000 13.600000  -0.517361 0.000000 0.855767  0.326641 0.634186 0
0  1.500000 0.000000 13.600000  0.517357 0.000000 0.855769  0.441461 0.700478 0
nitro_can
0  2.828427 -2.828427 0.000000  0.548980 -0.548991 -0.630261  0.230970 0.601041 0
0  -0.000000 -4.000000 0.000000  -0.000008 -0.776381 -0.630264  0.326641 0.696712 0
0  -2.828427 -2.828427 0.000000  -0.548983 -0.548972 -0.630276  0.326641 0.832011 0
nitro_can
0  2.828427 2.828427 0.000000  0.548972 0.548983 -0.630276  -0.000000 0.696712 0
0  4.000000 0.000000 0.000000  0.776388 0.000000 -0.630255  0.095671 0.601041 0
0  2.828427 -2.828427 0.000000  0.548980 -0.548991 -0.630261  0.230970 0.601041 0
nitro_can
0  -2.828427 -2.828427 0.000000  -0.548983 -0.548972 -0.630276  0.326641 0.832011 0
0  -4.000000 0.000000 0.000000  -0.776373 0.000000 -0.630274  0.230970 0.927681 0
0  -2.828427 2.828427 0.000000  -0.548991 0.548980 -0.630261  0.095671 0.927681 0
nitro_can
0  4.000000 0.000000 10.400000  0.952851 0.000000 0.303438  0.625000 0.141421 0
0  2.828427 -2.828427 0.000000  0.548980 -0.548991 -0.630261  0.750000 0.601041 0
0  4.000000 0.000000 0.000000  0.776388 0.000000 -0.630255  0.625000 0.601041 0
nitro_can
0  -2.828427 2.828427 10.400000  -0.676199 0.672444 0.300957  0.250000 0.141421 0
0  -2.828427 2.828427 0.000000  -0.548991 0.548980 -0.630261  0.250000 0.601041 0
0  -4.000000 0.000000 0.000000  -0.776373 0.000000 -0.630274  0.125000 0.601041 0
nitro_can
0  0.000000 4.000000 10.400000  0.000006 0.954552 0.298044  0.375000 0.141421 0
0  0.750000 1.299038 13.600000  0.259994 0.439866 0.859605  0.408146 0.000000 0
0  2.828427 2.828427 10.400000  0.676206 0.672436 0.300957  0.500000 0.141421 0
nitro_can
0  0.750000 1.299038 13.600000  0.259994 0.439866 0.859605  0.567590 0.000000 0
0  1.500000 0.000000 13.600000  0.517357 0.000000 0.855769  0.625000 0.000000 0
0  2.828427 2.828427 10.400000  0.676206 0.672436 0.300957  0.500000 0.141421 0
nitro_can
0  0.000000 4.000000 10.400000  0.000006 0.954552 0.298044  0.375000 0.141421 0
0  0.000000 4.000000 0.000000  -0.000008 0.776381 -0.630264  0.375000 0.601041 0
0  -2.828427 2.828427 0.000000  -0.548991 0.548980 -0.630261  0.250000 0.601041 0
nitro_can
0  -2.828427 2.828427 0.000000  -0.548991 0.548980 -0.630261  0.095671 0.927681 0
0  0.000000 4.000000 0.000000  -0.000008 0.776381 -0.630264  -0.000000 0.832011 0
0  2.828427 2.828427 0.000000  0.548972 0.548983 -0.630276  -0.000000 0.696712 0
nitro_can
0  1.500000 0.000000 13.600000  0.517357 0.000000 0.855769  0.441461 0.700478 0
0  0.750000 1.299038 13.600000  0.259994 0.439866 0.859605  0.384051 0.733623 0
0  -0.750000 1.299038 13.600000  -0.259995 0.439867 0.859604  0.326641 0.700478 0
nitro_can
0  -2.828427 -2.828427 10.400000  -0.676199 -0.672444 0.300957  0.000000 0.141421 0
0  -4.000000 0.000000 10.400000  -0.952854 0.000000 0.303430  0.125000 0.141421 0
0  -4.000000 0.000000 0.000000  -0.776373 0.000000 -0.630274  0.125000 0.601041 0
nitro_can
0  0.750000 -1.299038 13.600000  0.259995 -0.439866 0.859605  0.841854 0.000000 0
0  -0.750000 -1.299038 13.600000  -0.259995 -0.439867 0.859604  0.908146 0.000000 0
0  -0.000000 -4.000000 10.400000  0.000006 -0.954552 0.298044  0.875000 0.141421 0
nitro_can
0  -0.750000 -1.299038 13.600000  -0.259995 -0.439867 0.859604  0.908146 0.000000 0
0  -2.828427 -2.828427 10.400000  -0.676199 -0.672444 0.300957  1.000000 0.141421 0
0  -0.000000 -4.000000 10.400000  0.000006 -0.954552 0.298044  0.875000 0.141421 0
nitro_can
0  2.828427 -2.828427 10.400000  0.676206 -0.672436 0.300957  0.750000 0.141421 0
0  -0.000000 -4.000000 0.000000  -0.000008 -0.776381 -0.630264  0.875000 0.601041 0
0  2.828427 -2.828427 0.000000  0.548980 -0.548991 -0.630261  0.750000 0.601041 0
nitro_can
0  4.000000 0.000000 10.400000  0.952851 0.000000 0.303438  0.625000 0.141421 0
0  4.000000 0.000000 0.000000  0.776388 0.000000 -0.630255  0.625000 0.601041 0
0  2.828427 2.828427 0.000000  0.548972 0.548983 -0.630276  0.500000 0.601041 0
nitro_can
0  -0.750000 1.299038 13.600000  -0.259995 0.439867 0.859604  0.341854 0.000000 0
0  0.750000 1.299038 13.600000  0.259994 0.439866 0.859605  0.408146 0.000000 0
0  0.000000 4.000000 10.400000  0.000006 0.954552 0.298044  0.375000 0.141421 0
nitro_can
0  4.000000 0.000000 10.400000  0.952851 0.000000 0.303438  0.625000 0.141421 0
0  2.828427 2.828427 0.000000  0.548972 0.548983 -0.630276  0.500000 0.601041 0
0  2.828427 2.828427 10.400000  0.676206 0.672436 0.300957  0.500000 0.141421 0
nitro_can
0  -0.750000 -1.299038 13.600000  -0.259995 -0.439867 0.859604  0.384051 0.601041 0
0  0.750000 -1.299038 13.600000  0.259995 -0.439866 0.859605  0.441461 0.634186 0
0  1.500000 0.000000 13.600000  0.517357 0.000000 0.855769  0.441461 0.700478 0
nitro_can
0  -2.828427 2.828427 10.400000  -0.676199 0.672444 0.300957  0.250000 0.141421 0
0  -0.750000 1.299038 13.600000  -0.259995 0.439867 0.859604  0.341854 0.000000 0
0  0.000000 4.000000 10.400000  0.000006 0.954552 0.298044  0.375000 0.141421 0
nitro_can
0  -1.500000 0.000000 13.600000  -0.517361 0.000000 0.855767  0.125000 0.000000 0
0  -2.828427 -2.828427 10.400000  -0.676199 -0.672444 0.300957  0.000000 0.141421 0
0  -0.750000 -1.299038 13.600000  -0.259995 -0.439867 0.859604  0.067590 0.000000 0
nitro_can
0  -0.000000 -4.000000 10.400000  0.000006 -0.954552 0.298044  0.875000 0.141421 0
0  -2.828427 -2.828427 0.000000  -0.548983 -0.548972 -0.630276  1.000000 0.601041 0
0  -0.000000 -4.000000 0.000000  -0.000008 -0.776381 -0.630264  0.875000 0.601041 0
nitro_can
0  -0.000000 -4.000000 10.400000  0.000006 -0.954552 0.298044  0.875000 0.141421 0
0  -2.828427 -2.828427 10.400000  -0.676199 -0.672444 0.300957  1.000000 0.141421 0
0  -2.828427 -2.828427 0.000000  -0.548983 -0.548972 -0.630276  1.000000 0.601041 0
nitro_can
0  -1.500000 0.000000 13.600000  -0.517361 0.000000 0.855767  0.125000 0.000000 0
0  -4.000000 0.000000 10.400000  -0.952854 0.000000 0.303430  0.125000 0.141421 0
0  -2.828427 -2.828427 10.400000  -0.676199 -0.672444 0.300957  0.000000 0.141421 0
nitro_can
0  -2.828427 2.828427 10.400000  -0.676199 0.672444 0.300957  0.250000 0.141421 0
0  -1.500000 0.000000 13.600000  -0.517361 0.000000 0.855767  0.125000 0.000000 0
0  -0.750000 1.299038 13.600000  -0.259995 0.439867 0.859604  0.182410 0.000000 0
nitro_can
0  2.828427 2.828427 10.400000  0.676206 0.672436 0.300957  0.500000 0.141421 0
0  0.000000 4.000000 0.000000  -0.000008 0.776381 -0.630264  0.375000 0.601041 0
0  0.000000 4.000000 10.400000  0.000006 0.954552 0.298044  0.375000 0.141421 0
nitro_can
0  -4.000000 0.000000 10.400000  -0.952854 0.000000 0.303430  0.125000 0.141421 0
0  -1.500000 0.000000 13.600000  -0.517361 0.000000 0.855767  0.125000 0.000000 0
0  -2.828427 2.828427 10.400000  -0.676199 0.672444 0.300957  0.250000 0.141421 0
nitro_can
0  -2.828427 2.828427 10.400000  -0.676199 0.672444 0.300957  0.250000 0.141421 0
0  -4.000000 0.000000 0.000000  -0.776373 0.000000 -0.630274  0.125000 0.601041 0
0  -4.000000 0.000000 10.400000  -0.952854 0.000000 0.303430  0.125000 0.141421 0
nitro_can
0  1.000000 1.000000 16.500000  0.577340 0.577340 0.577371  0.415029 0.733623 0
0  -1.000000 -1.000000 16.500000  -0.577339 -0.577339 0.577372  0.326641 0.822012 0
0  1.000000 -1.000000 16.500000  0.577350 -0.577351 0.577350  0.326641 0.733623 0
nitro_can
0  1.000000 -1.000000 16.500000  0.577350 -0.577351 0.577350  0.441461 0.601041 0
0  -1.000000 -1.000000 16.500000  -0.577339 -0.577339 0.577372  0.529849 0.601041 0
0  -1.000000 -1.000000 13.300000  -0.577340 -0.577340 -0.577371  0.529849 0.742462 0
nitro_can
0  1.000000 1.000000 16.500000  0.577340 0.577340 0.577371  0.415029 0.733623 0
0  -1.000000 1.000000 16.500000  -0.577351 0.577350 0.577350  0.415029 0.822012 0
0  -1.000000 -1.000000 16.500000  -0.577339 -0.577339 0.577372  0.326641 0.822012 0
nitro_can
0  1.000000 1.000000 16.500000  0.577340 0.577340 0.577371  0.618237 0.601041 0
0  1.000000 1.000000 13.300000  0.577339 0.577339 -0.577372  0.618237 0.742462 0
0  -1.000000 1.000000 13.300000  -0.577350 0.577351 -0.577350  0.529849 0.742462 0
nitro_can
0  1.000000 1.000000 16.500000  0.577340 0.577340 0.577371  0.618237 0.601041 0
0  -1.000000 1.000000 13.300000  -0.577350 0.577351 -0.577350  0.529849 0.742462 0
0  -1.000000 1.000000 16.500000  -0.577351 0.577350 0.577350  0.529849 0.601041 0
nitro_can
0  1.000000 1.000000 16.500000  0.577340 0.577340 0.577371  0.618237 0.601041 0
0  1.000000 -1.000000 16.500000  0.577350 -0.577351 0.577350  0.706626 0.601041 0
0  1.000000 -1.000000 13.300000  0.577351 -0.577350 -0.577350  0.706626 0.742462 0
nitro_can
0  1.000000 1.000000 16.500000  0.577340 0.577340 0.577371  0.618237 0.601041 0
0  1.000000 -1.000000 13.300000  0.577351 -0.577350 -0.577350  0.706626 0.742462 0
0  1.000000 1.000000 13.300000  0.577339 0.577339 -0.577372  0.618237 0.742462 0
nitro_can
0  1.000000 1.000000 13.300000  0.577339 0.577339 -0.577372  0.529849 0.830850 0
0  1.000000 -1.000000 13.300000  0.577351 -0.577350 -0.577350  0.441461 0.830850 0
0  -1.000000 -1.000000 13.300000  -0.577340 -0.577340 -0.577371  0.441461 0.742462 0
nitro_can
0  1.000000 -1.000000 16.500000  0.577350 -0.577351 0.577350  0.441461 0.601041 0
0  -1.000000 -1.000000 13.300000  -0.577340 -0.577340 -0.577371  0.529849 0.742462 0
0  1.000000 -1.000000 13.300000  0.577351 -0.577350 -0.577350  0.441461 0.742462 0
nitro_can
0  -1.000000 1.000000 16.500000  -0.577351 0.577350 0.577350  0.795014 0.601041 0
0  -1.000000 1.000000 13.300000  -0.577350 0.577351 -0.577350  0.795014 0.742462 0
0  -1.000000 -1.000000 13.300000  -0.577340 -0.577340 -0.577371  0.706626 0.742462 0
nitro_can
0  1.000000 1.000000 13.300000  0.577339 0.577339 -0.577372  0.529849 0.830850 0
0  -1.000000 -1.000000 13.300000  -0.577340 -0.577340 -0.577371  0.441461 0.742462 0
0  -1.000000 1.000000 13.300000  -0.577350 0.577351 -0.577350  0.529849 0.742462 0
nitro_can
0  -1.000000 1.000000 16.500000  -0.577351 0.577350 0.577350  0.795014 0.601041 0
0  -1.000000 -1.000000 13.300000  -0.577340 -0.577340 -0.577371  0.706626 0.742462 0
0  -1.000000 -1.000000 16.500000  -0.577339 -0.577339 0.577372  0.706626 0.601041 0
end
