version 1
nodes
0 "root" -1
end
skeleton
time 0
0 0 0 0 0 0 0
end
triangles
finish_gantry
0  12.000000 256.000000 193.000000  0.577340 0.577340 0.577370  0.609071 0.103672 0
0  -12.000000 232.000000 193.000000  -0.577339 -0.577339 0.577372  0.557236 0.155508 0
0  12.000000 232.000000 193.000000  0.577349 -0.577352 0.577349  0.557236 0.103672 0
finish_gantry
0  12.000000 232.000000 193.000000  0.577349 -0.577352 0.577349  0.336933 0.000000 0
0  -12.000000 232.000000 193.000000  -0.577339 -0.577339 0.577372  0.388769 0.000000 0
0  -12.000000 232.000000 0.000000  -0.577340 -0.577340 -0.577370  0.388769 0.416847 0
finish_gantry
0  12.000000 256.000000 193.000000  0.577340 0.577340 0.577370  0.609071 0.103672 0
0  -12.000000 256.000000 193.000000  -0.577352 0.577349 0.577349  0.609071 0.155508 0
0  -12.000000 232.000000 193.000000  -0.577339 -0.577339 0.577372  0.557236 0.155508 0
finish_gantry
0  12.000000 256.000000 193.000000  0.577340 0.577340 0.577370  0.388769 0.416847 0
0  12.000000 256.000000 0.000000  0.577339 0.577339 -0.577372  0.388769 0.833693 0
0  -12.000000 256.000000 0.000000  -0.577349 0.577352 -0.577349  0.336933 0.833693 0
finish_gantry
0  12.000000 256.000000 193.000000  0.577340 0.577340 0.577370  0.388769 0.416847 0
0  -12.000000 256.000000 0.000000  -0.577349 0.577352 -0.577349  0.336933 0.833693 0
0  -12.000000 256.000000 193.000000  -0.577352 0.577349 0.577349  0.336933 0.416847 0
finish_gantry
0  12.000000 256.000000 193.000000  0.577340 0.577340 0.577370  0.388769 0.000000 0
0  12.000000 232.000000 193.000000  0.577349 -0.577352 0.577349  0.440605 0.000000 0
0  12.000000 232.000000 0.000000  0.577352 -0.577349 -0.577349  0.440605 0.416847 0
finish_gantry
0  12.000000 256.000000 193.000000  0.577340 0.577340 0.577370  0.388769 0.000000 0
0  12.000000 232.000000 0.000000  0.577352 -0.577349 -0.577349  0.440605 0.416847 0
0  12.000000 256.000000 0.000000  0.577339 0.577339 -0.577372  0.388769 0.416847 0
finish_gantry
0  12.000000 256.000000 0.000000  0.577339 0.577339 -0.577372  0.609071 0.207343 0
0  12.000000 232.000000 0.000000  0.577352 -0.577349 -0.577349  0.557236 0.207343 0
0  -12.000000 232.000000 0.000000  -0.577340 -0.577340 -0.577370  0.557236 0.155508 0
finish_gantry
0  12.000000 232.000000 193.000000  0.577349 -0.577352 0.577349  0.336933 0.000000 0
0  -12.000000 232.000000 0.000000  -0.577340 -0.577340 -0.577370  0.388769 0.416847 0
0  12.000000 232.000000 0.000000  0.577352 -0.577349 -0.577349  0.336933 0.416847 0
finish_gantry
0  -12.000000 256.000000 193.000000  -0.577352 0.577349 0.577349  0.440605 0.416847 0
0  -12.000000 256.000000 0.000000  -0.577349 0.577352 -0.577349  0.440605 0.833693 0
0  -12.000000 232.000000 0.000000  -0.577340 -0.577340 -0.577370  0.388769 0.833693 0
finish_gantry
0  12.000000 256.000000 0.000000  0.577339 0.577339 -0.577372  0.609071 0.207343 0
0  -12.000000 232.000000 0.000000  -0.577340 -0.577340 -0.577370  0.557236 0.155508 0
0  -12.000000 256.000000 0.000000  -0.577349 0.577352 -0.577349  0.609071 0.155508 0
finish_gantry
0  -12.000000 256.000000 193.000000  -0.577352 0.577349 0.577349  0.440605 0.416847 0
0  -12.000000 232.000000 0.000000  -0.577340 -0.577340 -0.577370  0.388769 0.833693 0
0  -12.000000 232.000000 193.000000  -0.577339 -0.577339 0.577372  0.388769 0.416847 0
finish_gantry
0  12.000000 -232.000000 193.000000  0.577340 0.577340 0.577370  0.609071 0.207343 0
0  -12.000000 -256.000000 193.000000  -0.577339 -0.577339 0.577372  0.557236 0.259179 0
0  12.000000 -256.000000 193.000000  0.577349 -0.577352 0.577349  0.557236 0.207343 0
finish_gantry
0  12.000000 -256.000000 193.000000  0.577349 -0.577352 0.577349  0.440605 0.000000 0
0  -12.000000 -256.000000 193.000000  -0.577339 -0.577339 0.577372  0.492441 0.000000 0
0  -12.000000 -256.000000 0.000000  -0.577340 -0.577340 -0.577370  0.492441 0.416847 0
finish_gantry
0  12.000000 -232.000000 193.000000  0.577340 0.577340 0.577370  0.609071 0.207343 0
0  -12.000000 -232.000000 193.000000  -0.577352 0.577349 0.577349  0.609071 0.259179 0
0  -12.000000 -256.000000 193.000000  -0.577339 -0.577339 0.577372  0.557236 0.259179 0
finish_gantry
0  12.000000 -232.000000 193.000000  0.577340 0.577340 0.577370  0.492441 0.416847 0
0  12.000000 -232.000000 0.000000  0.577339 0.577339 -0.577372  0.492441 0.833693 0
0  -12.000000 -232.000000 0.000000  -0.577349 0.577352 -0.577349  0.440605 0.833693 0
finish_gantry
0  12.000000 -232.000000 193.000000  0.577340 0.577340 0.577370  0.492441 0.416847 0
0  -12.000000 -232.000000 0.000000  -0.577349 0.577352 -0.577349  0.440605 0.833693 0
0  -12.000000 -232.000000 193.000000  -0.577352 0.577349 0.577349  0.440605 0.416847 0
finish_gantry
0  12.000000 -232.000000 193.000000  0.577340 0.577340 0.577370  0.492441 0.000000 0
0  12.000000 -256.000000 193.000000  0.577349 -0.577352 0.577349  0.544277 0.000000 0
0  12.000000 -256.000000 0.000000  0.577352 -0.577349 -0.577349  0.544277 0.416847 0
finish_gantry
0  12.000000 -232.000000 193.000000  0.577340 0.577340 0.577370  0.492441 0.000000 0
0  12.000000 -256.000000 0.000000  0.577352 -0.577349 -0.577349  0.544277 0.416847 0
0  12.000000 -232.000000 0.000000  0.577339 0.577339 -0.577372  0.492441 0.416847 0
finish_gantry
0  12.000000 -232.000000 0.000000  0.577339 0.577339 -0.577372  0.609071 0.311015 0
0  12.000000 -256.000000 0.000000  0.577352 -0.577349 -0.577349  0.557236 0.311015 0
0  -12.000000 -256.000000 0.000000  -0.577340 -0.577340 -0.577370  0.557236 0.259179 0
finish_gantry
0  12.000000 -256.000000 193.000000  0.577349 -0.577352 0.577349  0.440605 0.000000 0
0  -12.000000 -256.000000 0.000000  -0.577340 -0.577340 -0.577370  0.492441 0.416847 0
0  12.000000 -256.000000 0.000000  0.577352 -0.577349 -0.577349  0.440605 0.416847 0
finish_gantry
0  -12.000000 -232.000000 193.000000  -0.577352 0.577349 0.577349  0.544277 0.416847 0
0  -12.000000 -232.000000 0.000000  -0.577349 0.577352 -0.577349  0.544277 0.833693 0
0  -12.000000 -256.000000 0.000000  -0.577340 -0.577340 -0.577370  0.492441 0.833693 0
finish_gantry
0  12.000000 -232.000000 0.000000  0.577339 0.577339 -0.577372  0.609071 0.311015 0
0  -12.000000 -256.000000 0.000000  -0.577340 -0.577340 -0.577370  0.557236 0.259179 0
0  -12.000000 -232.000000 0.000000  -0.577349 0.577352 -0.577349  0.609071 0.259179 0
finish_gantry
0  -12.000000 -232.000000 193.000000  -0.577352 0.577349 0.577349  0.544277 0.416847 0
0  -12.000000 -256.000000 0.000000  -0.577340 -0.577340 -0.577370  0.492441 0.833693 0
0  -12.000000 -256.000000 193.000000  -0.577339 -0.577339 0.577372  0.492441 0.416847 0
finish_gantry
0  15.000000 231.500000 192.000000  0.577350 0.577346 0.577354  0.557236 0.833693 0
0  -15.000000 231.500000 144.000000  -0.577350 0.577351 -0.577350  0.492441 0.937365 0
0  -15.000000 231.500000 192.000000  -0.577354 0.577348 0.577348  0.492441 0.833693 0
finish_gantry
0  -15.000000 231.500000 192.000000  -0.577354 0.577348 0.577348  0.000000 0.000000 0
0  -15.000000 231.500000 144.000000  -0.577350 0.577351 -0.577350  0.103672 0.000000 0
0  -15.000000 -231.500000 144.000000  -0.577350 -0.577346 -0.577354  0.103672 1.000000 0
finish_gantry
0  15.000000 231.500000 192.000000  0.577350 0.577346 0.577354  0.557236 0.833693 0
0  15.000000 231.500000 144.000000  0.577347 0.577347 -0.577357  0.557236 0.937365 0
0  -15.000000 231.500000 144.000000  -0.577350 0.577351 -0.577350  0.492441 0.937365 0
finish_gantry
0  15.000000 231.500000 192.000000  0.577350 0.577346 0.577354  0.103672 1.000000 0
0  15.000000 -231.500000 192.000000  0.577350 -0.577351 0.577350  0.103672 0.000000 0
0  15.000000 -231.500000 144.000000  0.577354 -0.577348 -0.577348  0.207344 0.000000 0
finish_gantry
0  15.000000 231.500000 192.000000  0.577350 0.577346 0.577354  0.103672 1.000000 0
0  15.000000 -231.500000 144.000000  0.577354 -0.577348 -0.577348  0.207344 0.000000 0
0  15.000000 231.500000 144.000000  0.577347 0.577347 -0.577357  0.207343 1.000000 0
finish_gantry
0  15.000000 231.500000 192.000000  0.577350 0.577346 0.577354  0.272138 1.000000 0
0  -15.000000 231.500000 192.000000  -0.577354 0.577348 0.577348  0.207344 1.000000 0
0  -15.000000 -231.500000 192.000000  -0.577347 -0.577347 0.577357  0.207344 0.000000 0
finish_gantry
0  15.000000 231.500000 192.000000  0.577350 0.577346 0.577354  0.272138 1.000000 0
0  -15.000000 -231.500000 192.000000  -0.577347 -0.577347 0.577357  0.207344 0.000000 0
0  15.000000 -231.500000 192.000000  0.577350 -0.577351 0.577350  0.272138 0.000000 0
finish_gantry
0  15.000000 -231.500000 192.000000  0.577350 -0.577351 0.577350  0.557236 0.000000 0
0  -15.000000 -231.500000 192.000000  -0.577347 -0.577347 0.577357  0.622030 0.000000 0
0  -15.000000 -231.500000 144.000000  -0.577350 -0.577346 -0.577354  0.622030 0.103672 0
finish_gantry
0  -15.000000 231.500000 192.000000  -0.577354 0.577348 0.577348  0.000000 0.000000 0
0  -15.000000 -231.500000 144.000000  -0.577350 -0.577346 -0.577354  0.103672 1.000000 0
0  -15.000000 -231.500000 192.000000  -0.577347 -0.577347 0.577357  -0.000000 1.000000 0
finish_gantry
0  15.000000 231.500000 144.000000  0.577347 0.577347 -0.577357  0.272138 1.000000 0
0  15.000000 -231.500000 144.000000  0.577354 -0.577348 -0.577348  0.272138 0.000000 0
0  -15.000000 -231.500000 144.000000  -0.577350 -0.577346 -0.577354  0.336933 0.000000 0
finish_gantry
0  15.000000 -231.500000 192.000000  0.577350 -0.577351 0.577350  0.557236 0.000000 0
0  -15.000000 -231.500000 144.000000  -0.577350 -0.577346 -0.577354  0.622030 0.103672 0
0  15.000000 -231.500000 144.000000  0.577354 -0.577348 -0.577348  0.557236 0.103672 0
finish_gantry
0  15.000000 231.500000 144.000000  0.577347 0.577347 -0.577357  0.272138 1.000000 0
0  -15.000000 -231.500000 144.000000  -0.577350 -0.577346 -0.577354  0.336933 0.000000 0
0  -15.000000 231.500000 144.000000  -0.577350 0.577351 -0.577350  0.336933 1.000000 0
end
