version 1
nodes
0 "root" -1
end
skeleton
time 0
0 0 0 0 0 0 0
end
triangles
sign_arrow_left
0  -2.000000 -36.000000 14.000000  -1.000000 0.000000 0.000000  0.269686 0.632086 0
0  -2.000000 36.000000 46.000000  -1.000000 0.000000 0.000000  0.000000 0.000000 0
0  -2.000000 36.000000 14.000000  -1.000000 0.000000 0.000000  0.269686 0.000000 0
sign_arrow_left
0  -2.000000 36.000000 14.000000  0.000000 1.000000 0.000000  0.422311 0.870769 0
0  0.000000 36.000000 46.000000  0.000000 1.000000 0.000000  0.439166 0.641026 0
0  0.000000 36.000000 14.000000  0.000000 1.000000 0.000000  0.439166 0.870769 0
sign_arrow_left
0  0.000000 36.000000 14.000000  1.000000 0.000000 0.000000  0.547954 0.632086 0
0  0.000000 -36.000000 46.000000  1.000000 0.000000 0.000000  0.278268 0.000000 0
0  0.000000 -36.000000 14.000000  1.000000 0.000000 0.000000  0.547954 0.000000 0
sign_arrow_left
0  0.000000 -36.000000 14.000000  0.000000 -1.000000 0.000000  0.447748 0.870769 0
0  -2.000000 -36.000000 46.000000  0.000000 -1.000000 0.000000  0.464604 0.641026 0
0  -2.000000 -36.000000 14.000000  0.000000 -1.000000 0.000000  0.464604 0.870769 0
sign_arrow_left
0  -2.000000 36.000000 14.000000  0.000000 0.000000 -1.000000  0.906523 0.632086 0
0  0.000000 -36.000000 14.000000  0.000000 0.000000 -1.000000  0.889668 0.000000 0
0  -2.000000 -36.000000 14.000000  0.000000 0.000000 -1.000000  0.906523 0.000000 0
sign_arrow_left
0  0.000000 36.000000 46.000000  0.000000 0.000000 1.000000  0.931961 0.632086 0
0  -2.000000 -36.000000 46.000000  0.000000 0.000000 1.000000  0.915105 0.000000 0
0  0.000000 -36.000000 46.000000  0.000000 0.000000 1.000000  0.931961 0.000000 0
sign_arrow_left
0  -2.300000 -37.000000 13.000000  -1.000000 0.000000 0.000000  0.982990 0.649644 0
0  -2.300000 37.000000 14.000000  -1.000000 0.000000 0.000000  0.974562 0.000000 0
0  -2.300000 37.000000 13.000000  -1.000000 0.000000 0.000000  0.982990 0.000000 0
sign_arrow_left
0  -2.300000 37.000000 13.000000  0.000000 1.000000 0.000000  0.450922 0.902534 0
0  0.300000 37.000000 14.000000  0.000000 1.000000 0.000000  0.444030 0.879709 0
0  0.300000 37.000000 13.000000  0.000000 1.000000 0.000000  0.450922 0.879709 0
sign_arrow_left
0  0.300000 37.000000 13.000000  1.000000 0.000000 0.000000  1.000000 0.649644 0
0  0.300000 -37.000000 14.000000  1.000000 0.000000 0.000000  0.991572 0.000000 0
0  0.300000 -37.000000 13.000000  1.000000 0.000000 0.000000  1.000000 0.000000 0
sign_arrow_left
0  0.300000 -37.000000 13.000000  0.000000 -1.000000 0.000000  0.538595 0.905511 0
0  -2.300000 -37.000000 14.000000  0.000000 -1.000000 0.000000  0.531703 0.882686 0
0  -2.300000 -37.000000 13.000000  0.000000 -1.000000 0.000000  0.538595 0.882686 0
sign_arrow_left
0  -2.300000 37.000000 13.000000  0.000000 0.000000 -1.000000  0.705018 0.649644 0
0  0.300000 -37.000000 13.000000  0.000000 0.000000 -1.000000  0.683106 0.000000 0
0  -2.300000 -37.000000 13.000000  0.000000 0.000000 -1.000000  0.705018 0.000000 0
sign_arrow_left
0  0.300000 37.000000 14.000000  0.000000 0.000000 1.000000  0.735512 0.649644 0
0  -2.300000 -37.000000 14.000000  0.000000 0.000000 1.000000  0.713600 0.000000 0
0  0.300000 -37.000000 14.000000  0.000000 0.000000 1.000000  0.735512 0.000000 0
sign_arrow_left
0  -2.300000 -37.000000 46.000000  -1.000000 0.000000 0.000000  0.948970 0.649644 0
0  -2.300000 37.000000 47.000000  -1.000000 0.000000 0.000000  0.940543 0.000000 0
0  -2.300000 37.000000 46.000000  -1.000000 0.000000 0.000000  0.948970 0.000000 0
sign_arrow_left
0  -2.300000 37.000000 46.000000  0.000000 1.000000 0.000000  0.672732 0.887107 0
0  0.300000 37.000000 47.000000  0.000000 1.000000 0.000000  0.665840 0.864282 0
0  0.300000 37.000000 46.000000  0.000000 1.000000 0.000000  0.672732 0.864282 0
sign_arrow_left
0  0.300000 37.000000 46.000000  1.000000 0.000000 0.000000  0.965980 0.649644 0
0  0.300000 -37.000000 47.000000  1.000000 0.000000 0.000000  0.957553 0.000000 0
0  0.300000 -37.000000 46.000000  1.000000 0.000000 0.000000  0.965980 0.000000 0
sign_arrow_left
0  0.300000 -37.000000 46.000000  0.000000 -1.000000 0.000000  0.115490 0.892426 0
0  -2.300000 -37.000000 47.000000  0.000000 -1.000000 0.000000  0.108598 0.869600 0
0  -2.300000 -37.000000 46.000000  0.000000 -1.000000 0.000000  0.115490 0.869600 0
sign_arrow_left
0  -2.300000 37.000000 46.000000  0.000000 0.000000 -1.000000  0.766006 0.649644 0
0  0.300000 -37.000000 46.000000  0.000000 0.000000 -1.000000  0.744094 0.000000 0
0  -2.300000 -37.000000 46.000000  0.000000 0.000000 -1.000000  0.766006 0.000000 0
sign_arrow_left
0  0.300000 37.000000 47.000000  0.000000 0.000000 1.000000  0.796500 0.649644 0
0  -2.300000 -37.000000 47.000000  0.000000 0.000000 1.000000  0.774588 0.000000 0
0  0.300000 -37.000000 47.000000  0.000000 0.000000 1.000000  0.796500 0.000000 0
sign_arrow_left
0  -6.000000 -28.000000 0.000000  -1.000000 0.000000 0.000000  0.805082 0.438948 0
0  -6.000000 -24.000000 50.000000  -1.000000 0.000000 0.000000  0.838793 0.000000 0
0  -6.000000 -24.000000 0.000000  -1.000000 0.000000 0.000000  0.838793 0.438948 0
sign_arrow_left
0  -6.000000 -24.000000 0.000000  0.000000 1.000000 0.000000  0.253139 1.000000 0
0  -2.000000 -24.000000 50.000000  0.000000 1.000000 0.000000  0.286850 0.641025 0
0  -2.000000 -24.000000 0.000000  0.000000 1.000000 0.000000  0.286850 1.000000 0
sign_arrow_left
0  -2.000000 -24.000000 0.000000  1.000000 0.000000 0.000000  0.805082 0.886837 0
0  -2.000000 -28.000000 50.000000  1.000000 0.000000 0.000000  0.838793 0.447888 0
0  -2.000000 -28.000000 0.000000  1.000000 0.000000 0.000000  0.838793 0.886837 0
sign_arrow_left
0  -2.000000 -28.000000 0.000000  0.000000 -1.000000 0.000000  0.295432 1.000000 0
0  -6.000000 -28.000000 50.000000  0.000000 -1.000000 0.000000  0.329143 0.641026 0
0  -6.000000 -28.000000 0.000000  0.000000 -1.000000 0.000000  0.329143 1.000000 0
sign_arrow_left
0  -6.000000 -24.000000 0.000000  0.000000 0.000000 -1.000000  0.506896 0.807987 0
0  -2.000000 -28.000000 0.000000  0.000000 0.000000 -1.000000  0.473186 0.843103 0
0  -6.000000 -28.000000 0.000000  0.000000 0.000000 -1.000000  0.473186 0.807987 0
sign_arrow_left
0  -2.000000 -24.000000 50.000000  0.000000 0.000000 1.000000  0.033711 0.825545 0
0  -6.000000 -28.000000 50.000000  0.000000 0.000000 1.000000  0.000000 0.860661 0
0  -2.000000 -28.000000 50.000000  0.000000 0.000000 1.000000  0.000000 0.825545 0
sign_arrow_left
0  -24.000000 -27.000000 0.000000  -1.000000 0.000000 0.000000  0.695902 0.851882 0
0  -24.000000 -25.000000 3.000000  -1.000000 0.000000 0.000000  0.712757 0.825545 0
0  -24.000000 -25.000000 0.000000  -1.000000 0.000000 0.000000  0.712757 0.851882 0
sign_arrow_left
0  -24.000000 -25.000000 0.000000  0.000000 1.000000 0.000000  0.493862 0.799047 0
0  -6.000000 -25.000000 3.000000  0.000000 1.000000 0.000000  0.473186 0.641025 0
0  -6.000000 -25.000000 0.000000  0.000000 1.000000 0.000000  0.493862 0.641025 0
sign_arrow_left
0  -6.000000 -25.000000 0.000000  1.000000 0.000000 0.000000  0.721339 0.851882 0
0  -6.000000 -27.000000 3.000000  1.000000 0.000000 0.000000  0.738195 0.825545 0
0  -6.000000 -27.000000 0.000000  1.000000 0.000000 0.000000  0.738195 0.851882 0
sign_arrow_left
0  -6.000000 -27.000000 0.000000  0.000000 -1.000000 0.000000  0.523121 0.799047 0
0  -24.000000 -27.000000 3.000000  0.000000 -1.000000 0.000000  0.502444 0.641026 0
0  -24.000000 -27.000000 0.000000  0.000000 -1.000000 0.000000  0.523121 0.641026 0
sign_arrow_left
0  -24.000000 -25.000000 0.000000  0.000000 0.000000 -1.000000  0.758479 0.658583 0
0  -6.000000 -27.000000 0.000000  0.000000 0.000000 -1.000000  0.741623 0.816605 0
0  -24.000000 -27.000000 0.000000  0.000000 0.000000 -1.000000  0.741623 0.658583 0
sign_arrow_left
0  -6.000000 -25.000000 3.000000  0.000000 0.000000 1.000000  0.783916 0.658583 0
0  -24.000000 -27.000000 3.000000  0.000000 0.000000 1.000000  0.767061 0.816605 0
0  -6.000000 -27.000000 3.000000  0.000000 0.000000 1.000000  0.767061 0.658583 0
sign_arrow_left
0  -2.000000 28.000000 50.000000  0.000000 0.000000 1.000000  0.076004 0.825545 0
0  -6.000000 24.000000 50.000000  0.000000 0.000000 1.000000  0.042293 0.860661 0
0  -2.000000 24.000000 50.000000  0.000000 0.000000 1.000000  0.042293 0.825545 0
sign_arrow_left
0  -2.000000 28.000000 0.000000  1.000000 0.000000 0.000000  0.847375 0.438948 0
0  -2.000000 24.000000 50.000000  1.000000 0.000000 0.000000  0.881086 0.000000 0
0  -2.000000 24.000000 0.000000  1.000000 0.000000 0.000000  0.881086 0.438948 0
sign_arrow_left
0  -20.179388 -25.292892 1.669783  0.000000 1.000000 -0.000000  0.531703 0.820911 0
0  -4.820612 -25.292892 18.330217  0.000000 1.000000 -0.000001  0.542597 0.641026 0
0  -19.081799 -25.292892 0.777990  0.000000 1.000000 0.000000  0.542597 0.818662 0
sign_arrow_left
0  -24.000000 25.000000 0.000000  -1.000000 0.000000 0.000000  0.746777 0.851882 0
0  -24.000000 27.000000 3.000000  -1.000000 0.000000 0.000000  0.763632 0.825545 0
0  -24.000000 27.000000 0.000000  -1.000000 0.000000 0.000000  0.763632 0.851882 0
sign_arrow_left
0  -6.000000 28.000000 0.000000  0.000000 1.000000 0.000000  0.337725 1.000000 0
0  -2.000000 28.000000 50.000000  0.000000 1.000000 0.000000  0.371436 0.641026 0
0  -2.000000 28.000000 0.000000  0.000000 1.000000 0.000000  0.371436 1.000000 0
sign_arrow_left
0  -19.081799 -25.292892 0.777990  0.776114 0.000001 -0.630593  0.889668 0.795116 0
0  -4.820611 -26.707108 18.330217  0.776114 0.000000 -0.630592  0.901586 0.641026 0
0  -19.081797 -26.707108 0.777990  0.776114 0.000001 -0.630593  0.901586 0.795116 0
sign_arrow_left
0  -4.820612 -25.292892 18.330217  0.630592 0.000000 0.776114  0.009250 0.906758 0
0  -5.918202 -26.707108 19.222010  0.630592 0.000000 0.776114  0.000000 0.894342 0
0  -4.820611 -26.707108 18.330217  0.630593 0.000000 0.776114  0.009250 0.894342 0
sign_arrow_left
0  -6.000000 24.000000 0.000000  -1.000000 0.000000 0.000000  0.847375 0.886837 0
0  -6.000000 28.000000 50.000000  -1.000000 0.000000 0.000000  0.881086 0.447888 0
0  -6.000000 28.000000 0.000000  -1.000000 0.000000 0.000000  0.881086 0.886837 0
sign_arrow_left
0  -19.081797 -26.707108 0.777990  0.000000 -1.000000 -0.000002  0.607411 0.915713 0
0  -5.918202 -26.707108 19.222010  0.000000 -1.000000 -0.000000  0.618305 0.740326 0
0  -20.179388 -26.707108 1.669783  0.000000 -1.000000 -0.000002  0.618305 0.917962 0
sign_arrow_left
0  -6.000000 28.000000 0.000000  0.000000 0.000000 -1.000000  0.118296 0.825545 0
0  -2.000000 24.000000 0.000000  0.000000 0.000000 -1.000000  0.084586 0.860661 0
0  -6.000000 24.000000 0.000000  0.000000 0.000000 -1.000000  0.084586 0.825545 0
sign_arrow_left
0  -2.000000 24.000000 0.000000  0.000000 -1.000000 0.000000  0.380018 1.000000 0
0  -6.000000 24.000000 50.000000  0.000000 -1.000000 0.000000  0.413729 0.641025 0
0  -6.000000 24.000000 0.000000  0.000000 -1.000000 0.000000  0.413729 1.000000 0
sign_arrow_left
0  -20.179388 -26.707108 1.669783  -0.776114 0.000000 0.630593  0.889668 0.958146 0
0  -5.918203 -25.292892 19.222010  -0.776113 0.000000 0.630594  0.901586 0.804056 0
0  -20.179388 -25.292892 1.669783  -0.776114 0.000000 0.630593  0.901586 0.958146 0
sign_arrow_left
0  -20.179388 -25.292892 1.669783  -0.630593 0.000000 -0.776114  0.769132 0.897979 0
0  -19.081797 -26.707108 0.777990  -0.630593 0.000000 -0.776114  0.759881 0.885563 0
0  -20.179388 -26.707108 1.669783  -0.630592 0.000000 -0.776114  0.769132 0.885563 0
sign_arrow_left
0  -24.000000 27.000000 0.000000  0.000000 1.000000 0.000000  0.703782 0.816605 0
0  -6.000000 27.000000 3.000000  0.000000 1.000000 0.000000  0.683106 0.658583 0
0  -6.000000 27.000000 0.000000  0.000000 1.000000 0.000000  0.703782 0.658583 0
sign_arrow_left
0  -6.000000 27.000000 0.000000  1.000000 0.000000 0.000000  0.772214 0.851882 0
0  -6.000000 25.000000 3.000000  1.000000 0.000000 0.000000  0.789070 0.825545 0
0  -6.000000 25.000000 0.000000  1.000000 0.000000 0.000000  0.789070 0.851882 0
sign_arrow_left
0  -6.000000 25.000000 0.000000  0.000000 -1.000000 0.000000  0.733041 0.816605 0
0  -24.000000 25.000000 3.000000  0.000000 -1.000000 0.000000  0.712364 0.658583 0
0  -24.000000 25.000000 0.000000  0.000000 -1.000000 0.000000  0.733041 0.658583 0
sign_arrow_left
0  -24.000000 27.000000 0.000000  0.000000 0.000000 -1.000000  0.573391 0.738077 0
0  -6.000000 25.000000 0.000000  0.000000 0.000000 -1.000000  0.556536 0.896098 0
0  -24.000000 25.000000 0.000000  0.000000 0.000000 -1.000000  0.556536 0.738077 0
sign_arrow_left
0  -6.000000 27.000000 3.000000  0.000000 0.000000 1.000000  0.598829 0.738077 0
0  -24.000000 25.000000 3.000000  0.000000 0.000000 1.000000  0.581973 0.896098 0
0  -6.000000 25.000000 3.000000  0.000000 0.000000 1.000000  0.581974 0.738077 0
sign_arrow_left
0  -20.179388 26.707108 1.669783  0.000000 1.000000 -0.000000  0.646363 0.917962 0
0  -4.820612 26.707108 18.330217  0.000000 1.000000 -0.000000  0.657258 0.738077 0
0  -19.081799 26.707108 0.777990  0.000000 1.000000 0.000000  0.657258 0.915713 0
sign_arrow_left
0  -19.081799 26.707108 0.777990  0.776114 0.000001 -0.630593  0.910168 0.795116 0
0  -4.820611 25.292892 18.330217  0.776114 0.000000 -0.630592  0.922087 0.641026 0
0  -19.081797 25.292892 0.777990  0.776114 0.000001 -0.630593  0.922087 0.795116 0
sign_arrow_left
0  -4.820612 26.707108 18.330217  0.630592 0.000000 0.776115  0.027082 0.906758 0
0  -5.918202 25.292892 19.222010  0.630592 0.000000 0.776115  0.017832 0.894342 0
0  -4.820611 25.292892 18.330217  0.630592 0.000000 0.776115  0.027082 0.894342 0
sign_arrow_left
0  -19.081797 25.292892 0.777990  0.000000 -1.000000 0.000000  0.626887 0.915713 0
0  -5.918202 25.292892 19.222010  0.000000 -1.000000 0.000001  0.637781 0.740326 0
0  -20.179388 25.292892 1.669783  0.000000 -1.000000 0.000000  0.637781 0.917962 0
sign_arrow_left
0  -20.179388 25.292892 1.669783  -0.776114 0.000000 0.630593  0.910168 0.958146 0
0  -5.918203 26.707108 19.222010  -0.776114 0.000000 0.630592  0.922087 0.804056 0
0  -20.179388 26.707108 1.669783  -0.776114 0.000000 0.630593  0.922087 0.958146 0
sign_arrow_left
0  -20.179388 26.707108 1.669783  -0.630593 0.000000 -0.776114  0.786964 0.897979 0
0  -19.081797 25.292892 0.777990  -0.630593 0.000000 -0.776114  0.777714 0.885563 0
0  -20.179388 25.292892 1.669783  -0.630592 0.000000 -0.776114  0.786964 0.885563 0
sign_arrow_left
0  0.000000 -25.100000 20.000000  0.000000 0.866025 -0.500001  0.832359 0.895776 0
0  0.600000 -25.549999 19.220577  0.000000 0.866025 -0.500001  0.837416 0.903646 0
0  0.000000 -25.549999 19.220577  0.000000 0.866025 -0.500001  0.832359 0.903646 0
sign_arrow_left
0  0.000000 -25.549999 19.220577  0.000000 0.000000 -1.000000  0.464561 0.887610 0
0  0.600000 -26.450001 19.220577  0.000000 0.000000 -1.000000  0.459505 0.879709 0
0  0.000000 -26.450001 19.220577  0.000000 0.000000 -1.000000  0.464561 0.879709 0
sign_arrow_left
0  0.000000 26.900000 20.000000  0.000000 0.866025 -0.500001  0.845998 0.895777 0
0  0.600000 26.450001 19.220577  0.000000 0.866025 -0.500001  0.851055 0.903646 0
0  0.000000 26.450001 19.220577  0.000000 0.866025 -0.500001  0.845998 0.903646 0
sign_arrow_left
0  0.000000 -25.100000 40.000000  0.000000 0.866025 -0.500001  0.859637 0.895777 0
0  0.600000 -25.549999 39.220577  0.000000 0.866025 -0.500001  0.864694 0.903646 0
0  0.000000 -25.549999 39.220577  0.000000 0.866025 -0.500001  0.859637 0.903646 0
sign_arrow_left
0  0.000000 -26.450001 19.220577  0.000000 -0.866025 -0.500001  0.670896 0.903916 0
0  0.600000 -26.900000 20.000000  0.000000 -0.866025 -0.500001  0.665840 0.896047 0
0  0.000000 -26.900000 20.000000  0.000000 -0.866025 -0.500001  0.670896 0.896047 0
sign_arrow_left
0  0.000000 26.900000 40.000000  0.000000 0.866025 -0.500001  0.459505 0.896550 0
0  0.600000 26.450001 39.220577  0.000000 0.866025 -0.500001  0.464561 0.904419 0
0  0.000000 26.450001 39.220577  0.000000 0.866025 -0.500001  0.459505 0.904419 0
sign_arrow_left
0  0.000000 -26.900000 20.000000  0.000000 -0.866025 0.500001  0.588870 0.912907 0
0  0.600000 -26.450001 20.779423  0.000000 -0.866025 0.500001  0.583814 0.905038 0
0  -0.000000 -26.450001 20.779423  0.000000 -0.866025 0.500001  0.588870 0.905038 0
sign_arrow_left
0  0.600000 -26.900000 20.000000  1.000000 0.000000 0.000000  0.766450 0.860821 0
0  0.600000 -26.450001 19.220577  1.000000 0.000000 0.000000  0.773019 0.864772 0
0  0.600000 -25.100000 20.000000  1.000000 0.000000 0.000000  0.766450 0.876624 0
sign_arrow_left
0  -0.000000 -26.450001 20.779423  0.000000 0.000000 1.000000  0.035665 0.894342 0
0  0.600000 -25.549999 20.779423  0.000000 0.000000 1.000000  0.040721 0.902243 0
0  -0.000000 -25.549999 20.779423  0.000000 0.000000 1.000000  0.035665 0.902243 0
sign_arrow_left
0  0.000000 -26.450001 39.220577  0.000000 -0.866025 -0.500001  0.113654 0.909235 0
0  0.600000 -26.900000 40.000000  0.000000 -0.866025 -0.500001  0.108598 0.901366 0
0  0.000000 -26.900000 40.000000  0.000000 -0.866025 -0.500001  0.113654 0.901366 0
sign_arrow_left
0  0.000000 -25.549999 39.220577  0.000000 0.000000 -1.000000  0.054360 0.902243 0
0  0.600000 -26.450001 39.220577  0.000000 0.000000 -1.000000  0.049303 0.894342 0
0  0.000000 -26.450001 39.220577  0.000000 0.000000 -1.000000  0.054360 0.894342 0
sign_arrow_left
0  -0.000000 -25.549999 20.779423  0.000000 0.866026 0.499998  0.773520 0.906919 0
0  0.600000 -25.100000 20.000000  0.000000 0.866027 0.499998  0.778577 0.914788 0
0  0.000000 -25.100000 20.000000  0.000000 0.866027 0.499998  0.773520 0.914788 0
sign_arrow_left
0  0.000000 -26.900000 20.000000  -1.000000 0.000000 -0.000000  0.788170 0.876624 0
0  -0.000000 -26.450001 20.779423  -1.000000 0.000000 -0.000000  0.781601 0.872673 0
0  -0.000000 -25.549999 20.779423  -1.000000 0.000000 -0.000000  0.781601 0.864772 0
sign_arrow_left
0  0.000000 -26.900000 40.000000  0.000000 -0.866025 0.500001  0.427367 0.912320 0
0  0.600000 -26.450001 40.779423  0.000000 -0.866025 0.500001  0.422311 0.904451 0
0  -0.000000 -26.450001 40.779423  0.000000 -0.866025 0.500001  0.427367 0.904451 0
sign_arrow_left
0  0.600000 -25.549999 40.779423  1.000000 0.000000 0.000000  0.006569 0.869600 0
0  0.600000 -26.450001 40.779423  1.000000 0.000000 0.000000  0.013137 0.873551 0
0  0.600000 -26.900000 40.000000  1.000000 0.000000 0.000000  0.013137 0.881452 0
sign_arrow_left
0  -0.000000 -26.450001 40.779423  0.000000 0.000000 1.000000  0.062942 0.894342 0
0  0.600000 -25.549999 40.779423  0.000000 0.000000 1.000000  0.067999 0.902243 0
0  -0.000000 -25.549999 40.779423  0.000000 0.000000 1.000000  0.062942 0.902243 0
sign_arrow_left
0  0.000000 25.549999 19.220577  0.000000 -0.866025 -0.500000  0.478242 0.912747 0
0  0.600000 25.100000 20.000000  0.000000 -0.866025 -0.500001  0.473186 0.904877 0
0  0.000000 25.100000 20.000000  0.000000 -0.866023 -0.500003  0.478242 0.904877 0
sign_arrow_left
0  0.000000 26.450001 19.220577  0.000000 0.000000 -1.000000  0.081637 0.902243 0
0  0.600000 25.549999 19.220577  0.000000 0.000000 -1.000000  0.076581 0.894342 0
0  0.000000 25.549999 19.220577  0.000000 0.000000 -1.000000  0.081637 0.894342 0
sign_arrow_left
0  -0.000000 -25.549999 40.779423  0.000000 0.866026 0.499998  0.486824 0.904877 0
0  0.600000 -25.100000 40.000000  0.000000 0.866027 0.499998  0.491881 0.912746 0
0  0.000000 -25.100000 40.000000  0.000000 0.866027 0.499998  0.486824 0.912746 0
sign_arrow_left
0  0.000000 -25.100000 40.000000  -1.000000 0.000000 -0.000000  0.034857 0.873551 0
0  0.000000 -25.549999 39.220577  -1.000000 0.000000 -0.000000  0.034857 0.881452 0
0  0.000000 -26.450001 39.220577  -1.000000 0.000000 -0.000000  0.028288 0.885403 0
sign_arrow_left
0  0.000000 25.100000 20.000000  0.000000 -0.866026 0.499999  0.792216 0.914788 0
0  0.600000 25.549999 20.779423  0.000000 -0.866027 0.499997  0.787159 0.906919 0
0  -0.000000 25.549999 20.779423  0.000000 -0.866028 0.499995  0.792216 0.906919 0
sign_arrow_left
0  0.600000 25.100000 20.000000  1.000000 0.000000 0.000000  0.050008 0.869600 0
0  0.600000 25.549999 19.220577  1.000000 0.000000 0.000000  0.056577 0.873551 0
0  0.600000 26.900000 20.000000  1.000000 0.000000 0.000000  0.050008 0.885403 0
sign_arrow_left
0  -0.000000 25.549999 20.779423  0.000000 0.000000 1.000000  0.090219 0.894342 0
0  0.600000 26.450001 20.779423  0.000000 0.000000 1.000000  0.095276 0.902243 0
0  -0.000000 26.450001 20.779423  0.000000 0.000000 1.000000  0.090219 0.902243 0
sign_arrow_left
0  0.000000 25.549999 39.220577  0.000000 -0.866025 -0.500000  0.505520 0.912747 0
0  0.600000 25.100000 40.000000  0.000000 -0.866025 -0.500001  0.500463 0.904877 0
0  0.000000 25.100000 40.000000  0.000000 -0.866023 -0.500003  0.505520 0.904877 0
sign_arrow_left
0  0.000000 26.450001 39.220577  0.000000 0.000000 -1.000000  0.810139 0.903678 0
0  0.600000 25.549999 39.220577  0.000000 0.000000 -1.000000  0.805082 0.895776 0
0  0.000000 25.549999 39.220577  0.000000 0.000000 -1.000000  0.810139 0.895776 0
sign_arrow_left
0  -0.000000 26.450001 20.779423  0.000000 0.866025 0.500001  0.759881 0.906919 0
0  0.600000 26.900000 20.000000  0.000000 0.866025 0.500001  0.764938 0.914788 0
0  0.000000 26.900000 20.000000  0.000000 0.866025 0.500001  0.759881 0.914788 0
sign_arrow_left
0  0.000000 26.900000 20.000000  -1.000000 0.000000 -0.000000  0.071727 0.869600 0
0  0.000000 26.450001 19.220577  -1.000000 0.000000 -0.000000  0.078296 0.873551 0
0  0.000000 25.100000 20.000000  -1.000000 0.000000 -0.000000  0.071727 0.885403 0
sign_arrow_left
0  0.000000 25.100000 40.000000  0.000000 -0.866026 0.499999  0.561593 0.912907 0
0  0.600000 25.549999 40.779423  0.000000 -0.866027 0.499997  0.556536 0.905038 0
0  -0.000000 25.549999 40.779423  0.000000 -0.866028 0.499995  0.561593 0.905038 0
sign_arrow_left
0  -0.000000 25.549999 40.779423  -1.000000 0.000000 -0.000000  0.093447 0.869600 0
0  -0.000000 26.450001 40.779423  -1.000000 0.000000 -0.000000  0.100016 0.873551 0
0  0.000000 26.900000 40.000000  -1.000000 0.000000 -0.000000  0.100016 0.881452 0
sign_arrow_left
0  -0.000000 25.549999 40.779423  0.000000 0.000000 1.000000  0.818721 0.895776 0
0  0.600000 26.450001 40.779423  0.000000 0.000000 1.000000  0.823777 0.903678 0
0  -0.000000 26.450001 40.779423  0.000000 0.000000 1.000000  0.818721 0.903678 0
sign_arrow_left
0  -0.000000 26.450001 40.779423  0.000000 0.866025 0.500001  0.570175 0.905038 0
0  0.600000 26.900000 40.000000  0.000000 0.866025 0.500001  0.575231 0.912907 0
0  0.000000 26.900000 40.000000  0.000000 0.866025 0.500001  0.570175 0.912907 0
sign_arrow_left
0  0.600000 26.900000 40.000000  1.000000 0.000000 0.000000  0.422311 0.891561 0
0  0.600000 26.450001 40.779423  1.000000 0.000000 0.000000  0.422311 0.883659 0
0  0.600000 25.549999 40.779423  1.000000 0.000000 0.000000  0.428880 0.879709 0
sign_arrow_left
0  0.000000 -13.500000 40.000000  -1.000000 0.000000 0.000000  0.632385 0.000000 0
0  0.000000 -17.500000 30.000000  -1.000000 0.000000 0.000000  0.598674 0.087790 0
0  0.000000 -22.500000 30.000000  -1.000000 0.000000 0.000000  0.556536 0.087790 0
sign_arrow_left
0  0.500000 -22.500000 30.000000  1.000000 0.000000 0.000000  0.674524 0.272309 0
0  0.500000 -8.500000 40.000000  1.000000 0.000000 0.000000  0.556536 0.184519 0
0  0.500000 -13.500000 40.000000  1.000000 0.000000 0.000000  0.598674 0.184519 0
sign_arrow_left
0  0.000000 -22.500000 30.000000  0.000000 0.000000 -1.000000  0.535917 0.829851 0
0  0.500000 -17.500000 30.000000  0.000000 0.000000 -1.000000  0.531703 0.873746 0
0  0.500000 -22.500000 30.000000  0.000000 0.000000 -1.000000  0.531703 0.829851 0
sign_arrow_left
0  0.000000 -17.500000 30.000000  0.000000 0.743294 -0.668965  0.665840 0.855342 0
0  0.500000 -8.500000 40.000000  0.000000 0.743294 -0.668965  0.670053 0.738077 0
0  0.500000 -17.500000 30.000000  0.000000 0.743294 -0.668965  0.670053 0.855342 0
sign_arrow_left
0  0.000000 -8.500000 40.000000  0.000000 0.000000 1.000000  0.473186 0.895937 0
0  0.500000 -13.500000 40.000000  0.000000 0.000000 1.000000  0.477400 0.852043 0
0  0.500000 -8.500000 40.000000  0.000000 0.000000 1.000000  0.477400 0.895937 0
sign_arrow_left
0  0.000000 -13.500000 40.000000  0.000000 -0.743294 0.668965  0.207868 0.825545 0
0  0.500000 -22.500000 30.000000  0.000000 -0.743294 0.668965  0.203654 0.942810 0
0  0.500000 -13.500000 40.000000  0.000000 -0.743294 0.668965  0.203654 0.825545 0
sign_arrow_left
0  0.000000 -13.500000 20.000000  -1.000000 0.000000 0.000000  0.632385 0.175579 0
0  0.000000 -17.500000 30.000000  -1.000000 0.000000 0.000000  0.598674 0.087790 0
0  0.000000 -8.500000 20.000000  -1.000000 0.000000 0.000000  0.674524 0.175579 0
sign_arrow_left
0  0.500000 -22.500000 30.000000  1.000000 0.000000 0.000000  0.674524 0.272309 0
0  0.500000 -8.500000 20.000000  1.000000 0.000000 0.000000  0.556536 0.360099 0
0  0.500000 -17.500000 30.000000  1.000000 0.000000 0.000000  0.632385 0.272309 0
sign_arrow_left
0  0.000000 -17.500000 30.000000  0.000000 0.743294 0.668965  0.515479 0.807987 0
0  0.500000 -8.500000 20.000000  0.000000 0.743294 0.668965  0.519692 0.925252 0
0  0.000000 -8.500000 20.000000  0.000000 0.743294 0.668965  0.515479 0.925252 0
sign_arrow_left
0  0.000000 -8.500000 20.000000  0.000000 0.000000 -1.000000  0.490196 0.895937 0
0  0.500000 -13.500000 20.000000  0.000000 0.000000 -1.000000  0.485982 0.852043 0
0  0.000000 -13.500000 20.000000  0.000000 0.000000 -1.000000  0.490196 0.852043 0
sign_arrow_left
0  0.000000 -13.500000 20.000000  0.000000 -0.743294 -0.668965  0.220664 0.942810 0
0  0.500000 -22.500000 30.000000  0.000000 -0.743294 -0.668965  0.216450 0.825545 0
0  0.000000 -22.500000 30.000000  0.000000 -0.743294 -0.668965  0.220664 0.825545 0
sign_arrow_left
0  0.000000 4.500000 40.000000  -1.000000 0.000000 0.000000  0.632385 0.369038 0
0  0.000000 0.500000 30.000000  -1.000000 0.000000 0.000000  0.598674 0.456828 0
0  0.000000 -4.500000 30.000000  -1.000000 0.000000 0.000000  0.556536 0.456828 0
sign_arrow_left
0  0.500000 -4.500000 30.000000  1.000000 0.000000 0.000000  0.674524 0.641347 0
0  0.500000 9.500000 40.000000  1.000000 0.000000 0.000000  0.556536 0.553558 0
0  0.500000 4.500000 40.000000  1.000000 0.000000 0.000000  0.598674 0.553558 0
sign_arrow_left
0  0.000000 -4.500000 30.000000  0.000000 0.000000 -1.000000  0.502991 0.852043 0
0  0.500000 0.500000 30.000000  0.000000 0.000000 -1.000000  0.498778 0.895937 0
0  0.500000 -4.500000 30.000000  0.000000 0.000000 -1.000000  0.498778 0.852043 0
sign_arrow_left
0  0.000000 0.500000 30.000000  0.000000 0.743294 -0.668965  0.126879 0.942810 0
0  0.500000 9.500000 40.000000  0.000000 0.743294 -0.668965  0.131092 0.825545 0
0  0.500000 0.500000 30.000000  0.000000 0.743294 -0.668965  0.131092 0.942810 0
sign_arrow_left
0  0.000000 9.500000 40.000000  0.000000 0.000000 1.000000  0.695902 0.904716 0
0  0.500000 4.500000 40.000000  0.000000 0.000000 1.000000  0.700116 0.860821 0
0  0.500000 9.500000 40.000000  0.000000 0.000000 1.000000  0.700116 0.904716 0
sign_arrow_left
0  0.000000 4.500000 40.000000  0.000000 -0.743294 0.668965  0.143888 0.825545 0
0  0.500000 -4.500000 30.000000  0.000000 -0.743294 0.668965  0.139674 0.942810 0
0  0.500000 4.500000 40.000000  0.000000 -0.743294 0.668965  0.139674 0.825545 0
sign_arrow_left
0  0.000000 4.500000 20.000000  -1.000000 0.000000 0.000000  0.632385 0.544618 0
0  0.000000 0.500000 30.000000  -1.000000 0.000000 0.000000  0.598674 0.456828 0
0  0.000000 9.500000 20.000000  -1.000000 0.000000 0.000000  0.674524 0.544618 0
sign_arrow_left
0  0.500000 -4.500000 30.000000  1.000000 0.000000 0.000000  0.674524 0.641347 0
0  0.500000 9.500000 20.000000  1.000000 0.000000 0.000000  0.556536 0.729137 0
0  0.500000 0.500000 30.000000  1.000000 0.000000 0.000000  0.632385 0.641347 0
sign_arrow_left
0  0.000000 0.500000 30.000000  0.000000 0.743294 0.668965  0.152470 0.825545 0
0  0.500000 9.500000 20.000000  0.000000 0.743294 0.668965  0.156684 0.942810 0
0  0.000000 9.500000 20.000000  0.000000 0.743294 0.668965  0.152470 0.942810 0
sign_arrow_left
0  0.000000 9.500000 20.000000  0.000000 0.000000 -1.000000  0.712911 0.904716 0
0  0.500000 4.500000 20.000000  0.000000 0.000000 -1.000000  0.708698 0.860821 0
0  0.000000 4.500000 20.000000  0.000000 0.000000 -1.000000  0.712911 0.860821 0
sign_arrow_left
0  0.000000 4.500000 20.000000  0.000000 -0.743294 -0.668965  0.169480 0.942810 0
0  0.500000 -4.500000 30.000000  0.000000 -0.743294 -0.668965  0.165266 0.825545 0
0  0.000000 -4.500000 30.000000  0.000000 -0.743294 -0.668965  0.169480 0.825545 0
sign_arrow_left
0  0.000000 22.500000 40.000000  -1.000000 0.000000 0.000000  0.075849 0.641026 0
0  0.000000 18.500000 30.000000  -1.000000 0.000000 0.000000  0.042138 0.728815 0
0  0.000000 13.500000 30.000000  -1.000000 0.000000 0.000000  0.000000 0.728815 0
sign_arrow_left
0  0.500000 13.500000 30.000000  1.000000 0.000000 0.000000  0.244557 0.728815 0
0  0.500000 27.500000 40.000000  1.000000 0.000000 0.000000  0.126570 0.641026 0
0  0.500000 22.500000 40.000000  1.000000 0.000000 0.000000  0.168708 0.641026 0
sign_arrow_left
0  0.000000 13.500000 30.000000  0.000000 0.000000 -1.000000  0.725707 0.860821 0
0  0.500000 18.500000 30.000000  0.000000 0.000000 -1.000000  0.721494 0.904716 0
0  0.500000 13.500000 30.000000  0.000000 0.000000 -1.000000  0.721494 0.860821 0
sign_arrow_left
0  0.000000 18.500000 30.000000  0.000000 0.743294 -0.668965  0.229246 0.942810 0
0  0.500000 27.500000 40.000000  0.000000 0.743294 -0.668965  0.233460 0.825545 0
0  0.500000 18.500000 30.000000  0.000000 0.743294 -0.668965  0.233460 0.942810 0
sign_arrow_left
0  0.000000 27.500000 40.000000  0.000000 0.000000 1.000000  0.734290 0.904716 0
0  0.500000 22.500000 40.000000  0.000000 0.000000 1.000000  0.738503 0.860821 0
0  0.500000 27.500000 40.000000  0.000000 0.000000 1.000000  0.738503 0.904716 0
sign_arrow_left
0  0.000000 22.500000 40.000000  0.000000 -0.743294 0.668965  0.687320 0.825545 0
0  0.500000 13.500000 30.000000  0.000000 -0.743294 0.668965  0.683106 0.942810 0
0  0.500000 22.500000 40.000000  0.000000 -0.743294 0.668965  0.683106 0.825545 0
sign_arrow_left
0  0.000000 22.500000 20.000000  -1.000000 0.000000 0.000000  0.075849 0.816605 0
0  0.000000 18.500000 30.000000  -1.000000 0.000000 0.000000  0.042138 0.728815 0
0  0.000000 27.500000 20.000000  -1.000000 0.000000 0.000000  0.117988 0.816605 0
sign_arrow_left
0  0.500000 13.500000 30.000000  1.000000 0.000000 0.000000  0.244557 0.728815 0
0  0.500000 27.500000 20.000000  1.000000 0.000000 0.000000  0.126570 0.816605 0
0  0.500000 18.500000 30.000000  1.000000 0.000000 0.000000  0.202419 0.728815 0
sign_arrow_left
0  0.000000 18.500000 30.000000  0.000000 0.743294 0.668965  0.190858 0.825545 0
0  0.500000 27.500000 20.000000  0.000000 0.743294 0.668965  0.195072 0.942810 0
0  0.000000 27.500000 20.000000  0.000000 0.743294 0.668965  0.190858 0.942810 0
sign_arrow_left
0  0.000000 27.500000 20.000000  0.000000 0.000000 -1.000000  0.751299 0.904716 0
0  0.500000 22.500000 20.000000  0.000000 0.000000 -1.000000  0.747086 0.860821 0
0  0.000000 22.500000 20.000000  0.000000 0.000000 -1.000000  0.751299 0.860821 0
sign_arrow_left
0  0.000000 22.500000 20.000000  0.000000 -0.743294 -0.668965  0.182276 0.942810 0
0  0.500000 13.500000 30.000000  0.000000 -0.743294 -0.668965  0.178062 0.825545 0
0  0.000000 13.500000 30.000000  0.000000 -0.743294 -0.668965  0.182276 0.825545 0
sign_arrow_left
0  -2.000000 -36.000000 14.000000  -1.000000 0.000000 0.000000  0.269686 0.632086 0
0  -2.000000 -36.000000 46.000000  -1.000000 0.000000 0.000000  0.000000 0.632086 0
0  -2.000000 36.000000 46.000000  -1.000000 0.000000 0.000000  0.000000 0.000000 0
sign_arrow_left
0  -2.000000 36.000000 14.000000  0.000000 1.000000 0.000000  0.422311 0.870769 0
0  -2.000000 36.000000 46.000000  0.000000 1.000000 0.000000  0.422311 0.641026 0
0  0.000000 36.000000 46.000000  0.000000 1.000000 0.000000  0.439166 0.641026 0
sign_arrow_left
0  0.000000 36.000000 14.000000  1.000000 0.000000 0.000000  0.547954 0.632086 0
0  0.000000 36.000000 46.000000  1.000000 0.000000 0.000000  0.278268 0.632086 0
0  0.000000 -36.000000 46.000000  1.000000 0.000000 0.000000  0.278268 0.000000 0
sign_arrow_left
0  0.000000 -36.000000 14.000000  0.000000 -1.000000 0.000000  0.447748 0.870769 0
0  0.000000 -36.000000 46.000000  0.000000 -1.000000 0.000000  0.447748 0.641026 0
0  -2.000000 -36.000000 46.000000  0.000000 -1.000000 0.000000  0.464604 0.641026 0
sign_arrow_left
0  -2.000000 36.000000 14.000000  0.000000 0.000000 -1.000000  0.906523 0.632086 0
0  0.000000 36.000000 14.000000  0.000000 0.000000 -1.000000  0.889668 0.632086 0
0  0.000000 -36.000000 14.000000  0.000000 0.000000 -1.000000  0.889668 0.000000 0
sign_arrow_left
0  0.000000 36.000000 46.000000  0.000000 0.000000 1.000000  0.931961 0.632086 0
0  -2.000000 36.000000 46.000000  0.000000 0.000000 1.000000  0.915105 0.632086 0
0  -2.000000 -36.000000 46.000000  0.000000 0.000000 1.000000  0.915105 0.000000 0
sign_arrow_left
0  -2.300000 -37.000000 13.000000  -1.000000 0.000000 0.000000  0.982990 0.649644 0
0  -2.300000 -37.000000 14.000000  -1.000000 0.000000 0.000000  0.974562 0.649644 0
0  -2.300000 37.000000 14.000000  -1.000000 0.000000 0.000000  0.974562 0.000000 0
sign_arrow_left
0  -2.300000 37.000000 13.000000  0.000000 1.000000 0.000000  0.450922 0.902534 0
0  -2.300000 37.000000 14.000000  0.000000 1.000000 0.000000  0.444030 0.902534 0
0  0.300000 37.000000 14.000000  0.000000 1.000000 0.000000  0.444030 0.879709 0
sign_arrow_left
0  0.300000 37.000000 13.000000  1.000000 0.000000 0.000000  1.000000 0.649644 0
0  0.300000 37.000000 14.000000  1.000000 0.000000 0.000000  0.991572 0.649644 0
0  0.300000 -37.000000 14.000000  1.000000 0.000000 0.000000  0.991572 0.000000 0
sign_arrow_left
0  0.300000 -37.000000 13.000000  0.000000 -1.000000 0.000000  0.538595 0.905511 0
0  0.300000 -37.000000 14.000000  0.000000 -1.000000 0.000000  0.531703 0.905511 0
0  -2.300000 -37.000000 14.000000  0.000000 -1.000000 0.000000  0.531703 0.882686 0
sign_arrow_left
0  -2.300000 37.000000 13.000000  0.000000 0.000000 -1.000000  0.705018 0.649644 0
0  0.300000 37.000000 13.000000  0.000000 0.000000 -1.000000  0.683106 0.649644 0
0  0.300000 -37.000000 13.000000  0.000000 0.000000 -1.000000  0.683106 0.000000 0
sign_arrow_left
0  0.300000 37.000000 14.000000  0.000000 0.000000 1.000000  0.735512 0.649644 0
0  -2.300000 37.000000 14.000000  0.000000 0.000000 1.000000  0.713600 0.649644 0
0  -2.300000 -37.000000 14.000000  0.000000 0.000000 1.000000  0.713600 0.000000 0
sign_arrow_left
0  -2.300000 -37.000000 46.000000  -1.000000 0.000000 0.000000  0.948970 0.649644 0
0  -2.300000 -37.000000 47.000000  -1.000000 0.000000 0.000000  0.940543 0.649644 0
0  -2.300000 37.000000 47.000000  -1.000000 0.000000 0.000000  0.940543 0.000000 0
sign_arrow_left
0  -2.300000 37.000000 46.000000  0.000000 1.000000 0.000000  0.672732 0.887107 0
0  -2.300000 37.000000 47.000000  0.000000 1.000000 0.000000  0.665840 0.887107 0
0  0.300000 37.000000 47.000000  0.000000 1.000000 0.000000  0.665840 0.864282 0
sign_arrow_left
0  0.300000 37.000000 46.000000  1.000000 0.000000 0.000000  0.965980 0.649644 0
0  0.300000 37.000000 47.000000  1.000000 0.000000 0.000000  0.957553 0.649644 0
0  0.300000 -37.000000 47.000000  1.000000 0.000000 0.000000  0.957553 0.000000 0
sign_arrow_left
0  0.300000 -37.000000 46.000000  0.000000 -1.000000 0.000000  0.115490 0.892426 0
0  0.300000 -37.000000 47.000000  0.000000 -1.000000 0.000000  0.108598 0.892426 0
0  -2.300000 -37.000000 47.000000  0.000000 -1.000000 0.000000  0.108598 0.869600 0
sign_arrow_left
0  -2.300000 37.000000 46.000000  0.000000 0.000000 -1.000000  0.766006 0.649644 0
0  0.300000 37.000000 46.000000  0.000000 0.000000 -1.000000  0.744094 0.649644 0
0  0.300000 -37.000000 46.000000  0.000000 0.000000 -1.000000  0.744094 0.000000 0
sign_arrow_left
0  0.300000 37.000000 47.000000  0.000000 0.000000 1.000000  0.796500 0.649644 0
0  -2.300000 37.000000 47.000000  0.000000 0.000000 1.000000  0.774588 0.649644 0
0  -2.300000 -37.000000 47.000000  0.000000 0.000000 1.000000  0.774588 0.000000 0
sign_arrow_left
0  -6.000000 -28.000000 0.000000  -1.000000 0.000000 0.000000  0.805082 0.438948 0
0  -6.000000 -28.000000 50.000000  -1.000000 0.000000 0.000000  0.805082 0.000000 0
0  -6.000000 -24.000000 50.000000  -1.000000 0.000000 0.000000  0.838793 0.000000 0
sign_arrow_left
0  -6.000000 -24.000000 0.000000  0.000000 1.000000 0.000000  0.253139 1.000000 0
0  -6.000000 -24.000000 50.000000  0.000000 1.000000 0.000000  0.253139 0.641025 0
0  -2.000000 -24.000000 50.000000  0.000000 1.000000 0.000000  0.286850 0.641025 0
sign_arrow_left
0  -2.000000 -24.000000 0.000000  1.000000 0.000000 0.000000  0.805082 0.886837 0
0  -2.000000 -24.000000 50.000000  1.000000 0.000000 0.000000  0.805082 0.447888 0
0  -2.000000 -28.000000 50.000000  1.000000 0.000000 0.000000  0.838793 0.447888 0
sign_arrow_left
0  -2.000000 -28.000000 0.000000  0.000000 -1.000000 0.000000  0.295432 1.000000 0
0  -2.000000 -28.000000 50.000000  0.000000 -1.000000 0.000000  0.295432 0.641026 0
0  -6.000000 -28.000000 50.000000  0.000000 -1.000000 0.000000  0.329143 0.641026 0
sign_arrow_left
0  -6.000000 -24.000000 0.000000  0.000000 0.000000 -1.000000  0.506896 0.807987 0
0  -2.000000 -24.000000 0.000000  0.000000 0.000000 -1.000000  0.506896 0.843103 0
0  -2.000000 -28.000000 0.000000  0.000000 0.000000 -1.000000  0.473186 0.843103 0
sign_arrow_left
0  -2.000000 -24.000000 50.000000  0.000000 0.000000 1.000000  0.033711 0.825545 0
0  -6.000000 -24.000000 50.000000  0.000000 0.000000 1.000000  0.033711 0.860661 0
0  -6.000000 -28.000000 50.000000  0.000000 0.000000 1.000000  0.000000 0.860661 0
sign_arrow_left
0  -24.000000 -27.000000 0.000000  -1.000000 0.000000 0.000000  0.695902 0.851882 0
0  -24.000000 -27.000000 3.000000  -1.000000 0.000000 0.000000  0.695902 0.825545 0
0  -24.000000 -25.000000 3.000000  -1.000000 0.000000 0.000000  0.712757 0.825545 0
sign_arrow_left
0  -24.000000 -25.000000 0.000000  0.000000 1.000000 0.000000  0.493862 0.799047 0
0  -24.000000 -25.000000 3.000000  0.000000 1.000000 0.000000  0.473186 0.799047 0
0  -6.000000 -25.000000 3.000000  0.000000 1.000000 0.000000  0.473186 0.641025 0
sign_arrow_left
0  -6.000000 -25.000000 0.000000  1.000000 0.000000 0.000000  0.721339 0.851882 0
0  -6.000000 -25.000000 3.000000  1.000000 0.000000 0.000000  0.721339 0.825545 0
0  -6.000000 -27.000000 3.000000  1.000000 0.000000 0.000000  0.738195 0.825545 0
sign_arrow_left
0  -6.000000 -27.000000 0.000000  0.000000 -1.000000 0.000000  0.523121 0.799047 0
0  -6.000000 -27.000000 3.000000  0.000000 -1.000000 0.000000  0.502444 0.799047 0
0  -24.000000 -27.000000 3.000000  0.000000 -1.000000 0.000000  0.502444 0.641026 0
sign_arrow_left
0  -24.000000 -25.000000 0.000000  0.000000 0.000000 -1.000000  0.758479 0.658583 0
0  -6.000000 -25.000000 0.000000  0.000000 0.000000 -1.000000  0.758479 0.816605 0
0  -6.000000 -27.000000 0.000000  0.000000 0.000000 -1.000000  0.741623 0.816605 0
sign_arrow_left
0  -6.000000 -25.000000 3.000000  0.000000 0.000000 1.000000  0.783916 0.658583 0
0  -24.000000 -25.000000 3.000000  0.000000 0.000000 1.000000  0.783916 0.816605 0
0  -24.000000 -27.000000 3.000000  0.000000 0.000000 1.000000  0.767061 0.816605 0
sign_arrow_left
0  -2.000000 28.000000 50.000000  0.000000 0.000000 1.000000  0.076004 0.825545 0
0  -6.000000 28.000000 50.000000  0.000000 0.000000 1.000000  0.076004 0.860661 0
0  -6.000000 24.000000 50.000000  0.000000 0.000000 1.000000  0.042293 0.860661 0
sign_arrow_left
0  -2.000000 28.000000 0.000000  1.000000 0.000000 0.000000  0.847375 0.438948 0
0  -2.000000 28.000000 50.000000  1.000000 0.000000 0.000000  0.847375 0.000000 0
0  -2.000000 24.000000 50.000000  1.000000 0.000000 0.000000  0.881086 0.000000 0
sign_arrow_left
0  -20.179388 -25.292892 1.669783  0.000000 1.000000 -0.000000  0.531703 0.820911 0
0  -5.918203 -25.292892 19.222010  0.000000 1.000000 -0.000001  0.531703 0.643275 0
0  -4.820612 -25.292892 18.330217  0.000000 1.000000 -0.000001  0.542597 0.641026 0
sign_arrow_left
0  -24.000000 25.000000 0.000000  -1.000000 0.000000 0.000000  0.746777 0.851882 0
0  -24.000000 25.000000 3.000000  -1.000000 0.000000 0.000000  0.746777 0.825545 0
0  -24.000000 27.000000 3.000000  -1.000000 0.000000 0.000000  0.763632 0.825545 0
sign_arrow_left
0  -6.000000 28.000000 0.000000  0.000000 1.000000 0.000000  0.337725 1.000000 0
0  -6.000000 28.000000 50.000000  0.000000 1.000000 0.000000  0.337725 0.641026 0
0  -2.000000 28.000000 50.000000  0.000000 1.000000 0.000000  0.371436 0.641026 0
sign_arrow_left
0  -19.081799 -25.292892 0.777990  0.776114 0.000001 -0.630593  0.889668 0.795116 0
0  -4.820612 -25.292892 18.330217  0.776114 0.000000 -0.630592  0.889668 0.641026 0
0  -4.820611 -26.707108 18.330217  0.776114 0.000000 -0.630592  0.901586 0.641026 0
sign_arrow_left
0  -4.820612 -25.292892 18.330217  0.630592 0.000000 0.776114  0.009250 0.906758 0
0  -5.918203 -25.292892 19.222010  0.630592 0.000000 0.776114  0.000000 0.906758 0
0  -5.918202 -26.707108 19.222010  0.630592 0.000000 0.776114  0.000000 0.894342 0
sign_arrow_left
0  -6.000000 24.000000 0.000000  -1.000000 0.000000 0.000000  0.847375 0.886837 0
0  -6.000000 24.000000 50.000000  -1.000000 0.000000 0.000000  0.847375 0.447888 0
0  -6.000000 28.000000 50.000000  -1.000000 0.000000 0.000000  0.881086 0.447888 0
sign_arrow_left
0  -19.081797 -26.707108 0.777990  0.000000 -1.000000 -0.000002  0.607411 0.915713 0
0  -4.820611 -26.707108 18.330217  0.000000 -1.000000 -0.000000  0.607411 0.738077 0
0  -5.918202 -26.707108 19.222010  0.000000 -1.000000 -0.000000  0.618305 0.740326 0
sign_arrow_left
0  -6.000000 28.000000 0.000000  0.000000 0.000000 -1.000000  0.118296 0.825545 0
0  -2.000000 28.000000 0.000000  0.000000 0.000000 -1.000000  0.118296 0.860661 0
0  -2.000000 24.000000 0.000000  0.000000 0.000000 -1.000000  0.084586 0.860661 0
sign_arrow_left
0  -2.000000 24.000000 0.000000  0.000000 -1.000000 0.000000  0.380018 1.000000 0
0  -2.000000 24.000000 50.000000  0.000000 -1.000000 0.000000  0.380018 0.641025 0
0  -6.000000 24.000000 50.000000  0.000000 -1.000000 0.000000  0.413729 0.641025 0
sign_arrow_left
0  -20.179388 -26.707108 1.669783  -0.776114 0.000000 0.630593  0.889668 0.958146 0
0  -5.918202 -26.707108 19.222010  -0.776113 0.000000 0.630594  0.889668 0.804056 0
0  -5.918203 -25.292892 19.222010  -0.776113 0.000000 0.630594  0.901586 0.804056 0
sign_arrow_left
0  -20.179388 -25.292892 1.669783  -0.630593 0.000000 -0.776114  0.769132 0.897979 0
0  -19.081799 -25.292892 0.777990  -0.630593 0.000000 -0.776114  0.759882 0.897979 0
0  -19.081797 -26.707108 0.777990  -0.630593 0.000000 -0.776114  0.759881 0.885563 0
sign_arrow_left
0  -24.000000 27.000000 0.000000  0.000000 1.000000 0.000000  0.703782 0.816605 0
0  -24.000000 27.000000 3.000000  0.000000 1.000000 0.000000  0.683106 0.816605 0
0  -6.000000 27.000000 3.000000  0.000000 1.000000 0.000000  0.683106 0.658583 0
sign_arrow_left
0  -6.000000 27.000000 0.000000  1.000000 0.000000 0.000000  0.772214 0.851882 0
0  -6.000000 27.000000 3.000000  1.000000 0.000000 0.000000  0.772214 0.825545 0
0  -6.000000 25.000000 3.000000  1.000000 0.000000 0.000000  0.789070 0.825545 0
sign_arrow_left
0  -6.000000 25.000000 0.000000  0.000000 -1.000000 0.000000  0.733041 0.816605 0
0  -6.000000 25.000000 3.000000  0.000000 -1.000000 0.000000  0.712364 0.816605 0
0  -24.000000 25.000000 3.000000  0.000000 -1.000000 0.000000  0.712364 0.658583 0
sign_arrow_left
0  -24.000000 27.000000 0.000000  0.000000 0.000000 -1.000000  0.573391 0.738077 0
0  -6.000000 27.000000 0.000000  0.000000 0.000000 -1.000000  0.573391 0.896098 0
0  -6.000000 25.000000 0.000000  0.000000 0.000000 -1.000000  0.556536 0.896098 0
sign_arrow_left
0  -6.000000 27.000000 3.000000  0.000000 0.000000 1.000000  0.598829 0.738077 0
0  -24.000000 27.000000 3.000000  0.000000 0.000000 1.000000  0.598829 0.896098 0
0  -24.000000 25.000000 3.000000  0.000000 0.000000 1.000000  0.581973 0.896098 0
sign_arrow_left
0  -20.179388 26.707108 1.669783  0.000000 1.000000 -0.000000  0.646363 0.917962 0
0  -5.918203 26.707108 19.222010  0.000000 1.000000 -0.000000  0.646363 0.740326 0
0  -4.820612 26.707108 18.330217  0.000000 1.000000 -0.000000  0.657258 0.738077 0
sign_arrow_left
0  -19.081799 26.707108 0.777990  0.776114 0.000001 -0.630593  0.910168 0.795116 0
0  -4.820612 26.707108 18.330217  0.776114 0.000000 -0.630592  0.910168 0.641026 0
0  -4.820611 25.292892 18.330217  0.776114 0.000000 -0.630592  0.922087 0.641026 0
sign_arrow_left
0  -4.820612 26.707108 18.330217  0.630592 0.000000 0.776115  0.027082 0.906758 0
0  -5.918203 26.707108 19.222010  0.630592 0.000000 0.776114  0.017832 0.906758 0
0  -5.918202 25.292892 19.222010  0.630592 0.000000 0.776115  0.017832 0.894342 0
sign_arrow_left
0  -19.081797 25.292892 0.777990  0.000000 -1.000000 0.000000  0.626887 0.915713 0
0  -4.820611 25.292892 18.330217  0.000000 -1.000000 0.000001  0.626887 0.738077 0
0  -5.918202 25.292892 19.222010  0.000000 -1.000000 0.000001  0.637781 0.740326 0
sign_arrow_left
0  -20.179388 25.292892 1.669783  -0.776114 0.000000 0.630593  0.910168 0.958146 0
0  -5.918202 25.292892 19.222010  -0.776114 0.000000 0.630592  0.910168 0.804056 0
0  -5.918203 26.707108 19.222010  -0.776114 0.000000 0.630592  0.922087 0.804056 0
sign_arrow_left
0  -20.179388 26.707108 1.669783  -0.630593 0.000000 -0.776114  0.786964 0.897979 0
0  -19.081799 26.707108 0.777990  -0.630593 0.000000 -0.776114  0.777714 0.897979 0
0  -19.081797 25.292892 0.777990  -0.630593 0.000000 -0.776114  0.777714 0.885563 0
sign_arrow_left
0  0.000000 -25.100000 20.000000  0.000000 0.866025 -0.500001  0.832359 0.895776 0
0  0.600000 -25.100000 20.000000  0.000000 0.866025 -0.500001  0.837416 0.895776 0
0  0.600000 -25.549999 19.220577  0.000000 0.866025 -0.500001  0.837416 0.903646 0
sign_arrow_left
0  0.000000 -25.549999 19.220577  0.000000 0.000000 -1.000000  0.464561 0.887610 0
0  0.600000 -25.549999 19.220577  0.000000 0.000000 -1.000000  0.459505 0.887610 0
0  0.600000 -26.450001 19.220577  0.000000 0.000000 -1.000000  0.459505 0.879709 0
sign_arrow_left
0  0.000000 26.900000 20.000000  0.000000 0.866025 -0.500001  0.845998 0.895777 0
0  0.600000 26.900000 20.000000  0.000000 0.866025 -0.500001  0.851055 0.895777 0
0  0.600000 26.450001 19.220577  0.000000 0.866025 -0.500001  0.851055 0.903646 0
sign_arrow_left
0  0.000000 -25.100000 40.000000  0.000000 0.866025 -0.500001  0.859637 0.895777 0
0  0.600000 -25.100000 40.000000  0.000000 0.866025 -0.500001  0.864694 0.895777 0
0  0.600000 -25.549999 39.220577  0.000000 0.866025 -0.500001  0.864694 0.903646 0
sign_arrow_left
0  0.000000 -26.450001 19.220577  0.000000 -0.866025 -0.500001  0.670896 0.903916 0
0  0.600000 -26.450001 19.220577  0.000000 -0.866025 -0.500001  0.665840 0.903916 0
0  0.600000 -26.900000 20.000000  0.000000 -0.866025 -0.500001  0.665840 0.896047 0
sign_arrow_left
0  0.000000 26.900000 40.000000  0.000000 0.866025 -0.500001  0.459505 0.896550 0
0  0.600000 26.900000 40.000000  0.000000 0.866025 -0.500001  0.464561 0.896550 0
0  0.600000 26.450001 39.220577  0.000000 0.866025 -0.500001  0.464561 0.904419 0
sign_arrow_left
0  0.000000 -26.900000 20.000000  0.000000 -0.866025 0.500001  0.588870 0.912907 0
0  0.600000 -26.900000 20.000000  0.000000 -0.866025 0.500001  0.583814 0.912907 0
0  0.600000 -26.450001 20.779423  0.000000 -0.866025 0.500001  0.583814 0.905038 0
sign_arrow_left
0  0.600000 -26.450001 19.220577  1.000000 0.000000 0.000000  0.773019 0.864772 0
0  0.600000 -25.549999 19.220577  1.000000 0.000000 0.000000  0.773019 0.872673 0
0  0.600000 -25.100000 20.000000  1.000000 0.000000 0.000000  0.766450 0.876624 0
sign_arrow_left
0  0.600000 -25.100000 20.000000  1.000000 0.000000 0.000000  0.766450 0.876624 0
0  0.600000 -25.549999 20.779423  1.000000 0.000000 0.000000  0.759881 0.872673 0
0  0.600000 -26.450001 20.779423  1.000000 0.000000 0.000000  0.759881 0.864772 0
sign_arrow_left
0  0.600000 -26.450001 20.779423  1.000000 0.000000 0.000000  0.759881 0.864772 0
0  0.600000 -26.900000 20.000000  1.000000 0.000000 0.000000  0.766450 0.860821 0
0  0.600000 -25.100000 20.000000  1.000000 0.000000 0.000000  0.766450 0.876624 0
sign_arrow_left
0  -0.000000 -26.450001 20.779423  0.000000 0.000000 1.000000  0.035665 0.894342 0
0  0.600000 -26.450001 20.779423  0.000000 0.000000 1.000000  0.040721 0.894342 0
0  0.600000 -25.549999 20.779423  0.000000 0.000000 1.000000  0.040721 0.902243 0
sign_arrow_left
0  0.000000 -26.450001 39.220577  0.000000 -0.866025 -0.500001  0.113654 0.909235 0
0  0.600000 -26.450001 39.220577  0.000000 -0.866025 -0.500001  0.108598 0.909235 0
0  0.600000 -26.900000 40.000000  0.000000 -0.866025 -0.500001  0.108598 0.901366 0
sign_arrow_left
0  0.000000 -25.549999 39.220577  0.000000 0.000000 -1.000000  0.054360 0.902243 0
0  0.600000 -25.549999 39.220577  0.000000 0.000000 -1.000000  0.049303 0.902243 0
0  0.600000 -26.450001 39.220577  0.000000 0.000000 -1.000000  0.049303 0.894342 0
sign_arrow_left
0  -0.000000 -25.549999 20.779423  0.000000 0.866026 0.499998  0.773520 0.906919 0
0  0.600000 -25.549999 20.779423  0.000000 0.866027 0.499998  0.778577 0.906919 0
0  0.600000 -25.100000 20.000000  0.000000 0.866027 0.499998  0.778577 0.914788 0
sign_arrow_left
0  -0.000000 -25.549999 20.779423  -1.000000 0.000000 -0.000000  0.781601 0.864772 0
0  0.000000 -25.100000 20.000000  -1.000000 0.000000 -0.000000  0.788170 0.860821 0
0  0.000000 -26.900000 20.000000  -1.000000 0.000000 -0.000000  0.788170 0.876624 0
sign_arrow_left
0  0.000000 -25.100000 20.000000  -1.000000 0.000000 -0.000000  0.788170 0.860821 0
0  0.000000 -25.549999 19.220577  -1.000000 0.000000 -0.000000  0.794738 0.864772 0
0  0.000000 -26.900000 20.000000  -1.000000 0.000000 -0.000000  0.788170 0.876624 0
sign_arrow_left
0  0.000000 -25.549999 19.220577  -1.000000 0.000000 -0.000000  0.794738 0.864772 0
0  0.000000 -26.450001 19.220577  -1.000000 0.000000 -0.000000  0.794738 0.872673 0
0  0.000000 -26.900000 20.000000  -1.000000 0.000000 -0.000000  0.788170 0.876624 0
sign_arrow_left
0  0.000000 -26.900000 40.000000  0.000000 -0.866025 0.500001  0.427367 0.912320 0
0  0.600000 -26.900000 40.000000  0.000000 -0.866025 0.500001  0.422311 0.912320 0
0  0.600000 -26.450001 40.779423  0.000000 -0.866025 0.500001  0.422311 0.904451 0
sign_arrow_left
0  0.600000 -26.900000 40.000000  1.000000 0.000000 0.000000  0.013137 0.881452 0
0  0.600000 -26.450001 39.220577  1.000000 0.000000 0.000000  0.006569 0.885403 0
0  0.600000 -25.549999 39.220577  1.000000 0.000000 0.000000  0.000000 0.881452 0
sign_arrow_left
0  0.600000 -25.549999 39.220577  1.000000 0.000000 0.000000  0.000000 0.881452 0
0  0.600000 -25.100000 40.000000  1.000000 0.000000 0.000000  0.000000 0.873551 0
0  0.600000 -26.900000 40.000000  1.000000 0.000000 0.000000  0.013137 0.881452 0
sign_arrow_left
0  0.600000 -25.100000 40.000000  1.000000 0.000000 0.000000  0.000000 0.873551 0
0  0.600000 -25.549999 40.779423  1.000000 0.000000 0.000000  0.006569 0.869600 0
0  0.600000 -26.900000 40.000000  1.000000 0.000000 0.000000  0.013137 0.881452 0
sign_arrow_left
0  -0.000000 -26.450001 40.779423  0.000000 0.000000 1.000000  0.062942 0.894342 0
0  0.600000 -26.450001 40.779423  0.000000 0.000000 1.000000  0.067999 0.894342 0
0  0.600000 -25.549999 40.779423  0.000000 0.000000 1.000000  0.067999 0.902243 0
sign_arrow_left
0  0.000000 25.549999 19.220577  0.000000 -0.866025 -0.500000  0.478242 0.912747 0
0  0.600000 25.549999 19.220577  0.000000 -0.866027 -0.499998  0.473186 0.912747 0
0  0.600000 25.100000 20.000000  0.000000 -0.866025 -0.500001  0.473186 0.904877 0
sign_arrow_left
0  0.000000 26.450001 19.220577  0.000000 0.000000 -1.000000  0.081637 0.902243 0
0  0.600000 26.450001 19.220577  0.000000 0.000000 -1.000000  0.076581 0.902243 0
0  0.600000 25.549999 19.220577  0.000000 0.000000 -1.000000  0.076581 0.894342 0
sign_arrow_left
0  -0.000000 -25.549999 40.779423  0.000000 0.866026 0.499998  0.486824 0.904877 0
0  0.600000 -25.549999 40.779423  0.000000 0.866027 0.499998  0.491881 0.904877 0
0  0.600000 -25.100000 40.000000  0.000000 0.866027 0.499998  0.491881 0.912746 0
sign_arrow_left
0  0.000000 -26.450001 39.220577  -1.000000 0.000000 -0.000000  0.028288 0.885403 0
0  0.000000 -26.900000 40.000000  -1.000000 0.000000 -0.000000  0.021720 0.881452 0
0  0.000000 -25.100000 40.000000  -1.000000 0.000000 -0.000000  0.034857 0.873551 0
sign_arrow_left
0  0.000000 -26.900000 40.000000  -1.000000 0.000000 -0.000000  0.021720 0.881452 0
0  -0.000000 -26.450001 40.779423  -1.000000 0.000000 -0.000000  0.021720 0.873551 0
0  0.000000 -25.100000 40.000000  -1.000000 0.000000 -0.000000  0.034857 0.873551 0
sign_arrow_left
0  -0.000000 -26.450001 40.779423  -1.000000 0.000000 -0.000000  0.021720 0.873551 0
0  -0.000000 -25.549999 40.779423  -1.000000 0.000000 -0.000000  0.028288 0.869600 0
0  0.000000 -25.100000 40.000000  -1.000000 0.000000 -0.000000  0.034857 0.873551 0
sign_arrow_left
0  0.000000 25.100000 20.000000  0.000000 -0.866026 0.499999  0.792216 0.914788 0
0  0.600000 25.100000 20.000000  0.000000 -0.866025 0.500001  0.787159 0.914788 0
0  0.600000 25.549999 20.779423  0.000000 -0.866027 0.499997  0.787159 0.906919 0
sign_arrow_left
0  0.600000 25.549999 19.220577  1.000000 0.000000 0.000000  0.056577 0.873551 0
0  0.600000 26.450001 19.220577  1.000000 0.000000 0.000000  0.056577 0.881452 0
0  0.600000 26.900000 20.000000  1.000000 0.000000 0.000000  0.050008 0.885403 0
sign_arrow_left
0  0.600000 26.900000 20.000000  1.000000 0.000000 0.000000  0.050008 0.885403 0
0  0.600000 26.450001 20.779423  1.000000 0.000000 0.000000  0.043439 0.881452 0
0  0.600000 25.549999 20.779423  1.000000 0.000000 0.000000  0.043439 0.873551 0
sign_arrow_left
0  0.600000 25.549999 20.779423  1.000000 0.000000 0.000000  0.043439 0.873551 0
0  0.600000 25.100000 20.000000  1.000000 0.000000 0.000000  0.050008 0.869600 0
0  0.600000 26.900000 20.000000  1.000000 0.000000 0.000000  0.050008 0.885403 0
sign_arrow_left
0  -0.000000 25.549999 20.779423  0.000000 0.000000 1.000000  0.090219 0.894342 0
0  0.600000 25.549999 20.779423  0.000000 0.000000 1.000000  0.095276 0.894342 0
0  0.600000 26.450001 20.779423  0.000000 0.000000 1.000000  0.095276 0.902243 0
sign_arrow_left
0  0.000000 25.549999 39.220577  0.000000 -0.866025 -0.500000  0.505520 0.912747 0
0  0.600000 25.549999 39.220577  0.000000 -0.866027 -0.499998  0.500463 0.912747 0
0  0.600000 25.100000 40.000000  0.000000 -0.866025 -0.500001  0.500463 0.904877 0
sign_arrow_left
0  0.000000 26.450001 39.220577  0.000000 0.000000 -1.000000  0.810139 0.903678 0
0  0.600000 26.450001 39.220577  0.000000 0.000000 -1.000000  0.805082 0.903678 0
0  0.600000 25.549999 39.220577  0.000000 0.000000 -1.000000  0.805082 0.895776 0
sign_arrow_left
0  -0.000000 26.450001 20.779423  0.000000 0.866025 0.500001  0.759881 0.906919 0
0  0.600000 26.450001 20.779423  0.000000 0.866025 0.500001  0.764938 0.906919 0
0  0.600000 26.900000 20.000000  0.000000 0.866025 0.500001  0.764938 0.914788 0
sign_arrow_left
0  0.000000 26.450001 19.220577  -1.000000 0.000000 -0.000000  0.078296 0.873551 0
0  0.000000 25.549999 19.220577  -1.000000 0.000000 -0.000000  0.078296 0.881452 0
0  0.000000 25.100000 20.000000  -1.000000 0.000000 -0.000000  0.071727 0.885403 0
sign_arrow_left
0  0.000000 25.100000 20.000000  -1.000000 0.000000 -0.000000  0.071727 0.885403 0
0  -0.000000 25.549999 20.779423  -1.000000 0.000000 -0.000000  0.065159 0.881452 0
0  -0.000000 26.450001 20.779423  -1.000000 0.000000 -0.000000  0.065159 0.873551 0
sign_arrow_left
0  -0.000000 26.450001 20.779423  -1.000000 0.000000 -0.000000  0.065159 0.873551 0
0  0.000000 26.900000 20.000000  -1.000000 0.000000 -0.000000  0.071727 0.869600 0
0  0.000000 25.100000 20.000000  -1.000000 0.000000 -0.000000  0.071727 0.885403 0
sign_arrow_left
0  0.000000 25.100000 40.000000  0.000000 -0.866026 0.499999  0.561593 0.912907 0
0  0.600000 25.100000 40.000000  0.000000 -0.866025 0.500001  0.556536 0.912907 0
0  0.600000 25.549999 40.779423  0.000000 -0.866027 0.499997  0.556536 0.905038 0
sign_arrow_left
0  0.000000 26.900000 40.000000  -1.000000 0.000000 -0.000000  0.100016 0.881452 0
0  0.000000 26.450001 39.220577  -1.000000 0.000000 -0.000000  0.093447 0.885403 0
0  0.000000 25.549999 39.220577  -1.000000 0.000000 -0.000000  0.086878 0.881452 0
sign_arrow_left
0  0.000000 25.549999 39.220577  -1.000000 0.000000 -0.000000  0.086878 0.881452 0
0  0.000000 25.100000 40.000000  -1.000000 0.000000 -0.000000  0.086878 0.873551 0
0  0.000000 26.900000 40.000000  -1.000000 0.000000 -0.000000  0.100016 0.881452 0
sign_arrow_left
0  0.000000 25.100000 40.000000  -1.000000 0.000000 -0.000000  0.086878 0.873551 0
0  -0.000000 25.549999 40.779423  -1.000000 0.000000 -0.000000  0.093447 0.869600 0
0  0.000000 26.900000 40.000000  -1.000000 0.000000 -0.000000  0.100016 0.881452 0
sign_arrow_left
0  -0.000000 25.549999 40.779423  0.000000 0.000000 1.000000  0.818721 0.895776 0
0  0.600000 25.549999 40.779423  0.000000 0.000000 1.000000  0.823777 0.895776 0
0  0.600000 26.450001 40.779423  0.000000 0.000000 1.000000  0.823777 0.903678 0
sign_arrow_left
0  -0.000000 26.450001 40.779423  0.000000 0.866025 0.500001  0.570175 0.905038 0
0  0.600000 26.450001 40.779423  0.000000 0.866025 0.500001  0.575231 0.905038 0
0  0.600000 26.900000 40.000000  0.000000 0.866025 0.500001  0.575231 0.912907 0
sign_arrow_left
0  0.600000 25.549999 40.779423  1.000000 0.000000 0.000000  0.428880 0.879709 0
0  0.600000 25.100000 40.000000  1.000000 0.000000 0.000000  0.435448 0.883660 0
0  0.600000 26.900000 40.000000  1.000000 0.000000 0.000000  0.422311 0.891561 0
sign_arrow_left
0  0.600000 25.100000 40.000000  1.000000 0.000000 0.000000  0.435448 0.883660 0
0  0.600000 25.549999 39.220577  1.000000 0.000000 0.000000  0.435448 0.891561 0
0  0.600000 26.900000 40.000000  1.000000 0.000000 0.000000  0.422311 0.891561 0
sign_arrow_left
0  0.600000 25.549999 39.220577  1.000000 0.000000 0.000000  0.435448 0.891561 0
0  0.600000 26.450001 39.220577  1.000000 0.000000 0.000000  0.428879 0.895511 0
0  0.600000 26.900000 40.000000  1.000000 0.000000 0.000000  0.422311 0.891561 0
sign_arrow_left
0  0.000000 -13.500000 40.000000  -1.000000 0.000000 0.000000  0.632385 0.000000 0
0  0.000000 -8.500000 40.000000  -1.000000 0.000000 0.000000  0.674524 0.000000 0
0  0.000000 -17.500000 30.000000  -1.000000 0.000000 0.000000  0.598674 0.087790 0
sign_arrow_left
0  0.500000 -22.500000 30.000000  1.000000 0.000000 0.000000  0.674524 0.272309 0
0  0.500000 -17.500000 30.000000  1.000000 0.000000 0.000000  0.632385 0.272309 0
0  0.500000 -8.500000 40.000000  1.000000 0.000000 0.000000  0.556536 0.184519 0
sign_arrow_left
0  0.000000 -22.500000 30.000000  0.000000 0.000000 -1.000000  0.535917 0.829851 0
0  0.000000 -17.500000 30.000000  0.000000 0.000000 -1.000000  0.535917 0.873746 0
0  0.500000 -17.500000 30.000000  0.000000 0.000000 -1.000000  0.531703 0.873746 0
sign_arrow_left
0  0.000000 -17.500000 30.000000  0.000000 0.743294 -0.668965  0.665840 0.855342 0
0  0.000000 -8.500000 40.000000  0.000000 0.743294 -0.668965  0.665840 0.738077 0
0  0.500000 -8.500000 40.000000  0.000000 0.743294 -0.668965  0.670053 0.738077 0
sign_arrow_left
0  0.000000 -8.500000 40.000000  0.000000 0.000000 1.000000  0.473186 0.895937 0
0  0.000000 -13.500000 40.000000  0.000000 0.000000 1.000000  0.473186 0.852043 0
0  0.500000 -13.500000 40.000000  0.000000 0.000000 1.000000  0.477400 0.852043 0
sign_arrow_left
0  0.000000 -13.500000 40.000000  0.000000 -0.743294 0.668965  0.207868 0.825545 0
0  0.000000 -22.500000 30.000000  0.000000 -0.743294 0.668965  0.207868 0.942810 0
0  0.500000 -22.500000 30.000000  0.000000 -0.743294 0.668965  0.203654 0.942810 0
sign_arrow_left
0  0.000000 -13.500000 20.000000  -1.000000 0.000000 0.000000  0.632385 0.175579 0
0  0.000000 -22.500000 30.000000  -1.000000 0.000000 0.000000  0.556536 0.087790 0
0  0.000000 -17.500000 30.000000  -1.000000 0.000000 0.000000  0.598674 0.087790 0
sign_arrow_left
0  0.500000 -22.500000 30.000000  1.000000 0.000000 0.000000  0.674524 0.272309 0
0  0.500000 -13.500000 20.000000  1.000000 0.000000 0.000000  0.598674 0.360099 0
0  0.500000 -8.500000 20.000000  1.000000 0.000000 0.000000  0.556536 0.360099 0
sign_arrow_left
0  0.000000 -17.500000 30.000000  0.000000 0.743294 0.668965  0.515479 0.807987 0
0  0.500000 -17.500000 30.000000  0.000000 0.743294 0.668965  0.519692 0.807987 0
0  0.500000 -8.500000 20.000000  0.000000 0.743294 0.668965  0.519692 0.925252 0
sign_arrow_left
0  0.000000 -8.500000 20.000000  0.000000 0.000000 -1.000000  0.490196 0.895937 0
0  0.500000 -8.500000 20.000000  0.000000 0.000000 -1.000000  0.485982 0.895937 0
0  0.500000 -13.500000 20.000000  0.000000 0.000000 -1.000000  0.485982 0.852043 0
sign_arrow_left
0  0.000000 -13.500000 20.000000  0.000000 -0.743294 -0.668965  0.220664 0.942810 0
0  0.500000 -13.500000 20.000000  0.000000 -0.743294 -0.668965  0.216450 0.942810 0
0  0.500000 -22.500000 30.000000  0.000000 -0.743294 -0.668965  0.216450 0.825545 0
sign_arrow_left
0  0.000000 4.500000 40.000000  -1.000000 0.000000 0.000000  0.632385 0.369038 0
0  0.000000 9.500000 40.000000  -1.000000 0.000000 0.000000  0.674524 0.369038 0
0  0.000000 0.500000 30.000000  -1.000000 0.000000 0.000000  0.598674 0.456828 0
sign_arrow_left
0  0.500000 -4.500000 30.000000  1.000000 0.000000 0.000000  0.674524 0.641347 0
0  0.500000 0.500000 30.000000  1.000000 0.000000 0.000000  0.632385 0.641347 0
0  0.500000 9.500000 40.000000  1.000000 0.000000 0.000000  0.556536 0.553558 0
sign_arrow_left
0  0.000000 -4.500000 30.000000  0.000000 0.000000 -1.000000  0.502991 0.852043 0
0  0.000000 0.500000 30.000000  0.000000 0.000000 -1.000000  0.502991 0.895937 0
0  0.500000 0.500000 30.000000  0.000000 0.000000 -1.000000  0.498778 0.895937 0
sign_arrow_left
0  0.000000 0.500000 30.000000  0.000000 0.743294 -0.668965  0.126879 0.942810 0
0  0.000000 9.500000 40.000000  0.000000 0.743294 -0.668965  0.126879 0.825545 0
0  0.500000 9.500000 40.000000  0.000000 0.743294 -0.668965  0.131092 0.825545 0
sign_arrow_left
0  0.000000 9.500000 40.000000  0.000000 0.000000 1.000000  0.695902 0.904716 0
0  0.000000 4.500000 40.000000  0.000000 0.000000 1.000000  0.695902 0.860821 0
0  0.500000 4.500000 40.000000  0.000000 0.000000 1.000000  0.700116 0.860821 0
sign_arrow_left
0  0.000000 4.500000 40.000000  0.000000 -0.743294 0.668965  0.143888 0.825545 0
0  0.000000 -4.500000 30.000000  0.000000 -0.743294 0.668965  0.143888 0.942810 0
0  0.500000 -4.500000 30.000000  0.000000 -0.743294 0.668965  0.139674 0.942810 0
sign_arrow_left
0  0.000000 4.500000 20.000000  -1.000000 0.000000 0.000000  0.632385 0.544618 0
0  0.000000 -4.500000 30.000000  -1.000000 0.000000 0.000000  0.556536 0.456828 0
0  0.000000 0.500000 30.000000  -1.000000 0.000000 0.000000  0.598674 0.456828 0
sign_arrow_left
0  0.500000 -4.500000 30.000000  1.000000 0.000000 0.000000  0.674524 0.641347 0
0  0.500000 4.500000 20.000000  1.000000 0.000000 0.000000  0.598674 0.729137 0
0  0.500000 9.500000 20.000000  1.000000 0.000000 0.000000  0.556536 0.729137 0
sign_arrow_left
0  0.000000 0.500000 30.000000  0.000000 0.743294 0.668965  0.152470 0.825545 0
0  0.500000 0.500000 30.000000  0.000000 0.743294 0.668965  0.156684 0.825545 0
0  0.500000 9.500000 20.000000  0.000000 0.743294 0.668965  0.156684 0.942810 0
sign_arrow_left
0  0.000000 9.500000 20.000000  0.000000 0.000000 -1.000000  0.712911 0.904716 0
0  0.500000 9.500000 20.000000  0.000000 0.000000 -1.000000  0.708698 0.904716 0
0  0.500000 4.500000 20.000000  0.000000 0.000000 -1.000000  0.708698 0.860821 0
sign_arrow_left
0  0.000000 4.500000 20.000000  0.000000 -0.743294 -0.668965  0.169480 0.942810 0
0  0.500000 4.500000 20.000000  0.000000 -0.743294 -0.668965  0.165266 0.942810 0
0  0.500000 -4.500000 30.000000  0.000000 -0.743294 -0.668965  0.165266 0.825545 0
sign_arrow_left
0  0.000000 22.500000 40.000000  -1.000000 0.000000 0.000000  0.075849 0.641026 0
0  0.000000 27.500000 40.000000  -1.000000 0.000000 0.000000  0.117988 0.641026 0
0  0.000000 18.500000 30.000000  -1.000000 0.000000 0.000000  0.042138 0.728815 0
sign_arrow_left
0  0.500000 13.500000 30.000000  1.000000 0.000000 0.000000  0.244557 0.728815 0
0  0.500000 18.500000 30.000000  1.000000 0.000000 0.000000  0.202419 0.728815 0
0  0.500000 27.500000 40.000000  1.000000 0.000000 0.000000  0.126570 0.641026 0
sign_arrow_left
0  0.000000 13.500000 30.000000  0.000000 0.000000 -1.000000  0.725707 0.860821 0
0  0.000000 18.500000 30.000000  0.000000 0.000000 -1.000000  0.725707 0.904716 0
0  0.500000 18.500000 30.000000  0.000000 0.000000 -1.000000  0.721494 0.904716 0
sign_arrow_left
0  0.000000 18.500000 30.000000  0.000000 0.743294 -0.668965  0.229246 0.942810 0
0  0.000000 27.500000 40.000000  0.000000 0.743294 -0.668965  0.229246 0.825545 0
0  0.500000 27.500000 40.000000  0.000000 0.743294 -0.668965  0.233460 0.825545 0
sign_arrow_left
0  0.000000 27.500000 40.000000  0.000000 0.000000 1.000000  0.734290 0.904716 0
0  0.000000 22.500000 40.000000  0.000000 0.000000 1.000000  0.734290 0.860821 0
0  0.500000 22.500000 40.000000  0.000000 0.000000 1.000000  0.738503 0.860821 0
sign_arrow_left
0  0.000000 22.500000 40.000000  0.000000 -0.743294 0.668965  0.687320 0.825545 0
0  0.000000 13.500000 30.000000  0.000000 -0.743294 0.668965  0.687320 0.942810 0
0  0.500000 13.500000 30.000000  0.000000 -0.743294 0.668965  0.683106 0.942810 0
sign_arrow_left
0  0.000000 22.500000 20.000000  -1.000000 0.000000 0.000000  0.075849 0.816605 0
0  0.000000 13.500000 30.000000  -1.000000 0.000000 0.000000  0.000000 0.728815 0
0  0.000000 18.500000 30.000000  -1.000000 0.000000 0.000000  0.042138 0.728815 0
sign_arrow_left
0  0.500000 13.500000 30.000000  1.000000 0.000000 0.000000  0.244557 0.728815 0
0  0.500000 22.500000 20.000000  1.000000 0.000000 0.000000  0.168708 0.816605 0
0  0.500000 27.500000 20.000000  1.000000 0.000000 0.000000  0.126570 0.816605 0
sign_arrow_left
0  0.000000 18.500000 30.000000  0.000000 0.743294 0.668965  0.190858 0.825545 0
0  0.500000 18.500000 30.000000  0.000000 0.743294 0.668965  0.195072 0.825545 0
0  0.500000 27.500000 20.000000  0.000000 0.743294 0.668965  0.195072 0.942810 0
sign_arrow_left
0  0.000000 27.500000 20.000000  0.000000 0.000000 -1.000000  0.751299 0.904716 0
0  0.500000 27.500000 20.000000  0.000000 0.000000 -1.000000  0.747086 0.904716 0
0  0.500000 22.500000 20.000000  0.000000 0.000000 -1.000000  0.747086 0.860821 0
sign_arrow_left
0  0.000000 22.500000 20.000000  0.000000 -0.743294 -0.668965  0.182276 0.942810 0
0  0.500000 22.500000 20.000000  0.000000 -0.743294 -0.668965  0.178062 0.942810 0
0  0.500000 13.500000 30.000000  0.000000 -0.743294 -0.668965  0.178062 0.825545 0
end
