version 1
nodes
0 "root" -1
end
skeleton
time 0
0 0 0 0 0 0 0
end
triangles
ramp_medium
0  64.000000 64.000000 0.000000  0.577339 0.577339 -0.577372  0.500000 1.000000 0
0  -64.000000 64.000000 0.000000  -0.836683 0.537915 -0.103000  0.500000 0.500000 0
0  64.000000 64.000000 32.000000  0.507503 0.565542 0.650079  0.625000 1.000000 0
ramp_medium
0  64.000000 64.000000 32.000000  0.507503 0.565542 0.650079  0.625000 1.000000 0
0  64.000000 -64.000000 0.000000  0.577335 -0.577358 -0.577358  0.750000 0.500000 0
0  64.000000 64.000000 0.000000  0.577339 0.577339 -0.577372  0.750000 1.000000 0
ramp_medium
0  64.000000 64.000000 0.000000  0.577339 0.577339 -0.577372  1.000000 0.500000 0
0  -64.000000 -64.000000 0.000000  -0.836696 -0.537894 -0.103003  0.500000 0.000000 0
0  -64.000000 64.000000 0.000000  -0.836683 0.537915 -0.103000  1.000000 0.000000 0
ramp_medium
0  64.000000 64.000000 32.000000  0.507503 0.565542 0.650079  0.500000 0.000000 0
0  -64.000000 64.000000 0.000000  -0.836683 0.537915 -0.103000  0.500000 0.515388 0
0  -64.000000 -64.000000 0.000000  -0.836696 -0.537894 -0.103003  0.000000 0.515388 0
ramp_medium
0  64.000000 64.000000 32.000000  0.507503 0.565542 0.650079  0.625000 1.000000 0
0  64.000000 -64.000000 32.000000  0.507541 -0.565545 0.650047  0.625000 0.500000 0
0  64.000000 -64.000000 0.000000  0.577335 -0.577358 -0.577358  0.750000 0.500000 0
ramp_medium
0  64.000000 64.000000 0.000000  0.577339 0.577339 -0.577372  1.000000 0.500000 0
0  64.000000 -64.000000 0.000000  0.577335 -0.577358 -0.577358  0.500000 0.500000 0
0  -64.000000 -64.000000 0.000000  -0.836696 -0.537894 -0.103003  0.500000 0.000000 0
ramp_medium
0  -64.000000 -64.000000 0.000000  -0.836696 -0.537894 -0.103003  0.750000 1.000000 0
0  64.000000 -64.000000 0.000000  0.577335 -0.577358 -0.577358  0.750000 0.500000 0
0  64.000000 -64.000000 32.000000  0.507541 -0.565545 0.650047  0.875000 0.500000 0
ramp_medium
0  64.000000 64.000000 32.000000  0.507503 0.565542 0.650079  0.500000 0.000000 0
0  -64.000000 -64.000000 0.000000  -0.836696 -0.537894 -0.103003  0.000000 0.515388 0
0  64.000000 -64.000000 32.000000  0.507541 -0.565545 0.650047  0.000000 0.000000 0
end
