version 1
nodes
0 "root" -1
end
skeleton
time 0
0 0 0 0 0 0 0
end
triangles
sign_hazard
0  -2.000000 -36.000000 14.000000  -1.000000 0.000000 0.000000  0.290218 0.716392 0
0  -2.000000 36.000000 46.000000  -1.000000 0.000000 0.000000  0.000000 0.000000 0
0  -2.000000 36.000000 14.000000  -1.000000 0.000000 0.000000  0.290218 0.000000 0
sign_hazard
0  -2.000000 36.000000 14.000000  0.000000 1.000000 0.000000  0.000000 1.000000 0
0  0.000000 36.000000 46.000000  0.000000 1.000000 0.000000  0.018139 0.724260 0
0  0.000000 36.000000 14.000000  0.000000 1.000000 0.000000  0.018139 1.000000 0
sign_hazard
0  0.000000 36.000000 14.000000  1.000000 0.000000 0.000000  0.587608 0.716392 0
0  0.000000 -36.000000 46.000000  1.000000 0.000000 0.000000  0.297390 0.000000 0
0  0.000000 -36.000000 14.000000  1.000000 0.000000 0.000000  0.587608 0.000000 0
sign_hazard
0  0.000000 -36.000000 14.000000  0.000000 -1.000000 0.000000  0.025311 1.000000 0
0  -2.000000 -36.000000 46.000000  0.000000 -1.000000 0.000000  0.043449 0.724260 0
0  -2.000000 -36.000000 14.000000  0.000000 -1.000000 0.000000  0.043449 1.000000 0
sign_hazard
0  -2.000000 36.000000 14.000000  0.000000 0.000000 -1.000000  0.909724 0.716392 0
0  0.000000 -36.000000 14.000000  0.000000 0.000000 -1.000000  0.891586 0.000000 0
0  -2.000000 -36.000000 14.000000  0.000000 0.000000 -1.000000  0.909724 0.000000 0
sign_hazard
0  0.000000 36.000000 46.000000  0.000000 0.000000 1.000000  0.935035 0.716392 0
0  -2.000000 -36.000000 46.000000  0.000000 0.000000 1.000000  0.916896 0.000000 0
0  0.000000 -36.000000 46.000000  0.000000 0.000000 1.000000  0.935035 0.000000 0
sign_hazard
0  -2.300000 -37.000000 13.000000  -1.000000 0.000000 0.000000  0.983759 0.736292 0
0  -2.300000 37.000000 14.000000  -1.000000 0.000000 0.000000  0.974689 0.000000 0
0  -2.300000 37.000000 13.000000  -1.000000 0.000000 0.000000  0.983759 0.000000 0
sign_hazard
0  -2.300000 37.000000 13.000000  0.000000 1.000000 0.000000  0.697446 0.807748 0
0  0.300000 37.000000 14.000000  0.000000 1.000000 0.000000  0.689591 0.781878 0
0  0.300000 37.000000 13.000000  0.000000 1.000000 0.000000  0.697446 0.781878 0
sign_hazard
0  0.300000 37.000000 13.000000  1.000000 0.000000 0.000000  1.000000 0.736292 0
0  0.300000 -37.000000 14.000000  1.000000 0.000000 0.000000  0.990931 0.000000 0
0  0.300000 -37.000000 13.000000  1.000000 0.000000 0.000000  1.000000 0.000000 0
sign_hazard
0  0.300000 -37.000000 13.000000  0.000000 -1.000000 0.000000  0.569892 0.813626 0
0  -2.300000 -37.000000 14.000000  0.000000 -1.000000 0.000000  0.562037 0.787756 0
0  -2.300000 -37.000000 13.000000  0.000000 -1.000000 0.000000  0.569892 0.787756 0
sign_hazard
0  -2.300000 37.000000 13.000000  0.000000 0.000000 -1.000000  0.618360 0.736292 0
0  0.300000 -37.000000 13.000000  0.000000 0.000000 -1.000000  0.594780 0.000000 0
0  -2.300000 -37.000000 13.000000  0.000000 0.000000 -1.000000  0.618360 0.000000 0
sign_hazard
0  0.300000 37.000000 14.000000  0.000000 0.000000 1.000000  0.649113 0.736292 0
0  -2.300000 -37.000000 14.000000  0.000000 0.000000 1.000000  0.625532 0.000000 0
0  0.300000 -37.000000 14.000000  0.000000 0.000000 1.000000  0.649113 0.000000 0
sign_hazard
0  -2.300000 -37.000000 46.000000  -1.000000 0.000000 0.000000  0.951276 0.736292 0
0  -2.300000 37.000000 47.000000  -1.000000 0.000000 0.000000  0.942207 0.000000 0
0  -2.300000 37.000000 46.000000  -1.000000 0.000000 0.000000  0.951276 0.000000 0
sign_hazard
0  -2.300000 37.000000 46.000000  0.000000 1.000000 0.000000  0.667393 0.807748 0
0  0.300000 37.000000 47.000000  0.000000 1.000000 0.000000  0.659539 0.781878 0
0  0.300000 37.000000 46.000000  0.000000 1.000000 0.000000  0.667393 0.781878 0
sign_hazard
0  0.300000 37.000000 46.000000  1.000000 0.000000 0.000000  0.967517 0.736292 0
0  0.300000 -37.000000 47.000000  1.000000 0.000000 0.000000  0.958448 0.000000 0
0  0.300000 -37.000000 46.000000  1.000000 0.000000 0.000000  0.967517 0.000000 0
sign_hazard
0  0.300000 -37.000000 46.000000  0.000000 -1.000000 0.000000  0.682419 0.807748 0
0  -2.300000 -37.000000 47.000000  0.000000 -1.000000 0.000000  0.674565 0.781878 0
0  -2.300000 -37.000000 46.000000  0.000000 -1.000000 0.000000  0.682419 0.781878 0
sign_hazard
0  -2.300000 37.000000 46.000000  0.000000 0.000000 -1.000000  0.679865 0.736292 0
0  0.300000 -37.000000 46.000000  0.000000 0.000000 -1.000000  0.656285 0.000000 0
0  -2.300000 -37.000000 46.000000  0.000000 0.000000 -1.000000  0.679865 0.000000 0
sign_hazard
0  0.300000 37.000000 47.000000  0.000000 0.000000 1.000000  0.710617 0.736292 0
0  -2.300000 -37.000000 47.000000  0.000000 0.000000 1.000000  0.687037 0.000000 0
0  0.300000 -37.000000 47.000000  0.000000 0.000000 1.000000  0.710617 0.000000 0
sign_hazard
0  -6.000000 -28.000000 0.000000  -1.000000 0.000000 0.000000  0.717789 0.497495 0
0  -6.000000 -24.000000 50.000000  -1.000000 0.000000 0.000000  0.754066 0.000000 0
0  -6.000000 -24.000000 0.000000  -1.000000 0.000000 0.000000  0.754066 0.497495 0
sign_hazard
0  -6.000000 -24.000000 0.000000  0.000000 1.000000 0.000000  0.717789 0.936206 0
0  -2.000000 -24.000000 50.000000  0.000000 1.000000 0.000000  0.754066 0.505363 0
0  -2.000000 -24.000000 0.000000  0.000000 1.000000 0.000000  0.754066 0.936206 0
sign_hazard
0  -2.000000 -24.000000 0.000000  1.000000 0.000000 0.000000  0.761238 0.497495 0
0  -2.000000 -28.000000 50.000000  1.000000 0.000000 0.000000  0.797515 0.000000 0
0  -2.000000 -28.000000 0.000000  1.000000 0.000000 0.000000  0.797515 0.497495 0
sign_hazard
0  -2.000000 -28.000000 0.000000  0.000000 -1.000000 0.000000  0.761238 0.936206 0
0  -6.000000 -28.000000 50.000000  0.000000 -1.000000 0.000000  0.797515 0.505363 0
0  -6.000000 -28.000000 0.000000  0.000000 -1.000000 0.000000  0.797515 0.936206 0
sign_hazard
0  -6.000000 -24.000000 0.000000  0.000000 0.000000 -1.000000  0.467967 0.724260 0
0  -2.000000 -28.000000 0.000000  0.000000 0.000000 -1.000000  0.431690 0.764060 0
0  -6.000000 -28.000000 0.000000  0.000000 0.000000 -1.000000  0.431690 0.724260 0
sign_hazard
0  -2.000000 -24.000000 50.000000  0.000000 0.000000 1.000000  0.511416 0.724260 0
0  -6.000000 -28.000000 50.000000  0.000000 0.000000 1.000000  0.475139 0.764060 0
0  -2.000000 -28.000000 50.000000  0.000000 0.000000 1.000000  0.475139 0.724260 0
sign_hazard
0  -24.000000 -27.000000 0.000000  -1.000000 0.000000 0.000000  0.562038 0.754110 0
0  -24.000000 -25.000000 3.000000  -1.000000 0.000000 0.000000  0.580176 0.724260 0
0  -24.000000 -25.000000 0.000000  -1.000000 0.000000 0.000000  0.580176 0.754110 0
sign_hazard
0  -24.000000 -25.000000 0.000000  0.000000 1.000000 0.000000  0.074184 0.903358 0
0  -6.000000 -25.000000 3.000000  0.000000 1.000000 0.000000  0.050621 0.724260 0
0  -6.000000 -25.000000 0.000000  0.000000 1.000000 0.000000  0.074184 0.724260 0
sign_hazard
0  -6.000000 -25.000000 0.000000  1.000000 0.000000 0.000000  0.638229 0.774010 0
0  -6.000000 -27.000000 3.000000  1.000000 0.000000 0.000000  0.656368 0.744160 0
0  -6.000000 -27.000000 0.000000  1.000000 0.000000 0.000000  0.656368 0.774010 0
sign_hazard
0  -6.000000 -27.000000 0.000000  0.000000 -1.000000 0.000000  0.104919 0.903358 0
0  -24.000000 -27.000000 3.000000  0.000000 -1.000000 0.000000  0.081356 0.724260 0
0  -24.000000 -27.000000 0.000000  0.000000 -1.000000 0.000000  0.104919 0.724260 0
sign_hazard
0  -24.000000 -25.000000 0.000000  0.000000 0.000000 -1.000000  0.191699 0.724260 0
0  -6.000000 -27.000000 0.000000  0.000000 0.000000 -1.000000  0.173560 0.903358 0
0  -24.000000 -27.000000 0.000000  0.000000 0.000000 -1.000000  0.173560 0.724260 0
sign_hazard
0  -6.000000 -25.000000 3.000000  0.000000 0.000000 1.000000  0.217009 0.724260 0
0  -24.000000 -27.000000 3.000000  0.000000 0.000000 1.000000  0.198871 0.903358 0
0  -6.000000 -27.000000 3.000000  0.000000 0.000000 1.000000  0.198871 0.724260 0
sign_hazard
0  -2.000000 28.000000 50.000000  0.000000 0.000000 1.000000  0.554866 0.724260 0
0  -6.000000 24.000000 50.000000  0.000000 0.000000 1.000000  0.518588 0.764060 0
0  -2.000000 24.000000 50.000000  0.000000 0.000000 1.000000  0.518588 0.724260 0
sign_hazard
0  -2.000000 28.000000 0.000000  1.000000 0.000000 0.000000  0.804687 0.497495 0
0  -2.000000 24.000000 50.000000  1.000000 0.000000 0.000000  0.840964 0.000000 0
0  -2.000000 24.000000 0.000000  1.000000 0.000000 0.000000  0.840964 0.497495 0
sign_hazard
0  -20.179388 -25.292892 1.669783  0.000000 1.000000 -0.000000  0.294026 0.933517 0
0  -4.820612 -25.292892 18.330217  0.000000 1.000000 -0.000001  0.306078 0.724260 0
0  -19.081799 -25.292892 0.777990  0.000000 1.000000 0.000000  0.306078 0.931649 0
sign_hazard
0  -24.000000 25.000000 0.000000  -1.000000 0.000000 0.000000  0.663540 0.774010 0
0  -24.000000 27.000000 3.000000  -1.000000 0.000000 0.000000  0.681679 0.744160 0
0  -24.000000 27.000000 0.000000  -1.000000 0.000000 0.000000  0.681679 0.774010 0
sign_hazard
0  -6.000000 28.000000 0.000000  0.000000 1.000000 0.000000  0.804687 0.936206 0
0  -2.000000 28.000000 50.000000  0.000000 1.000000 0.000000  0.840964 0.505363 0
0  -2.000000 28.000000 0.000000  0.000000 1.000000 0.000000  0.840964 0.936206 0
sign_hazard
0  -19.081799 -25.292892 0.777990  0.776114 0.000001 -0.630593  0.351698 0.898903 0
0  -4.820611 -26.707108 18.330217  0.776114 0.000000 -0.630592  0.364524 0.724260 0
0  -19.081797 -26.707108 0.777990  0.776114 0.000001 -0.630593  0.364524 0.898903 0
sign_hazard
0  -4.820612 -25.292892 18.330217  0.630592 0.000000 0.776114  0.621861 0.805899 0
0  -5.918202 -26.707108 19.222010  0.630592 0.000000 0.776114  0.611907 0.791828 0
0  -4.820611 -26.707108 18.330217  0.630593 0.000000 0.776114  0.621861 0.791828 0
sign_hazard
0  -6.000000 24.000000 0.000000  -1.000000 0.000000 0.000000  0.848136 0.497495 0
0  -6.000000 28.000000 50.000000  -1.000000 0.000000 0.000000  0.884414 0.000000 0
0  -6.000000 28.000000 0.000000  -1.000000 0.000000 0.000000  0.884414 0.497495 0
sign_hazard
0  -19.081797 -26.707108 0.777990  0.000000 -1.000000 -0.000002  0.313250 0.931649 0
0  -5.918202 -26.707108 19.222010  0.000000 -1.000000 -0.000000  0.325302 0.726129 0
0  -20.179388 -26.707108 1.669783  0.000000 -1.000000 -0.000002  0.325302 0.933517 0
sign_hazard
0  -6.000000 28.000000 0.000000  0.000000 0.000000 -1.000000  0.631057 0.744160 0
0  -2.000000 24.000000 0.000000  0.000000 0.000000 -1.000000  0.594780 0.783960 0
0  -6.000000 24.000000 0.000000  0.000000 0.000000 -1.000000  0.594780 0.744160 0
sign_hazard
0  -2.000000 24.000000 0.000000  0.000000 -1.000000 0.000000  0.848136 0.936206 0
0  -6.000000 24.000000 50.000000  0.000000 -1.000000 0.000000  0.884414 0.505363 0
0  -6.000000 24.000000 0.000000  0.000000 -1.000000 0.000000  0.884414 0.936206 0
sign_hazard
0  -20.179388 -26.707108 1.669783  -0.776114 0.000000 0.630593  0.371696 0.898903 0
0  -5.918203 -25.292892 19.222010  -0.776113 0.000000 0.630594  0.384522 0.724260 0
0  -20.179388 -25.292892 1.669783  -0.776114 0.000000 0.630593  0.384522 0.898903 0
sign_hazard
0  -20.179388 -25.292892 1.669783  -0.630593 0.000000 -0.776114  0.587018 0.801828 0
0  -19.081797 -26.707108 0.777990  -0.630593 0.000000 -0.776114  0.577064 0.787756 0
0  -20.179388 -26.707108 1.669783  -0.630592 0.000000 -0.776114  0.587018 0.787756 0
sign_hazard
0  -24.000000 27.000000 0.000000  0.000000 1.000000 0.000000  0.135653 0.903358 0
0  -6.000000 27.000000 3.000000  0.000000 1.000000 0.000000  0.112091 0.724260 0
0  -6.000000 27.000000 0.000000  0.000000 1.000000 0.000000  0.135653 0.724260 0
sign_hazard
0  -6.000000 27.000000 0.000000  1.000000 0.000000 0.000000  0.688850 0.774010 0
0  -6.000000 25.000000 3.000000  1.000000 0.000000 0.000000  0.706989 0.744160 0
0  -6.000000 25.000000 0.000000  1.000000 0.000000 0.000000  0.706989 0.774010 0
sign_hazard
0  -6.000000 25.000000 0.000000  0.000000 -1.000000 0.000000  0.166388 0.903358 0
0  -24.000000 25.000000 3.000000  0.000000 -1.000000 0.000000  0.142825 0.724260 0
0  -24.000000 25.000000 0.000000  0.000000 -1.000000 0.000000  0.166388 0.724260 0
sign_hazard
0  -24.000000 27.000000 0.000000  0.000000 0.000000 -1.000000  0.242320 0.724260 0
0  -6.000000 25.000000 0.000000  0.000000 0.000000 -1.000000  0.224181 0.903358 0
0  -24.000000 25.000000 0.000000  0.000000 0.000000 -1.000000  0.224181 0.724260 0
sign_hazard
0  -6.000000 27.000000 3.000000  0.000000 0.000000 1.000000  0.267630 0.724260 0
0  -24.000000 25.000000 3.000000  0.000000 0.000000 1.000000  0.249492 0.903358 0
0  -6.000000 25.000000 3.000000  0.000000 0.000000 1.000000  0.249492 0.724260 0
sign_hazard
0  -20.179388 26.707108 1.669783  0.000000 1.000000 -0.000000  0.332474 0.933517 0
0  -4.820612 26.707108 18.330217  0.000000 1.000000 -0.000000  0.344526 0.724260 0
0  -19.081799 26.707108 0.777990  0.000000 1.000000 0.000000  0.344526 0.931649 0
sign_hazard
0  -19.081799 26.707108 0.777990  0.776114 0.000001 -0.630593  0.391694 0.898903 0
0  -4.820611 25.292892 18.330217  0.776114 0.000000 -0.630592  0.404520 0.724260 0
0  -19.081797 25.292892 0.777990  0.776114 0.000001 -0.630593  0.404520 0.898903 0
sign_hazard
0  -4.820612 26.707108 18.330217  0.630592 0.000000 0.776115  0.441644 0.811778 0
0  -5.918202 25.292892 19.222010  0.630592 0.000000 0.776115  0.431690 0.797706 0
0  -4.820611 25.292892 18.330217  0.630592 0.000000 0.776115  0.441644 0.797706 0
sign_hazard
0  -19.081797 25.292892 0.777990  0.000000 -1.000000 0.000000  0.274802 0.931649 0
0  -5.918202 25.292892 19.222010  0.000000 -1.000000 0.000001  0.286854 0.726128 0
0  -20.179388 25.292892 1.669783  0.000000 -1.000000 0.000000  0.286854 0.933517 0
sign_hazard
0  -20.179388 25.292892 1.669783  -0.776114 0.000000 0.630593  0.411692 0.898903 0
0  -5.918203 26.707108 19.222010  -0.776114 0.000000 0.630592  0.424518 0.724260 0
0  -20.179388 26.707108 1.669783  -0.776114 0.000000 0.630593  0.424518 0.898903 0
sign_hazard
0  -20.179388 26.707108 1.669783  -0.630593 0.000000 -0.776114  0.604735 0.805899 0
0  -19.081797 25.292892 0.777990  -0.630593 0.000000 -0.776114  0.594780 0.791828 0
0  -20.179388 25.292892 1.669783  -0.630592 0.000000 -0.776114  0.604735 0.791828 0
sign_hazard
0  0.000000 -25.100000 20.000000  0.000000 0.866025 -0.500001  0.511884 0.814530 0
0  0.600000 -25.549999 19.220577  0.000000 0.866025 -0.500001  0.517325 0.823484 0
0  0.000000 -25.549999 19.220577  0.000000 0.866025 -0.500001  0.511884 0.823484 0
sign_hazard
0  0.000000 -25.549999 19.220577  0.000000 0.000000 -1.000000  0.466871 0.806661 0
0  0.600000 -26.450001 19.220577  0.000000 0.000000 -1.000000  0.461430 0.797706 0
0  0.000000 -26.450001 19.220577  0.000000 0.000000 -1.000000  0.466871 0.797706 0
sign_hazard
0  0.000000 26.900000 20.000000  0.000000 0.866025 -0.500001  0.537111 0.814530 0
0  0.600000 26.450001 19.220577  0.000000 0.866025 -0.500001  0.542552 0.823484 0
0  0.000000 26.450001 19.220577  0.000000 0.866025 -0.500001  0.537111 0.823484 0
sign_hazard
0  0.000000 -25.100000 40.000000  0.000000 0.866025 -0.500001  0.461430 0.814529 0
0  0.600000 -25.549999 39.220577  0.000000 0.866025 -0.500001  0.466871 0.823484 0
0  0.000000 -25.549999 39.220577  0.000000 0.866025 -0.500001  0.461430 0.823484 0
sign_hazard
0  0.000000 -26.450001 19.220577  0.000000 -0.866025 -0.500001  0.710059 0.824480 0
0  0.600000 -26.900000 20.000000  0.000000 -0.866025 -0.500001  0.704618 0.815525 0
0  0.000000 -26.900000 20.000000  0.000000 -0.866025 -0.500001  0.710059 0.815525 0
sign_hazard
0  0.000000 26.900000 40.000000  0.000000 0.866025 -0.500001  0.474043 0.797706 0
0  0.600000 26.450001 39.220577  0.000000 0.866025 -0.500001  0.479485 0.806661 0
0  0.000000 26.450001 39.220577  0.000000 0.866025 -0.500001  0.474043 0.806661 0
sign_hazard
0  0.000000 -26.900000 20.000000  0.000000 -0.866025 0.500001  0.625449 0.822722 0
0  0.600000 -26.450001 20.779423  0.000000 -0.866025 0.500001  0.620007 0.813768 0
0  -0.000000 -26.450001 20.779423  0.000000 -0.866025 0.500001  0.625449 0.813768 0
sign_hazard
0  0.600000 -26.900000 20.000000  1.000000 0.000000 0.000000  0.569106 0.761978 0
0  0.600000 -26.450001 19.220577  1.000000 0.000000 0.000000  0.576175 0.766456 0
0  0.600000 -25.100000 20.000000  1.000000 0.000000 0.000000  0.569106 0.779888 0
sign_hazard
0  -0.000000 -26.450001 20.779423  0.000000 0.000000 1.000000  0.486657 0.797706 0
0  0.600000 -25.549999 20.779423  0.000000 0.000000 1.000000  0.492098 0.806661 0
0  -0.000000 -25.549999 20.779423  0.000000 0.000000 1.000000  0.486657 0.806661 0
sign_hazard
0  0.000000 -26.450001 39.220577  0.000000 -0.866025 -0.500001  0.504712 0.806661 0
0  0.600000 -26.900000 40.000000  0.000000 -0.866025 -0.500001  0.499270 0.797706 0
0  0.000000 -26.900000 40.000000  0.000000 -0.866025 -0.500001  0.504712 0.797706 0
sign_hazard
0  0.000000 -25.549999 39.220577  0.000000 0.000000 -1.000000  0.517325 0.806661 0
0  0.600000 -26.450001 39.220577  0.000000 0.000000 -1.000000  0.511884 0.797706 0
0  0.000000 -26.450001 39.220577  0.000000 0.000000 -1.000000  0.517325 0.797706 0
sign_hazard
0  -0.000000 -25.549999 20.779423  0.000000 0.866026 0.499998  0.474043 0.814530 0
0  0.600000 -25.100000 20.000000  0.000000 0.866027 0.499998  0.479485 0.823484 0
0  0.000000 -25.100000 20.000000  0.000000 0.866027 0.499998  0.474043 0.823484 0
sign_hazard
0  0.000000 -26.900000 20.000000  -1.000000 0.000000 -0.000000  0.438759 0.789838 0
0  -0.000000 -26.450001 20.779423  -1.000000 0.000000 -0.000000  0.431690 0.785361 0
0  -0.000000 -25.549999 20.779423  -1.000000 0.000000 -0.000000  0.431690 0.776406 0
sign_hazard
0  0.000000 -26.900000 40.000000  0.000000 -0.866025 0.500001  0.710059 0.790833 0
0  0.600000 -26.450001 40.779423  0.000000 -0.866025 0.500001  0.704618 0.781878 0
0  -0.000000 -26.450001 40.779423  0.000000 -0.866025 0.500001  0.710059 0.781878 0
sign_hazard
0  0.600000 -25.549999 40.779423  1.000000 0.000000 0.000000  0.460068 0.771928 0
0  0.600000 -26.450001 40.779423  1.000000 0.000000 0.000000  0.467137 0.776406 0
0  0.600000 -26.900000 40.000000  1.000000 0.000000 0.000000  0.467137 0.785361 0
sign_hazard
0  -0.000000 -26.450001 40.779423  0.000000 0.000000 1.000000  0.524497 0.797706 0
0  0.600000 -25.549999 40.779423  0.000000 0.000000 1.000000  0.529939 0.806661 0
0  -0.000000 -25.549999 40.779423  0.000000 0.000000 1.000000  0.524497 0.806661 0
sign_hazard
0  0.000000 25.549999 19.220577  0.000000 -0.866025 -0.500000  0.529939 0.823484 0
0  0.600000 25.100000 20.000000  0.000000 -0.866025 -0.500001  0.524497 0.814530 0
0  0.000000 25.100000 20.000000  0.000000 -0.866023 -0.500003  0.529939 0.814530 0
sign_hazard
0  0.000000 26.450001 19.220577  0.000000 0.000000 -1.000000  0.542552 0.806661 0
0  0.600000 25.549999 19.220577  0.000000 0.000000 -1.000000  0.537111 0.797706 0
0  0.000000 25.549999 19.220577  0.000000 0.000000 -1.000000  0.542552 0.797706 0
sign_hazard
0  -0.000000 -25.549999 40.779423  0.000000 0.866026 0.499998  0.704618 0.798701 0
0  0.600000 -25.100000 40.000000  0.000000 0.866027 0.499998  0.710059 0.807656 0
0  0.000000 -25.100000 40.000000  0.000000 0.866027 0.499998  0.704618 0.807656 0
sign_hazard
0  0.000000 -25.100000 40.000000  -1.000000 0.000000 -0.000000  0.488447 0.776406 0
0  0.000000 -25.549999 39.220577  -1.000000 0.000000 -0.000000  0.488447 0.785361 0
0  0.000000 -26.450001 39.220577  -1.000000 0.000000 -0.000000  0.481378 0.789838 0
sign_hazard
0  0.000000 25.100000 20.000000  0.000000 -0.866026 0.499999  0.492098 0.823484 0
0  0.600000 25.549999 20.779423  0.000000 -0.866027 0.499997  0.486657 0.814530 0
0  -0.000000 25.549999 20.779423  0.000000 -0.866028 0.499995  0.492098 0.814530 0
sign_hazard
0  0.600000 25.100000 20.000000  1.000000 0.000000 0.000000  0.502688 0.771928 0
0  0.600000 25.549999 19.220577  1.000000 0.000000 0.000000  0.509756 0.776406 0
0  0.600000 26.900000 20.000000  1.000000 0.000000 0.000000  0.502688 0.789838 0
sign_hazard
0  -0.000000 25.549999 20.779423  0.000000 0.000000 1.000000  0.638229 0.807656 0
0  0.600000 26.450001 20.779423  0.000000 0.000000 1.000000  0.643671 0.816611 0
0  -0.000000 26.450001 20.779423  0.000000 0.000000 1.000000  0.638229 0.816611 0
sign_hazard
0  0.000000 25.549999 39.220577  0.000000 -0.866025 -0.500000  0.504712 0.823484 0
0  0.600000 25.100000 40.000000  0.000000 -0.866025 -0.500001  0.499270 0.814529 0
0  0.000000 25.100000 40.000000  0.000000 -0.866023 -0.500003  0.504712 0.814529 0
sign_hazard
0  0.000000 26.450001 39.220577  0.000000 0.000000 -1.000000  0.582505 0.818651 0
0  0.600000 25.549999 39.220577  0.000000 0.000000 -1.000000  0.577064 0.809696 0
0  0.000000 25.549999 39.220577  0.000000 0.000000 -1.000000  0.582505 0.809696 0
sign_hazard
0  -0.000000 26.450001 20.779423  0.000000 0.866025 0.500001  0.448816 0.814530 0
0  0.600000 26.900000 20.000000  0.000000 0.866025 0.500001  0.454258 0.823484 0
0  0.000000 26.900000 20.000000  0.000000 0.866025 0.500001  0.448816 0.823484 0
sign_hazard
0  0.000000 26.900000 20.000000  -1.000000 0.000000 -0.000000  0.523997 0.771928 0
0  0.000000 26.450001 19.220577  -1.000000 0.000000 -0.000000  0.531066 0.776406 0
0  0.000000 25.100000 20.000000  -1.000000 0.000000 -0.000000  0.523997 0.789838 0
sign_hazard
0  0.000000 25.100000 40.000000  0.000000 -0.866026 0.499999  0.600222 0.822722 0
0  0.600000 25.549999 40.779423  0.000000 -0.866027 0.499997  0.594780 0.813768 0
0  -0.000000 25.549999 40.779423  0.000000 -0.866028 0.499995  0.600222 0.813768 0
sign_hazard
0  -0.000000 25.549999 40.779423  -1.000000 0.000000 -0.000000  0.545307 0.771928 0
0  -0.000000 26.450001 40.779423  -1.000000 0.000000 -0.000000  0.552376 0.776406 0
0  0.000000 26.900000 40.000000  -1.000000 0.000000 -0.000000  0.552376 0.785361 0
sign_hazard
0  -0.000000 25.549999 40.779423  0.000000 0.000000 1.000000  0.607394 0.813768 0
0  0.600000 26.450001 40.779423  0.000000 0.000000 1.000000  0.612835 0.822722 0
0  -0.000000 26.450001 40.779423  0.000000 0.000000 1.000000  0.607394 0.822722 0
sign_hazard
0  -0.000000 26.450001 40.779423  0.000000 0.866025 0.500001  0.448816 0.797706 0
0  0.600000 26.900000 40.000000  0.000000 0.866025 0.500001  0.454258 0.806661 0
0  0.000000 26.900000 40.000000  0.000000 0.866025 0.500001  0.448816 0.806661 0
sign_hazard
0  0.600000 26.900000 40.000000  1.000000 0.000000 0.000000  0.638229 0.795310 0
0  0.600000 26.450001 40.779423  1.000000 0.000000 0.000000  0.638229 0.786356 0
0  0.600000 25.549999 40.779423  1.000000 0.000000 0.000000  0.645298 0.781878 0
sign_hazard
0  -2.000000 -36.000000 14.000000  -1.000000 0.000000 0.000000  0.290218 0.716392 0
0  -2.000000 -36.000000 46.000000  -1.000000 0.000000 0.000000  0.000000 0.716392 0
0  -2.000000 36.000000 46.000000  -1.000000 0.000000 0.000000  0.000000 0.000000 0
sign_hazard
0  -2.000000 36.000000 14.000000  0.000000 1.000000 0.000000  0.000000 1.000000 0
0  -2.000000 36.000000 46.000000  0.000000 1.000000 0.000000  0.000000 0.724260 0
0  0.000000 36.000000 46.000000  0.000000 1.000000 0.000000  0.018139 0.724260 0
sign_hazard
0  0.000000 36.000000 14.000000  1.000000 0.000000 0.000000  0.587608 0.716392 0
0  0.000000 36.000000 46.000000  1.000000 0.000000 0.000000  0.297390 0.716392 0
0  0.000000 -36.000000 46.000000  1.000000 0.000000 0.000000  0.297390 0.000000 0
sign_hazard
0  0.000000 -36.000000 14.000000  0.000000 -1.000000 0.000000  0.025311 1.000000 0
0  0.000000 -36.000000 46.000000  0.000000 -1.000000 0.000000  0.025311 0.724260 0
0  -2.000000 -36.000000 46.000000  0.000000 -1.000000 0.000000  0.043449 0.724260 0
sign_hazard
0  -2.000000 36.000000 14.000000  0.000000 0.000000 -1.000000  0.909724 0.716392 0
0  0.000000 36.000000 14.000000  0.000000 0.000000 -1.000000  0.891586 0.716392 0
0  0.000000 -36.000000 14.000000  0.000000 0.000000 -1.000000  0.891586 0.000000 0
sign_hazard
0  0.000000 36.000000 46.000000  0.000000 0.000000 1.000000  0.935035 0.716392 0
0  -2.000000 36.000000 46.000000  0.000000 0.000000 1.000000  0.916896 0.716392 0
0  -2.000000 -36.000000 46.000000  0.000000 0.000000 1.000000  0.916896 0.000000 0
sign_hazard
0  -2.300000 -37.000000 13.000000  -1.000000 0.000000 0.000000  0.983759 0.736292 0
0  -2.300000 -37.000000 14.000000  -1.000000 0.000000 0.000000  0.974689 0.736292 0
0  -2.300000 37.000000 14.000000  -1.000000 0.000000 0.000000  0.974689 0.000000 0
sign_hazard
0  -2.300000 37.000000 13.000000  0.000000 1.000000 0.000000  0.697446 0.807748 0
0  -2.300000 37.000000 14.000000  0.000000 1.000000 0.000000  0.689591 0.807748 0
0  0.300000 37.000000 14.000000  0.000000 1.000000 0.000000  0.689591 0.781878 0
sign_hazard
0  0.300000 37.000000 13.000000  1.000000 0.000000 0.000000  1.000000 0.736292 0
0  0.300000 37.000000 14.000000  1.000000 0.000000 0.000000  0.990931 0.736292 0
0  0.300000 -37.000000 14.000000  1.000000 0.000000 0.000000  0.990931 0.000000 0
sign_hazard
0  0.300000 -37.000000 13.000000  0.000000 -1.000000 0.000000  0.569892 0.813626 0
0  0.300000 -37.000000 14.000000  0.000000 -1.000000 0.000000  0.562037 0.813626 0
0  -2.300000 -37.000000 14.000000  0.000000 -1.000000 0.000000  0.562037 0.787756 0
sign_hazard
0  -2.300000 37.000000 13.000000  0.000000 0.000000 -1.000000  0.618360 0.736292 0
0  0.300000 37.000000 13.000000  0.000000 0.000000 -1.000000  0.594780 0.736292 0
0  0.300000 -37.000000 13.000000  0.000000 0.000000 -1.000000  0.594780 0.000000 0
sign_hazard
0  0.300000 37.000000 14.000000  0.000000 0.000000 1.000000  0.649113 0.736292 0
0  -2.300000 37.000000 14.000000  0.000000 0.000000 1.000000  0.625532 0.736292 0
0  -2.300000 -37.000000 14.000000  0.000000 0.000000 1.000000  0.625532 0.000000 0
sign_hazard
0  -2.300000 -37.000000 46.000000  -1.000000 0.000000 0.000000  0.951276 0.736292 0
0  -2.300000 -37.000000 47.000000  -1.000000 0.000000 0.000000  0.942207 0.736292 0
0  -2.300000 37.000000 47.000000  -1.000000 0.000000 0.000000  0.942207 0.000000 0
sign_hazard
0  -2.300000 37.000000 46.000000  0.000000 1.000000 0.000000  0.667393 0.807748 0
0  -2.300000 37.000000 47.000000  0.000000 1.000000 0.000000  0.659539 0.807748 0
0  0.300000 37.000000 47.000000  0.000000 1.000000 0.000000  0.659539 0.781878 0
sign_hazard
0  0.300000 37.000000 46.000000  1.000000 0.000000 0.000000  0.967517 0.736292 0
0  0.300000 37.000000 47.000000  1.000000 0.000000 0.000000  0.958448 0.736292 0
0  0.300000 -37.000000 47.000000  1.000000 0.000000 0.000000  0.958448 0.000000 0
sign_hazard
0  0.300000 -37.000000 46.000000  0.000000 -1.000000 0.000000  0.682419 0.807748 0
0  0.300000 -37.000000 47.000000  0.000000 -1.000000 0.000000  0.674565 0.807748 0
0  -2.300000 -37.000000 47.000000  0.000000 -1.000000 0.000000  0.674565 0.781878 0
sign_hazard
0  -2.300000 37.000000 46.000000  0.000000 0.000000 -1.000000  0.679865 0.736292 0
0  0.300000 37.000000 46.000000  0.000000 0.000000 -1.000000  0.656285 0.736292 0
0  0.300000 -37.000000 46.000000  0.000000 0.000000 -1.000000  0.656285 0.000000 0
sign_hazard
0  0.300000 37.000000 47.000000  0.000000 0.000000 1.000000  0.710617 0.736292 0
0  -2.300000 37.000000 47.000000  0.000000 0.000000 1.000000  0.687037 0.736292 0
0  -2.300000 -37.000000 47.000000  0.000000 0.000000 1.000000  0.687037 0.000000 0
sign_hazard
0  -6.000000 -28.000000 0.000000  -1.000000 0.000000 0.000000  0.717789 0.497495 0
0  -6.000000 -28.000000 50.000000  -1.000000 0.000000 0.000000  0.717789 0.000000 0
0  -6.000000 -24.000000 50.000000  -1.000000 0.000000 0.000000  0.754066 0.000000 0
sign_hazard
0  -6.000000 -24.000000 0.000000  0.000000 1.000000 0.000000  0.717789 0.936206 0
0  -6.000000 -24.000000 50.000000  0.000000 1.000000 0.000000  0.717789 0.505363 0
0  -2.000000 -24.000000 50.000000  0.000000 1.000000 0.000000  0.754066 0.505363 0
sign_hazard
0  -2.000000 -24.000000 0.000000  1.000000 0.000000 0.000000  0.761238 0.497495 0
0  -2.000000 -24.000000 50.000000  1.000000 0.000000 0.000000  0.761238 0.000000 0
0  -2.000000 -28.000000 50.000000  1.000000 0.000000 0.000000  0.797515 0.000000 0
sign_hazard
0  -2.000000 -28.000000 0.000000  0.000000 -1.000000 0.000000  0.761238 0.936206 0
0  -2.000000 -28.000000 50.000000  0.000000 -1.000000 0.000000  0.761238 0.505363 0
0  -6.000000 -28.000000 50.000000  0.000000 -1.000000 0.000000  0.797515 0.505363 0
sign_hazard
0  -6.000000 -24.000000 0.000000  0.000000 0.000000 -1.000000  0.467967 0.724260 0
0  -2.000000 -24.000000 0.000000  0.000000 0.000000 -1.000000  0.467967 0.764060 0
0  -2.000000 -28.000000 0.000000  0.000000 0.000000 -1.000000  0.431690 0.764060 0
sign_hazard
0  -2.000000 -24.000000 50.000000  0.000000 0.000000 1.000000  0.511416 0.724260 0
0  -6.000000 -24.000000 50.000000  0.000000 0.000000 1.000000  0.511416 0.764060 0
0  -6.000000 -28.000000 50.000000  0.000000 0.000000 1.000000  0.475139 0.764060 0
sign_hazard
0  -24.000000 -27.000000 0.000000  -1.000000 0.000000 0.000000  0.562038 0.754110 0
0  -24.000000 -27.000000 3.000000  -1.000000 0.000000 0.000000  0.562038 0.724260 0
0  -24.000000 -25.000000 3.000000  -1.000000 0.000000 0.000000  0.580176 0.724260 0
sign_hazard
0  -24.000000 -25.000000 0.000000  0.000000 1.000000 0.000000  0.074184 0.903358 0
0  -24.000000 -25.000000 3.000000  0.000000 1.000000 0.000000  0.050621 0.903358 0
0  -6.000000 -25.000000 3.000000  0.000000 1.000000 0.000000  0.050621 0.724260 0
sign_hazard
0  -6.000000 -25.000000 0.000000  1.000000 0.000000 0.000000  0.638229 0.774010 0
0  -6.000000 -25.000000 3.000000  1.000000 0.000000 0.000000  0.638229 0.744160 0
0  -6.000000 -27.000000 3.000000  1.000000 0.000000 0.000000  0.656368 0.744160 0
sign_hazard
0  -6.000000 -27.000000 0.000000  0.000000 -1.000000 0.000000  0.104919 0.903358 0
0  -6.000000 -27.000000 3.000000  0.000000 -1.000000 0.000000  0.081356 0.903358 0
0  -24.000000 -27.000000 3.000000  0.000000 -1.000000 0.000000  0.081356 0.724260 0
sign_hazard
0  -24.000000 -25.000000 0.000000  0.000000 0.000000 -1.000000  0.191699 0.724260 0
0  -6.000000 -25.000000 0.000000  0.000000 0.000000 -1.000000  0.191699 0.903358 0
0  -6.000000 -27.000000 0.000000  0.000000 0.000000 -1.000000  0.173560 0.903358 0
sign_hazard
0  -6.000000 -25.000000 3.000000  0.000000 0.000000 1.000000  0.217009 0.724260 0
0  -24.000000 -25.000000 3.000000  0.000000 0.000000 1.000000  0.217009 0.903358 0
0  -24.000000 -27.000000 3.000000  0.000000 0.000000 1.000000  0.198871 0.903358 0
sign_hazard
0  -2.000000 28.000000 50.000000  0.000000 0.000000 1.000000  0.554866 0.724260 0
0  -6.000000 28.000000 50.000000  0.000000 0.000000 1.000000  0.554865 0.764060 0
0  -6.000000 24.000000 50.000000  0.000000 0.000000 1.000000  0.518588 0.764060 0
sign_hazard
0  -2.000000 28.000000 0.000000  1.000000 0.000000 0.000000  0.804687 0.497495 0
0  -2.000000 28.000000 50.000000  1.000000 0.000000 0.000000  0.804687 0.000000 0
0  -2.000000 24.000000 50.000000  1.000000 0.000000 0.000000  0.840964 0.000000 0
sign_hazard
0  -20.179388 -25.292892 1.669783  0.000000 1.000000 -0.000000  0.294026 0.933517 0
0  -5.918203 -25.292892 19.222010  0.000000 1.000000 -0.000001  0.294026 0.726129 0
0  -4.820612 -25.292892 18.330217  0.000000 1.000000 -0.000001  0.306078 0.724260 0
sign_hazard
0  -24.000000 25.000000 0.000000  -1.000000 0.000000 0.000000  0.663540 0.774010 0
0  -24.000000 25.000000 3.000000  -1.000000 0.000000 0.000000  0.663540 0.744160 0
0  -24.000000 27.000000 3.000000  -1.000000 0.000000 0.000000  0.681679 0.744160 0
sign_hazard
0  -6.000000 28.000000 0.000000  0.000000 1.000000 0.000000  0.804687 0.936206 0
0  -6.000000 28.000000 50.000000  0.000000 1.000000 0.000000  0.804687 0.505363 0
0  -2.000000 28.000000 50.000000  0.000000 1.000000 0.000000  0.840964 0.505363 0
sign_hazard
0  -19.081799 -25.292892 0.777990  0.776114 0.000001 -0.630593  0.351698 0.898903 0
0  -4.820612 -25.292892 18.330217  0.776114 0.000000 -0.630592  0.351698 0.724260 0
0  -4.820611 -26.707108 18.330217  0.776114 0.000000 -0.630592  0.364524 0.724260 0
sign_hazard
0  -4.820612 -25.292892 18.330217  0.630592 0.000000 0.776114  0.621861 0.805899 0
0  -5.918203 -25.292892 19.222010  0.630592 0.000000 0.776114  0.611907 0.805899 0
0  -5.918202 -26.707108 19.222010  0.630592 0.000000 0.776114  0.611907 0.791828 0
sign_hazard
0  -6.000000 24.000000 0.000000  -1.000000 0.000000 0.000000  0.848136 0.497495 0
0  -6.000000 24.000000 50.000000  -1.000000 0.000000 0.000000  0.848136 0.000000 0
0  -6.000000 28.000000 50.000000  -1.000000 0.000000 0.000000  0.884414 0.000000 0
sign_hazard
0  -19.081797 -26.707108 0.777990  0.000000 -1.000000 -0.000002  0.313250 0.931649 0
0  -4.820611 -26.707108 18.330217  0.000000 -1.000000 -0.000000  0.313250 0.724260 0
0  -5.918202 -26.707108 19.222010  0.000000 -1.000000 -0.000000  0.325302 0.726129 0
sign_hazard
0  -6.000000 28.000000 0.000000  0.000000 0.000000 -1.000000  0.631057 0.744160 0
0  -2.000000 28.000000 0.000000  0.000000 0.000000 -1.000000  0.631057 0.783960 0
0  -2.000000 24.000000 0.000000  0.000000 0.000000 -1.000000  0.594780 0.783960 0
sign_hazard
0  -2.000000 24.000000 0.000000  0.000000 -1.000000 0.000000  0.848136 0.936206 0
0  -2.000000 24.000000 50.000000  0.000000 -1.000000 0.000000  0.848136 0.505363 0
0  -6.000000 24.000000 50.000000  0.000000 -1.000000 0.000000  0.884414 0.505363 0
sign_hazard
0  -20.179388 -26.707108 1.669783  -0.776114 0.000000 0.630593  0.371696 0.898903 0
0  -5.918202 -26.707108 19.222010  -0.776113 0.000000 0.630594  0.371696 0.724260 0
0  -5.918203 -25.292892 19.222010  -0.776113 0.000000 0.630594  0.384522 0.724260 0
sign_hazard
0  -20.179388 -25.292892 1.669783  -0.630593 0.000000 -0.776114  0.587018 0.801828 0
0  -19.081799 -25.292892 0.777990  -0.630593 0.000000 -0.776114  0.577064 0.801828 0
0  -19.081797 -26.707108 0.777990  -0.630593 0.000000 -0.776114  0.577064 0.787756 0
sign_hazard
0  -24.000000 27.000000 0.000000  0.000000 1.000000 0.000000  0.135653 0.903358 0
0  -24.000000 27.000000 3.000000  0.000000 1.000000 0.000000  0.112091 0.903358 0
0  -6.000000 27.000000 3.000000  0.000000 1.000000 0.000000  0.112091 0.724260 0
sign_hazard
0  -6.000000 27.000000 0.000000  1.000000 0.000000 0.000000  0.688850 0.774010 0
0  -6.000000 27.000000 3.000000  1.000000 0.000000 0.000000  0.688850 0.744160 0
0  -6.000000 25.000000 3.000000  1.000000 0.000000 0.000000  0.706989 0.744160 0
sign_hazard
0  -6.000000 25.000000 0.000000  0.000000 -1.000000 0.000000  0.166388 0.903358 0
0  -6.000000 25.000000 3.000000  0.000000 -1.000000 0.000000  0.142825 0.903358 0
0  -24.000000 25.000000 3.000000  0.000000 -1.000000 0.000000  0.142825 0.724260 0
sign_hazard
0  -24.000000 27.000000 0.000000  0.000000 0.000000 -1.000000  0.242320 0.724260 0
0  -6.000000 27.000000 0.000000  0.000000 0.000000 -1.000000  0.242320 0.903358 0
0  -6.000000 25.000000 0.000000  0.000000 0.000000 -1.000000  0.224181 0.903358 0
sign_hazard
0  -6.000000 27.000000 3.000000  0.000000 0.000000 1.000000  0.267630 0.724260 0
0  -24.000000 27.000000 3.000000  0.000000 0.000000 1.000000  0.267630 0.903358 0
0  -24.000000 25.000000 3.000000  0.000000 0.000000 1.000000  0.249492 0.903358 0
sign_hazard
0  -20.179388 26.707108 1.669783  0.000000 1.000000 -0.000000  0.332474 0.933517 0
0  -5.918203 26.707108 19.222010  0.000000 1.000000 -0.000000  0.332474 0.726129 0
0  -4.820612 26.707108 18.330217  0.000000 1.000000 -0.000000  0.344526 0.724260 0
sign_hazard
0  -19.081799 26.707108 0.777990  0.776114 0.000001 -0.630593  0.391694 0.898903 0
0  -4.820612 26.707108 18.330217  0.776114 0.000000 -0.630592  0.391694 0.724260 0
0  -4.820611 25.292892 18.330217  0.776114 0.000000 -0.630592  0.404520 0.724260 0
sign_hazard
0  -4.820612 26.707108 18.330217  0.630592 0.000000 0.776115  0.441644 0.811778 0
0  -5.918203 26.707108 19.222010  0.630592 0.000000 0.776114  0.431690 0.811778 0
0  -5.918202 25.292892 19.222010  0.630592 0.000000 0.776115  0.431690 0.797706 0
sign_hazard
0  -19.081797 25.292892 0.777990  0.000000 -1.000000 0.000000  0.274802 0.931649 0
0  -4.820611 25.292892 18.330217  0.000000 -1.000000 0.000001  0.274802 0.724260 0
0  -5.918202 25.292892 19.222010  0.000000 -1.000000 0.000001  0.286854 0.726128 0
sign_hazard
0  -20.179388 25.292892 1.669783  -0.776114 0.000000 0.630593  0.411692 0.898903 0
0  -5.918202 25.292892 19.222010  -0.776114 0.000000 0.630592  0.411692 0.724260 0
0  -5.918203 26.707108 19.222010  -0.776114 0.000000 0.630592  0.424518 0.724260 0
sign_hazard
0  -20.179388 26.707108 1.669783  -0.630593 0.000000 -0.776114  0.604735 0.805899 0
0  -19.081799 26.707108 0.777990  -0.630593 0.000000 -0.776114  0.594780 0.805899 0
0  -19.081797 25.292892 0.777990  -0.630593 0.000000 -0.776114  0.594780 0.791828 0
sign_hazard
0  0.000000 -25.100000 20.000000  0.000000 0.866025 -0.500001  0.511884 0.814530 0
0  0.600000 -25.100000 20.000000  0.000000 0.866025 -0.500001  0.517325 0.814530 0
0  0.600000 -25.549999 19.220577  0.000000 0.866025 -0.500001  0.517325 0.823484 0
sign_hazard
0  0.000000 -25.549999 19.220577  0.000000 0.000000 -1.000000  0.466871 0.806661 0
0  0.600000 -25.549999 19.220577  0.000000 0.000000 -1.000000  0.461430 0.806661 0
0  0.600000 -26.450001 19.220577  0.000000 0.000000 -1.000000  0.461430 0.797706 0
sign_hazard
0  0.000000 26.900000 20.000000  0.000000 0.866025 -0.500001  0.537111 0.814530 0
0  0.600000 26.900000 20.000000  0.000000 0.866025 -0.500001  0.542552 0.814530 0
0  0.600000 26.450001 19.220577  0.000000 0.866025 -0.500001  0.542552 0.823484 0
sign_hazard
0  0.000000 -25.100000 40.000000  0.000000 0.866025 -0.500001  0.461430 0.814529 0
0  0.600000 -25.100000 40.000000  0.000000 0.866025 -0.500001  0.466871 0.814529 0
0  0.600000 -25.549999 39.220577  0.000000 0.866025 -0.500001  0.466871 0.823484 0
sign_hazard
0  0.000000 -26.450001 19.220577  0.000000 -0.866025 -0.500001  0.710059 0.824480 0
0  0.600000 -26.450001 19.220577  0.000000 -0.866025 -0.500001  0.704618 0.824480 0
0  0.600000 -26.900000 20.000000  0.000000 -0.866025 -0.500001  0.704618 0.815525 0
sign_hazard
0  0.000000 26.900000 40.000000  0.000000 0.866025 -0.500001  0.474043 0.797706 0
0  0.600000 26.900000 40.000000  0.000000 0.866025 -0.500001  0.479485 0.797706 0
0  0.600000 26.450001 39.220577  0.000000 0.866025 -0.500001  0.479485 0.806661 0
sign_hazard
0  0.000000 -26.900000 20.000000  0.000000 -0.866025 0.500001  0.625449 0.822722 0
0  0.600000 -26.900000 20.000000  0.000000 -0.866025 0.500001  0.620007 0.822722 0
0  0.600000 -26.450001 20.779423  0.000000 -0.866025 0.500001  0.620007 0.813768 0
sign_hazard
0  0.600000 -26.450001 19.220577  1.000000 0.000000 0.000000  0.576175 0.766456 0
0  0.600000 -25.549999 19.220577  1.000000 0.000000 0.000000  0.576175 0.775411 0
0  0.600000 -25.100000 20.000000  1.000000 0.000000 0.000000  0.569106 0.779888 0
sign_hazard
0  0.600000 -25.100000 20.000000  1.000000 0.000000 0.000000  0.569106 0.779888 0
0  0.600000 -25.549999 20.779423  1.000000 0.000000 0.000000  0.562037 0.775411 0
0  0.600000 -26.450001 20.779423  1.000000 0.000000 0.000000  0.562037 0.766456 0
sign_hazard
0  0.600000 -26.450001 20.779423  1.000000 0.000000 0.000000  0.562037 0.766456 0
0  0.600000 -26.900000 20.000000  1.000000 0.000000 0.000000  0.569106 0.761978 0
0  0.600000 -25.100000 20.000000  1.000000 0.000000 0.000000  0.569106 0.779888 0
sign_hazard
0  -0.000000 -26.450001 20.779423  0.000000 0.000000 1.000000  0.486657 0.797706 0
0  0.600000 -26.450001 20.779423  0.000000 0.000000 1.000000  0.492098 0.797706 0
0  0.600000 -25.549999 20.779423  0.000000 0.000000 1.000000  0.492098 0.806661 0
sign_hazard
0  0.000000 -26.450001 39.220577  0.000000 -0.866025 -0.500001  0.504712 0.806661 0
0  0.600000 -26.450001 39.220577  0.000000 -0.866025 -0.500001  0.499270 0.806661 0
0  0.600000 -26.900000 40.000000  0.000000 -0.866025 -0.500001  0.499270 0.797706 0
sign_hazard
0  0.000000 -25.549999 39.220577  0.000000 0.000000 -1.000000  0.517325 0.806661 0
0  0.600000 -25.549999 39.220577  0.000000 0.000000 -1.000000  0.511884 0.806661 0
0  0.600000 -26.450001 39.220577  0.000000 0.000000 -1.000000  0.511884 0.797706 0
sign_hazard
0  -0.000000 -25.549999 20.779423  0.000000 0.866026 0.499998  0.474043 0.814530 0
0  0.600000 -25.549999 20.779423  0.000000 0.866027 0.499998  0.479485 0.814530 0
0  0.600000 -25.100000 20.000000  0.000000 0.866027 0.499998  0.479485 0.823484 0
sign_hazard
0  -0.000000 -25.549999 20.779423  -1.000000 0.000000 -0.000000  0.431690 0.776406 0
0  0.000000 -25.100000 20.000000  -1.000000 0.000000 -0.000000  0.438759 0.771928 0
0  0.000000 -26.900000 20.000000  -1.000000 0.000000 -0.000000  0.438759 0.789838 0
sign_hazard
0  0.000000 -25.100000 20.000000  -1.000000 0.000000 -0.000000  0.438759 0.771928 0
0  0.000000 -25.549999 19.220577  -1.000000 0.000000 -0.000000  0.445828 0.776406 0
0  0.000000 -26.900000 20.000000  -1.000000 0.000000 -0.000000  0.438759 0.789838 0
sign_hazard
0  0.000000 -25.549999 19.220577  -1.000000 0.000000 -0.000000  0.445828 0.776406 0
0  0.000000 -26.450001 19.220577  -1.000000 0.000000 -0.000000  0.445828 0.785361 0
0  0.000000 -26.900000 20.000000  -1.000000 0.000000 -0.000000  0.438759 0.789838 0
sign_hazard
0  0.000000 -26.900000 40.000000  0.000000 -0.866025 0.500001  0.710059 0.790833 0
0  0.600000 -26.900000 40.000000  0.000000 -0.866025 0.500001  0.704618 0.790833 0
0  0.600000 -26.450001 40.779423  0.000000 -0.866025 0.500001  0.704618 0.781878 0
sign_hazard
0  0.600000 -26.900000 40.000000  1.000000 0.000000 0.000000  0.467137 0.785361 0
0  0.600000 -26.450001 39.220577  1.000000 0.000000 0.000000  0.460068 0.789838 0
0  0.600000 -25.549999 39.220577  1.000000 0.000000 0.000000  0.453000 0.785361 0
sign_hazard
0  0.600000 -25.549999 39.220577  1.000000 0.000000 0.000000  0.453000 0.785361 0
0  0.600000 -25.100000 40.000000  1.000000 0.000000 0.000000  0.453000 0.776406 0
0  0.600000 -26.900000 40.000000  1.000000 0.000000 0.000000  0.467137 0.785361 0
sign_hazard
0  0.600000 -25.100000 40.000000  1.000000 0.000000 0.000000  0.453000 0.776406 0
0  0.600000 -25.549999 40.779423  1.000000 0.000000 0.000000  0.460068 0.771928 0
0  0.600000 -26.900000 40.000000  1.000000 0.000000 0.000000  0.467137 0.785361 0
sign_hazard
0  -0.000000 -26.450001 40.779423  0.000000 0.000000 1.000000  0.524497 0.797706 0
0  0.600000 -26.450001 40.779423  0.000000 0.000000 1.000000  0.529939 0.797706 0
0  0.600000 -25.549999 40.779423  0.000000 0.000000 1.000000  0.529939 0.806661 0
sign_hazard
0  0.000000 25.549999 19.220577  0.000000 -0.866025 -0.500000  0.529939 0.823484 0
0  0.600000 25.549999 19.220577  0.000000 -0.866027 -0.499998  0.524497 0.823484 0
0  0.600000 25.100000 20.000000  0.000000 -0.866025 -0.500001  0.524497 0.814530 0
sign_hazard
0  0.000000 26.450001 19.220577  0.000000 0.000000 -1.000000  0.542552 0.806661 0
0  0.600000 26.450001 19.220577  0.000000 0.000000 -1.000000  0.537111 0.806661 0
0  0.600000 25.549999 19.220577  0.000000 0.000000 -1.000000  0.537111 0.797706 0
sign_hazard
0  -0.000000 -25.549999 40.779423  0.000000 0.866026 0.499998  0.704618 0.798701 0
0  0.600000 -25.549999 40.779423  0.000000 0.866027 0.499998  0.710059 0.798701 0
0  0.600000 -25.100000 40.000000  0.000000 0.866027 0.499998  0.710059 0.807656 0
sign_hazard
0  0.000000 -26.450001 39.220577  -1.000000 0.000000 -0.000000  0.481378 0.789838 0
0  0.000000 -26.900000 40.000000  -1.000000 0.000000 -0.000000  0.474309 0.785361 0
0  0.000000 -25.100000 40.000000  -1.000000 0.000000 -0.000000  0.488447 0.776406 0
sign_hazard
0  0.000000 -26.900000 40.000000  -1.000000 0.000000 -0.000000  0.474309 0.785361 0
0  -0.000000 -26.450001 40.779423  -1.000000 0.000000 -0.000000  0.474309 0.776406 0
0  0.000000 -25.100000 40.000000  -1.000000 0.000000 -0.000000  0.488447 0.776406 0
sign_hazard
0  -0.000000 -26.450001 40.779423  -1.000000 0.000000 -0.000000  0.474309 0.776406 0
0  -0.000000 -25.549999 40.779423  -1.000000 0.000000 -0.000000  0.481378 0.771928 0
0  0.000000 -25.100000 40.000000  -1.000000 0.000000 -0.000000  0.488447 0.776406 0
sign_hazard
0  0.000000 25.100000 20.000000  0.000000 -0.866026 0.499999  0.492098 0.823484 0
0  0.600000 25.100000 20.000000  0.000000 -0.866025 0.500001  0.486657 0.823484 0
0  0.600000 25.549999 20.779423  0.000000 -0.866027 0.499997  0.486657 0.814530 0
sign_hazard
0  0.600000 25.549999 19.220577  1.000000 0.000000 0.000000  0.509756 0.776406 0
0  0.600000 26.450001 19.220577  1.000000 0.000000 0.000000  0.509756 0.785361 0
0  0.600000 26.900000 20.000000  1.000000 0.000000 0.000000  0.502688 0.789838 0
sign_hazard
0  0.600000 26.900000 20.000000  1.000000 0.000000 0.000000  0.502688 0.789838 0
0  0.600000 26.450001 20.779423  1.000000 0.000000 0.000000  0.495619 0.785361 0
0  0.600000 25.549999 20.779423  1.000000 0.000000 0.000000  0.495619 0.776406 0
sign_hazard
0  0.600000 25.549999 20.779423  1.000000 0.000000 0.000000  0.495619 0.776406 0
0  0.600000 25.100000 20.000000  1.000000 0.000000 0.000000  0.502688 0.771928 0
0  0.600000 26.900000 20.000000  1.000000 0.000000 0.000000  0.502688 0.789838 0
sign_hazard
0  -0.000000 25.549999 20.779423  0.000000 0.000000 1.000000  0.638229 0.807656 0
0  0.600000 25.549999 20.779423  0.000000 0.000000 1.000000  0.643671 0.807656 0
0  0.600000 26.450001 20.779423  0.000000 0.000000 1.000000  0.643671 0.816611 0
sign_hazard
0  0.000000 25.549999 39.220577  0.000000 -0.866025 -0.500000  0.504712 0.823484 0
0  0.600000 25.549999 39.220577  0.000000 -0.866027 -0.499998  0.499270 0.823484 0
0  0.600000 25.100000 40.000000  0.000000 -0.866025 -0.500001  0.499270 0.814529 0
sign_hazard
0  0.000000 26.450001 39.220577  0.000000 0.000000 -1.000000  0.582505 0.818651 0
0  0.600000 26.450001 39.220577  0.000000 0.000000 -1.000000  0.577064 0.818651 0
0  0.600000 25.549999 39.220577  0.000000 0.000000 -1.000000  0.577064 0.809696 0
sign_hazard
0  -0.000000 26.450001 20.779423  0.000000 0.866025 0.500001  0.448816 0.814530 0
0  0.600000 26.450001 20.779423  0.000000 0.866025 0.500001  0.454258 0.814530 0
0  0.600000 26.900000 20.000000  0.000000 0.866025 0.500001  0.454258 0.823484 0
sign_hazard
0  0.000000 26.450001 19.220577  -1.000000 0.000000 -0.000000  0.531066 0.776406 0
0  0.000000 25.549999 19.220577  -1.000000 0.000000 -0.000000  0.531066 0.785361 0
0  0.000000 25.100000 20.000000  -1.000000 0.000000 -0.000000  0.523997 0.789838 0
sign_hazard
0  0.000000 25.100000 20.000000  -1.000000 0.000000 -0.000000  0.523997 0.789838 0
0  -0.000000 25.549999 20.779423  -1.000000 0.000000 -0.000000  0.516928 0.785361 0
0  -0.000000 26.450001 20.779423  -1.000000 0.000000 -0.000000  0.516928 0.776406 0
sign_hazard
0  -0.000000 26.450001 20.779423  -1.000000 0.000000 -0.000000  0.516928 0.776406 0
0  0.000000 26.900000 20.000000  -1.000000 0.000000 -0.000000  0.523997 0.771928 0
0  0.000000 25.100000 20.000000  -1.000000 0.000000 -0.000000  0.523997 0.789838 0
sign_hazard
0  0.000000 25.100000 40.000000  0.000000 -0.866026 0.499999  0.600222 0.822722 0
0  0.600000 25.100000 40.000000  0.000000 -0.866025 0.500001  0.594780 0.822722 0
0  0.600000 25.549999 40.779423  0.000000 -0.866027 0.499997  0.594780 0.813768 0
sign_hazard
0  0.000000 26.900000 40.000000  -1.000000 0.000000 -0.000000  0.552376 0.785361 0
0  0.000000 26.450001 39.220577  -1.000000 0.000000 -0.000000  0.545307 0.789838 0
0  0.000000 25.549999 39.220577  -1.000000 0.000000 -0.000000  0.538238 0.785361 0
sign_hazard
0  0.000000 25.549999 39.220577  -1.000000 0.000000 -0.000000  0.538238 0.785361 0
0  0.000000 25.100000 40.000000  -1.000000 0.000000 -0.000000  0.538238 0.776406 0
0  0.000000 26.900000 40.000000  -1.000000 0.000000 -0.000000  0.552376 0.785361 0
sign_hazard
0  0.000000 25.100000 40.000000  -1.000000 0.000000 -0.000000  0.538238 0.776406 0
0  -0.000000 25.549999 40.779423  -1.000000 0.000000 -0.000000  0.545307 0.771928 0
0  0.000000 26.900000 40.000000  -1.000000 0.000000 -0.000000  0.552376 0.785361 0
sign_hazard
0  -0.000000 25.549999 40.779423  0.000000 0.000000 1.000000  0.607394 0.813768 0
0  0.600000 25.549999 40.779423  0.000000 0.000000 1.000000  0.612835 0.813768 0
0  0.600000 26.450001 40.779423  0.000000 0.000000 1.000000  0.612835 0.822722 0
sign_hazard
0  -0.000000 26.450001 40.779423  0.000000 0.866025 0.500001  0.448816 0.797706 0
0  0.600000 26.450001 40.779423  0.000000 0.866025 0.500001  0.454258 0.797706 0
0  0.600000 26.900000 40.000000  0.000000 0.866025 0.500001  0.454258 0.806661 0
sign_hazard
0  0.600000 25.549999 40.779423  1.000000 0.000000 0.000000  0.645298 0.781878 0
0  0.600000 25.100000 40.000000  1.000000 0.000000 0.000000  0.652367 0.786356 0
0  0.600000 26.900000 40.000000  1.000000 0.000000 0.000000  0.638229 0.795310 0
sign_hazard
0  0.600000 25.100000 40.000000  1.000000 0.000000 0.000000  0.652367 0.786356 0
0  0.600000 25.549999 39.220577  1.000000 0.000000 0.000000  0.652367 0.795310 0
0  0.600000 26.900000 40.000000  1.000000 0.000000 0.000000  0.638229 0.795310 0
sign_hazard
0  0.600000 25.549999 39.220577  1.000000 0.000000 0.000000  0.652367 0.795310 0
0  0.600000 26.450001 39.220577  1.000000 0.000000 0.000000  0.645298 0.799788 0
0  0.600000 26.900000 40.000000  1.000000 0.000000 0.000000  0.638229 0.795310 0
end
