version 1
nodes
0 "root" -1
end
skeleton
time 0
0 0 0 0 0 0 0
end
triangles
sign_hazard
0  0.600000 37.000000 50.000000  0.577353 0.577345 0.577352  1.000000 0.000000 0
0  -6.000000 37.000000 0.000000  -0.577350 0.577351 -0.577350  0.944908 0.417362 0
0  -6.000000 37.000000 50.000000  -0.577357 0.577347 0.577347  0.944908 0.000000 0
sign_hazard
0  0.600000 37.000000 50.000000  0.577353 0.577345 0.577352  0.000000 0.617696 0
0  0.600000 -37.000000 50.000000  0.577350 -0.577351 0.577350  0.000000 -0.000000 0
0  0.600000 -37.000000 0.000000  0.577357 -0.577347 -0.577347  0.417362 -0.000000 0
sign_hazard
0  0.600000 37.000000 0.000000  0.577348 0.577348 -0.577356  0.834725 0.617696 0
0  -6.000000 -37.000000 0.000000  -0.577353 -0.577345 -0.577352  0.889816 0.000000 0
0  -6.000000 37.000000 0.000000  -0.577350 0.577351 -0.577350  0.889816 0.617696 0
sign_hazard
0  -6.000000 37.000000 50.000000  -0.577357 0.577347 0.577347  0.417362 -0.000000 0
0  -6.000000 37.000000 0.000000  -0.577350 0.577351 -0.577350  0.834725 -0.000000 0
0  -6.000000 -37.000000 0.000000  -0.577353 -0.577345 -0.577352  0.834725 0.617696 0
sign_hazard
0  0.600000 37.000000 50.000000  0.577353 0.577345 0.577352  1.000000 0.000000 0
0  0.600000 37.000000 0.000000  0.577348 0.577348 -0.577356  1.000000 0.417362 0
0  -6.000000 37.000000 0.000000  -0.577350 0.577351 -0.577350  0.944908 0.417362 0
sign_hazard
0  0.600000 37.000000 0.000000  0.577348 0.577348 -0.577356  0.834725 0.617696 0
0  0.600000 -37.000000 0.000000  0.577357 -0.577347 -0.577347  0.834725 0.000000 0
0  -6.000000 -37.000000 0.000000  -0.577353 -0.577345 -0.577352  0.889816 0.000000 0
sign_hazard
0  0.600000 37.000000 50.000000  0.577353 0.577345 0.577352  0.000000 0.617696 0
0  0.600000 -37.000000 0.000000  0.577357 -0.577347 -0.577347  0.417362 -0.000000 0
0  0.600000 37.000000 0.000000  0.577348 0.577348 -0.577356  0.417362 0.617696 0
sign_hazard
0  0.600000 37.000000 50.000000  0.577353 0.577345 0.577352  0.944908 0.617696 0
0  -6.000000 -37.000000 50.000000  -0.577348 -0.577348 0.577356  0.889816 0.000000 0
0  0.600000 -37.000000 50.000000  0.577350 -0.577351 0.577350  0.944908 0.000000 0
sign_hazard
0  0.600000 37.000000 50.000000  0.577353 0.577345 0.577352  0.944908 0.617696 0
0  -6.000000 37.000000 50.000000  -0.577357 0.577347 0.577347  0.889816 0.617696 0
0  -6.000000 -37.000000 50.000000  -0.577348 -0.577348 0.577356  0.889816 0.000000 0
sign_hazard
0  0.600000 -37.000000 50.000000  0.577350 -0.577351 0.577350  0.944908 0.417362 0
0  -6.000000 -37.000000 0.000000  -0.577353 -0.577345 -0.577352  1.000000 0.834724 0
0  0.600000 -37.000000 0.000000  0.577357 -0.577347 -0.577347  0.944908 0.834724 0
sign_hazard
0  0.600000 -37.000000 50.000000  0.577350 -0.577351 0.577350  0.944908 0.417362 0
0  -6.000000 -37.000000 50.000000  -0.577348 -0.577348 0.577356  1.000000 0.417362 0
0  -6.000000 -37.000000 0.000000  -0.577353 -0.577345 -0.577352  1.000000 0.834724 0
sign_hazard
0  -6.000000 37.000000 50.000000  -0.577357 0.577347 0.577347  0.417362 -0.000000 0
0  -6.000000 -37.000000 0.000000  -0.577353 -0.577345 -0.577352  0.834725 0.617696 0
0  -6.000000 -37.000000 50.000000  -0.577348 -0.577348 0.577356  0.417362 0.617696 0
end
