version 1
nodes
0 "root" -1
end
skeleton
time 0
0 0 0 0 0 0 0
end
triangles
boost_pad
0  64.000000 48.000000 0.000000  0.703961 0.703964 -0.094197  0.500000 0.000000 0
0  60.000000 -44.000000 1.500000  0.135219 -0.135220 0.981545  0.020833 0.020833 0
0  64.000000 -48.000000 0.000000  0.703975 -0.703970 -0.094049  0.000000 -0.000000 0
boost_pad
0  64.000000 -48.000000 0.000000  0.703975 -0.703970 -0.094049  0.000000 -0.000000 0
0  60.000000 -44.000000 1.500000  0.135219 -0.135220 0.981545  0.020833 0.020833 0
0  -60.000000 -44.000000 1.500000  -0.135218 -0.135219 0.981546  0.020833 0.645833 0
boost_pad
0  60.000000 44.000000 1.500000  0.135219 0.135219 0.981546  0.479167 0.020833 0
0  -60.000000 -44.000000 1.500000  -0.135218 -0.135219 0.981546  0.020833 0.645833 0
0  60.000000 -44.000000 1.500000  0.135219 -0.135220 0.981545  0.020833 0.020833 0
boost_pad
0  64.000000 48.000000 0.000000  0.703961 0.703964 -0.094197  0.500000 0.000000 0
0  -64.000000 48.000000 0.000000  -0.703968 0.703976 -0.094057  0.500000 0.666667 0
0  -60.000000 44.000000 1.500000  -0.135220 0.135219 0.981545  0.479167 0.645833 0
boost_pad
0  64.000000 48.000000 0.000000  0.703961 0.703964 -0.094197  0.500000 0.000000 0
0  -60.000000 44.000000 1.500000  -0.135220 0.135219 0.981545  0.479167 0.645833 0
0  60.000000 44.000000 1.500000  0.135219 0.135219 0.981546  0.479167 0.020833 0
boost_pad
0  64.000000 48.000000 0.000000  0.703961 0.703964 -0.094197  1.000000 0.666667 0
0  64.000000 -48.000000 0.000000  0.703975 -0.703970 -0.094049  0.500000 0.666667 0
0  -64.000000 -48.000000 0.000000  -0.703965 -0.703965 -0.094160  0.500000 -0.000000 0
boost_pad
0  64.000000 48.000000 0.000000  0.703961 0.703964 -0.094197  1.000000 0.666667 0
0  -64.000000 -48.000000 0.000000  -0.703965 -0.703965 -0.094160  0.500000 -0.000000 0
0  -64.000000 48.000000 0.000000  -0.703968 0.703976 -0.094057  1.000000 0.000000 0
boost_pad
0  -64.000000 48.000000 0.000000  -0.703968 0.703976 -0.094057  0.500000 0.666667 0
0  -64.000000 -48.000000 0.000000  -0.703965 -0.703965 -0.094160  -0.000000 0.666667 0
0  -60.000000 -44.000000 1.500000  -0.135218 -0.135219 0.981546  0.020833 0.645833 0
boost_pad
0  64.000000 -48.000000 0.000000  0.703975 -0.703970 -0.094049  0.000000 -0.000000 0
0  -60.000000 -44.000000 1.500000  -0.135218 -0.135219 0.981546  0.020833 0.645833 0
0  -64.000000 -48.000000 0.000000  -0.703965 -0.703965 -0.094160  -0.000000 0.666667 0
boost_pad
0  64.000000 48.000000 0.000000  0.703961 0.703964 -0.094197  0.500000 0.000000 0
0  60.000000 44.000000 1.500000  0.135219 0.135219 0.981546  0.479167 0.020833 0
0  60.000000 -44.000000 1.500000  0.135219 -0.135220 0.981545  0.020833 0.020833 0
boost_pad
0  60.000000 44.000000 1.500000  0.135219 0.135219 0.981546  0.479167 0.020833 0
0  -60.000000 44.000000 1.500000  -0.135220 0.135219 0.981545  0.479167 0.645833 0
0  -60.000000 -44.000000 1.500000  -0.135218 -0.135219 0.981546  0.020833 0.645833 0
boost_pad
0  -64.000000 48.000000 0.000000  -0.703968 0.703976 -0.094057  0.500000 0.666667 0
0  -60.000000 -44.000000 1.500000  -0.135218 -0.135219 0.981546  0.020833 0.645833 0
0  -60.000000 44.000000 1.500000  -0.135220 0.135219 0.981545  0.479167 0.645833 0
end
