version 1
nodes
0 "root" -1
end
skeleton
time 0
0 0 0 0 0 0 0
end
triangles
boost_pad
0  -64.000000 -48.000000 0.000000  0.000000 -0.351123 0.936329  0.000000 0.665049 0
0  60.000000 -44.000000 1.500000  0.000000 -0.212775 0.977101  0.020311 0.020783 0
0  -60.000000 -44.000000 1.500000  0.000000 -0.212773 0.977102  0.020311 0.644266 0
boost_pad
0  64.000000 48.000000 0.000000  0.000000 0.351123 0.936329  0.487473 0.000000 0
0  -60.000000 44.000000 1.500000  0.000000 0.212775 0.977101  0.467161 0.644266 0
0  60.000000 44.000000 1.500000  0.000000 0.212773 0.977102  0.467161 0.020783 0
boost_pad
0  -60.000000 -44.000000 1.500000  0.000000 -0.212773 0.977102  0.020311 0.644266 0
0  54.000000 -34.000000 1.500000  0.000000 0.000000 1.000000  0.071090 0.051957 0
0  -54.000000 -34.000000 1.500000  0.000000 0.000000 1.000000  0.071090 0.613092 0
boost_pad
0  60.000000 -44.000000 1.500000  0.000000 -0.212775 0.977101  0.020311 0.020783 0
0  54.000000 34.000000 1.500000  0.000000 0.000000 1.000000  0.416383 0.051957 0
0  54.000000 -34.000000 1.500000  0.000000 0.000000 1.000000  0.071090 0.051957 0
boost_pad
0  60.000000 44.000000 1.500000  0.000000 0.212773 0.977102  0.467161 0.020783 0
0  -54.000000 34.000000 1.500000  0.000000 0.000000 1.000000  0.416383 0.613092 0
0  54.000000 34.000000 1.500000  0.000000 0.000000 1.000000  0.416383 0.051957 0
boost_pad
0  -60.000000 44.000000 1.500000  0.000000 0.212775 0.977101  0.467161 0.644266 0
0  -54.000000 -34.000000 1.500000  0.000000 0.000000 1.000000  0.071090 0.613092 0
0  -54.000000 34.000000 1.500000  0.000000 0.000000 1.000000  0.416383 0.613092 0
boost_pad
0  -64.000000 48.000000 0.000000  0.000000 0.000000 -1.000000  0.977317 0.000000 0
0  64.000000 -48.000000 0.000000  0.000000 0.000000 -1.000000  0.489844 0.665049 0
0  -64.000000 -48.000000 0.000000  0.000000 0.000000 -1.000000  0.489844 0.000000 0
boost_pad
0  64.000000 -48.000000 0.000000  0.351123 0.000000 0.936329  1.000000 0.000000 0
0  60.000000 44.000000 1.500000  0.351123 0.000000 0.936329  0.979689 0.478004 0
0  60.000000 -44.000000 1.500000  0.351123 0.000000 0.936329  0.979689 0.020783 0
boost_pad
0  -64.000000 48.000000 0.000000  -0.351123 0.000000 0.936329  0.979689 1.000000 0
0  -60.000000 -44.000000 1.500000  -0.351123 0.000000 0.936329  1.000000 0.521996 0
0  -60.000000 44.000000 1.500000  -0.351123 0.000000 0.936329  1.000000 0.979217 0
boost_pad_glow
0  -54.000000 -34.000000 1.550000  0.000000 0.000000 1.000000  -0.843750 -0.031250 0
0  54.000000 34.000000 1.550000  0.000000 0.000000 1.000000  0.843750 1.031250 0
0  -54.000000 34.000000 1.550000  0.000000 0.000000 1.000000  -0.843750 1.031250 0
boost_pad
0  -57.000000 -40.099998 1.300000  0.500002 0.866024 0.000000  0.172042 0.672152 0
0  -56.220577 -40.549999 1.900000  0.500002 0.866024 0.000000  0.168995 0.667476 0
0  -56.220577 -40.549999 1.300000  0.500002 0.866024 0.000000  0.172042 0.667476 0
boost_pad
0  -56.220577 -40.549999 1.300000  1.000000 0.000000 0.000000  0.128694 0.672152 0
0  -56.220577 -41.450001 1.900000  1.000000 0.000000 0.000000  0.125647 0.667476 0
0  -56.220577 -41.450001 1.300000  1.000000 0.000000 0.000000  0.128694 0.667476 0
boost_pad
0  57.000000 -40.099998 1.300000  0.500000 0.866025 0.000000  0.085346 0.672152 0
0  57.779423 -40.549999 1.900000  0.499999 0.866026 0.000000  0.082299 0.667476 0
0  57.779423 -40.549999 1.300000  0.499996 0.866028 0.000000  0.085346 0.667476 0
boost_pad
0  -57.000000 41.900002 1.300000  0.500002 0.866024 0.000000  0.090764 0.672152 0
0  -56.220577 41.450001 1.900000  0.500002 0.866024 0.000000  0.087718 0.667476 0
0  -56.220577 41.450001 1.300000  0.500002 0.866024 0.000000  0.090764 0.667476 0
boost_pad
0  -56.220577 -41.450001 1.300000  0.500002 -0.866024 0.000000  0.096183 0.672152 0
0  -57.000000 -41.900002 1.900000  0.500002 -0.866024 0.000000  0.093136 0.667476 0
0  -57.000000 -41.900002 1.300000  0.500002 -0.866024 0.000000  0.096183 0.667476 0
boost_pad
0  57.000000 41.900002 1.300000  0.500000 0.866025 0.000000  0.177460 0.672152 0
0  57.779423 41.450001 1.900000  0.499999 0.866026 0.000000  0.174414 0.667476 0
0  57.779423 41.450001 1.300000  0.499996 0.866028 0.000000  0.177460 0.667476 0
boost_pad
0  -57.000000 -41.900002 1.300000  -0.500000 -0.866025 0.000000  0.182879 0.672152 0
0  -57.779423 -41.450001 1.900000  -0.499999 -0.866026 0.000000  0.179832 0.667476 0
0  -57.779423 -41.450001 1.300000  -0.499996 -0.866028 0.000000  0.182879 0.667476 0
boost_pad
0  -57.779423 -41.450001 1.900000  0.000000 0.000000 1.000000  0.000000 0.669814 0
0  -57.000000 -41.900002 1.900000  0.000000 0.000000 1.000000  0.003958 0.667476 0
0  -56.220577 -41.450001 1.900000  0.000000 0.000000 1.000000  0.007916 0.669814 0
boost_pad
0  -57.779423 -41.450001 1.300000  -1.000000 0.000000 0.000000  0.134112 0.672152 0
0  -57.779423 -40.549999 1.900000  -1.000000 0.000000 0.000000  0.131066 0.667476 0
0  -57.779423 -40.549999 1.300000  -1.000000 0.000000 0.000000  0.134112 0.667476 0
boost_pad
0  -56.220577 40.549999 1.300000  0.500002 -0.866024 0.000000  0.188297 0.672152 0
0  -57.000000 40.099998 1.900000  0.500002 -0.866024 0.000000  0.185251 0.667476 0
0  -57.000000 40.099998 1.300000  0.500002 -0.866024 0.000000  0.188297 0.667476 0
boost_pad
0  -56.220577 41.450001 1.300000  1.000000 0.000000 0.000000  0.139531 0.672152 0
0  -56.220577 40.549999 1.900000  1.000000 0.000000 0.000000  0.136484 0.667476 0
0  -56.220577 40.549999 1.300000  1.000000 0.000000 0.000000  0.139531 0.667476 0
boost_pad
0  -57.779423 -40.549999 1.300000  -0.499999 0.866026 0.000000  0.101601 0.672152 0
0  -57.000000 -40.099998 1.900000  -0.500000 0.866025 0.000000  0.098555 0.667476 0
0  -57.000000 -40.099998 1.300000  -0.500002 0.866024 0.000000  0.101601 0.667476 0
boost_pad
0  -57.779423 -41.450001 1.300000  -0.000000 0.000000 -1.000000  0.018203 0.669814 0
0  -57.779423 -40.549999 1.300000  0.000000 0.000000 -1.000000  0.018203 0.674490 0
0  -56.220577 -40.549999 1.300000  0.000000 0.000000 -1.000000  0.010287 0.674490 0
boost_pad
0  -57.000000 40.099998 1.300000  -0.500000 -0.866025 0.000000  0.107020 0.672152 0
0  -57.779423 40.549999 1.900000  -0.499999 -0.866026 0.000000  0.103973 0.667476 0
0  -57.779423 40.549999 1.300000  -0.499996 -0.866028 0.000000  0.107020 0.667476 0
boost_pad
0  -57.779423 41.450001 1.900000  -0.000000 0.000000 1.000000  0.020575 0.674490 0
0  -57.779423 40.549999 1.900000  0.000000 0.000000 1.000000  0.020575 0.669814 0
0  -57.000000 40.099998 1.900000  -0.000000 0.000000 1.000000  0.024533 0.667476 0
boost_pad
0  -57.779423 40.549999 1.300000  -1.000000 0.000000 0.000000  0.144949 0.672152 0
0  -57.779423 41.450001 1.900000  -1.000000 0.000000 0.000000  0.141903 0.667476 0
0  -57.779423 41.450001 1.300000  -1.000000 0.000000 0.000000  0.144949 0.667476 0
boost_pad
0  57.779423 -41.450001 1.300000  0.499999 -0.866026 0.000000  0.193716 0.672152 0
0  57.000000 -41.900002 1.900000  0.500000 -0.866025 0.000000  0.190669 0.667476 0
0  57.000000 -41.900002 1.300000  0.500002 -0.866024 0.000000  0.193716 0.667476 0
boost_pad
0  57.779423 -40.549999 1.300000  1.000000 0.000000 0.000000  0.150368 0.672152 0
0  57.779423 -41.450001 1.900000  1.000000 0.000000 0.000000  0.147321 0.667476 0
0  57.779423 -41.450001 1.300000  1.000000 0.000000 0.000000  0.150368 0.667476 0
boost_pad
0  -57.779423 41.450001 1.300000  -0.499999 0.866026 0.000000  0.199135 0.672152 0
0  -57.000000 41.900002 1.900000  -0.500000 0.866025 0.000000  0.196088 0.667476 0
0  -57.000000 41.900002 1.300000  -0.500002 0.866024 0.000000  0.199135 0.667476 0
boost_pad
0  -56.220577 41.450001 1.300000  0.000000 0.000000 -1.000000  0.030862 0.674490 0
0  -56.220577 40.549999 1.300000  0.000000 0.000000 -1.000000  0.030862 0.669814 0
0  -57.779423 40.549999 1.300000  -0.000000 0.000000 -1.000000  0.038778 0.669814 0
boost_pad
0  57.000000 -41.900002 1.300000  -0.500002 -0.866024 0.000000  0.112438 0.672152 0
0  56.220577 -41.450001 1.900000  -0.500002 -0.866024 0.000000  0.109392 0.667476 0
0  56.220577 -41.450001 1.300000  -0.500002 -0.866024 0.000000  0.112438 0.667476 0
boost_pad
0  56.220577 -41.450001 1.900000  0.000000 0.000000 1.000000  0.041150 0.669814 0
0  57.000000 -41.900002 1.900000  0.000000 0.000000 1.000000  0.045107 0.667476 0
0  57.779423 -41.450001 1.900000  0.000000 0.000000 1.000000  0.049065 0.669814 0
boost_pad
0  56.220577 -41.450001 1.300000  -1.000000 0.000000 0.000000  0.155786 0.672152 0
0  56.220577 -40.549999 1.900000  -1.000000 0.000000 0.000000  0.152740 0.667476 0
0  56.220577 -40.549999 1.300000  -1.000000 0.000000 0.000000  0.155786 0.667476 0
boost_pad
0  57.779423 40.549999 1.300000  0.499999 -0.866026 0.000000  0.117857 0.672152 0
0  57.000000 40.099998 1.900000  0.500000 -0.866025 0.000000  0.114810 0.667476 0
0  57.000000 40.099998 1.300000  0.500002 -0.866024 0.000000  0.117857 0.667476 0
boost_pad
0  57.779423 41.450001 1.300000  1.000000 0.000000 0.000000  0.161205 0.672152 0
0  57.779423 40.549999 1.900000  1.000000 0.000000 0.000000  0.158158 0.667476 0
0  57.779423 40.549999 1.300000  1.000000 0.000000 0.000000  0.161205 0.667476 0
boost_pad
0  56.220577 -40.549999 1.300000  -0.500002 0.866024 0.000000  0.204553 0.672152 0
0  57.000000 -40.099998 1.900000  -0.500002 0.866024 0.000000  0.201506 0.667476 0
0  57.000000 -40.099998 1.300000  -0.500002 0.866024 0.000000  0.204553 0.667476 0
boost_pad
0  56.220577 -40.549999 1.300000  -0.000000 0.000000 -1.000000  0.059352 0.674490 0
0  57.000000 -40.099998 1.300000  0.000000 0.000000 -1.000000  0.055395 0.676828 0
0  57.779423 -40.549999 1.300000  0.000000 0.000000 -1.000000  0.051437 0.674490 0
boost_pad
0  57.000000 40.099998 1.300000  -0.500002 -0.866024 0.000000  0.209972 0.672152 0
0  56.220577 40.549999 1.900000  -0.500002 -0.866024 0.000000  0.206925 0.667476 0
0  56.220577 40.549999 1.300000  -0.500002 -0.866024 0.000000  0.209972 0.667476 0
boost_pad
0  56.220577 40.549999 1.300000  -0.000000 0.000000 -1.000000  0.069640 0.669814 0
0  56.220577 41.450001 1.300000  -0.000000 0.000000 -1.000000  0.069640 0.674490 0
0  57.000000 41.900002 1.300000  0.000000 0.000000 -1.000000  0.065682 0.676828 0
boost_pad
0  56.220577 40.549999 1.300000  -1.000000 0.000000 0.000000  0.166623 0.672152 0
0  56.220577 41.450001 1.900000  -1.000000 0.000000 0.000000  0.163577 0.667476 0
0  56.220577 41.450001 1.300000  -1.000000 0.000000 0.000000  0.166623 0.667476 0
boost_pad
0  56.220577 41.450001 1.300000  -0.500002 0.866024 0.000000  0.123275 0.672152 0
0  57.000000 41.900002 1.900000  -0.500002 0.866024 0.000000  0.120229 0.667476 0
0  57.000000 41.900002 1.300000  -0.500002 0.866024 0.000000  0.123275 0.667476 0
boost_pad
0  56.220577 41.450001 1.900000  0.000000 0.000000 1.000000  0.072012 0.674490 0
0  56.220577 40.549999 1.900000  0.000000 0.000000 1.000000  0.072012 0.669814 0
0  57.779423 40.549999 1.900000  0.000000 0.000000 1.000000  0.079927 0.669814 0
boost_pad
0  -64.000000 -48.000000 0.000000  0.000000 -0.351123 0.936329  0.000000 0.665049 0
0  64.000000 -48.000000 0.000000  0.000000 -0.351123 0.936329  0.000000 0.000000 0
0  60.000000 -44.000000 1.500000  0.000000 -0.212775 0.977101  0.020311 0.020783 0
boost_pad
0  64.000000 48.000000 0.000000  0.000000 0.351123 0.936329  0.487473 0.000000 0
0  -64.000000 48.000000 0.000000  0.000000 0.351123 0.936329  0.487472 0.665049 0
0  -60.000000 44.000000 1.500000  0.000000 0.212775 0.977101  0.467161 0.644266 0
boost_pad
0  -60.000000 -44.000000 1.500000  0.000000 -0.212773 0.977102  0.020311 0.644266 0
0  60.000000 -44.000000 1.500000  0.000000 -0.212775 0.977101  0.020311 0.020783 0
0  54.000000 -34.000000 1.500000  0.000000 0.000000 1.000000  0.071090 0.051957 0
boost_pad
0  60.000000 -44.000000 1.500000  0.000000 -0.212775 0.977101  0.020311 0.020783 0
0  60.000000 44.000000 1.500000  0.000000 0.212773 0.977102  0.467161 0.020783 0
0  54.000000 34.000000 1.500000  0.000000 0.000000 1.000000  0.416383 0.051957 0
boost_pad
0  60.000000 44.000000 1.500000  0.000000 0.212773 0.977102  0.467161 0.020783 0
0  -60.000000 44.000000 1.500000  0.000000 0.212775 0.977101  0.467161 0.644266 0
0  -54.000000 34.000000 1.500000  0.000000 0.000000 1.000000  0.416383 0.613092 0
boost_pad
0  -60.000000 44.000000 1.500000  0.000000 0.212775 0.977101  0.467161 0.644266 0
0  -60.000000 -44.000000 1.500000  0.000000 -0.212773 0.977102  0.020311 0.644266 0
0  -54.000000 -34.000000 1.500000  0.000000 0.000000 1.000000  0.071090 0.613092 0
boost_pad
0  -64.000000 48.000000 0.000000  0.000000 0.000000 -1.000000  0.977317 0.000000 0
0  64.000000 48.000000 0.000000  0.000000 0.000000 -1.000000  0.977317 0.665049 0
0  64.000000 -48.000000 0.000000  0.000000 0.000000 -1.000000  0.489844 0.665049 0
boost_pad
0  64.000000 -48.000000 0.000000  0.351123 0.000000 0.936329  1.000000 0.000000 0
0  64.000000 48.000000 0.000000  0.351123 0.000000 0.936329  1.000000 0.498787 0
0  60.000000 44.000000 1.500000  0.351123 0.000000 0.936329  0.979689 0.478004 0
boost_pad
0  -64.000000 48.000000 0.000000  -0.351123 0.000000 0.936329  0.979689 1.000000 0
0  -64.000000 -48.000000 0.000000  -0.351123 0.000000 0.936329  0.979689 0.501213 0
0  -60.000000 -44.000000 1.500000  -0.351123 0.000000 0.936329  1.000000 0.521996 0
boost_pad_glow
0  -54.000000 -34.000000 1.550000  0.000000 0.000000 1.000000  -0.843750 -0.031250 0
0  54.000000 -34.000000 1.550000  0.000000 0.000000 1.000000  0.843750 -0.031250 0
0  54.000000 34.000000 1.550000  0.000000 0.000000 1.000000  0.843750 1.031250 0
boost_pad
0  -57.000000 -40.099998 1.300000  0.500002 0.866024 0.000000  0.172042 0.672152 0
0  -57.000000 -40.099998 1.900000  0.500003 0.866024 0.000000  0.168995 0.672152 0
0  -56.220577 -40.549999 1.900000  0.500002 0.866024 0.000000  0.168995 0.667476 0
boost_pad
0  -56.220577 -40.549999 1.300000  1.000000 0.000000 0.000000  0.128694 0.672152 0
0  -56.220577 -40.549999 1.900000  1.000000 0.000000 0.000000  0.125647 0.672152 0
0  -56.220577 -41.450001 1.900000  1.000000 0.000000 0.000000  0.125647 0.667476 0
boost_pad
0  57.000000 -40.099998 1.300000  0.500000 0.866025 0.000000  0.085346 0.672152 0
0  57.000000 -40.099998 1.900000  0.500003 0.866024 0.000000  0.082299 0.672152 0
0  57.779423 -40.549999 1.900000  0.499999 0.866026 0.000000  0.082299 0.667476 0
boost_pad
0  -57.000000 41.900002 1.300000  0.500002 0.866024 0.000000  0.090764 0.672152 0
0  -57.000000 41.900002 1.900000  0.500003 0.866024 0.000000  0.087718 0.672152 0
0  -56.220577 41.450001 1.900000  0.500002 0.866024 0.000000  0.087718 0.667476 0
boost_pad
0  -56.220577 -41.450001 1.300000  0.500002 -0.866024 0.000000  0.096183 0.672152 0
0  -56.220577 -41.450001 1.900000  0.500003 -0.866024 0.000000  0.093136 0.672152 0
0  -57.000000 -41.900002 1.900000  0.500002 -0.866024 0.000000  0.093136 0.667476 0
boost_pad
0  57.000000 41.900002 1.300000  0.500000 0.866025 0.000000  0.177460 0.672152 0
0  57.000000 41.900002 1.900000  0.500003 0.866024 0.000000  0.174414 0.672152 0
0  57.779423 41.450001 1.900000  0.499999 0.866026 0.000000  0.174414 0.667476 0
boost_pad
0  -57.000000 -41.900002 1.300000  -0.500000 -0.866025 0.000000  0.182879 0.672152 0
0  -57.000000 -41.900002 1.900000  -0.500003 -0.866024 0.000000  0.179832 0.672152 0
0  -57.779423 -41.450001 1.900000  -0.499999 -0.866026 0.000000  0.179832 0.667476 0
boost_pad
0  -56.220577 -41.450001 1.900000  0.000000 0.000000 1.000000  0.007916 0.669814 0
0  -56.220577 -40.549999 1.900000  0.000000 0.000000 1.000000  0.007916 0.674490 0
0  -57.779423 -41.450001 1.900000  0.000000 0.000000 1.000000  0.000000 0.669814 0
boost_pad
0  -56.220577 -40.549999 1.900000  0.000000 0.000000 1.000000  0.007916 0.674490 0
0  -57.000000 -40.099998 1.900000  0.000000 0.000000 1.000000  0.003958 0.676828 0
0  -57.779423 -41.450001 1.900000  0.000000 0.000000 1.000000  0.000000 0.669814 0
boost_pad
0  -57.000000 -40.099998 1.900000  0.000000 0.000000 1.000000  0.003958 0.676828 0
0  -57.779423 -40.549999 1.900000  0.000000 0.000000 1.000000  0.000000 0.674490 0
0  -57.779423 -41.450001 1.900000  0.000000 0.000000 1.000000  0.000000 0.669814 0
boost_pad
0  -57.779423 -41.450001 1.300000  -1.000000 0.000000 0.000000  0.134112 0.672152 0
0  -57.779423 -41.450001 1.900000  -1.000000 0.000000 0.000000  0.131066 0.672152 0
0  -57.779423 -40.549999 1.900000  -1.000000 0.000000 0.000000  0.131066 0.667476 0
boost_pad
0  -56.220577 40.549999 1.300000  0.500002 -0.866024 0.000000  0.188297 0.672152 0
0  -56.220577 40.549999 1.900000  0.500003 -0.866024 0.000000  0.185251 0.672152 0
0  -57.000000 40.099998 1.900000  0.500002 -0.866024 0.000000  0.185251 0.667476 0
boost_pad
0  -56.220577 41.450001 1.300000  1.000000 0.000000 0.000000  0.139531 0.672152 0
0  -56.220577 41.450001 1.900000  1.000000 0.000000 0.000000  0.136484 0.672152 0
0  -56.220577 40.549999 1.900000  1.000000 0.000000 0.000000  0.136484 0.667476 0
boost_pad
0  -57.779423 -40.549999 1.300000  -0.499999 0.866026 0.000000  0.101601 0.672152 0
0  -57.779423 -40.549999 1.900000  -0.499996 0.866027 0.000000  0.098555 0.672152 0
0  -57.000000 -40.099998 1.900000  -0.500000 0.866025 0.000000  0.098555 0.667476 0
boost_pad
0  -57.779423 -40.549999 1.300000  0.000000 0.000000 -1.000000  0.018203 0.674490 0
0  -57.000000 -40.099998 1.300000  0.000000 0.000000 -1.000000  0.014245 0.676828 0
0  -56.220577 -40.549999 1.300000  0.000000 0.000000 -1.000000  0.010287 0.674490 0
boost_pad
0  -56.220577 -40.549999 1.300000  0.000000 0.000000 -1.000000  0.010287 0.674490 0
0  -56.220577 -41.450001 1.300000  0.000000 0.000000 -1.000000  0.010287 0.669814 0
0  -57.000000 -41.900002 1.300000  -0.000000 0.000000 -1.000000  0.014245 0.667476 0
boost_pad
0  -57.000000 -41.900002 1.300000  -0.000000 0.000000 -1.000000  0.014245 0.667476 0
0  -57.779423 -41.450001 1.300000  -0.000000 0.000000 -1.000000  0.018203 0.669814 0
0  -56.220577 -40.549999 1.300000  0.000000 0.000000 -1.000000  0.010287 0.674490 0
boost_pad
0  -57.000000 40.099998 1.300000  -0.500000 -0.866025 0.000000  0.107020 0.672152 0
0  -57.000000 40.099998 1.900000  -0.500003 -0.866024 0.000000  0.103973 0.672152 0
0  -57.779423 40.549999 1.900000  -0.499999 -0.866026 0.000000  0.103973 0.667476 0
boost_pad
0  -57.000000 40.099998 1.900000  -0.000000 0.000000 1.000000  0.024533 0.667476 0
0  -56.220577 40.549999 1.900000  -0.000000 0.000000 1.000000  0.028490 0.669814 0
0  -57.779423 41.450001 1.900000  -0.000000 0.000000 1.000000  0.020575 0.674490 0
boost_pad
0  -56.220577 40.549999 1.900000  -0.000000 0.000000 1.000000  0.028490 0.669814 0
0  -56.220577 41.450001 1.900000  0.000000 0.000000 1.000000  0.028490 0.674490 0
0  -57.779423 41.450001 1.900000  -0.000000 0.000000 1.000000  0.020575 0.674490 0
boost_pad
0  -56.220577 41.450001 1.900000  0.000000 0.000000 1.000000  0.028490 0.674490 0
0  -57.000000 41.900002 1.900000  0.000000 0.000000 1.000000  0.024533 0.676828 0
0  -57.779423 41.450001 1.900000  -0.000000 0.000000 1.000000  0.020575 0.674490 0
boost_pad
0  -57.779423 40.549999 1.300000  -1.000000 0.000000 0.000000  0.144949 0.672152 0
0  -57.779423 40.549999 1.900000  -1.000000 0.000000 0.000000  0.141903 0.672152 0
0  -57.779423 41.450001 1.900000  -1.000000 0.000000 0.000000  0.141903 0.667476 0
boost_pad
0  57.779423 -41.450001 1.300000  0.499999 -0.866026 0.000000  0.193716 0.672152 0
0  57.779423 -41.450001 1.900000  0.499996 -0.866027 0.000000  0.190669 0.672152 0
0  57.000000 -41.900002 1.900000  0.500000 -0.866025 0.000000  0.190669 0.667476 0
boost_pad
0  57.779423 -40.549999 1.300000  1.000000 0.000000 0.000000  0.150368 0.672152 0
0  57.779423 -40.549999 1.900000  1.000000 0.000000 0.000000  0.147321 0.672152 0
0  57.779423 -41.450001 1.900000  1.000000 0.000000 0.000000  0.147321 0.667476 0
boost_pad
0  -57.779423 41.450001 1.300000  -0.499999 0.866026 0.000000  0.199135 0.672152 0
0  -57.779423 41.450001 1.900000  -0.499996 0.866027 0.000000  0.196088 0.672152 0
0  -57.000000 41.900002 1.900000  -0.500000 0.866025 0.000000  0.196088 0.667476 0
boost_pad
0  -56.220577 40.549999 1.300000  0.000000 0.000000 -1.000000  0.030862 0.669814 0
0  -57.000000 40.099998 1.300000  0.000000 0.000000 -1.000000  0.034820 0.667476 0
0  -57.779423 40.549999 1.300000  -0.000000 0.000000 -1.000000  0.038778 0.669814 0
boost_pad
0  -57.779423 40.549999 1.300000  -0.000000 0.000000 -1.000000  0.038778 0.669814 0
0  -57.779423 41.450001 1.300000  -0.000000 0.000000 -1.000000  0.038778 0.674490 0
0  -57.000000 41.900002 1.300000  0.000000 0.000000 -1.000000  0.034820 0.676828 0
boost_pad
0  -57.000000 41.900002 1.300000  0.000000 0.000000 -1.000000  0.034820 0.676828 0
0  -56.220577 41.450001 1.300000  0.000000 0.000000 -1.000000  0.030862 0.674490 0
0  -57.779423 40.549999 1.300000  -0.000000 0.000000 -1.000000  0.038778 0.669814 0
boost_pad
0  57.000000 -41.900002 1.300000  -0.500002 -0.866024 0.000000  0.112438 0.672152 0
0  57.000000 -41.900002 1.900000  -0.500003 -0.866024 0.000000  0.109392 0.672152 0
0  56.220577 -41.450001 1.900000  -0.500002 -0.866024 0.000000  0.109392 0.667476 0
boost_pad
0  57.779423 -41.450001 1.900000  0.000000 0.000000 1.000000  0.049065 0.669814 0
0  57.779423 -40.549999 1.900000  0.000000 0.000000 1.000000  0.049065 0.674490 0
0  56.220577 -41.450001 1.900000  0.000000 0.000000 1.000000  0.041150 0.669814 0
boost_pad
0  57.779423 -40.549999 1.900000  0.000000 0.000000 1.000000  0.049065 0.674490 0
0  57.000000 -40.099998 1.900000  0.000000 0.000000 1.000000  0.045107 0.676828 0
0  56.220577 -41.450001 1.900000  0.000000 0.000000 1.000000  0.041150 0.669814 0
boost_pad
0  57.000000 -40.099998 1.900000  0.000000 0.000000 1.000000  0.045107 0.676828 0
0  56.220577 -40.549999 1.900000  0.000000 0.000000 1.000000  0.041150 0.674490 0
0  56.220577 -41.450001 1.900000  0.000000 0.000000 1.000000  0.041150 0.669814 0
boost_pad
0  56.220577 -41.450001 1.300000  -1.000000 0.000000 0.000000  0.155786 0.672152 0
0  56.220577 -41.450001 1.900000  -1.000000 0.000000 0.000000  0.152740 0.672152 0
0  56.220577 -40.549999 1.900000  -1.000000 0.000000 0.000000  0.152740 0.667476 0
boost_pad
0  57.779423 40.549999 1.300000  0.499999 -0.866026 0.000000  0.117857 0.672152 0
0  57.779423 40.549999 1.900000  0.499996 -0.866027 0.000000  0.114810 0.672152 0
0  57.000000 40.099998 1.900000  0.500000 -0.866025 0.000000  0.114810 0.667476 0
boost_pad
0  57.779423 41.450001 1.300000  1.000000 0.000000 0.000000  0.161205 0.672152 0
0  57.779423 41.450001 1.900000  1.000000 0.000000 0.000000  0.158158 0.672152 0
0  57.779423 40.549999 1.900000  1.000000 0.000000 0.000000  0.158158 0.667476 0
boost_pad
0  56.220577 -40.549999 1.300000  -0.500002 0.866024 0.000000  0.204553 0.672152 0
0  56.220577 -40.549999 1.900000  -0.500003 0.866024 0.000000  0.201506 0.672152 0
0  57.000000 -40.099998 1.900000  -0.500002 0.866024 0.000000  0.201506 0.667476 0
boost_pad
0  57.779423 -40.549999 1.300000  0.000000 0.000000 -1.000000  0.051437 0.674490 0
0  57.779423 -41.450001 1.300000  0.000000 0.000000 -1.000000  0.051437 0.669814 0
0  56.220577 -40.549999 1.300000  -0.000000 0.000000 -1.000000  0.059352 0.674490 0
boost_pad
0  57.779423 -41.450001 1.300000  0.000000 0.000000 -1.000000  0.051437 0.669814 0
0  57.000000 -41.900002 1.300000  0.000000 0.000000 -1.000000  0.055395 0.667476 0
0  56.220577 -40.549999 1.300000  -0.000000 0.000000 -1.000000  0.059352 0.674490 0
boost_pad
0  57.000000 -41.900002 1.300000  0.000000 0.000000 -1.000000  0.055395 0.667476 0
0  56.220577 -41.450001 1.300000  -0.000000 0.000000 -1.000000  0.059352 0.669814 0
0  56.220577 -40.549999 1.300000  -0.000000 0.000000 -1.000000  0.059352 0.674490 0
boost_pad
0  57.000000 40.099998 1.300000  -0.500002 -0.866024 0.000000  0.209972 0.672152 0
0  57.000000 40.099998 1.900000  -0.500003 -0.866024 0.000000  0.206925 0.672152 0
0  56.220577 40.549999 1.900000  -0.500002 -0.866024 0.000000  0.206925 0.667476 0
boost_pad
0  57.000000 41.900002 1.300000  0.000000 0.000000 -1.000000  0.065682 0.676828 0
0  57.779423 41.450001 1.300000  0.000000 0.000000 -1.000000  0.061724 0.674490 0
0  56.220577 40.549999 1.300000  -0.000000 0.000000 -1.000000  0.069640 0.669814 0
boost_pad
0  57.779423 41.450001 1.300000  0.000000 0.000000 -1.000000  0.061724 0.674490 0
0  57.779423 40.549999 1.300000  0.000000 0.000000 -1.000000  0.061724 0.669814 0
0  56.220577 40.549999 1.300000  -0.000000 0.000000 -1.000000  0.069640 0.669814 0
boost_pad
0  57.779423 40.549999 1.300000  0.000000 0.000000 -1.000000  0.061724 0.669814 0
0  57.000000 40.099998 1.300000  0.000000 0.000000 -1.000000  0.065682 0.667476 0
0  56.220577 40.549999 1.300000  -0.000000 0.000000 -1.000000  0.069640 0.669814 0
boost_pad
0  56.220577 40.549999 1.300000  -1.000000 0.000000 0.000000  0.166623 0.672152 0
0  56.220577 40.549999 1.900000  -1.000000 0.000000 0.000000  0.163577 0.672152 0
0  56.220577 41.450001 1.900000  -1.000000 0.000000 0.000000  0.163577 0.667476 0
boost_pad
0  56.220577 41.450001 1.300000  -0.500002 0.866024 0.000000  0.123275 0.672152 0
0  56.220577 41.450001 1.900000  -0.500003 0.866024 0.000000  0.120229 0.672152 0
0  57.000000 41.900002 1.900000  -0.500002 0.866024 0.000000  0.120229 0.667476 0
boost_pad
0  56.220577 40.549999 1.900000  0.000000 0.000000 1.000000  0.072012 0.669814 0
0  57.000000 40.099998 1.900000  0.000000 0.000000 1.000000  0.075969 0.667476 0
0  57.779423 40.549999 1.900000  0.000000 0.000000 1.000000  0.079927 0.669814 0
boost_pad
0  57.779423 40.549999 1.900000  0.000000 0.000000 1.000000  0.079927 0.669814 0
0  57.779423 41.450001 1.900000  -0.000000 0.000000 1.000000  0.079927 0.674490 0
0  57.000000 41.900002 1.900000  0.000000 0.000000 1.000000  0.075969 0.676828 0
boost_pad
0  57.000000 41.900002 1.900000  0.000000 0.000000 1.000000  0.075969 0.676828 0
0  56.220577 41.450001 1.900000  0.000000 0.000000 1.000000  0.072012 0.674490 0
0  57.779423 40.549999 1.900000  0.000000 0.000000 1.000000  0.079927 0.669814 0
end
