version 1
nodes
0 "root" -1
end
skeleton
time 0
0 0 0 0 0 0 0
end
triangles
hubcap
0  1.300000 2.251666 2.400000  0.096637 0.167380 0.981145  0.230648 0.322222 0
0  4.500000 7.794229 0.200000  0.420982 0.729167 0.539527  0.183013 0.500000 0
0  0.000000 9.000000 0.200000  -0.000000 0.841447 0.540340  0.066987 0.433013 0
hubcap
0  7.794229 4.500000 0.200000  0.728715 0.420727 0.540336  0.500000 0.500000 0
0  9.000000 0.000000 -0.800000  0.757153 0.000000 -0.653237  0.528758 0.433013 0
0  7.794229 4.500000 -0.800000  0.655729 0.378582 -0.653219  0.528758 0.500000 0
hubcap
0  -7.794229 -4.500000 -0.800000  -0.655724 -0.378586 -0.653222  0.500000 0.816987 0
0  -9.000000 0.000000 -0.800000  -0.757158 -0.000003 -0.653232  0.433013 0.933013 0
0  -7.794229 4.500000 -0.800000  -0.655728 0.378582 -0.653220  0.316987 1.000000 0
hubcap
0  0.000000 9.000000 0.200000  -0.000000 0.841447 0.540340  0.500000 0.750000 0
0  4.500000 7.794229 -0.800000  0.378581 0.655716 -0.653232  0.528758 0.616026 0
0  0.000000 9.000000 -0.800000  0.000000 0.757171 -0.653216  0.528758 0.750000 0
hubcap
0  -7.794229 4.500000 -0.800000  -0.655728 0.378582 -0.653220  0.316987 1.000000 0
0  -4.500000 7.794229 -0.800000  -0.378581 0.655716 -0.653232  0.183013 1.000000 0
0  0.000000 9.000000 -0.800000  0.000000 0.757171 -0.653216  0.066987 0.933013 0
hubcap
0  -4.500000 7.794229 0.200000  -0.420982 0.729167 0.539527  -0.000000 0.316987 0
0  -1.300000 2.251666 2.400000  -0.096636 0.167379 0.981145  0.177778 0.269352 0
0  0.000000 9.000000 0.200000  -0.000000 0.841447 0.540340  0.066987 0.433013 0
hubcap
0  -1.300000 2.251666 2.400000  -0.096636 0.167379 0.981145  0.177778 0.269352 0
0  1.300000 2.251666 2.400000  0.096637 0.167380 0.981145  0.230648 0.322222 0
0  0.000000 9.000000 0.200000  -0.000000 0.841447 0.540340  0.066987 0.433013 0
hubcap
0  2.600000 0.000000 2.400000  0.193273 0.000000 0.981145  0.302870 0.302870 0
0  7.794229 4.500000 0.200000  0.728715 0.420727 0.540336  0.316987 0.500000 0
0  1.300000 2.251666 2.400000  0.096637 0.167380 0.981145  0.230648 0.322222 0
hubcap
0  7.794229 4.500000 0.200000  0.728715 0.420727 0.540336  0.316987 0.500000 0
0  4.500000 7.794229 0.200000  0.420982 0.729167 0.539527  0.183013 0.500000 0
0  1.300000 2.251666 2.400000  0.096637 0.167380 0.981145  0.230648 0.322222 0
hubcap
0  -9.000000 0.000000 0.200000  -0.841969 0.000003 0.539527  0.528758 0.250000 0
0  -7.794229 -4.500000 -0.800000  -0.655724 -0.378586 -0.653222  0.557515 0.366025 0
0  -7.794229 -4.500000 0.200000  -0.728718 -0.420723 0.540336  0.528758 0.366025 0
hubcap
0  -0.000000 -9.000000 -0.800000  -0.000003 -0.757169 -0.653219  0.433013 0.566987 0
0  -7.794229 -4.500000 -0.800000  -0.655724 -0.378586 -0.653222  0.500000 0.816987 0
0  -7.794229 4.500000 -0.800000  -0.655728 0.378582 -0.653220  0.316987 1.000000 0
hubcap
0  7.794229 4.500000 -0.800000  0.655729 0.378582 -0.653219  -0.000000 0.683013 0
0  9.000000 0.000000 -0.800000  0.757153 0.000000 -0.653237  0.066987 0.566987 0
0  7.794229 -4.500000 -0.800000  0.655735 -0.378589 -0.653209  0.183013 0.500000 0
hubcap
0  -7.794229 -4.500000 0.200000  -0.728718 -0.420723 0.540336  0.528758 0.366025 0
0  -7.794229 -4.500000 -0.800000  -0.655724 -0.378586 -0.653222  0.557515 0.366025 0
0  -4.500000 -7.794229 -0.800000  -0.378577 -0.655714 -0.653237  0.557515 0.433013 0
hubcap
0  7.794229 4.500000 0.200000  0.728715 0.420727 0.540336  0.500000 0.500000 0
0  9.000000 0.000000 0.200000  0.841971 0.000000 0.539522  0.500000 0.433013 0
0  9.000000 0.000000 -0.800000  0.757153 0.000000 -0.653237  0.528758 0.433013 0
hubcap
0  0.000000 9.000000 0.200000  -0.000000 0.841447 0.540340  0.500000 0.750000 0
0  4.500000 7.794229 0.200000  0.420982 0.729167 0.539527  0.500000 0.616026 0
0  4.500000 7.794229 -0.800000  0.378581 0.655716 -0.653232  0.528758 0.616026 0
hubcap
0  -9.000000 0.000000 0.200000  -0.841969 0.000003 0.539527  0.528758 0.250000 0
0  -9.000000 0.000000 -0.800000  -0.757158 -0.000003 -0.653232  0.557515 0.250000 0
0  -7.794229 -4.500000 -0.800000  -0.655724 -0.378586 -0.653222  0.557515 0.366025 0
hubcap
0  7.794229 -4.500000 0.200000  0.728714 -0.420723 0.540340  0.500000 0.366025 0
0  4.500000 -7.794229 0.200000  0.420986 -0.729165 0.539527  0.500000 0.250000 0
0  4.500000 -7.794229 -0.800000  0.378577 -0.655719 -0.653232  0.528758 0.250000 0
hubcap
0  0.000000 9.000000 -0.800000  0.000000 0.757171 -0.653216  0.066987 0.933013 0
0  4.500000 7.794229 -0.800000  0.378581 0.655716 -0.653232  -0.000000 0.816987 0
0  7.794229 4.500000 -0.800000  0.655729 0.378582 -0.653219  -0.000000 0.683013 0
hubcap
0  -7.794229 4.500000 0.200000  -0.728715 0.420727 0.540336  0.528758 0.116025 0
0  -7.794229 4.500000 -0.800000  -0.655728 0.378582 -0.653220  0.557515 0.116025 0
0  -9.000000 0.000000 -0.800000  -0.757158 -0.000003 -0.653232  0.557515 0.250000 0
hubcap
0  0.000000 9.000000 0.200000  -0.000000 0.841447 0.540340  0.500000 0.750000 0
0  -4.500000 7.794229 -0.800000  -0.378581 0.655716 -0.653232  0.528758 0.866026 0
0  -4.500000 7.794229 0.200000  -0.420982 0.729167 0.539527  0.500000 0.866026 0
hubcap
0  7.794229 -4.500000 0.200000  0.728714 -0.420723 0.540340  0.500000 0.366025 0
0  4.500000 -7.794229 -0.800000  0.378577 -0.655719 -0.653232  0.528758 0.250000 0
0  7.794229 -4.500000 -0.800000  0.655735 -0.378589 -0.653209  0.528758 0.366025 0
hubcap
0  7.794229 -4.500000 0.200000  0.728714 -0.420723 0.540340  0.500000 0.366025 0
0  7.794229 -4.500000 -0.800000  0.655735 -0.378589 -0.653209  0.528758 0.366025 0
0  9.000000 0.000000 -0.800000  0.757153 0.000000 -0.653237  0.528758 0.433013 0
hubcap
0  1.300000 -2.251666 2.400000  0.096637 -0.167380 0.981145  0.322222 0.230648 0
0  1.300000 2.251666 2.400000  0.096637 0.167380 0.981145  0.230648 0.322222 0
0  -2.600000 0.000000 2.400000  -0.193274 0.000000 0.981145  0.197130 0.197130 0
hubcap
0  4.500000 7.794229 0.200000  0.420982 0.729167 0.539527  0.500000 0.616026 0
0  7.794229 4.500000 -0.800000  0.655729 0.378582 -0.653219  0.528758 0.500000 0
0  4.500000 7.794229 -0.800000  0.378581 0.655716 -0.653232  0.528758 0.616026 0
hubcap
0  1.300000 2.251666 2.400000  0.096637 0.167380 0.981145  0.230648 0.322222 0
0  -1.300000 2.251666 2.400000  -0.096636 0.167379 0.981145  0.177778 0.269352 0
0  -2.600000 0.000000 2.400000  -0.193274 0.000000 0.981145  0.197130 0.197130 0
hubcap
0  0.000000 9.000000 0.200000  -0.000000 0.841447 0.540340  0.500000 0.750000 0
0  0.000000 9.000000 -0.800000  0.000000 0.757171 -0.653216  0.528758 0.750000 0
0  -4.500000 7.794229 -0.800000  -0.378581 0.655716 -0.653232  0.528758 0.866026 0
hubcap
0  -2.600000 0.000000 2.400000  -0.193274 0.000000 0.981145  0.197130 0.197130 0
0  -1.300000 -2.251666 2.400000  -0.096636 -0.167379 0.981145  0.269352 0.177778 0
0  1.300000 -2.251666 2.400000  0.096637 -0.167380 0.981145  0.322222 0.230648 0
hubcap
0  -7.794229 4.500000 0.200000  -0.728715 0.420727 0.540336  -0.000000 0.183013 0
0  -1.300000 2.251666 2.400000  -0.096636 0.167379 0.981145  0.177778 0.269352 0
0  -4.500000 7.794229 0.200000  -0.420982 0.729167 0.539527  -0.000000 0.316987 0
hubcap
0  -7.794229 4.500000 0.200000  -0.728715 0.420727 0.540336  -0.000000 0.183013 0
0  -2.600000 0.000000 2.400000  -0.193274 0.000000 0.981145  0.197130 0.197130 0
0  -1.300000 2.251666 2.400000  -0.096636 0.167379 0.981145  0.177778 0.269352 0
hubcap
0  1.300000 -2.251666 2.400000  0.096637 -0.167380 0.981145  0.322222 0.230648 0
0  7.794229 -4.500000 0.200000  0.728714 -0.420723 0.540340  0.500000 0.316987 0
0  2.600000 0.000000 2.400000  0.193273 0.000000 0.981145  0.302870 0.302870 0
hubcap
0  7.794229 -4.500000 0.200000  0.728714 -0.420723 0.540340  0.500000 0.316987 0
0  9.000000 0.000000 0.200000  0.841971 0.000000 0.539522  0.433013 0.433013 0
0  2.600000 0.000000 2.400000  0.193273 0.000000 0.981145  0.302870 0.302870 0
hubcap
0  9.000000 0.000000 0.200000  0.841971 0.000000 0.539522  0.433013 0.433013 0
0  7.794229 4.500000 0.200000  0.728715 0.420727 0.540336  0.316987 0.500000 0
0  2.600000 0.000000 2.400000  0.193273 0.000000 0.981145  0.302870 0.302870 0
hubcap
0  -4.500000 7.794229 0.200000  -0.420982 0.729167 0.539527  0.528758 -0.000000 0
0  -7.794229 4.500000 -0.800000  -0.655728 0.378582 -0.653220  0.557515 0.116025 0
0  -7.794229 4.500000 0.200000  -0.728715 0.420727 0.540336  0.528758 0.116025 0
hubcap
0  -0.000000 -9.000000 -0.800000  -0.000003 -0.757169 -0.653219  0.433013 0.566987 0
0  -4.500000 -7.794229 -0.800000  -0.378577 -0.655714 -0.653237  0.500000 0.683013 0
0  -7.794229 -4.500000 -0.800000  -0.655724 -0.378586 -0.653222  0.500000 0.816987 0
hubcap
0  -7.794229 4.500000 -0.800000  -0.655728 0.378582 -0.653220  0.316987 1.000000 0
0  0.000000 9.000000 -0.800000  0.000000 0.757171 -0.653216  0.066987 0.933013 0
0  7.794229 4.500000 -0.800000  0.655729 0.378582 -0.653219  -0.000000 0.683013 0
hubcap
0  4.500000 -7.794229 0.200000  0.420986 -0.729165 0.539527  0.500000 0.250000 0
0  -0.000000 -9.000000 0.200000  0.000002 -0.841449 0.540336  0.500000 0.116025 0
0  -0.000000 -9.000000 -0.800000  -0.000003 -0.757169 -0.653219  0.528758 0.116025 0
hubcap
0  -9.000000 0.000000 0.200000  -0.841969 0.000003 0.539527  0.066987 0.066987 0
0  -2.600000 0.000000 2.400000  -0.193274 0.000000 0.981145  0.197130 0.197130 0
0  -7.794229 4.500000 0.200000  -0.728715 0.420727 0.540336  -0.000000 0.183013 0
hubcap
0  -9.000000 0.000000 0.200000  -0.841969 0.000003 0.539527  0.066987 0.066987 0
0  -7.794229 -4.500000 0.200000  -0.728718 -0.420723 0.540336  0.183013 -0.000000 0
0  -2.600000 0.000000 2.400000  -0.193274 0.000000 0.981145  0.197130 0.197130 0
hubcap
0  -7.794229 -4.500000 0.200000  -0.728718 -0.420723 0.540336  0.183013 -0.000000 0
0  -1.300000 -2.251666 2.400000  -0.096636 -0.167379 0.981145  0.269352 0.177778 0
0  -2.600000 0.000000 2.400000  -0.193274 0.000000 0.981145  0.197130 0.197130 0
hubcap
0  4.500000 -7.794229 0.200000  0.420986 -0.729165 0.539527  0.500000 0.183013 0
0  7.794229 -4.500000 0.200000  0.728714 -0.420723 0.540340  0.500000 0.316987 0
0  1.300000 -2.251666 2.400000  0.096637 -0.167380 0.981145  0.322222 0.230648 0
hubcap
0  -1.300000 -2.251666 2.400000  -0.096636 -0.167379 0.981145  0.269352 0.177778 0
0  -0.000000 -9.000000 0.200000  0.000002 -0.841449 0.540336  0.433013 0.066987 0
0  1.300000 -2.251666 2.400000  0.096637 -0.167380 0.981145  0.322222 0.230648 0
hubcap
0  -0.000000 -9.000000 0.200000  0.000002 -0.841449 0.540336  0.433013 0.066987 0
0  4.500000 -7.794229 0.200000  0.420986 -0.729165 0.539527  0.500000 0.183013 0
0  1.300000 -2.251666 2.400000  0.096637 -0.167380 0.981145  0.322222 0.230648 0
hubcap
0  7.794229 -4.500000 -0.800000  0.655735 -0.378589 -0.653209  0.183013 0.500000 0
0  4.500000 -7.794229 -0.800000  0.378577 -0.655719 -0.653232  0.316987 0.500000 0
0  -0.000000 -9.000000 -0.800000  -0.000003 -0.757169 -0.653219  0.433013 0.566987 0
hubcap
0  7.794229 4.500000 -0.800000  0.655729 0.378582 -0.653219  -0.000000 0.683013 0
0  7.794229 -4.500000 -0.800000  0.655735 -0.378589 -0.653209  0.183013 0.500000 0
0  -7.794229 4.500000 -0.800000  -0.655728 0.378582 -0.653220  0.316987 1.000000 0
hubcap
0  -7.794229 -4.500000 0.200000  -0.728718 -0.420723 0.540336  0.528758 0.366025 0
0  -4.500000 -7.794229 -0.800000  -0.378577 -0.655714 -0.653237  0.557515 0.433013 0
0  -4.500000 -7.794229 0.200000  -0.420986 -0.729168 0.539522  0.528758 0.433013 0
hubcap
0  -4.500000 7.794229 0.200000  -0.420982 0.729167 0.539527  0.528758 -0.000000 0
0  -4.500000 7.794229 -0.800000  -0.378581 0.655716 -0.653232  0.557515 -0.000000 0
0  -7.794229 4.500000 -0.800000  -0.655728 0.378582 -0.653220  0.557515 0.116025 0
hubcap
0  7.794229 -4.500000 0.200000  0.728714 -0.420723 0.540340  0.500000 0.366025 0
0  9.000000 0.000000 -0.800000  0.757153 0.000000 -0.653237  0.528758 0.433013 0
0  9.000000 0.000000 0.200000  0.841971 0.000000 0.539522  0.500000 0.433013 0
hubcap
0  7.794229 -4.500000 -0.800000  0.655735 -0.378589 -0.653209  0.183013 0.500000 0
0  -0.000000 -9.000000 -0.800000  -0.000003 -0.757169 -0.653219  0.433013 0.566987 0
0  -7.794229 4.500000 -0.800000  -0.655728 0.378582 -0.653220  0.316987 1.000000 0
hubcap
0  -7.794229 -4.500000 0.200000  -0.728718 -0.420723 0.540336  0.183013 -0.000000 0
0  -4.500000 -7.794229 0.200000  -0.420986 -0.729168 0.539522  0.316987 -0.000000 0
0  -1.300000 -2.251666 2.400000  -0.096636 -0.167379 0.981145  0.269352 0.177778 0
hubcap
0  -4.500000 -7.794229 0.200000  -0.420986 -0.729168 0.539522  0.316987 -0.000000 0
0  -0.000000 -9.000000 0.200000  0.000002 -0.841449 0.540336  0.433013 0.066987 0
0  -1.300000 -2.251666 2.400000  -0.096636 -0.167379 0.981145  0.269352 0.177778 0
hubcap
0  1.300000 -2.251666 2.400000  0.096637 -0.167380 0.981145  0.322222 0.230648 0
0  2.600000 0.000000 2.400000  0.193273 0.000000 0.981145  0.302870 0.302870 0
0  1.300000 2.251666 2.400000  0.096637 0.167380 0.981145  0.230648 0.322222 0
hubcap
0  4.500000 7.794229 0.200000  0.420982 0.729167 0.539527  0.500000 0.616026 0
0  7.794229 4.500000 0.200000  0.728715 0.420727 0.540336  0.500000 0.500000 0
0  7.794229 4.500000 -0.800000  0.655729 0.378582 -0.653219  0.528758 0.500000 0
hubcap
0  -7.794229 4.500000 0.200000  -0.728715 0.420727 0.540336  0.528758 0.116025 0
0  -9.000000 0.000000 -0.800000  -0.757158 -0.000003 -0.653232  0.557515 0.250000 0
0  -9.000000 0.000000 0.200000  -0.841969 0.000003 0.539527  0.528758 0.250000 0
hubcap
0  -0.000000 -9.000000 0.200000  0.000002 -0.841449 0.540336  0.500000 0.116025 0
0  -4.500000 -7.794229 0.200000  -0.420986 -0.729168 0.539522  0.500000 -0.000000 0
0  -4.500000 -7.794229 -0.800000  -0.378577 -0.655714 -0.653237  0.528758 -0.000000 0
hubcap
0  4.500000 -7.794229 0.200000  0.420986 -0.729165 0.539527  0.500000 0.250000 0
0  -0.000000 -9.000000 -0.800000  -0.000003 -0.757169 -0.653219  0.528758 0.116025 0
0  4.500000 -7.794229 -0.800000  0.378577 -0.655719 -0.653232  0.528758 0.250000 0
hubcap
0  -0.000000 -9.000000 0.200000  0.000002 -0.841449 0.540336  0.500000 0.116025 0
0  -4.500000 -7.794229 -0.800000  -0.378577 -0.655714 -0.653237  0.528758 -0.000000 0
0  -0.000000 -9.000000 -0.800000  -0.000003 -0.757169 -0.653219  0.528758 0.116025 0
end
