version 1
nodes
0 "root" -1
end
skeleton
time 0
0 0 0 0 0 0 0
end
triangles
start_lights
0  14.000000 14.000000 4.000000  0.577339 0.577339 0.577373  0.669604 0.801762 0
0  14.000000 -14.000000 0.000000  0.577349 -0.577351 -0.577351  0.704846 0.555066 0
0  14.000000 14.000000 0.000000  0.577339 0.577339 -0.577372  0.704846 0.801762 0
start_lights
0  14.000000 14.000000 0.000000  0.577339 0.577339 -0.577372  0.246696 0.801762 0
0  14.000000 -14.000000 0.000000  0.577349 -0.577351 -0.577351  -0.000000 0.801762 0
0  -14.000000 -14.000000 0.000000  -0.577339 -0.577339 -0.577373  0.000000 0.555066 0
start_lights
0  14.000000 14.000000 4.000000  0.577339 0.577339 0.577373  0.669604 0.801762 0
0  14.000000 -14.000000 4.000000  0.577351 -0.577349 0.577351  0.669604 0.555066 0
0  14.000000 -14.000000 0.000000  0.577349 -0.577351 -0.577351  0.704846 0.555066 0
start_lights
0  14.000000 14.000000 4.000000  0.577339 0.577339 0.577373  0.493392 0.555066 0
0  -14.000000 14.000000 4.000000  -0.577349 0.577351 0.577351  0.493392 0.801762 0
0  -14.000000 -14.000000 4.000000  -0.577339 -0.577339 0.577372  0.246696 0.801762 0
start_lights
0  14.000000 14.000000 4.000000  0.577339 0.577339 0.577373  0.493392 0.555066 0
0  -14.000000 -14.000000 4.000000  -0.577339 -0.577339 0.577372  0.246696 0.801762 0
0  14.000000 -14.000000 4.000000  0.577351 -0.577349 0.577351  0.246696 0.555066 0
start_lights
0  14.000000 14.000000 4.000000  0.577339 0.577339 0.577373  0.704846 0.555066 0
0  14.000000 14.000000 0.000000  0.577339 0.577339 -0.577372  0.740088 0.555066 0
0  -14.000000 14.000000 0.000000  -0.577351 0.577349 -0.577351  0.740088 0.801762 0
start_lights
0  14.000000 14.000000 4.000000  0.577339 0.577339 0.577373  0.704846 0.555066 0
0  -14.000000 14.000000 0.000000  -0.577351 0.577349 -0.577351  0.740088 0.801762 0
0  -14.000000 14.000000 4.000000  -0.577349 0.577351 0.577351  0.704846 0.801762 0
start_lights
0  -14.000000 14.000000 4.000000  -0.577349 0.577351 0.577351  0.740088 0.555066 0
0  -14.000000 14.000000 0.000000  -0.577351 0.577349 -0.577351  0.775330 0.555066 0
0  -14.000000 -14.000000 0.000000  -0.577339 -0.577339 -0.577373  0.775330 0.801762 0
start_lights
0  14.000000 14.000000 0.000000  0.577339 0.577339 -0.577372  0.246696 0.801762 0
0  -14.000000 -14.000000 0.000000  -0.577339 -0.577339 -0.577373  0.000000 0.555066 0
0  -14.000000 14.000000 0.000000  -0.577351 0.577349 -0.577351  0.246696 0.555066 0
start_lights
0  14.000000 -14.000000 4.000000  0.577351 -0.577349 0.577351  0.951542 1.000000 0
0  -14.000000 -14.000000 4.000000  -0.577339 -0.577339 0.577372  0.951542 0.753304 0
0  -14.000000 -14.000000 0.000000  -0.577339 -0.577339 -0.577373  0.986784 0.753304 0
start_lights
0  -14.000000 14.000000 4.000000  -0.577349 0.577351 0.577351  0.740088 0.555066 0
0  -14.000000 -14.000000 0.000000  -0.577339 -0.577339 -0.577373  0.775330 0.801762 0
0  -14.000000 -14.000000 4.000000  -0.577339 -0.577339 0.577372  0.740088 0.801762 0
start_lights
0  14.000000 -14.000000 4.000000  0.577351 -0.577349 0.577351  0.951542 1.000000 0
0  -14.000000 -14.000000 0.000000  -0.577339 -0.577339 -0.577373  0.986784 0.753304 0
0  14.000000 -14.000000 0.000000  0.577349 -0.577351 -0.577351  0.986784 1.000000 0
start_lights
0  3.000000 3.000000 90.000000  0.577343 0.577343 0.577366  0.546256 0.766520 0
0  -3.000000 -3.000000 90.000000  -0.577339 -0.577339 0.577372  0.493392 0.819383 0
0  3.000000 -3.000000 90.000000  0.577347 -0.577357 0.577347  0.493392 0.766520 0
start_lights
0  3.000000 -3.000000 90.000000  0.577347 -0.577357 0.577347  0.775330 0.000000 0
0  -3.000000 -3.000000 90.000000  -0.577339 -0.577339 0.577372  0.828194 0.000000 0
0  -3.000000 -3.000000 4.500000  -0.577343 -0.577343 -0.577366  0.828194 0.753304 0
start_lights
0  3.000000 3.000000 90.000000  0.577343 0.577343 0.577366  0.546256 0.766520 0
0  -3.000000 3.000000 90.000000  -0.577357 0.577347 0.577347  0.546256 0.819383 0
0  -3.000000 -3.000000 90.000000  -0.577339 -0.577339 0.577372  0.493392 0.819383 0
start_lights
0  3.000000 3.000000 90.000000  0.577343 0.577343 0.577366  0.881057 0.000000 0
0  3.000000 3.000000 4.500000  0.577339 0.577339 -0.577372  0.881057 0.753304 0
0  -3.000000 3.000000 4.500000  -0.577347 0.577357 -0.577347  0.828194 0.753304 0
start_lights
0  3.000000 3.000000 90.000000  0.577343 0.577343 0.577366  0.881057 0.000000 0
0  -3.000000 3.000000 4.500000  -0.577347 0.577357 -0.577347  0.828194 0.753304 0
0  -3.000000 3.000000 90.000000  -0.577357 0.577347 0.577347  0.828194 0.000000 0
start_lights
0  3.000000 3.000000 90.000000  0.577343 0.577343 0.577366  0.881057 0.000000 0
0  3.000000 -3.000000 90.000000  0.577347 -0.577357 0.577347  0.933921 0.000000 0
0  3.000000 -3.000000 4.500000  0.577357 -0.577347 -0.577347  0.933921 0.753304 0
start_lights
0  3.000000 3.000000 90.000000  0.577343 0.577343 0.577366  0.881057 0.000000 0
0  3.000000 -3.000000 4.500000  0.577357 -0.577347 -0.577347  0.933921 0.753304 0
0  3.000000 3.000000 4.500000  0.577339 0.577339 -0.577372  0.881057 0.753304 0
start_lights
0  3.000000 3.000000 4.500000  0.577339 0.577339 -0.577372  0.599119 0.819383 0
0  3.000000 -3.000000 4.500000  0.577357 -0.577347 -0.577347  0.546256 0.819383 0
0  -3.000000 -3.000000 4.500000  -0.577343 -0.577343 -0.577366  0.546256 0.766520 0
start_lights
0  3.000000 -3.000000 90.000000  0.577347 -0.577357 0.577347  0.775330 0.000000 0
0  -3.000000 -3.000000 4.500000  -0.577343 -0.577343 -0.577366  0.828194 0.753304 0
0  3.000000 -3.000000 4.500000  0.577357 -0.577347 -0.577347  0.775330 0.753304 0
start_lights
0  -3.000000 3.000000 90.000000  -0.577357 0.577347 0.577347  0.986784 0.000000 0
0  -3.000000 3.000000 4.500000  -0.577347 0.577357 -0.577347  0.986784 0.753304 0
0  -3.000000 -3.000000 4.500000  -0.577343 -0.577343 -0.577366  0.933921 0.753304 0
start_lights
0  3.000000 3.000000 4.500000  0.577339 0.577339 -0.577372  0.599119 0.819383 0
0  -3.000000 -3.000000 4.500000  -0.577343 -0.577343 -0.577366  0.546256 0.766520 0
0  -3.000000 3.000000 4.500000  -0.577347 0.577357 -0.577347  0.599119 0.766520 0
start_lights
0  -3.000000 3.000000 90.000000  -0.577357 0.577347 0.577347  0.986784 0.000000 0
0  -3.000000 -3.000000 4.500000  -0.577343 -0.577343 -0.577366  0.933921 0.753304 0
0  -3.000000 -3.000000 90.000000  -0.577339 -0.577339 0.577372  0.933921 0.000000 0
start_lights
0  -7.000000 -12.000000 90.500000  -0.577331 -0.577332 -0.577388  0.000000 0.555066 0
0  -7.000000 12.000000 153.500000  -0.577330 0.577360 0.577360  0.211454 0.000000 0
0  -7.000000 12.000000 90.500000  -0.577360 0.577331 -0.577360  0.211454 0.555066 0
start_lights
0  -7.000000 -12.000000 90.500000  -0.577331 -0.577332 -0.577388  0.669603 0.555066 0
0  -7.000000 12.000000 90.500000  -0.577360 0.577331 -0.577360  0.669603 0.766520 0
0  13.000000 12.000000 90.500000  0.577341 0.577341 -0.577368  0.493392 0.766520 0
start_lights
0  13.000000 -12.000000 90.500000  0.577330 -0.577360 -0.577360  0.422907 0.555066 0
0  13.000000 12.000000 153.500000  0.577331 0.577332 0.577388  0.211454 0.000000 0
0  13.000000 -12.000000 153.500000  0.577360 -0.577331 0.577360  0.422907 0.000000 0
start_lights
0  -7.000000 -12.000000 90.500000  -0.577331 -0.577332 -0.577388  0.599119 0.555066 0
0  13.000000 -12.000000 90.500000  0.577330 -0.577360 -0.577360  0.422907 0.555066 0
0  13.000000 -12.000000 153.500000  0.577360 -0.577331 0.577360  0.422907 0.000000 0
start_lights
0  -7.000000 -12.000000 90.500000  -0.577331 -0.577332 -0.577388  0.599119 0.555066 0
0  13.000000 -12.000000 153.500000  0.577360 -0.577331 0.577360  0.422907 0.000000 0
0  -7.000000 -12.000000 153.500000  -0.577341 -0.577341 0.577368  0.599119 0.000000 0
start_lights
0  -7.000000 -12.000000 153.500000  -0.577341 -0.577341 0.577368  0.775330 0.753304 0
0  13.000000 -12.000000 153.500000  0.577360 -0.577331 0.577360  0.951542 0.753304 0
0  13.000000 12.000000 153.500000  0.577331 0.577332 0.577388  0.951542 0.964758 0
start_lights
0  -7.000000 -12.000000 90.500000  -0.577331 -0.577332 -0.577388  0.000000 0.555066 0
0  -7.000000 -12.000000 153.500000  -0.577341 -0.577341 0.577368  0.000000 0.000000 0
0  -7.000000 12.000000 153.500000  -0.577330 0.577360 0.577360  0.211454 0.000000 0
start_lights
0  13.000000 -12.000000 90.500000  0.577330 -0.577360 -0.577360  0.422907 0.555066 0
0  13.000000 12.000000 90.500000  0.577341 0.577341 -0.577368  0.211454 0.555066 0
0  13.000000 12.000000 153.500000  0.577331 0.577332 0.577388  0.211454 0.000000 0
start_lights
0  -7.000000 -12.000000 90.500000  -0.577331 -0.577332 -0.577388  0.669603 0.555066 0
0  13.000000 12.000000 90.500000  0.577341 0.577341 -0.577368  0.493392 0.766520 0
0  13.000000 -12.000000 90.500000  0.577330 -0.577360 -0.577360  0.493392 0.555066 0
start_lights
0  -7.000000 12.000000 90.500000  -0.577360 0.577331 -0.577360  0.599119 0.555066 0
0  -7.000000 12.000000 153.500000  -0.577330 0.577360 0.577360  0.599119 0.000000 0
0  13.000000 12.000000 153.500000  0.577331 0.577332 0.577388  0.775330 0.000000 0
start_lights
0  -7.000000 -12.000000 153.500000  -0.577341 -0.577341 0.577368  0.775330 0.753304 0
0  13.000000 12.000000 153.500000  0.577331 0.577332 0.577388  0.951542 0.964758 0
0  -7.000000 12.000000 153.500000  -0.577330 0.577360 0.577360  0.775330 0.964758 0
start_lights
0  -7.000000 12.000000 90.500000  -0.577360 0.577331 -0.577360  0.599119 0.555066 0
0  13.000000 12.000000 153.500000  0.577331 0.577332 0.577388  0.775330 0.000000 0
0  13.000000 12.000000 90.500000  0.577341 0.577341 -0.577368  0.775330 0.555066 0
end
