version 1
nodes
0 "root" -1
end
skeleton
time 0
0 0 0 0 0 0 0
end
triangles
kart_racer
0  -62.000000 -35.000000 2.000000  -0.577330 -0.577360 -0.577360  0.539267 1.000000 0
0  -62.000000 35.000000 25.000000  -0.577330 0.577360 0.577360  0.418848 0.633508 0
0  -62.000000 35.000000 2.000000  -0.577356 0.577345 -0.577350  0.539267 0.633508 0
kart_racer
0  -62.000000 35.000000 2.000000  -0.577356 0.577345 -0.577350  0.853403 0.633508 0
0  59.000000 35.000000 25.000000  0.577356 0.577345 0.577350  0.732984 -0.000000 0
0  59.000000 35.000000 2.000000  0.577330 0.577360 -0.577360  0.853403 0.000000 0
kart_racer
0  59.000000 35.000000 2.000000  0.577330 0.577360 -0.577360  0.659686 1.000000 0
0  59.000000 -35.000000 25.000000  0.577330 -0.577360 0.577360  0.539267 0.633508 0
0  59.000000 -35.000000 2.000000  0.577356 -0.577345 -0.577350  0.659686 0.633508 0
kart_racer
0  59.000000 -35.000000 2.000000  0.577356 -0.577345 -0.577350  0.973822 0.633508 0
0  -62.000000 -35.000000 25.000000  -0.577356 -0.577345 0.577350  0.853403 -0.000000 0
0  -62.000000 -35.000000 2.000000  -0.577330 -0.577360 -0.577360  0.973822 -0.000000 0
kart_racer
0  -62.000000 35.000000 2.000000  -0.577356 0.577345 -0.577350  0.366492 0.000000 0
0  59.000000 -35.000000 2.000000  0.577356 -0.577345 -0.577350  -0.000000 0.633508 0
0  -62.000000 -35.000000 2.000000  -0.577330 -0.577360 -0.577360  0.000000 0.000000 0
kart_racer
0  59.000000 35.000000 25.000000  0.577356 0.577345 0.577350  0.732984 0.000000 0
0  -62.000000 -35.000000 25.000000  -0.577356 -0.577345 0.577350  0.366492 0.633508 0
0  59.000000 -35.000000 25.000000  0.577330 -0.577360 0.577360  0.366492 0.000000 0
kart_racer
0  -60.000000 -26.000000 25.000000  -0.577332 -0.577359 -0.577359  0.738220 0.905759 0
0  -60.000000 26.000000 40.000000  -0.577332 0.577359 0.577359  0.659686 0.633508 0
0  -60.000000 26.000000 25.000000  -0.577353 0.577323 -0.577374  0.738220 0.633508 0
kart_racer
0  -60.000000 26.000000 25.000000  -0.577353 0.577323 -0.577374  0.895288 0.842932 0
0  -20.000000 26.000000 40.000000  0.577353 0.577323 0.577374  0.816754 0.633508 0
0  -20.000000 26.000000 25.000000  0.577332 0.577359 -0.577359  0.895288 0.633508 0
kart_racer
0  -20.000000 26.000000 25.000000  0.577332 0.577359 -0.577359  0.816754 0.905759 0
0  -20.000000 -26.000000 40.000000  0.577332 -0.577359 0.577359  0.738220 0.633508 0
0  -20.000000 -26.000000 25.000000  0.577353 -0.577323 -0.577374  0.816754 0.633508 0
kart_racer
0  -20.000000 -26.000000 25.000000  0.577353 -0.577323 -0.577374  0.973822 0.842932 0
0  -60.000000 -26.000000 40.000000  -0.577353 -0.577323 0.577374  0.895288 0.633508 0
0  -60.000000 -26.000000 25.000000  -0.577332 -0.577359 -0.577359  0.973822 0.633508 0
kart_racer
0  -60.000000 26.000000 25.000000  -0.577353 0.577323 -0.577374  0.209424 0.905759 0
0  -20.000000 -26.000000 25.000000  0.577353 -0.577323 -0.577374  0.000000 0.633508 0
0  -60.000000 -26.000000 25.000000  -0.577332 -0.577359 -0.577359  0.209424 0.633508 0
kart_racer
0  -20.000000 26.000000 40.000000  0.577353 0.577323 0.577374  0.418848 0.905759 0
0  -60.000000 -26.000000 40.000000  -0.577353 -0.577323 0.577374  0.209424 0.633508 0
0  -20.000000 -26.000000 40.000000  0.577332 -0.577359 0.577359  0.418848 0.633508 0
kart_racer
0  -62.000000 -35.000000 2.000000  -0.577330 -0.577360 -0.577360  0.539267 1.000000 0
0  -62.000000 -35.000000 25.000000  -0.577356 -0.577345 0.577350  0.418848 1.000000 0
0  -62.000000 35.000000 25.000000  -0.577330 0.577360 0.577360  0.418848 0.633508 0
kart_racer
0  -62.000000 35.000000 2.000000  -0.577356 0.577345 -0.577350  0.853403 0.633508 0
0  -62.000000 35.000000 25.000000  -0.577330 0.577360 0.577360  0.732984 0.633508 0
0  59.000000 35.000000 25.000000  0.577356 0.577345 0.577350  0.732984 -0.000000 0
kart_racer
0  59.000000 35.000000 2.000000  0.577330 0.577360 -0.577360  0.659686 1.000000 0
0  59.000000 35.000000 25.000000  0.577356 0.577345 0.577350  0.539267 1.000000 0
0  59.000000 -35.000000 25.000000  0.577330 -0.577360 0.577360  0.539267 0.633508 0
kart_racer
0  59.000000 -35.000000 2.000000  0.577356 -0.577345 -0.577350  0.973822 0.633508 0
0  59.000000 -35.000000 25.000000  0.577330 -0.577360 0.577360  0.853403 0.633508 0
0  -62.000000 -35.000000 25.000000  -0.577356 -0.577345 0.577350  0.853403 -0.000000 0
kart_racer
0  -62.000000 35.000000 2.000000  -0.577356 0.577345 -0.577350  0.366492 0.000000 0
0  59.000000 35.000000 2.000000  0.577330 0.577360 -0.577360  0.366492 0.633508 0
0  59.000000 -35.000000 2.000000  0.577356 -0.577345 -0.577350  -0.000000 0.633508 0
kart_racer
0  59.000000 35.000000 25.000000  0.577356 0.577345 0.577350  0.732984 0.000000 0
0  -62.000000 35.000000 25.000000  -0.577330 0.577360 0.577360  0.732984 0.633508 0
0  -62.000000 -35.000000 25.000000  -0.577356 -0.577345 0.577350  0.366492 0.633508 0
kart_racer
0  -60.000000 -26.000000 25.000000  -0.577332 -0.577359 -0.577359  0.738220 0.905759 0
0  -60.000000 -26.000000 40.000000  -0.577353 -0.577323 0.577374  0.659686 0.905759 0
0  -60.000000 26.000000 40.000000  -0.577332 0.577359 0.577359  0.659686 0.633508 0
kart_racer
0  -60.000000 26.000000 25.000000  -0.577353 0.577323 -0.577374  0.895288 0.842932 0
0  -60.000000 26.000000 40.000000  -0.577332 0.577359 0.577359  0.816754 0.842932 0
0  -20.000000 26.000000 40.000000  0.577353 0.577323 0.577374  0.816754 0.633508 0
kart_racer
0  -20.000000 26.000000 25.000000  0.577332 0.577359 -0.577359  0.816754 0.905759 0
0  -20.000000 26.000000 40.000000  0.577353 0.577323 0.577374  0.738220 0.905759 0
0  -20.000000 -26.000000 40.000000  0.577332 -0.577359 0.577359  0.738220 0.633508 0
kart_racer
0  -20.000000 -26.000000 25.000000  0.577353 -0.577323 -0.577374  0.973822 0.842932 0
0  -20.000000 -26.000000 40.000000  0.577332 -0.577359 0.577359  0.895288 0.842932 0
0  -60.000000 -26.000000 40.000000  -0.577353 -0.577323 0.577374  0.895288 0.633508 0
kart_racer
0  -60.000000 26.000000 25.000000  -0.577353 0.577323 -0.577374  0.209424 0.905759 0
0  -20.000000 26.000000 25.000000  0.577332 0.577359 -0.577359  0.000000 0.905759 0
0  -20.000000 -26.000000 25.000000  0.577353 -0.577323 -0.577374  0.000000 0.633508 0
kart_racer
0  -20.000000 26.000000 40.000000  0.577353 0.577323 0.577374  0.418848 0.905759 0
0  -60.000000 26.000000 40.000000  -0.577332 0.577359 0.577359  0.209424 0.905759 0
0  -60.000000 -26.000000 40.000000  -0.577353 -0.577323 0.577374  0.209424 0.633508 0
end
