version 1
nodes
0 "root" -1
end
skeleton
time 0
0 0 0 0 0 0 0
end
triangles
ramp_large
0  96.000000 80.000000 0.000000  0.577341 0.577341 -0.577368  0.811388 0.486833 0
0  -96.000000 80.000000 0.000000  -0.831663 0.538630 -0.134960  0.811388 -0.000000 0
0  96.000000 80.000000 64.000000  0.483482 0.562281 0.670884  0.973666 0.486833 0
ramp_large
0  96.000000 80.000000 64.000000  0.483482 0.562281 0.670884  0.559644 0.892527 0
0  96.000000 -80.000000 0.000000  0.577331 -0.577360 -0.577360  0.721922 0.486833 0
0  96.000000 80.000000 0.000000  0.577341 0.577341 -0.577368  0.721922 0.892527 0
ramp_large
0  96.000000 80.000000 0.000000  0.577341 0.577341 -0.577368  0.811388 0.486833 0
0  -96.000000 -80.000000 0.000000  -0.831671 -0.538613 -0.134978  0.405694 0.000000 0
0  -96.000000 80.000000 0.000000  -0.831663 0.538630 -0.134960  0.811388 0.000000 0
ramp_large
0  96.000000 80.000000 64.000000  0.483482 0.562281 0.670884  0.405694 0.000000 0
0  -96.000000 80.000000 0.000000  -0.831663 0.538630 -0.134960  0.405694 0.513167 0
0  -96.000000 -80.000000 0.000000  -0.831671 -0.538613 -0.134978  0.000000 0.513167 0
ramp_large
0  96.000000 80.000000 64.000000  0.483482 0.562281 0.670884  0.559644 0.892527 0
0  96.000000 -80.000000 64.000000  0.483525 -0.562279 0.670855  0.559644 0.486833 0
0  96.000000 -80.000000 0.000000  0.577331 -0.577360 -0.577360  0.721922 0.486833 0
ramp_large
0  96.000000 80.000000 0.000000  0.577341 0.577341 -0.577368  0.811388 0.486833 0
0  96.000000 -80.000000 0.000000  0.577331 -0.577360 -0.577360  0.405694 0.486833 0
0  -96.000000 -80.000000 0.000000  -0.831671 -0.538613 -0.134978  0.405694 0.000000 0
ramp_large
0  -96.000000 -80.000000 0.000000  -0.831671 -0.538613 -0.134978  0.559644 1.000000 0
0  96.000000 -80.000000 0.000000  0.577331 -0.577360 -0.577360  0.405694 0.538150 0
0  96.000000 -80.000000 64.000000  0.483525 -0.562279 0.670855  0.559644 0.486833 0
ramp_large
0  96.000000 80.000000 64.000000  0.483482 0.562281 0.670884  0.405694 0.000000 0
0  -96.000000 -80.000000 0.000000  -0.831671 -0.538613 -0.134978  0.000000 0.513167 0
0  96.000000 -80.000000 64.000000  0.483525 -0.562279 0.670855  0.000000 0.000000 0
end
